<?xml version="1.0" encoding="utf-8" standalone="no"?>
<!DOCTYPE svg PUBLIC "-//W3C//DTD SVG 1.1//EN"
  "http://www.w3.org/Graphics/SVG/1.1/DTD/svg11.dtd">
<svg xmlns:xlink="http://www.w3.org/1999/xlink" width="712.184218pt" height="422.941088pt" viewBox="0 0 712.184218 422.941088" xmlns="http://www.w3.org/2000/svg" version="1.1">
 <metadata>
  <rdf:RDF xmlns:dc="http://purl.org/dc/elements/1.1/" xmlns:cc="http://creativecommons.org/ns#" xmlns:rdf="http://www.w3.org/1999/02/22-rdf-syntax-ns#">
   <cc:Work>
    <dc:type rdf:resource="http://purl.org/dc/dcmitype/StillImage"/>
    <dc:date>2024-06-02T21:58:57.690408</dc:date>
    <dc:format>image/svg+xml</dc:format>
    <dc:creator>
     <cc:Agent>
      <dc:title>Matplotlib v3.8.4, https://matplotlib.org/</dc:title>
     </cc:Agent>
    </dc:creator>
   </cc:Work>
  </rdf:RDF>
 </metadata>
 <defs>
  <style type="text/css">*{stroke-linejoin: round; stroke-linecap: butt}</style>
 </defs>
 <g id="figure_1">
  <g id="patch_1">
   <path d="M 0 422.941088 
L 712.184218 422.941088 
L 712.184218 0 
L 0 0 
z
" style="fill: #ffffff"/>
  </g>
  <g id="axes_1">
   <g id="patch_2">
    <path d="M 145.634448 239.87852 
L 704.984218 239.87852 
L 704.984218 22.72875 
L 145.634448 22.72875 
z
" style="fill: #ffffff"/>
   </g>
   <g id="patch_3">
    <path d="M 152.62632 239.87852 
L 166.610065 239.87852 
L 166.610065 33.069215 
L 152.62632 33.069215 
z
" clip-path="url(#p5af45703b6)" style="fill: #87ceeb"/>
   </g>
   <g id="patch_4">
    <path d="M 180.593809 239.87852 
L 194.577553 239.87852 
L 194.577553 48.388423 
L 180.593809 48.388423 
z
" clip-path="url(#p5af45703b6)" style="fill: #87ceeb"/>
   </g>
   <g id="patch_5">
    <path d="M 208.561297 239.87852 
L 222.545042 239.87852 
L 222.545042 71.367235 
L 208.561297 71.367235 
z
" clip-path="url(#p5af45703b6)" style="fill: #87ceeb"/>
   </g>
   <g id="patch_6">
    <path d="M 236.528786 239.87852 
L 250.51253 239.87852 
L 250.51253 124.984462 
L 236.528786 124.984462 
z
" clip-path="url(#p5af45703b6)" style="fill: #87ceeb"/>
   </g>
   <g id="patch_7">
    <path d="M 264.496274 239.87852 
L 278.480019 239.87852 
L 278.480019 140.30367 
L 264.496274 140.30367 
z
" clip-path="url(#p5af45703b6)" style="fill: #87ceeb"/>
   </g>
   <g id="patch_8">
    <path d="M 292.463763 239.87852 
L 306.447507 239.87852 
L 306.447507 140.30367 
L 292.463763 140.30367 
z
" clip-path="url(#p5af45703b6)" style="fill: #87ceeb"/>
   </g>
   <g id="patch_9">
    <path d="M 320.431251 239.87852 
L 334.414996 239.87852 
L 334.414996 140.30367 
L 320.431251 140.30367 
z
" clip-path="url(#p5af45703b6)" style="fill: #87ceeb"/>
   </g>
   <g id="patch_10">
    <path d="M 348.39874 239.87852 
L 362.382484 239.87852 
L 362.382484 147.963274 
L 348.39874 147.963274 
z
" clip-path="url(#p5af45703b6)" style="fill: #87ceeb"/>
   </g>
   <g id="patch_11">
    <path d="M 376.366228 239.87852 
L 390.349973 239.87852 
L 390.349973 147.963274 
L 376.366228 147.963274 
z
" clip-path="url(#p5af45703b6)" style="fill: #87ceeb"/>
   </g>
   <g id="patch_12">
    <path d="M 404.333717 239.87852 
L 418.317461 239.87852 
L 418.317461 155.622877 
L 404.333717 155.622877 
z
" clip-path="url(#p5af45703b6)" style="fill: #87ceeb"/>
   </g>
   <g id="patch_13">
    <path d="M 432.301205 239.87852 
L 446.28495 239.87852 
L 446.28495 163.282481 
L 432.301205 163.282481 
z
" clip-path="url(#p5af45703b6)" style="fill: #87ceeb"/>
   </g>
   <g id="patch_14">
    <path d="M 460.268694 239.87852 
L 474.252438 239.87852 
L 474.252438 163.282481 
L 460.268694 163.282481 
z
" clip-path="url(#p5af45703b6)" style="fill: #87ceeb"/>
   </g>
   <g id="patch_15">
    <path d="M 488.236183 239.87852 
L 502.219927 239.87852 
L 502.219927 170.942085 
L 488.236183 170.942085 
z
" clip-path="url(#p5af45703b6)" style="fill: #87ceeb"/>
   </g>
   <g id="patch_16">
    <path d="M 516.203671 239.87852 
L 530.187415 239.87852 
L 530.187415 170.942085 
L 516.203671 170.942085 
z
" clip-path="url(#p5af45703b6)" style="fill: #87ceeb"/>
   </g>
   <g id="patch_17">
    <path d="M 544.17116 239.87852 
L 558.154904 239.87852 
L 558.154904 170.942085 
L 544.17116 170.942085 
z
" clip-path="url(#p5af45703b6)" style="fill: #87ceeb"/>
   </g>
   <g id="patch_18">
    <path d="M 572.138648 239.87852 
L 586.122392 239.87852 
L 586.122392 178.601689 
L 572.138648 178.601689 
z
" clip-path="url(#p5af45703b6)" style="fill: #87ceeb"/>
   </g>
   <g id="patch_19">
    <path d="M 600.106137 239.87852 
L 614.089881 239.87852 
L 614.089881 186.261293 
L 600.106137 186.261293 
z
" clip-path="url(#p5af45703b6)" style="fill: #87ceeb"/>
   </g>
   <g id="patch_20">
    <path d="M 628.073625 239.87852 
L 642.057369 239.87852 
L 642.057369 186.261293 
L 628.073625 186.261293 
z
" clip-path="url(#p5af45703b6)" style="fill: #87ceeb"/>
   </g>
   <g id="patch_21">
    <path d="M 656.041114 239.87852 
L 670.024858 239.87852 
L 670.024858 186.261293 
L 656.041114 186.261293 
z
" clip-path="url(#p5af45703b6)" style="fill: #87ceeb"/>
   </g>
   <g id="patch_22">
    <path d="M 684.008602 239.87852 
L 697.992346 239.87852 
L 697.992346 193.920897 
L 684.008602 193.920897 
z
" clip-path="url(#p5af45703b6)" style="fill: #87ceeb"/>
   </g>
   <g id="matplotlib.axis_1">
    <g id="xtick_1">
     <g id="line2d_1">
      <defs>
       <path id="mb9850fba7d" d="M 0 0 
L 0 3.5 
" style="stroke: #000000; stroke-width: 0.8"/>
      </defs>
      <g>
       <use xlink:href="#mb9850fba7d" x="159.618193" y="239.87852" style="stroke: #000000; stroke-width: 0.8"/>
      </g>
     </g>
     <g id="text_1">
      <!-- 助手, 幫手, 老師, 導師, 教練, 夥伴, 朋友  -->
      <g transform="translate(13.937844 397.235055) rotate(-45) scale(0.12 -0.12)">
       <defs>
        <path id="NotoSansTC-Thin-52a9" d="M 2957 3795 
L 5811 3795 
L 5811 3610 
L 2957 3610 
L 2957 3795 
z
M 5709 3795 
L 5894 3795 
Q 5894 3795 5894 3766 
Q 5894 3738 5894 3706 
Q 5894 3674 5894 3654 
Q 5869 2618 5840 1907 
Q 5811 1197 5772 755 
Q 5734 314 5676 77 
Q 5619 -160 5542 -256 
Q 5472 -346 5379 -381 
Q 5286 -416 5152 -416 
Q 5011 -422 4764 -416 
Q 4518 -410 4256 -390 
Q 4250 -339 4237 -288 
Q 4224 -237 4192 -198 
Q 4506 -224 4765 -227 
Q 5024 -230 5120 -230 
Q 5210 -237 5267 -221 
Q 5325 -205 5370 -147 
Q 5440 -70 5491 163 
Q 5542 397 5580 845 
Q 5619 1293 5651 2003 
Q 5683 2714 5709 3744 
L 5709 3795 
z
M 4237 5318 
L 4422 5318 
Q 4422 4646 4403 3968 
Q 4384 3290 4297 2643 
Q 4211 1997 4016 1414 
Q 3821 832 3469 352 
Q 3117 -128 2566 -467 
Q 2541 -435 2489 -400 
Q 2438 -365 2400 -339 
Q 2950 -19 3296 451 
Q 3642 922 3837 1494 
Q 4032 2067 4115 2704 
Q 4198 3341 4217 4006 
Q 4237 4672 4237 5318 
z
M 755 4960 
L 2701 4960 
L 2701 800 
L 2509 800 
L 2509 4774 
L 941 4774 
L 941 390 
L 755 390 
L 755 4960 
z
M 282 371 
Q 627 448 1088 547 
Q 1549 646 2073 761 
Q 2598 877 3123 992 
L 3136 813 
Q 2630 698 2121 582 
Q 1613 467 1152 364 
Q 691 262 326 179 
L 282 371 
z
M 851 3539 
L 2573 3539 
L 2573 3347 
L 851 3347 
L 851 3539 
z
M 851 2131 
L 2573 2131 
L 2573 1946 
L 851 1946 
L 851 2131 
z
" transform="scale(0.015625)"/>
        <path id="NotoSansTC-Thin-624b" d="M 5203 5286 
L 5357 5139 
Q 4986 5011 4458 4908 
Q 3930 4806 3318 4732 
Q 2707 4659 2080 4611 
Q 1453 4563 877 4538 
Q 870 4576 857 4624 
Q 845 4672 832 4704 
Q 1395 4736 2019 4784 
Q 2643 4832 3244 4902 
Q 3846 4973 4355 5069 
Q 4864 5165 5203 5286 
z
M 787 3488 
L 5702 3488 
L 5702 3302 
L 787 3302 
L 787 3488 
z
M 371 1978 
L 6048 1978 
L 6048 1786 
L 371 1786 
L 371 1978 
z
M 3110 4826 
L 3302 4826 
L 3302 -26 
Q 3302 -198 3235 -272 
Q 3168 -346 3040 -378 
Q 2906 -403 2611 -409 
Q 2317 -416 1792 -410 
Q 1786 -384 1770 -349 
Q 1754 -314 1738 -278 
Q 1722 -243 1702 -218 
Q 2003 -224 2252 -224 
Q 2502 -224 2675 -221 
Q 2848 -218 2918 -218 
Q 3027 -211 3068 -172 
Q 3110 -134 3110 -32 
L 3110 4826 
z
" transform="scale(0.015625)"/>
        <path id="NotoSansTC-Thin-2c" d="M 422 -1062 
L 339 -890 
Q 563 -762 707 -541 
Q 851 -320 851 -13 
L 755 371 
L 992 70 
Q 947 0 889 -22 
Q 832 -45 768 -45 
Q 659 -45 582 25 
Q 506 96 506 218 
Q 506 346 586 413 
Q 666 480 768 480 
Q 909 480 995 358 
Q 1082 237 1082 32 
Q 1082 -326 893 -611 
Q 704 -896 422 -1062 
z
" transform="scale(0.015625)"/>
        <path id="NotoSansTC-Thin-20" transform="scale(0.015625)"/>
        <path id="NotoSansTC-Thin-5e6b" d="M 3117 1299 
L 3309 1299 
L 3309 -448 
L 3117 -448 
L 3117 1299 
z
M 877 838 
L 5581 838 
L 5581 653 
L 1069 653 
L 1069 -346 
L 877 -346 
L 877 838 
z
M 5478 838 
L 5664 838 
L 5664 -51 
Q 5664 -154 5632 -208 
Q 5600 -262 5498 -294 
Q 5389 -320 5161 -323 
Q 4934 -326 4550 -326 
Q 4544 -282 4521 -237 
Q 4499 -192 4467 -147 
Q 4826 -154 5050 -157 
Q 5274 -160 5357 -154 
Q 5434 -147 5456 -121 
Q 5478 -96 5478 -51 
L 5478 838 
z
M 3264 4678 
L 6035 4678 
L 6035 4493 
L 3264 4493 
L 3264 4678 
z
M 666 4954 
L 3014 4954 
L 3014 4768 
L 666 4768 
L 666 4954 
z
M 563 3763 
L 3110 3763 
L 3110 3578 
L 563 3578 
L 563 3763 
z
M 448 4358 
L 3219 4358 
L 3219 4173 
L 448 4173 
L 448 4358 
z
M 3667 4166 
L 3808 4269 
Q 4013 4096 4208 3875 
Q 4403 3654 4499 3488 
L 4352 3366 
Q 4256 3546 4064 3770 
Q 3872 3994 3667 4166 
z
M 410 2989 
Q 755 3021 1206 3062 
Q 1658 3104 2170 3158 
Q 2682 3213 3206 3270 
L 3206 3091 
Q 2701 3040 2198 2982 
Q 1696 2925 1245 2877 
Q 794 2829 435 2784 
L 410 2989 
z
M 5050 5306 
L 5242 5306 
L 5242 3136 
Q 5242 3034 5206 2979 
Q 5171 2925 5082 2893 
Q 4986 2867 4800 2860 
Q 4614 2854 4301 2854 
Q 4294 2899 4275 2947 
Q 4256 2995 4224 3034 
Q 4506 3034 4694 3034 
Q 4883 3034 4941 3034 
Q 5011 3040 5030 3059 
Q 5050 3078 5050 3136 
L 5050 5306 
z
M 1722 5312 
L 1907 5312 
L 1907 4243 
L 1722 4243 
L 1722 5312 
z
M 1722 4230 
L 1907 4230 
L 1907 3014 
L 1722 3014 
L 1722 4230 
z
M 1318 1837 
L 1318 1446 
L 5139 1446 
L 5139 1837 
L 1318 1837 
z
M 1318 2406 
L 1318 2029 
L 5139 2029 
L 5139 2406 
L 1318 2406 
z
M 1133 2598 
L 5325 2598 
L 5325 1254 
L 1133 1254 
L 1133 2598 
z
M 3219 3066 
L 3398 2989 
Q 3334 2854 3267 2729 
Q 3200 2605 3136 2509 
L 2982 2573 
Q 3040 2682 3110 2826 
Q 3181 2970 3219 3066 
z
" transform="scale(0.015625)"/>
        <path id="NotoSansTC-Thin-8001" d="M 378 3040 
L 6029 3040 
L 6029 2854 
L 378 2854 
L 378 3040 
z
M 915 4346 
L 4704 4346 
L 4704 4160 
L 915 4160 
L 915 4346 
z
M 5530 5069 
L 5690 4973 
Q 5037 4122 4208 3408 
Q 3379 2694 2425 2124 
Q 1472 1555 454 1126 
Q 442 1146 413 1174 
Q 384 1203 355 1235 
Q 326 1267 301 1286 
Q 1338 1690 2301 2259 
Q 3264 2829 4086 3539 
Q 4909 4250 5530 5069 
z
M 2182 2182 
L 2374 2182 
L 2374 186 
Q 2374 64 2422 0 
Q 2470 -64 2614 -89 
Q 2758 -115 3034 -115 
Q 3110 -115 3318 -115 
Q 3526 -115 3795 -115 
Q 4064 -115 4342 -115 
Q 4621 -115 4848 -115 
Q 5075 -115 5184 -115 
Q 5427 -115 5545 -44 
Q 5664 26 5715 237 
Q 5766 448 5786 858 
Q 5830 832 5881 809 
Q 5933 787 5978 774 
Q 5952 339 5888 105 
Q 5824 -128 5661 -217 
Q 5498 -307 5171 -307 
Q 5133 -307 4973 -307 
Q 4813 -307 4589 -307 
Q 4365 -307 4115 -307 
Q 3866 -307 3642 -307 
Q 3418 -307 3261 -307 
Q 3104 -307 3066 -307 
Q 2726 -307 2534 -272 
Q 2342 -237 2262 -128 
Q 2182 -19 2182 186 
L 2182 2182 
z
M 2720 5318 
L 2906 5318 
L 2906 4250 
L 2720 4250 
L 2720 5318 
z
M 2720 4269 
L 2906 4269 
L 2906 2912 
L 2720 2912 
L 2720 4269 
z
M 2266 1517 
L 5402 1517 
L 5402 1331 
L 2266 1331 
L 2266 1517 
z
" transform="scale(0.015625)"/>
        <path id="NotoSansTC-Thin-5e2b" d="M 666 4339 
L 2387 4339 
L 2387 2726 
L 666 2726 
L 666 2918 
L 2195 2918 
L 2195 4154 
L 666 4154 
L 666 4339 
z
M 666 1958 
L 2438 1958 
L 2438 173 
L 666 173 
L 666 358 
L 2253 358 
L 2253 1773 
L 666 1773 
L 666 1958 
z
M 563 4339 
L 755 4339 
L 755 -288 
L 563 -288 
L 563 4339 
z
M 2714 4941 
L 6074 4941 
L 6074 4755 
L 2714 4755 
L 2714 4941 
z
M 1472 5318 
L 1670 5248 
Q 1568 4992 1449 4691 
Q 1331 4390 1216 4186 
L 1056 4243 
Q 1126 4384 1206 4576 
Q 1286 4768 1356 4966 
Q 1427 5165 1472 5318 
z
M 4282 4896 
L 4467 4896 
L 4467 -442 
L 4282 -442 
L 4282 4896 
z
M 2982 3750 
L 5754 3750 
L 5754 3565 
L 3168 3565 
L 3168 480 
L 2982 480 
L 2982 3750 
z
M 5670 3750 
L 5862 3750 
L 5862 819 
Q 5862 717 5830 659 
Q 5798 602 5709 576 
Q 5626 550 5459 544 
Q 5293 538 5011 538 
Q 5005 576 4979 627 
Q 4954 678 4928 723 
Q 5171 717 5344 717 
Q 5517 717 5568 723 
Q 5632 723 5651 745 
Q 5670 768 5670 819 
L 5670 3750 
z
" transform="scale(0.015625)"/>
        <path id="NotoSansTC-Thin-5c0e" d="M 410 1075 
L 5946 1075 
L 5946 883 
L 410 883 
L 410 1075 
z
M 1965 4666 
L 5888 4666 
L 5888 4480 
L 1965 4480 
L 1965 4666 
z
M 4365 1530 
L 4557 1530 
L 4557 -102 
Q 4557 -218 4518 -275 
Q 4480 -333 4365 -365 
Q 4256 -390 4009 -393 
Q 3763 -397 3328 -397 
Q 3322 -358 3296 -313 
Q 3270 -269 3245 -224 
Q 3501 -230 3699 -230 
Q 3898 -230 4035 -227 
Q 4173 -224 4230 -224 
Q 4314 -218 4339 -192 
Q 4365 -166 4365 -102 
L 4365 1530 
z
M 1683 627 
L 1824 736 
Q 2086 557 2345 310 
Q 2605 64 2733 -128 
L 2586 -256 
Q 2502 -122 2355 35 
Q 2208 192 2035 349 
Q 1862 506 1683 627 
z
M 2810 5222 
L 2976 5299 
Q 3091 5184 3200 5030 
Q 3309 4877 3354 4762 
L 3181 4666 
Q 3136 4794 3030 4947 
Q 2925 5101 2810 5222 
z
M 2579 3296 
L 2579 2906 
L 5184 2906 
L 5184 3296 
L 2579 3296 
z
M 2579 2720 
L 2579 2323 
L 5184 2323 
L 5184 2720 
L 2579 2720 
z
M 2579 3859 
L 2579 3482 
L 5184 3482 
L 5184 3859 
L 2579 3859 
z
M 2394 4045 
L 5370 4045 
L 5370 2131 
L 2394 2131 
L 2394 4045 
z
M 3782 4634 
L 3981 4589 
Q 3898 4410 3805 4227 
Q 3712 4045 3622 3910 
L 3462 3962 
Q 3546 4102 3638 4297 
Q 3731 4493 3782 4634 
z
M 4896 5293 
L 5075 5216 
Q 4966 5037 4832 4848 
Q 4698 4659 4589 4525 
L 4435 4595 
Q 4550 4736 4681 4941 
Q 4813 5146 4896 5293 
z
M 781 5242 
L 934 5318 
Q 1088 5178 1238 5005 
Q 1389 4832 1472 4704 
L 1299 4614 
Q 1216 4742 1069 4921 
Q 922 5101 781 5242 
z
M 422 4403 
L 1670 4403 
L 1670 4218 
L 422 4218 
L 422 4403 
z
M 1427 2554 
Q 1581 2234 1837 2077 
Q 2093 1920 2505 1869 
Q 2918 1818 3533 1818 
Q 3949 1818 4400 1824 
Q 4851 1830 5283 1846 
Q 5715 1862 6061 1888 
Q 6035 1850 6019 1792 
Q 6003 1734 5990 1690 
Q 5670 1677 5254 1664 
Q 4838 1651 4396 1644 
Q 3955 1638 3552 1638 
Q 2861 1638 2422 1699 
Q 1984 1760 1721 1936 
Q 1459 2112 1293 2464 
L 1427 2554 
z
M 1677 3360 
L 1722 3360 
L 1766 3373 
L 1875 3315 
Q 1696 2682 1331 2214 
Q 966 1747 544 1472 
Q 538 1498 515 1526 
Q 493 1555 467 1584 
Q 442 1613 416 1626 
Q 826 1875 1171 2313 
Q 1517 2752 1677 3315 
L 1677 3360 
z
M 512 3091 
L 512 3283 
L 698 3360 
L 1696 3360 
L 1696 3174 
L 864 3174 
Q 742 3174 643 3148 
Q 544 3123 512 3091 
z
M 512 3091 
Q 506 3123 483 3168 
Q 461 3213 441 3257 
Q 422 3302 403 3328 
Q 454 3341 528 3376 
Q 602 3411 691 3482 
Q 762 3539 890 3657 
Q 1018 3776 1168 3913 
Q 1318 4051 1449 4179 
Q 1581 4307 1651 4390 
L 1651 4403 
L 1754 4448 
L 1914 4333 
Q 1773 4186 1558 3990 
Q 1344 3795 1117 3600 
Q 890 3405 710 3264 
Q 710 3264 681 3248 
Q 653 3232 611 3206 
Q 570 3181 541 3152 
Q 512 3123 512 3091 
z
" transform="scale(0.015625)"/>
        <path id="NotoSansTC-Thin-6559" d="M 1254 2720 
L 2899 2720 
L 2899 2534 
L 1254 2534 
L 1254 2720 
z
M 602 4557 
L 2496 4557 
L 2496 4365 
L 602 4365 
L 602 4557 
z
M 314 3533 
L 3392 3533 
L 3392 3347 
L 314 3347 
L 314 3533 
z
M 1568 5318 
L 1760 5318 
L 1760 3424 
L 1568 3424 
L 1568 5318 
z
M 3021 5178 
L 3206 5120 
Q 2765 4070 2061 3273 
Q 1357 2477 480 1946 
Q 461 1965 429 1993 
Q 397 2022 365 2048 
Q 333 2074 307 2093 
Q 1203 2586 1900 3379 
Q 2598 4173 3021 5178 
z
M 1741 1837 
L 1926 1837 
L 1926 -166 
Q 1926 -282 1891 -336 
Q 1856 -390 1766 -416 
Q 1670 -442 1475 -448 
Q 1280 -454 966 -454 
Q 960 -416 937 -365 
Q 915 -314 883 -269 
Q 1178 -275 1370 -275 
Q 1562 -275 1632 -269 
Q 1702 -262 1721 -243 
Q 1741 -224 1741 -166 
L 1741 1837 
z
M 2822 2720 
L 2867 2720 
L 2906 2733 
L 3046 2650 
Q 2816 2381 2493 2134 
Q 2170 1888 1869 1728 
Q 1843 1760 1808 1789 
Q 1773 1818 1741 1837 
Q 1939 1946 2140 2086 
Q 2342 2227 2521 2384 
Q 2701 2541 2822 2682 
L 2822 2720 
z
M 346 1088 
Q 704 1146 1187 1229 
Q 1670 1312 2220 1408 
Q 2771 1504 3334 1600 
L 3347 1421 
Q 2810 1325 2269 1229 
Q 1728 1133 1248 1046 
Q 768 960 390 890 
L 346 1088 
z
M 3885 4102 
L 6093 4102 
L 6093 3917 
L 3885 3917 
L 3885 4102 
z
M 4134 5312 
L 4326 5280 
Q 4218 4717 4061 4192 
Q 3904 3667 3705 3209 
Q 3507 2752 3264 2400 
Q 3245 2413 3213 2435 
Q 3181 2458 3145 2477 
Q 3110 2496 3085 2509 
Q 3334 2854 3532 3302 
Q 3731 3750 3881 4262 
Q 4032 4774 4134 5312 
z
M 5472 4038 
L 5664 4006 
Q 5491 2893 5177 2045 
Q 4864 1197 4342 582 
Q 3821 -32 3021 -461 
Q 3008 -435 2985 -406 
Q 2963 -378 2937 -349 
Q 2912 -320 2886 -301 
Q 3680 96 4192 694 
Q 4704 1293 5008 2125 
Q 5312 2957 5472 4038 
z
M 3949 3891 
Q 4102 2944 4384 2115 
Q 4666 1286 5094 668 
Q 5523 51 6125 -275 
Q 6099 -294 6070 -320 
Q 6042 -346 6019 -374 
Q 5997 -403 5978 -429 
Q 5370 -77 4934 556 
Q 4499 1190 4217 2035 
Q 3936 2880 3776 3859 
L 3949 3891 
z
" transform="scale(0.015625)"/>
        <path id="NotoSansTC-Thin-7df4" d="M 2637 4570 
L 6054 4570 
L 6054 4378 
L 2637 4378 
L 2637 4570 
z
M 4243 1856 
L 4429 1856 
L 4429 -454 
L 4243 -454 
L 4243 1856 
z
M 4122 1914 
L 4275 1824 
Q 4122 1466 3872 1098 
Q 3622 730 3321 416 
Q 3021 102 2714 -102 
Q 2688 -70 2649 -25 
Q 2611 19 2573 45 
Q 2874 230 3174 531 
Q 3475 832 3724 1190 
Q 3974 1549 4122 1914 
z
M 4557 1882 
Q 4730 1549 4989 1206 
Q 5248 864 5539 576 
Q 5830 288 6093 115 
Q 6054 90 6016 45 
Q 5978 0 5946 -38 
Q 5690 154 5398 458 
Q 5107 762 4841 1117 
Q 4576 1472 4397 1805 
L 4557 1882 
z
M 3046 3501 
L 3046 1952 
L 5626 1952 
L 5626 3501 
L 3046 3501 
z
M 2854 3686 
L 5818 3686 
L 5818 1766 
L 2854 1766 
L 2854 3686 
z
M 3398 3187 
L 3565 3232 
Q 3693 3008 3801 2739 
Q 3910 2470 3955 2272 
L 3776 2214 
Q 3731 2413 3628 2688 
Q 3526 2963 3398 3187 
z
M 5248 3270 
L 5440 3194 
Q 5331 2938 5203 2656 
Q 5075 2374 4960 2176 
L 4813 2246 
Q 4890 2381 4973 2563 
Q 5056 2746 5129 2934 
Q 5203 3123 5248 3270 
z
M 4250 5306 
L 4435 5306 
L 4435 3629 
L 4435 3629 
L 4435 1824 
L 4250 1824 
L 4250 3629 
L 4250 3629 
L 4250 5306 
z
M 1952 2899 
L 2131 2931 
Q 2221 2707 2301 2451 
Q 2381 2195 2441 1961 
Q 2502 1728 2528 1555 
L 2342 1504 
Q 2317 1683 2256 1923 
Q 2195 2163 2115 2419 
Q 2035 2675 1952 2899 
z
M 1280 1312 
L 1466 1338 
Q 1530 992 1584 589 
Q 1638 186 1658 -109 
L 1472 -141 
Q 1459 58 1430 307 
Q 1402 557 1363 819 
Q 1325 1082 1280 1312 
z
M 634 1306 
L 832 1267 
Q 755 845 656 403 
Q 557 -38 454 -352 
Q 429 -339 368 -313 
Q 307 -288 262 -275 
Q 390 45 480 470 
Q 570 896 634 1306 
z
M 378 3066 
Q 371 3091 358 3132 
Q 346 3174 333 3216 
Q 320 3258 307 3283 
Q 378 3296 467 3395 
Q 557 3494 659 3642 
Q 717 3718 829 3884 
Q 941 4051 1085 4284 
Q 1229 4518 1369 4784 
Q 1510 5050 1626 5318 
L 1824 5229 
Q 1638 4858 1430 4490 
Q 1222 4122 1001 3795 
Q 781 3469 557 3206 
L 557 3200 
Q 557 3200 531 3187 
Q 506 3174 467 3155 
Q 429 3136 403 3113 
Q 378 3091 378 3066 
z
M 378 3066 
L 378 3245 
L 525 3322 
L 1677 3437 
Q 1670 3398 1670 3347 
Q 1670 3296 1677 3264 
Q 1274 3213 1030 3181 
Q 787 3149 656 3129 
Q 525 3110 467 3094 
Q 410 3078 378 3066 
z
M 416 1664 
Q 410 1690 397 1728 
Q 384 1766 371 1808 
Q 358 1850 346 1875 
Q 429 1888 541 2009 
Q 653 2131 794 2304 
Q 870 2394 1024 2592 
Q 1178 2790 1370 3062 
Q 1562 3334 1757 3651 
Q 1952 3968 2118 4288 
L 2323 4198 
Q 2061 3750 1773 3318 
Q 1485 2886 1190 2499 
Q 896 2112 595 1798 
L 595 1792 
Q 595 1792 569 1782 
Q 544 1773 505 1753 
Q 467 1734 441 1712 
Q 416 1690 416 1664 
z
M 416 1664 
L 416 1837 
L 563 1933 
L 2304 2176 
Q 2298 2131 2301 2083 
Q 2304 2035 2310 2003 
Q 1702 1907 1340 1849 
Q 979 1792 793 1760 
Q 608 1728 531 1705 
Q 454 1683 416 1664 
z
M 1882 1427 
L 2054 1466 
Q 2163 1190 2272 857 
Q 2381 525 2426 282 
L 2246 230 
Q 2202 474 2096 810 
Q 1990 1146 1882 1427 
z
" transform="scale(0.015625)"/>
        <path id="NotoSansTC-Thin-5925" d="M 371 2067 
L 3168 2067 
L 3168 1875 
L 371 1875 
L 371 2067 
z
M 1670 1990 
L 1824 1920 
Q 1664 1555 1414 1171 
Q 1165 787 883 457 
Q 602 128 346 -90 
Q 320 -58 285 -6 
Q 250 45 224 70 
Q 474 269 752 585 
Q 1030 902 1276 1270 
Q 1523 1638 1670 1990 
z
M 1888 1466 
Q 1984 1408 2176 1273 
Q 2368 1139 2589 979 
Q 2810 819 2998 681 
Q 3187 544 3270 480 
L 3149 320 
Q 3053 397 2870 541 
Q 2688 685 2477 845 
Q 2266 1005 2077 1142 
Q 1888 1280 1779 1350 
L 1888 1466 
z
M 4563 5318 
L 4774 5286 
Q 4576 4864 4214 4403 
Q 3853 3942 3315 3584 
Q 3290 3616 3242 3651 
Q 3194 3686 3155 3706 
Q 3686 4045 4038 4489 
Q 4390 4934 4563 5318 
z
M 4346 4749 
L 5709 4749 
L 5709 4563 
L 4218 4563 
L 4346 4749 
z
M 5645 4749 
L 5690 4749 
L 5728 4762 
L 5856 4698 
Q 5664 4019 5283 3529 
Q 4902 3040 4406 2717 
Q 3910 2394 3373 2214 
Q 3360 2253 3325 2301 
Q 3290 2349 3258 2381 
Q 3776 2541 4256 2845 
Q 4736 3149 5104 3609 
Q 5472 4070 5645 4698 
L 5645 4749 
z
M 3821 4128 
L 3962 4243 
Q 4166 4128 4380 3977 
Q 4595 3827 4787 3680 
Q 4979 3533 5101 3405 
L 4960 3270 
Q 4838 3398 4649 3548 
Q 4461 3699 4246 3852 
Q 4032 4006 3821 4128 
z
M 4813 2899 
L 5030 2861 
Q 4781 2400 4333 1904 
Q 3885 1408 3226 1024 
Q 3213 1050 3187 1072 
Q 3162 1094 3133 1116 
Q 3104 1139 3078 1152 
Q 3507 1395 3846 1696 
Q 4186 1997 4429 2307 
Q 4672 2618 4813 2899 
z
M 4518 2234 
L 5990 2234 
L 5990 2048 
L 4384 2048 
L 4518 2234 
z
M 5926 2234 
L 5971 2234 
L 6016 2246 
L 6138 2182 
Q 5901 1408 5430 880 
Q 4960 352 4342 29 
Q 3725 -294 3053 -461 
Q 3040 -429 3008 -377 
Q 2976 -326 2944 -294 
Q 3430 -186 3894 12 
Q 4358 211 4761 515 
Q 5165 819 5465 1232 
Q 5766 1645 5926 2189 
L 5926 2234 
z
M 3898 1587 
L 4038 1702 
Q 4250 1574 4467 1404 
Q 4685 1235 4873 1065 
Q 5062 896 5178 749 
L 5030 621 
Q 4915 768 4729 941 
Q 4544 1114 4326 1283 
Q 4109 1453 3898 1587 
z
M 838 3776 
L 838 2925 
L 2848 2925 
L 2848 3776 
L 838 3776 
z
M 838 4806 
L 838 3968 
L 2848 3968 
L 2848 4806 
L 838 4806 
z
M 646 4992 
L 3040 4992 
L 3040 2733 
L 646 2733 
L 646 4992 
z
M 1734 4877 
L 1920 4877 
L 1920 2784 
L 1920 2784 
L 1920 -461 
L 1734 -461 
L 1734 2784 
L 1734 2784 
L 1734 4877 
z
" transform="scale(0.015625)"/>
        <path id="NotoSansTC-Thin-4f34" d="M 3802 5248 
L 3987 5248 
L 3987 -448 
L 3802 -448 
L 3802 5248 
z
M 2067 3238 
L 5824 3238 
L 5824 3046 
L 2067 3046 
L 2067 3238 
z
M 1792 1658 
L 6093 1658 
L 6093 1466 
L 1792 1466 
L 1792 1658 
z
M 2253 4902 
L 2419 4973 
Q 2560 4762 2688 4512 
Q 2816 4262 2918 4028 
Q 3021 3795 3072 3622 
L 2899 3520 
Q 2848 3699 2745 3939 
Q 2643 4179 2515 4432 
Q 2387 4685 2253 4902 
z
M 5421 5030 
L 5600 4941 
Q 5491 4710 5356 4448 
Q 5222 4186 5084 3939 
Q 4947 3693 4819 3501 
L 4672 3578 
Q 4800 3770 4937 4026 
Q 5075 4282 5203 4550 
Q 5331 4819 5421 5030 
z
M 1914 5293 
L 2099 5242 
Q 1882 4704 1597 4198 
Q 1312 3693 985 3254 
Q 659 2816 314 2464 
Q 301 2483 275 2515 
Q 250 2547 224 2576 
Q 198 2605 173 2624 
Q 518 2950 838 3376 
Q 1158 3802 1436 4291 
Q 1715 4781 1914 5293 
z
M 1197 3763 
L 1376 3942 
L 1389 3936 
L 1389 -435 
L 1197 -435 
L 1197 3763 
z
" transform="scale(0.015625)"/>
        <path id="NotoSansTC-Thin-670b" d="M 3731 4896 
L 5600 4896 
L 5600 4704 
L 3731 4704 
L 3731 4896 
z
M 3731 3450 
L 5600 3450 
L 5600 3264 
L 3731 3264 
L 3731 3450 
z
M 3680 1978 
L 5606 1978 
L 5606 1786 
L 3680 1786 
L 3680 1978 
z
M 5491 4896 
L 5677 4896 
L 5677 -51 
Q 5677 -192 5629 -262 
Q 5581 -333 5472 -365 
Q 5363 -390 5129 -396 
Q 4896 -403 4512 -403 
Q 4506 -371 4493 -336 
Q 4480 -301 4464 -262 
Q 4448 -224 4429 -198 
Q 4762 -205 5014 -205 
Q 5267 -205 5344 -198 
Q 5427 -192 5459 -163 
Q 5491 -134 5491 -58 
L 5491 4896 
z
M 3629 4896 
L 3814 4896 
L 3814 2637 
Q 3814 2285 3788 1881 
Q 3763 1478 3686 1065 
Q 3610 653 3462 262 
Q 3315 -128 3066 -461 
Q 3053 -442 3027 -419 
Q 3002 -397 2973 -377 
Q 2944 -358 2918 -346 
Q 3162 -19 3302 355 
Q 3443 730 3513 1123 
Q 3584 1517 3606 1904 
Q 3629 2291 3629 2637 
L 3629 4896 
z
M 992 4896 
L 2746 4896 
L 2746 4704 
L 992 4704 
L 992 4896 
z
M 992 3450 
L 2746 3450 
L 2746 3264 
L 992 3264 
L 992 3450 
z
M 973 1978 
L 2733 1978 
L 2733 1786 
L 973 1786 
L 973 1978 
z
M 2624 4896 
L 2810 4896 
L 2810 13 
Q 2810 -115 2768 -182 
Q 2726 -250 2630 -282 
Q 2528 -307 2326 -313 
Q 2125 -320 1798 -314 
Q 1792 -275 1769 -217 
Q 1747 -160 1722 -115 
Q 2003 -122 2217 -122 
Q 2432 -122 2496 -115 
Q 2566 -109 2595 -86 
Q 2624 -64 2624 6 
L 2624 4896 
z
M 902 4896 
L 1094 4896 
L 1094 2637 
Q 1094 2285 1072 1885 
Q 1050 1485 982 1072 
Q 915 659 784 268 
Q 653 -122 435 -448 
Q 422 -429 393 -409 
Q 365 -390 333 -371 
Q 301 -352 275 -346 
Q 493 -19 617 358 
Q 742 736 803 1129 
Q 864 1523 883 1907 
Q 902 2291 902 2637 
L 902 4896 
z
" transform="scale(0.015625)"/>
        <path id="NotoSansTC-Thin-53cb" d="M 2163 2848 
Q 2611 1574 3603 777 
Q 4595 -19 6106 -301 
Q 6086 -320 6060 -349 
Q 6035 -378 6016 -406 
Q 5997 -435 5984 -461 
Q 4986 -262 4202 170 
Q 3418 602 2867 1258 
Q 2317 1914 2003 2790 
L 2163 2848 
z
M 4928 2912 
L 4966 2912 
L 5005 2925 
L 5133 2854 
Q 4922 2125 4544 1571 
Q 4166 1018 3670 621 
Q 3174 224 2601 -41 
Q 2029 -307 1421 -461 
Q 1408 -422 1373 -371 
Q 1338 -320 1306 -294 
Q 1894 -154 2457 99 
Q 3021 352 3507 736 
Q 3994 1120 4362 1645 
Q 4730 2170 4928 2861 
L 4928 2912 
z
M 480 4134 
L 5958 4134 
L 5958 3949 
L 480 3949 
L 480 4134 
z
M 2106 2912 
L 4960 2912 
L 4960 2720 
L 2054 2720 
L 2106 2912 
z
M 2310 5325 
L 2496 5325 
Q 2490 5222 2470 4950 
Q 2451 4678 2406 4278 
Q 2362 3878 2272 3401 
Q 2182 2925 2041 2419 
Q 1901 1914 1686 1421 
Q 1472 928 1174 493 
Q 877 58 474 -262 
Q 448 -237 393 -205 
Q 339 -173 301 -154 
Q 698 154 995 579 
Q 1293 1005 1507 1494 
Q 1722 1984 1862 2486 
Q 2003 2989 2092 3459 
Q 2182 3930 2227 4323 
Q 2272 4717 2288 4979 
Q 2304 5242 2310 5325 
z
" transform="scale(0.015625)"/>
       </defs>
       <use xlink:href="#NotoSansTC-Thin-52a9"/>
       <use xlink:href="#NotoSansTC-Thin-624b" x="99.999985"/>
       <use xlink:href="#NotoSansTC-Thin-2c" x="199.999969"/>
       <use xlink:href="#NotoSansTC-Thin-20" x="223.09996"/>
       <use xlink:href="#NotoSansTC-Thin-5e6b" x="245.099945"/>
       <use xlink:href="#NotoSansTC-Thin-624b" x="345.09993"/>
       <use xlink:href="#NotoSansTC-Thin-2c" x="445.099915"/>
       <use xlink:href="#NotoSansTC-Thin-20" x="468.199905"/>
       <use xlink:href="#NotoSansTC-Thin-8001" x="490.19989"/>
       <use xlink:href="#NotoSansTC-Thin-5e2b" x="590.199875"/>
       <use xlink:href="#NotoSansTC-Thin-2c" x="690.19986"/>
       <use xlink:href="#NotoSansTC-Thin-20" x="713.29985"/>
       <use xlink:href="#NotoSansTC-Thin-5c0e" x="735.299835"/>
       <use xlink:href="#NotoSansTC-Thin-5e2b" x="835.29982"/>
       <use xlink:href="#NotoSansTC-Thin-2c" x="935.299805"/>
       <use xlink:href="#NotoSansTC-Thin-20" x="958.399796"/>
       <use xlink:href="#NotoSansTC-Thin-6559" x="980.39978"/>
       <use xlink:href="#NotoSansTC-Thin-7df4" x="1080.399765"/>
       <use xlink:href="#NotoSansTC-Thin-2c" x="1180.39975"/>
       <use xlink:href="#NotoSansTC-Thin-20" x="1203.499741"/>
       <use xlink:href="#NotoSansTC-Thin-5925" x="1225.499725"/>
       <use xlink:href="#NotoSansTC-Thin-4f34" x="1325.49971"/>
       <use xlink:href="#NotoSansTC-Thin-2c" x="1425.499695"/>
       <use xlink:href="#NotoSansTC-Thin-20" x="1448.599686"/>
       <use xlink:href="#NotoSansTC-Thin-670b" x="1470.59967"/>
       <use xlink:href="#NotoSansTC-Thin-53cb" x="1570.599655"/>
       <use xlink:href="#NotoSansTC-Thin-20" x="1670.59964"/>
      </g>
     </g>
    </g>
    <g id="xtick_2">
     <g id="line2d_2">
      <g>
       <use xlink:href="#mb9850fba7d" x="187.585681" y="239.87852" style="stroke: #000000; stroke-width: 0.8"/>
      </g>
     </g>
     <g id="text_2">
      <!-- 助手, 幫手, 夥伴, 朋友, 老師, 導師, 教練  -->
      <g transform="translate(41.905332 397.235055) rotate(-45) scale(0.12 -0.12)">
       <use xlink:href="#NotoSansTC-Thin-52a9"/>
       <use xlink:href="#NotoSansTC-Thin-624b" x="99.999985"/>
       <use xlink:href="#NotoSansTC-Thin-2c" x="199.999969"/>
       <use xlink:href="#NotoSansTC-Thin-20" x="223.09996"/>
       <use xlink:href="#NotoSansTC-Thin-5e6b" x="245.099945"/>
       <use xlink:href="#NotoSansTC-Thin-624b" x="345.09993"/>
       <use xlink:href="#NotoSansTC-Thin-2c" x="445.099915"/>
       <use xlink:href="#NotoSansTC-Thin-20" x="468.199905"/>
       <use xlink:href="#NotoSansTC-Thin-5925" x="490.19989"/>
       <use xlink:href="#NotoSansTC-Thin-4f34" x="590.199875"/>
       <use xlink:href="#NotoSansTC-Thin-2c" x="690.19986"/>
       <use xlink:href="#NotoSansTC-Thin-20" x="713.29985"/>
       <use xlink:href="#NotoSansTC-Thin-670b" x="735.299835"/>
       <use xlink:href="#NotoSansTC-Thin-53cb" x="835.29982"/>
       <use xlink:href="#NotoSansTC-Thin-2c" x="935.299805"/>
       <use xlink:href="#NotoSansTC-Thin-20" x="958.399796"/>
       <use xlink:href="#NotoSansTC-Thin-8001" x="980.39978"/>
       <use xlink:href="#NotoSansTC-Thin-5e2b" x="1080.399765"/>
       <use xlink:href="#NotoSansTC-Thin-2c" x="1180.39975"/>
       <use xlink:href="#NotoSansTC-Thin-20" x="1203.499741"/>
       <use xlink:href="#NotoSansTC-Thin-5c0e" x="1225.499725"/>
       <use xlink:href="#NotoSansTC-Thin-5e2b" x="1325.49971"/>
       <use xlink:href="#NotoSansTC-Thin-2c" x="1425.499695"/>
       <use xlink:href="#NotoSansTC-Thin-20" x="1448.599686"/>
       <use xlink:href="#NotoSansTC-Thin-6559" x="1470.59967"/>
       <use xlink:href="#NotoSansTC-Thin-7df4" x="1570.599655"/>
       <use xlink:href="#NotoSansTC-Thin-20" x="1670.59964"/>
      </g>
     </g>
    </g>
    <g id="xtick_3">
     <g id="line2d_3">
      <g>
       <use xlink:href="#mb9850fba7d" x="215.55317" y="239.87852" style="stroke: #000000; stroke-width: 0.8"/>
      </g>
     </g>
     <g id="text_3">
      <!-- 助手, 幫手, 導師, 老師, 教練, 夥伴, 朋友  -->
      <g transform="translate(69.872821 397.235055) rotate(-45) scale(0.12 -0.12)">
       <use xlink:href="#NotoSansTC-Thin-52a9"/>
       <use xlink:href="#NotoSansTC-Thin-624b" x="99.999985"/>
       <use xlink:href="#NotoSansTC-Thin-2c" x="199.999969"/>
       <use xlink:href="#NotoSansTC-Thin-20" x="223.09996"/>
       <use xlink:href="#NotoSansTC-Thin-5e6b" x="245.099945"/>
       <use xlink:href="#NotoSansTC-Thin-624b" x="345.09993"/>
       <use xlink:href="#NotoSansTC-Thin-2c" x="445.099915"/>
       <use xlink:href="#NotoSansTC-Thin-20" x="468.199905"/>
       <use xlink:href="#NotoSansTC-Thin-5c0e" x="490.19989"/>
       <use xlink:href="#NotoSansTC-Thin-5e2b" x="590.199875"/>
       <use xlink:href="#NotoSansTC-Thin-2c" x="690.19986"/>
       <use xlink:href="#NotoSansTC-Thin-20" x="713.29985"/>
       <use xlink:href="#NotoSansTC-Thin-8001" x="735.299835"/>
       <use xlink:href="#NotoSansTC-Thin-5e2b" x="835.29982"/>
       <use xlink:href="#NotoSansTC-Thin-2c" x="935.299805"/>
       <use xlink:href="#NotoSansTC-Thin-20" x="958.399796"/>
       <use xlink:href="#NotoSansTC-Thin-6559" x="980.39978"/>
       <use xlink:href="#NotoSansTC-Thin-7df4" x="1080.399765"/>
       <use xlink:href="#NotoSansTC-Thin-2c" x="1180.39975"/>
       <use xlink:href="#NotoSansTC-Thin-20" x="1203.499741"/>
       <use xlink:href="#NotoSansTC-Thin-5925" x="1225.499725"/>
       <use xlink:href="#NotoSansTC-Thin-4f34" x="1325.49971"/>
       <use xlink:href="#NotoSansTC-Thin-2c" x="1425.499695"/>
       <use xlink:href="#NotoSansTC-Thin-20" x="1448.599686"/>
       <use xlink:href="#NotoSansTC-Thin-670b" x="1470.59967"/>
       <use xlink:href="#NotoSansTC-Thin-53cb" x="1570.599655"/>
       <use xlink:href="#NotoSansTC-Thin-20" x="1670.59964"/>
      </g>
     </g>
    </g>
    <g id="xtick_4">
     <g id="line2d_4">
      <g>
       <use xlink:href="#mb9850fba7d" x="243.520658" y="239.87852" style="stroke: #000000; stroke-width: 0.8"/>
      </g>
     </g>
     <g id="text_4">
      <!-- 助手, 幫手, 老師, 教練, 導師, 夥伴, 朋友  -->
      <g transform="translate(97.840309 397.235055) rotate(-45) scale(0.12 -0.12)">
       <use xlink:href="#NotoSansTC-Thin-52a9"/>
       <use xlink:href="#NotoSansTC-Thin-624b" x="99.999985"/>
       <use xlink:href="#NotoSansTC-Thin-2c" x="199.999969"/>
       <use xlink:href="#NotoSansTC-Thin-20" x="223.09996"/>
       <use xlink:href="#NotoSansTC-Thin-5e6b" x="245.099945"/>
       <use xlink:href="#NotoSansTC-Thin-624b" x="345.09993"/>
       <use xlink:href="#NotoSansTC-Thin-2c" x="445.099915"/>
       <use xlink:href="#NotoSansTC-Thin-20" x="468.199905"/>
       <use xlink:href="#NotoSansTC-Thin-8001" x="490.19989"/>
       <use xlink:href="#NotoSansTC-Thin-5e2b" x="590.199875"/>
       <use xlink:href="#NotoSansTC-Thin-2c" x="690.19986"/>
       <use xlink:href="#NotoSansTC-Thin-20" x="713.29985"/>
       <use xlink:href="#NotoSansTC-Thin-6559" x="735.299835"/>
       <use xlink:href="#NotoSansTC-Thin-7df4" x="835.29982"/>
       <use xlink:href="#NotoSansTC-Thin-2c" x="935.299805"/>
       <use xlink:href="#NotoSansTC-Thin-20" x="958.399796"/>
       <use xlink:href="#NotoSansTC-Thin-5c0e" x="980.39978"/>
       <use xlink:href="#NotoSansTC-Thin-5e2b" x="1080.399765"/>
       <use xlink:href="#NotoSansTC-Thin-2c" x="1180.39975"/>
       <use xlink:href="#NotoSansTC-Thin-20" x="1203.499741"/>
       <use xlink:href="#NotoSansTC-Thin-5925" x="1225.499725"/>
       <use xlink:href="#NotoSansTC-Thin-4f34" x="1325.49971"/>
       <use xlink:href="#NotoSansTC-Thin-2c" x="1425.499695"/>
       <use xlink:href="#NotoSansTC-Thin-20" x="1448.599686"/>
       <use xlink:href="#NotoSansTC-Thin-670b" x="1470.59967"/>
       <use xlink:href="#NotoSansTC-Thin-53cb" x="1570.599655"/>
       <use xlink:href="#NotoSansTC-Thin-20" x="1670.59964"/>
      </g>
     </g>
    </g>
    <g id="xtick_5">
     <g id="line2d_5">
      <g>
       <use xlink:href="#mb9850fba7d" x="271.488147" y="239.87852" style="stroke: #000000; stroke-width: 0.8"/>
      </g>
     </g>
     <g id="text_5">
      <!-- 幫手, 助手, 老師, 導師, 教練, 夥伴, 朋友  -->
      <g transform="translate(125.807798 397.235055) rotate(-45) scale(0.12 -0.12)">
       <use xlink:href="#NotoSansTC-Thin-5e6b"/>
       <use xlink:href="#NotoSansTC-Thin-624b" x="99.999985"/>
       <use xlink:href="#NotoSansTC-Thin-2c" x="199.999969"/>
       <use xlink:href="#NotoSansTC-Thin-20" x="223.09996"/>
       <use xlink:href="#NotoSansTC-Thin-52a9" x="245.099945"/>
       <use xlink:href="#NotoSansTC-Thin-624b" x="345.09993"/>
       <use xlink:href="#NotoSansTC-Thin-2c" x="445.099915"/>
       <use xlink:href="#NotoSansTC-Thin-20" x="468.199905"/>
       <use xlink:href="#NotoSansTC-Thin-8001" x="490.19989"/>
       <use xlink:href="#NotoSansTC-Thin-5e2b" x="590.199875"/>
       <use xlink:href="#NotoSansTC-Thin-2c" x="690.19986"/>
       <use xlink:href="#NotoSansTC-Thin-20" x="713.29985"/>
       <use xlink:href="#NotoSansTC-Thin-5c0e" x="735.299835"/>
       <use xlink:href="#NotoSansTC-Thin-5e2b" x="835.29982"/>
       <use xlink:href="#NotoSansTC-Thin-2c" x="935.299805"/>
       <use xlink:href="#NotoSansTC-Thin-20" x="958.399796"/>
       <use xlink:href="#NotoSansTC-Thin-6559" x="980.39978"/>
       <use xlink:href="#NotoSansTC-Thin-7df4" x="1080.399765"/>
       <use xlink:href="#NotoSansTC-Thin-2c" x="1180.39975"/>
       <use xlink:href="#NotoSansTC-Thin-20" x="1203.499741"/>
       <use xlink:href="#NotoSansTC-Thin-5925" x="1225.499725"/>
       <use xlink:href="#NotoSansTC-Thin-4f34" x="1325.49971"/>
       <use xlink:href="#NotoSansTC-Thin-2c" x="1425.499695"/>
       <use xlink:href="#NotoSansTC-Thin-20" x="1448.599686"/>
       <use xlink:href="#NotoSansTC-Thin-670b" x="1470.59967"/>
       <use xlink:href="#NotoSansTC-Thin-53cb" x="1570.599655"/>
       <use xlink:href="#NotoSansTC-Thin-20" x="1670.59964"/>
      </g>
     </g>
    </g>
    <g id="xtick_6">
     <g id="line2d_6">
      <g>
       <use xlink:href="#mb9850fba7d" x="299.455635" y="239.87852" style="stroke: #000000; stroke-width: 0.8"/>
      </g>
     </g>
     <g id="text_6">
      <!-- 助手, 幫手, 夥伴, 朋友, 導師, 老師, 教練  -->
      <g transform="translate(153.775286 397.235055) rotate(-45) scale(0.12 -0.12)">
       <use xlink:href="#NotoSansTC-Thin-52a9"/>
       <use xlink:href="#NotoSansTC-Thin-624b" x="99.999985"/>
       <use xlink:href="#NotoSansTC-Thin-2c" x="199.999969"/>
       <use xlink:href="#NotoSansTC-Thin-20" x="223.09996"/>
       <use xlink:href="#NotoSansTC-Thin-5e6b" x="245.099945"/>
       <use xlink:href="#NotoSansTC-Thin-624b" x="345.09993"/>
       <use xlink:href="#NotoSansTC-Thin-2c" x="445.099915"/>
       <use xlink:href="#NotoSansTC-Thin-20" x="468.199905"/>
       <use xlink:href="#NotoSansTC-Thin-5925" x="490.19989"/>
       <use xlink:href="#NotoSansTC-Thin-4f34" x="590.199875"/>
       <use xlink:href="#NotoSansTC-Thin-2c" x="690.19986"/>
       <use xlink:href="#NotoSansTC-Thin-20" x="713.29985"/>
       <use xlink:href="#NotoSansTC-Thin-670b" x="735.299835"/>
       <use xlink:href="#NotoSansTC-Thin-53cb" x="835.29982"/>
       <use xlink:href="#NotoSansTC-Thin-2c" x="935.299805"/>
       <use xlink:href="#NotoSansTC-Thin-20" x="958.399796"/>
       <use xlink:href="#NotoSansTC-Thin-5c0e" x="980.39978"/>
       <use xlink:href="#NotoSansTC-Thin-5e2b" x="1080.399765"/>
       <use xlink:href="#NotoSansTC-Thin-2c" x="1180.39975"/>
       <use xlink:href="#NotoSansTC-Thin-20" x="1203.499741"/>
       <use xlink:href="#NotoSansTC-Thin-8001" x="1225.499725"/>
       <use xlink:href="#NotoSansTC-Thin-5e2b" x="1325.49971"/>
       <use xlink:href="#NotoSansTC-Thin-2c" x="1425.499695"/>
       <use xlink:href="#NotoSansTC-Thin-20" x="1448.599686"/>
       <use xlink:href="#NotoSansTC-Thin-6559" x="1470.59967"/>
       <use xlink:href="#NotoSansTC-Thin-7df4" x="1570.599655"/>
       <use xlink:href="#NotoSansTC-Thin-20" x="1670.59964"/>
      </g>
     </g>
    </g>
    <g id="xtick_7">
     <g id="line2d_7">
      <g>
       <use xlink:href="#mb9850fba7d" x="327.423124" y="239.87852" style="stroke: #000000; stroke-width: 0.8"/>
      </g>
     </g>
     <g id="text_7">
      <!-- 助手, 幫手, 夥伴, 導師, 老師, 教練, 朋友  -->
      <g transform="translate(181.742775 397.235055) rotate(-45) scale(0.12 -0.12)">
       <use xlink:href="#NotoSansTC-Thin-52a9"/>
       <use xlink:href="#NotoSansTC-Thin-624b" x="99.999985"/>
       <use xlink:href="#NotoSansTC-Thin-2c" x="199.999969"/>
       <use xlink:href="#NotoSansTC-Thin-20" x="223.09996"/>
       <use xlink:href="#NotoSansTC-Thin-5e6b" x="245.099945"/>
       <use xlink:href="#NotoSansTC-Thin-624b" x="345.09993"/>
       <use xlink:href="#NotoSansTC-Thin-2c" x="445.099915"/>
       <use xlink:href="#NotoSansTC-Thin-20" x="468.199905"/>
       <use xlink:href="#NotoSansTC-Thin-5925" x="490.19989"/>
       <use xlink:href="#NotoSansTC-Thin-4f34" x="590.199875"/>
       <use xlink:href="#NotoSansTC-Thin-2c" x="690.19986"/>
       <use xlink:href="#NotoSansTC-Thin-20" x="713.29985"/>
       <use xlink:href="#NotoSansTC-Thin-5c0e" x="735.299835"/>
       <use xlink:href="#NotoSansTC-Thin-5e2b" x="835.29982"/>
       <use xlink:href="#NotoSansTC-Thin-2c" x="935.299805"/>
       <use xlink:href="#NotoSansTC-Thin-20" x="958.399796"/>
       <use xlink:href="#NotoSansTC-Thin-8001" x="980.39978"/>
       <use xlink:href="#NotoSansTC-Thin-5e2b" x="1080.399765"/>
       <use xlink:href="#NotoSansTC-Thin-2c" x="1180.39975"/>
       <use xlink:href="#NotoSansTC-Thin-20" x="1203.499741"/>
       <use xlink:href="#NotoSansTC-Thin-6559" x="1225.499725"/>
       <use xlink:href="#NotoSansTC-Thin-7df4" x="1325.49971"/>
       <use xlink:href="#NotoSansTC-Thin-2c" x="1425.499695"/>
       <use xlink:href="#NotoSansTC-Thin-20" x="1448.599686"/>
       <use xlink:href="#NotoSansTC-Thin-670b" x="1470.59967"/>
       <use xlink:href="#NotoSansTC-Thin-53cb" x="1570.599655"/>
       <use xlink:href="#NotoSansTC-Thin-20" x="1670.59964"/>
      </g>
     </g>
    </g>
    <g id="xtick_8">
     <g id="line2d_8">
      <g>
       <use xlink:href="#mb9850fba7d" x="355.390612" y="239.87852" style="stroke: #000000; stroke-width: 0.8"/>
      </g>
     </g>
     <g id="text_8">
      <!-- 助手, 幫手, 教練, 導師, 老師, 夥伴, 朋友  -->
      <g transform="translate(209.710263 397.235055) rotate(-45) scale(0.12 -0.12)">
       <use xlink:href="#NotoSansTC-Thin-52a9"/>
       <use xlink:href="#NotoSansTC-Thin-624b" x="99.999985"/>
       <use xlink:href="#NotoSansTC-Thin-2c" x="199.999969"/>
       <use xlink:href="#NotoSansTC-Thin-20" x="223.09996"/>
       <use xlink:href="#NotoSansTC-Thin-5e6b" x="245.099945"/>
       <use xlink:href="#NotoSansTC-Thin-624b" x="345.09993"/>
       <use xlink:href="#NotoSansTC-Thin-2c" x="445.099915"/>
       <use xlink:href="#NotoSansTC-Thin-20" x="468.199905"/>
       <use xlink:href="#NotoSansTC-Thin-6559" x="490.19989"/>
       <use xlink:href="#NotoSansTC-Thin-7df4" x="590.199875"/>
       <use xlink:href="#NotoSansTC-Thin-2c" x="690.19986"/>
       <use xlink:href="#NotoSansTC-Thin-20" x="713.29985"/>
       <use xlink:href="#NotoSansTC-Thin-5c0e" x="735.299835"/>
       <use xlink:href="#NotoSansTC-Thin-5e2b" x="835.29982"/>
       <use xlink:href="#NotoSansTC-Thin-2c" x="935.299805"/>
       <use xlink:href="#NotoSansTC-Thin-20" x="958.399796"/>
       <use xlink:href="#NotoSansTC-Thin-8001" x="980.39978"/>
       <use xlink:href="#NotoSansTC-Thin-5e2b" x="1080.399765"/>
       <use xlink:href="#NotoSansTC-Thin-2c" x="1180.39975"/>
       <use xlink:href="#NotoSansTC-Thin-20" x="1203.499741"/>
       <use xlink:href="#NotoSansTC-Thin-5925" x="1225.499725"/>
       <use xlink:href="#NotoSansTC-Thin-4f34" x="1325.49971"/>
       <use xlink:href="#NotoSansTC-Thin-2c" x="1425.499695"/>
       <use xlink:href="#NotoSansTC-Thin-20" x="1448.599686"/>
       <use xlink:href="#NotoSansTC-Thin-670b" x="1470.59967"/>
       <use xlink:href="#NotoSansTC-Thin-53cb" x="1570.599655"/>
       <use xlink:href="#NotoSansTC-Thin-20" x="1670.59964"/>
      </g>
     </g>
    </g>
    <g id="xtick_9">
     <g id="line2d_9">
      <g>
       <use xlink:href="#mb9850fba7d" x="383.358101" y="239.87852" style="stroke: #000000; stroke-width: 0.8"/>
      </g>
     </g>
     <g id="text_9">
      <!-- 助手, 幫手, 教練, 老師, 導師, 夥伴, 朋友  -->
      <g transform="translate(237.677752 397.235055) rotate(-45) scale(0.12 -0.12)">
       <use xlink:href="#NotoSansTC-Thin-52a9"/>
       <use xlink:href="#NotoSansTC-Thin-624b" x="99.999985"/>
       <use xlink:href="#NotoSansTC-Thin-2c" x="199.999969"/>
       <use xlink:href="#NotoSansTC-Thin-20" x="223.09996"/>
       <use xlink:href="#NotoSansTC-Thin-5e6b" x="245.099945"/>
       <use xlink:href="#NotoSansTC-Thin-624b" x="345.09993"/>
       <use xlink:href="#NotoSansTC-Thin-2c" x="445.099915"/>
       <use xlink:href="#NotoSansTC-Thin-20" x="468.199905"/>
       <use xlink:href="#NotoSansTC-Thin-6559" x="490.19989"/>
       <use xlink:href="#NotoSansTC-Thin-7df4" x="590.199875"/>
       <use xlink:href="#NotoSansTC-Thin-2c" x="690.19986"/>
       <use xlink:href="#NotoSansTC-Thin-20" x="713.29985"/>
       <use xlink:href="#NotoSansTC-Thin-8001" x="735.299835"/>
       <use xlink:href="#NotoSansTC-Thin-5e2b" x="835.29982"/>
       <use xlink:href="#NotoSansTC-Thin-2c" x="935.299805"/>
       <use xlink:href="#NotoSansTC-Thin-20" x="958.399796"/>
       <use xlink:href="#NotoSansTC-Thin-5c0e" x="980.39978"/>
       <use xlink:href="#NotoSansTC-Thin-5e2b" x="1080.399765"/>
       <use xlink:href="#NotoSansTC-Thin-2c" x="1180.39975"/>
       <use xlink:href="#NotoSansTC-Thin-20" x="1203.499741"/>
       <use xlink:href="#NotoSansTC-Thin-5925" x="1225.499725"/>
       <use xlink:href="#NotoSansTC-Thin-4f34" x="1325.49971"/>
       <use xlink:href="#NotoSansTC-Thin-2c" x="1425.499695"/>
       <use xlink:href="#NotoSansTC-Thin-20" x="1448.599686"/>
       <use xlink:href="#NotoSansTC-Thin-670b" x="1470.59967"/>
       <use xlink:href="#NotoSansTC-Thin-53cb" x="1570.599655"/>
       <use xlink:href="#NotoSansTC-Thin-20" x="1670.59964"/>
      </g>
     </g>
    </g>
    <g id="xtick_10">
     <g id="line2d_10">
      <g>
       <use xlink:href="#mb9850fba7d" x="411.325589" y="239.87852" style="stroke: #000000; stroke-width: 0.8"/>
      </g>
     </g>
     <g id="text_10">
      <!-- 助手, 幫手, 夥伴, 朋友, 教練, 老師, 導師  -->
      <g transform="translate(265.64524 397.235055) rotate(-45) scale(0.12 -0.12)">
       <use xlink:href="#NotoSansTC-Thin-52a9"/>
       <use xlink:href="#NotoSansTC-Thin-624b" x="99.999985"/>
       <use xlink:href="#NotoSansTC-Thin-2c" x="199.999969"/>
       <use xlink:href="#NotoSansTC-Thin-20" x="223.09996"/>
       <use xlink:href="#NotoSansTC-Thin-5e6b" x="245.099945"/>
       <use xlink:href="#NotoSansTC-Thin-624b" x="345.09993"/>
       <use xlink:href="#NotoSansTC-Thin-2c" x="445.099915"/>
       <use xlink:href="#NotoSansTC-Thin-20" x="468.199905"/>
       <use xlink:href="#NotoSansTC-Thin-5925" x="490.19989"/>
       <use xlink:href="#NotoSansTC-Thin-4f34" x="590.199875"/>
       <use xlink:href="#NotoSansTC-Thin-2c" x="690.19986"/>
       <use xlink:href="#NotoSansTC-Thin-20" x="713.29985"/>
       <use xlink:href="#NotoSansTC-Thin-670b" x="735.299835"/>
       <use xlink:href="#NotoSansTC-Thin-53cb" x="835.29982"/>
       <use xlink:href="#NotoSansTC-Thin-2c" x="935.299805"/>
       <use xlink:href="#NotoSansTC-Thin-20" x="958.399796"/>
       <use xlink:href="#NotoSansTC-Thin-6559" x="980.39978"/>
       <use xlink:href="#NotoSansTC-Thin-7df4" x="1080.399765"/>
       <use xlink:href="#NotoSansTC-Thin-2c" x="1180.39975"/>
       <use xlink:href="#NotoSansTC-Thin-20" x="1203.499741"/>
       <use xlink:href="#NotoSansTC-Thin-8001" x="1225.499725"/>
       <use xlink:href="#NotoSansTC-Thin-5e2b" x="1325.49971"/>
       <use xlink:href="#NotoSansTC-Thin-2c" x="1425.499695"/>
       <use xlink:href="#NotoSansTC-Thin-20" x="1448.599686"/>
       <use xlink:href="#NotoSansTC-Thin-5c0e" x="1470.59967"/>
       <use xlink:href="#NotoSansTC-Thin-5e2b" x="1570.599655"/>
       <use xlink:href="#NotoSansTC-Thin-20" x="1670.59964"/>
      </g>
     </g>
    </g>
    <g id="xtick_11">
     <g id="line2d_11">
      <g>
       <use xlink:href="#mb9850fba7d" x="439.293078" y="239.87852" style="stroke: #000000; stroke-width: 0.8"/>
      </g>
     </g>
     <g id="text_11">
      <!-- 幫手, 助手, 導師, 老師, 教練, 夥伴, 朋友  -->
      <g transform="translate(293.612729 397.235055) rotate(-45) scale(0.12 -0.12)">
       <use xlink:href="#NotoSansTC-Thin-5e6b"/>
       <use xlink:href="#NotoSansTC-Thin-624b" x="99.999985"/>
       <use xlink:href="#NotoSansTC-Thin-2c" x="199.999969"/>
       <use xlink:href="#NotoSansTC-Thin-20" x="223.09996"/>
       <use xlink:href="#NotoSansTC-Thin-52a9" x="245.099945"/>
       <use xlink:href="#NotoSansTC-Thin-624b" x="345.09993"/>
       <use xlink:href="#NotoSansTC-Thin-2c" x="445.099915"/>
       <use xlink:href="#NotoSansTC-Thin-20" x="468.199905"/>
       <use xlink:href="#NotoSansTC-Thin-5c0e" x="490.19989"/>
       <use xlink:href="#NotoSansTC-Thin-5e2b" x="590.199875"/>
       <use xlink:href="#NotoSansTC-Thin-2c" x="690.19986"/>
       <use xlink:href="#NotoSansTC-Thin-20" x="713.29985"/>
       <use xlink:href="#NotoSansTC-Thin-8001" x="735.299835"/>
       <use xlink:href="#NotoSansTC-Thin-5e2b" x="835.29982"/>
       <use xlink:href="#NotoSansTC-Thin-2c" x="935.299805"/>
       <use xlink:href="#NotoSansTC-Thin-20" x="958.399796"/>
       <use xlink:href="#NotoSansTC-Thin-6559" x="980.39978"/>
       <use xlink:href="#NotoSansTC-Thin-7df4" x="1080.399765"/>
       <use xlink:href="#NotoSansTC-Thin-2c" x="1180.39975"/>
       <use xlink:href="#NotoSansTC-Thin-20" x="1203.499741"/>
       <use xlink:href="#NotoSansTC-Thin-5925" x="1225.499725"/>
       <use xlink:href="#NotoSansTC-Thin-4f34" x="1325.49971"/>
       <use xlink:href="#NotoSansTC-Thin-2c" x="1425.499695"/>
       <use xlink:href="#NotoSansTC-Thin-20" x="1448.599686"/>
       <use xlink:href="#NotoSansTC-Thin-670b" x="1470.59967"/>
       <use xlink:href="#NotoSansTC-Thin-53cb" x="1570.599655"/>
       <use xlink:href="#NotoSansTC-Thin-20" x="1670.59964"/>
      </g>
     </g>
    </g>
    <g id="xtick_12">
     <g id="line2d_12">
      <g>
       <use xlink:href="#mb9850fba7d" x="467.260566" y="239.87852" style="stroke: #000000; stroke-width: 0.8"/>
      </g>
     </g>
     <g id="text_12">
      <!-- 幫手, 助手, 老師, 教練, 導師, 夥伴, 朋友  -->
      <g transform="translate(321.580217 397.235055) rotate(-45) scale(0.12 -0.12)">
       <use xlink:href="#NotoSansTC-Thin-5e6b"/>
       <use xlink:href="#NotoSansTC-Thin-624b" x="99.999985"/>
       <use xlink:href="#NotoSansTC-Thin-2c" x="199.999969"/>
       <use xlink:href="#NotoSansTC-Thin-20" x="223.09996"/>
       <use xlink:href="#NotoSansTC-Thin-52a9" x="245.099945"/>
       <use xlink:href="#NotoSansTC-Thin-624b" x="345.09993"/>
       <use xlink:href="#NotoSansTC-Thin-2c" x="445.099915"/>
       <use xlink:href="#NotoSansTC-Thin-20" x="468.199905"/>
       <use xlink:href="#NotoSansTC-Thin-8001" x="490.19989"/>
       <use xlink:href="#NotoSansTC-Thin-5e2b" x="590.199875"/>
       <use xlink:href="#NotoSansTC-Thin-2c" x="690.19986"/>
       <use xlink:href="#NotoSansTC-Thin-20" x="713.29985"/>
       <use xlink:href="#NotoSansTC-Thin-6559" x="735.299835"/>
       <use xlink:href="#NotoSansTC-Thin-7df4" x="835.29982"/>
       <use xlink:href="#NotoSansTC-Thin-2c" x="935.299805"/>
       <use xlink:href="#NotoSansTC-Thin-20" x="958.399796"/>
       <use xlink:href="#NotoSansTC-Thin-5c0e" x="980.39978"/>
       <use xlink:href="#NotoSansTC-Thin-5e2b" x="1080.399765"/>
       <use xlink:href="#NotoSansTC-Thin-2c" x="1180.39975"/>
       <use xlink:href="#NotoSansTC-Thin-20" x="1203.499741"/>
       <use xlink:href="#NotoSansTC-Thin-5925" x="1225.499725"/>
       <use xlink:href="#NotoSansTC-Thin-4f34" x="1325.49971"/>
       <use xlink:href="#NotoSansTC-Thin-2c" x="1425.499695"/>
       <use xlink:href="#NotoSansTC-Thin-20" x="1448.599686"/>
       <use xlink:href="#NotoSansTC-Thin-670b" x="1470.59967"/>
       <use xlink:href="#NotoSansTC-Thin-53cb" x="1570.599655"/>
       <use xlink:href="#NotoSansTC-Thin-20" x="1670.59964"/>
      </g>
     </g>
    </g>
    <g id="xtick_13">
     <g id="line2d_13">
      <g>
       <use xlink:href="#mb9850fba7d" x="495.228055" y="239.87852" style="stroke: #000000; stroke-width: 0.8"/>
      </g>
     </g>
     <g id="text_13">
      <!-- 幫手, 助手, 夥伴, 朋友, 導師, 老師, 教練  -->
      <g transform="translate(349.547706 397.235055) rotate(-45) scale(0.12 -0.12)">
       <use xlink:href="#NotoSansTC-Thin-5e6b"/>
       <use xlink:href="#NotoSansTC-Thin-624b" x="99.999985"/>
       <use xlink:href="#NotoSansTC-Thin-2c" x="199.999969"/>
       <use xlink:href="#NotoSansTC-Thin-20" x="223.09996"/>
       <use xlink:href="#NotoSansTC-Thin-52a9" x="245.099945"/>
       <use xlink:href="#NotoSansTC-Thin-624b" x="345.09993"/>
       <use xlink:href="#NotoSansTC-Thin-2c" x="445.099915"/>
       <use xlink:href="#NotoSansTC-Thin-20" x="468.199905"/>
       <use xlink:href="#NotoSansTC-Thin-5925" x="490.19989"/>
       <use xlink:href="#NotoSansTC-Thin-4f34" x="590.199875"/>
       <use xlink:href="#NotoSansTC-Thin-2c" x="690.19986"/>
       <use xlink:href="#NotoSansTC-Thin-20" x="713.29985"/>
       <use xlink:href="#NotoSansTC-Thin-670b" x="735.299835"/>
       <use xlink:href="#NotoSansTC-Thin-53cb" x="835.29982"/>
       <use xlink:href="#NotoSansTC-Thin-2c" x="935.299805"/>
       <use xlink:href="#NotoSansTC-Thin-20" x="958.399796"/>
       <use xlink:href="#NotoSansTC-Thin-5c0e" x="980.39978"/>
       <use xlink:href="#NotoSansTC-Thin-5e2b" x="1080.399765"/>
       <use xlink:href="#NotoSansTC-Thin-2c" x="1180.39975"/>
       <use xlink:href="#NotoSansTC-Thin-20" x="1203.499741"/>
       <use xlink:href="#NotoSansTC-Thin-8001" x="1225.499725"/>
       <use xlink:href="#NotoSansTC-Thin-5e2b" x="1325.49971"/>
       <use xlink:href="#NotoSansTC-Thin-2c" x="1425.499695"/>
       <use xlink:href="#NotoSansTC-Thin-20" x="1448.599686"/>
       <use xlink:href="#NotoSansTC-Thin-6559" x="1470.59967"/>
       <use xlink:href="#NotoSansTC-Thin-7df4" x="1570.599655"/>
       <use xlink:href="#NotoSansTC-Thin-20" x="1670.59964"/>
      </g>
     </g>
    </g>
    <g id="xtick_14">
     <g id="line2d_14">
      <g>
       <use xlink:href="#mb9850fba7d" x="523.195543" y="239.87852" style="stroke: #000000; stroke-width: 0.8"/>
      </g>
     </g>
     <g id="text_14">
      <!-- 導師, 老師, 助手, 幫手, 教練, 夥伴, 朋友  -->
      <g transform="translate(377.515194 397.235055) rotate(-45) scale(0.12 -0.12)">
       <use xlink:href="#NotoSansTC-Thin-5c0e"/>
       <use xlink:href="#NotoSansTC-Thin-5e2b" x="99.999985"/>
       <use xlink:href="#NotoSansTC-Thin-2c" x="199.999969"/>
       <use xlink:href="#NotoSansTC-Thin-20" x="223.09996"/>
       <use xlink:href="#NotoSansTC-Thin-8001" x="245.099945"/>
       <use xlink:href="#NotoSansTC-Thin-5e2b" x="345.09993"/>
       <use xlink:href="#NotoSansTC-Thin-2c" x="445.099915"/>
       <use xlink:href="#NotoSansTC-Thin-20" x="468.199905"/>
       <use xlink:href="#NotoSansTC-Thin-52a9" x="490.19989"/>
       <use xlink:href="#NotoSansTC-Thin-624b" x="590.199875"/>
       <use xlink:href="#NotoSansTC-Thin-2c" x="690.19986"/>
       <use xlink:href="#NotoSansTC-Thin-20" x="713.29985"/>
       <use xlink:href="#NotoSansTC-Thin-5e6b" x="735.299835"/>
       <use xlink:href="#NotoSansTC-Thin-624b" x="835.29982"/>
       <use xlink:href="#NotoSansTC-Thin-2c" x="935.299805"/>
       <use xlink:href="#NotoSansTC-Thin-20" x="958.399796"/>
       <use xlink:href="#NotoSansTC-Thin-6559" x="980.39978"/>
       <use xlink:href="#NotoSansTC-Thin-7df4" x="1080.399765"/>
       <use xlink:href="#NotoSansTC-Thin-2c" x="1180.39975"/>
       <use xlink:href="#NotoSansTC-Thin-20" x="1203.499741"/>
       <use xlink:href="#NotoSansTC-Thin-5925" x="1225.499725"/>
       <use xlink:href="#NotoSansTC-Thin-4f34" x="1325.49971"/>
       <use xlink:href="#NotoSansTC-Thin-2c" x="1425.499695"/>
       <use xlink:href="#NotoSansTC-Thin-20" x="1448.599686"/>
       <use xlink:href="#NotoSansTC-Thin-670b" x="1470.59967"/>
       <use xlink:href="#NotoSansTC-Thin-53cb" x="1570.599655"/>
       <use xlink:href="#NotoSansTC-Thin-20" x="1670.59964"/>
      </g>
     </g>
    </g>
    <g id="xtick_15">
     <g id="line2d_15">
      <g>
       <use xlink:href="#mb9850fba7d" x="551.163032" y="239.87852" style="stroke: #000000; stroke-width: 0.8"/>
      </g>
     </g>
     <g id="text_15">
      <!-- 助手, 幫手, 夥伴, 教練, 老師, 導師, 朋友  -->
      <g transform="translate(405.482683 397.235055) rotate(-45) scale(0.12 -0.12)">
       <use xlink:href="#NotoSansTC-Thin-52a9"/>
       <use xlink:href="#NotoSansTC-Thin-624b" x="99.999985"/>
       <use xlink:href="#NotoSansTC-Thin-2c" x="199.999969"/>
       <use xlink:href="#NotoSansTC-Thin-20" x="223.09996"/>
       <use xlink:href="#NotoSansTC-Thin-5e6b" x="245.099945"/>
       <use xlink:href="#NotoSansTC-Thin-624b" x="345.09993"/>
       <use xlink:href="#NotoSansTC-Thin-2c" x="445.099915"/>
       <use xlink:href="#NotoSansTC-Thin-20" x="468.199905"/>
       <use xlink:href="#NotoSansTC-Thin-5925" x="490.19989"/>
       <use xlink:href="#NotoSansTC-Thin-4f34" x="590.199875"/>
       <use xlink:href="#NotoSansTC-Thin-2c" x="690.19986"/>
       <use xlink:href="#NotoSansTC-Thin-20" x="713.29985"/>
       <use xlink:href="#NotoSansTC-Thin-6559" x="735.299835"/>
       <use xlink:href="#NotoSansTC-Thin-7df4" x="835.29982"/>
       <use xlink:href="#NotoSansTC-Thin-2c" x="935.299805"/>
       <use xlink:href="#NotoSansTC-Thin-20" x="958.399796"/>
       <use xlink:href="#NotoSansTC-Thin-8001" x="980.39978"/>
       <use xlink:href="#NotoSansTC-Thin-5e2b" x="1080.399765"/>
       <use xlink:href="#NotoSansTC-Thin-2c" x="1180.39975"/>
       <use xlink:href="#NotoSansTC-Thin-20" x="1203.499741"/>
       <use xlink:href="#NotoSansTC-Thin-5c0e" x="1225.499725"/>
       <use xlink:href="#NotoSansTC-Thin-5e2b" x="1325.49971"/>
       <use xlink:href="#NotoSansTC-Thin-2c" x="1425.499695"/>
       <use xlink:href="#NotoSansTC-Thin-20" x="1448.599686"/>
       <use xlink:href="#NotoSansTC-Thin-670b" x="1470.59967"/>
       <use xlink:href="#NotoSansTC-Thin-53cb" x="1570.599655"/>
       <use xlink:href="#NotoSansTC-Thin-20" x="1670.59964"/>
      </g>
     </g>
    </g>
    <g id="xtick_16">
     <g id="line2d_16">
      <g>
       <use xlink:href="#mb9850fba7d" x="579.13052" y="239.87852" style="stroke: #000000; stroke-width: 0.8"/>
      </g>
     </g>
     <g id="text_16">
      <!-- 助手, 幫手, 導師, 老師, 夥伴, 朋友, 教練  -->
      <g transform="translate(433.450171 397.235055) rotate(-45) scale(0.12 -0.12)">
       <use xlink:href="#NotoSansTC-Thin-52a9"/>
       <use xlink:href="#NotoSansTC-Thin-624b" x="99.999985"/>
       <use xlink:href="#NotoSansTC-Thin-2c" x="199.999969"/>
       <use xlink:href="#NotoSansTC-Thin-20" x="223.09996"/>
       <use xlink:href="#NotoSansTC-Thin-5e6b" x="245.099945"/>
       <use xlink:href="#NotoSansTC-Thin-624b" x="345.09993"/>
       <use xlink:href="#NotoSansTC-Thin-2c" x="445.099915"/>
       <use xlink:href="#NotoSansTC-Thin-20" x="468.199905"/>
       <use xlink:href="#NotoSansTC-Thin-5c0e" x="490.19989"/>
       <use xlink:href="#NotoSansTC-Thin-5e2b" x="590.199875"/>
       <use xlink:href="#NotoSansTC-Thin-2c" x="690.19986"/>
       <use xlink:href="#NotoSansTC-Thin-20" x="713.29985"/>
       <use xlink:href="#NotoSansTC-Thin-8001" x="735.299835"/>
       <use xlink:href="#NotoSansTC-Thin-5e2b" x="835.29982"/>
       <use xlink:href="#NotoSansTC-Thin-2c" x="935.299805"/>
       <use xlink:href="#NotoSansTC-Thin-20" x="958.399796"/>
       <use xlink:href="#NotoSansTC-Thin-5925" x="980.39978"/>
       <use xlink:href="#NotoSansTC-Thin-4f34" x="1080.399765"/>
       <use xlink:href="#NotoSansTC-Thin-2c" x="1180.39975"/>
       <use xlink:href="#NotoSansTC-Thin-20" x="1203.499741"/>
       <use xlink:href="#NotoSansTC-Thin-670b" x="1225.499725"/>
       <use xlink:href="#NotoSansTC-Thin-53cb" x="1325.49971"/>
       <use xlink:href="#NotoSansTC-Thin-2c" x="1425.499695"/>
       <use xlink:href="#NotoSansTC-Thin-20" x="1448.599686"/>
       <use xlink:href="#NotoSansTC-Thin-6559" x="1470.59967"/>
       <use xlink:href="#NotoSansTC-Thin-7df4" x="1570.599655"/>
       <use xlink:href="#NotoSansTC-Thin-20" x="1670.59964"/>
      </g>
     </g>
    </g>
    <g id="xtick_17">
     <g id="line2d_17">
      <g>
       <use xlink:href="#mb9850fba7d" x="607.098009" y="239.87852" style="stroke: #000000; stroke-width: 0.8"/>
      </g>
     </g>
     <g id="text_17">
      <!-- 助手, 幫手, 朋友, 夥伴, 老師, 導師, 教練  -->
      <g transform="translate(461.41766 397.235055) rotate(-45) scale(0.12 -0.12)">
       <use xlink:href="#NotoSansTC-Thin-52a9"/>
       <use xlink:href="#NotoSansTC-Thin-624b" x="99.999985"/>
       <use xlink:href="#NotoSansTC-Thin-2c" x="199.999969"/>
       <use xlink:href="#NotoSansTC-Thin-20" x="223.09996"/>
       <use xlink:href="#NotoSansTC-Thin-5e6b" x="245.099945"/>
       <use xlink:href="#NotoSansTC-Thin-624b" x="345.09993"/>
       <use xlink:href="#NotoSansTC-Thin-2c" x="445.099915"/>
       <use xlink:href="#NotoSansTC-Thin-20" x="468.199905"/>
       <use xlink:href="#NotoSansTC-Thin-670b" x="490.19989"/>
       <use xlink:href="#NotoSansTC-Thin-53cb" x="590.199875"/>
       <use xlink:href="#NotoSansTC-Thin-2c" x="690.19986"/>
       <use xlink:href="#NotoSansTC-Thin-20" x="713.29985"/>
       <use xlink:href="#NotoSansTC-Thin-5925" x="735.299835"/>
       <use xlink:href="#NotoSansTC-Thin-4f34" x="835.29982"/>
       <use xlink:href="#NotoSansTC-Thin-2c" x="935.299805"/>
       <use xlink:href="#NotoSansTC-Thin-20" x="958.399796"/>
       <use xlink:href="#NotoSansTC-Thin-8001" x="980.39978"/>
       <use xlink:href="#NotoSansTC-Thin-5e2b" x="1080.399765"/>
       <use xlink:href="#NotoSansTC-Thin-2c" x="1180.39975"/>
       <use xlink:href="#NotoSansTC-Thin-20" x="1203.499741"/>
       <use xlink:href="#NotoSansTC-Thin-5c0e" x="1225.499725"/>
       <use xlink:href="#NotoSansTC-Thin-5e2b" x="1325.49971"/>
       <use xlink:href="#NotoSansTC-Thin-2c" x="1425.499695"/>
       <use xlink:href="#NotoSansTC-Thin-20" x="1448.599686"/>
       <use xlink:href="#NotoSansTC-Thin-6559" x="1470.59967"/>
       <use xlink:href="#NotoSansTC-Thin-7df4" x="1570.599655"/>
       <use xlink:href="#NotoSansTC-Thin-20" x="1670.59964"/>
      </g>
     </g>
    </g>
    <g id="xtick_18">
     <g id="line2d_18">
      <g>
       <use xlink:href="#mb9850fba7d" x="635.065497" y="239.87852" style="stroke: #000000; stroke-width: 0.8"/>
      </g>
     </g>
     <g id="text_18">
      <!-- 助手, 幫手, 教練, 夥伴, 朋友, 導師, 老師  -->
      <g transform="translate(489.385148 397.235055) rotate(-45) scale(0.12 -0.12)">
       <use xlink:href="#NotoSansTC-Thin-52a9"/>
       <use xlink:href="#NotoSansTC-Thin-624b" x="99.999985"/>
       <use xlink:href="#NotoSansTC-Thin-2c" x="199.999969"/>
       <use xlink:href="#NotoSansTC-Thin-20" x="223.09996"/>
       <use xlink:href="#NotoSansTC-Thin-5e6b" x="245.099945"/>
       <use xlink:href="#NotoSansTC-Thin-624b" x="345.09993"/>
       <use xlink:href="#NotoSansTC-Thin-2c" x="445.099915"/>
       <use xlink:href="#NotoSansTC-Thin-20" x="468.199905"/>
       <use xlink:href="#NotoSansTC-Thin-6559" x="490.19989"/>
       <use xlink:href="#NotoSansTC-Thin-7df4" x="590.199875"/>
       <use xlink:href="#NotoSansTC-Thin-2c" x="690.19986"/>
       <use xlink:href="#NotoSansTC-Thin-20" x="713.29985"/>
       <use xlink:href="#NotoSansTC-Thin-5925" x="735.299835"/>
       <use xlink:href="#NotoSansTC-Thin-4f34" x="835.29982"/>
       <use xlink:href="#NotoSansTC-Thin-2c" x="935.299805"/>
       <use xlink:href="#NotoSansTC-Thin-20" x="958.399796"/>
       <use xlink:href="#NotoSansTC-Thin-670b" x="980.39978"/>
       <use xlink:href="#NotoSansTC-Thin-53cb" x="1080.399765"/>
       <use xlink:href="#NotoSansTC-Thin-2c" x="1180.39975"/>
       <use xlink:href="#NotoSansTC-Thin-20" x="1203.499741"/>
       <use xlink:href="#NotoSansTC-Thin-5c0e" x="1225.499725"/>
       <use xlink:href="#NotoSansTC-Thin-5e2b" x="1325.49971"/>
       <use xlink:href="#NotoSansTC-Thin-2c" x="1425.499695"/>
       <use xlink:href="#NotoSansTC-Thin-20" x="1448.599686"/>
       <use xlink:href="#NotoSansTC-Thin-8001" x="1470.59967"/>
       <use xlink:href="#NotoSansTC-Thin-5e2b" x="1570.599655"/>
       <use xlink:href="#NotoSansTC-Thin-20" x="1670.59964"/>
      </g>
     </g>
    </g>
    <g id="xtick_19">
     <g id="line2d_19">
      <g>
       <use xlink:href="#mb9850fba7d" x="663.032986" y="239.87852" style="stroke: #000000; stroke-width: 0.8"/>
      </g>
     </g>
     <g id="text_19">
      <!-- 助手, 幫手, 夥伴, 朋友, 教練, 導師, 老師  -->
      <g transform="translate(517.352637 397.235055) rotate(-45) scale(0.12 -0.12)">
       <use xlink:href="#NotoSansTC-Thin-52a9"/>
       <use xlink:href="#NotoSansTC-Thin-624b" x="99.999985"/>
       <use xlink:href="#NotoSansTC-Thin-2c" x="199.999969"/>
       <use xlink:href="#NotoSansTC-Thin-20" x="223.09996"/>
       <use xlink:href="#NotoSansTC-Thin-5e6b" x="245.099945"/>
       <use xlink:href="#NotoSansTC-Thin-624b" x="345.09993"/>
       <use xlink:href="#NotoSansTC-Thin-2c" x="445.099915"/>
       <use xlink:href="#NotoSansTC-Thin-20" x="468.199905"/>
       <use xlink:href="#NotoSansTC-Thin-5925" x="490.19989"/>
       <use xlink:href="#NotoSansTC-Thin-4f34" x="590.199875"/>
       <use xlink:href="#NotoSansTC-Thin-2c" x="690.19986"/>
       <use xlink:href="#NotoSansTC-Thin-20" x="713.29985"/>
       <use xlink:href="#NotoSansTC-Thin-670b" x="735.299835"/>
       <use xlink:href="#NotoSansTC-Thin-53cb" x="835.29982"/>
       <use xlink:href="#NotoSansTC-Thin-2c" x="935.299805"/>
       <use xlink:href="#NotoSansTC-Thin-20" x="958.399796"/>
       <use xlink:href="#NotoSansTC-Thin-6559" x="980.39978"/>
       <use xlink:href="#NotoSansTC-Thin-7df4" x="1080.399765"/>
       <use xlink:href="#NotoSansTC-Thin-2c" x="1180.39975"/>
       <use xlink:href="#NotoSansTC-Thin-20" x="1203.499741"/>
       <use xlink:href="#NotoSansTC-Thin-5c0e" x="1225.499725"/>
       <use xlink:href="#NotoSansTC-Thin-5e2b" x="1325.49971"/>
       <use xlink:href="#NotoSansTC-Thin-2c" x="1425.499695"/>
       <use xlink:href="#NotoSansTC-Thin-20" x="1448.599686"/>
       <use xlink:href="#NotoSansTC-Thin-8001" x="1470.59967"/>
       <use xlink:href="#NotoSansTC-Thin-5e2b" x="1570.599655"/>
       <use xlink:href="#NotoSansTC-Thin-20" x="1670.59964"/>
      </g>
     </g>
    </g>
    <g id="xtick_20">
     <g id="line2d_20">
      <g>
       <use xlink:href="#mb9850fba7d" x="691.000474" y="239.87852" style="stroke: #000000; stroke-width: 0.8"/>
      </g>
     </g>
     <g id="text_20">
      <!-- 助手, 幫手, 教練, 夥伴, 老師, 導師, 朋友  -->
      <g transform="translate(545.320125 397.235055) rotate(-45) scale(0.12 -0.12)">
       <use xlink:href="#NotoSansTC-Thin-52a9"/>
       <use xlink:href="#NotoSansTC-Thin-624b" x="99.999985"/>
       <use xlink:href="#NotoSansTC-Thin-2c" x="199.999969"/>
       <use xlink:href="#NotoSansTC-Thin-20" x="223.09996"/>
       <use xlink:href="#NotoSansTC-Thin-5e6b" x="245.099945"/>
       <use xlink:href="#NotoSansTC-Thin-624b" x="345.09993"/>
       <use xlink:href="#NotoSansTC-Thin-2c" x="445.099915"/>
       <use xlink:href="#NotoSansTC-Thin-20" x="468.199905"/>
       <use xlink:href="#NotoSansTC-Thin-6559" x="490.19989"/>
       <use xlink:href="#NotoSansTC-Thin-7df4" x="590.199875"/>
       <use xlink:href="#NotoSansTC-Thin-2c" x="690.19986"/>
       <use xlink:href="#NotoSansTC-Thin-20" x="713.29985"/>
       <use xlink:href="#NotoSansTC-Thin-5925" x="735.299835"/>
       <use xlink:href="#NotoSansTC-Thin-4f34" x="835.29982"/>
       <use xlink:href="#NotoSansTC-Thin-2c" x="935.299805"/>
       <use xlink:href="#NotoSansTC-Thin-20" x="958.399796"/>
       <use xlink:href="#NotoSansTC-Thin-8001" x="980.39978"/>
       <use xlink:href="#NotoSansTC-Thin-5e2b" x="1080.399765"/>
       <use xlink:href="#NotoSansTC-Thin-2c" x="1180.39975"/>
       <use xlink:href="#NotoSansTC-Thin-20" x="1203.499741"/>
       <use xlink:href="#NotoSansTC-Thin-5c0e" x="1225.499725"/>
       <use xlink:href="#NotoSansTC-Thin-5e2b" x="1325.49971"/>
       <use xlink:href="#NotoSansTC-Thin-2c" x="1425.499695"/>
       <use xlink:href="#NotoSansTC-Thin-20" x="1448.599686"/>
       <use xlink:href="#NotoSansTC-Thin-670b" x="1470.59967"/>
       <use xlink:href="#NotoSansTC-Thin-53cb" x="1570.599655"/>
       <use xlink:href="#NotoSansTC-Thin-20" x="1670.59964"/>
      </g>
     </g>
    </g>
    <g id="text_21">
     <!-- Roles -->
     <g transform="translate(410.927146 412.825463) scale(0.12 -0.12)">
      <defs>
       <path id="NotoSansTC-Thin-52" d="M 704 0 
L 704 4646 
L 1990 4646 
Q 2451 4646 2787 4524 
Q 3123 4403 3305 4140 
Q 3488 3878 3488 3450 
Q 3488 3040 3305 2758 
Q 3123 2477 2787 2333 
Q 2451 2189 1990 2189 
L 941 2189 
L 941 0 
L 704 0 
z
M 941 2394 
L 1907 2394 
Q 2547 2394 2889 2653 
Q 3232 2912 3232 3450 
Q 3232 3994 2889 4214 
Q 2547 4435 1907 4435 
L 941 4435 
L 941 2394 
z
M 3283 0 
L 1926 2259 
L 2195 2285 
L 3558 0 
L 3283 0 
z
" transform="scale(0.015625)"/>
       <path id="NotoSansTC-Thin-6f" d="M 1875 -83 
Q 1472 -83 1129 125 
Q 787 333 582 726 
Q 378 1120 378 1677 
Q 378 2246 582 2643 
Q 787 3040 1129 3248 
Q 1472 3456 1875 3456 
Q 2176 3456 2448 3337 
Q 2720 3219 2928 2992 
Q 3136 2765 3254 2432 
Q 3373 2099 3373 1677 
Q 3373 1120 3165 726 
Q 2957 333 2617 125 
Q 2278 -83 1875 -83 
z
M 1875 128 
Q 2234 128 2518 323 
Q 2803 518 2969 867 
Q 3136 1216 3136 1677 
Q 3136 2144 2969 2496 
Q 2803 2848 2518 3046 
Q 2234 3245 1875 3245 
Q 1517 3245 1232 3046 
Q 947 2848 784 2496 
Q 621 2144 621 1677 
Q 621 1216 784 867 
Q 947 518 1232 323 
Q 1517 128 1875 128 
z
" transform="scale(0.015625)"/>
       <path id="NotoSansTC-Thin-6c" d="M 1018 -83 
Q 909 -83 832 -35 
Q 755 13 713 115 
Q 672 218 672 378 
L 672 5082 
L 902 5082 
L 902 339 
Q 902 237 940 182 
Q 979 128 1043 128 
Q 1062 128 1088 131 
Q 1114 134 1165 141 
L 1210 -58 
Q 1165 -64 1126 -73 
Q 1088 -83 1018 -83 
z
" transform="scale(0.015625)"/>
       <path id="NotoSansTC-Thin-65" d="M 1920 -83 
Q 1498 -83 1146 128 
Q 794 339 586 732 
Q 378 1126 378 1677 
Q 378 2093 496 2419 
Q 614 2746 822 2979 
Q 1030 3213 1289 3334 
Q 1549 3456 1830 3456 
Q 2221 3456 2505 3277 
Q 2790 3098 2947 2749 
Q 3104 2400 3104 1901 
Q 3104 1850 3104 1795 
Q 3104 1741 3091 1670 
L 621 1670 
Q 621 1229 784 880 
Q 947 531 1241 329 
Q 1536 128 1933 128 
Q 2221 128 2445 211 
Q 2669 294 2861 435 
L 2963 237 
Q 2771 122 2534 19 
Q 2298 -83 1920 -83 
z
M 621 1882 
L 2880 1882 
Q 2880 2566 2592 2905 
Q 2304 3245 1830 3245 
Q 1530 3245 1267 3081 
Q 1005 2918 832 2614 
Q 659 2310 621 1882 
z
" transform="scale(0.015625)"/>
       <path id="NotoSansTC-Thin-73" d="M 1466 -83 
Q 1088 -83 774 54 
Q 461 192 237 378 
L 384 563 
Q 595 384 851 256 
Q 1107 128 1478 128 
Q 1901 128 2115 339 
Q 2330 550 2330 838 
Q 2330 1062 2202 1209 
Q 2074 1357 1878 1453 
Q 1683 1549 1485 1619 
Q 1229 1715 985 1824 
Q 742 1933 582 2112 
Q 422 2291 422 2579 
Q 422 2816 544 3014 
Q 666 3213 902 3334 
Q 1139 3456 1485 3456 
Q 1741 3456 1990 3360 
Q 2240 3264 2419 3110 
L 2285 2938 
Q 2118 3066 1926 3155 
Q 1734 3245 1472 3245 
Q 1056 3245 857 3043 
Q 659 2842 659 2592 
Q 659 2394 771 2262 
Q 883 2131 1065 2044 
Q 1248 1958 1446 1882 
Q 1651 1805 1849 1725 
Q 2048 1645 2208 1536 
Q 2368 1427 2467 1264 
Q 2566 1101 2566 851 
Q 2566 602 2438 387 
Q 2310 173 2067 45 
Q 1824 -83 1466 -83 
z
" transform="scale(0.015625)"/>
      </defs>
      <use xlink:href="#NotoSansTC-Thin-52"/>
      <use xlink:href="#NotoSansTC-Thin-6f" x="58.899994"/>
      <use xlink:href="#NotoSansTC-Thin-6c" x="117.499985"/>
      <use xlink:href="#NotoSansTC-Thin-65" x="142.899979"/>
      <use xlink:href="#NotoSansTC-Thin-73" x="195.599976"/>
     </g>
    </g>
   </g>
   <g id="matplotlib.axis_2">
    <g id="ytick_1">
     <g id="line2d_21">
      <defs>
       <path id="m7b83936c7f" d="M 0 0 
L -3.5 0 
" style="stroke: #000000; stroke-width: 0.8"/>
      </defs>
      <g>
       <use xlink:href="#m7b83936c7f" x="145.634448" y="239.87852" style="stroke: #000000; stroke-width: 0.8"/>
      </g>
     </g>
     <g id="text_22">
      <!-- 0 -->
      <g transform="translate(132.271948 243.677739) scale(0.1 -0.1)">
       <defs>
        <path id="DejaVuSans-30" d="M 2034 4250 
Q 1547 4250 1301 3770 
Q 1056 3291 1056 2328 
Q 1056 1369 1301 889 
Q 1547 409 2034 409 
Q 2525 409 2770 889 
Q 3016 1369 3016 2328 
Q 3016 3291 2770 3770 
Q 2525 4250 2034 4250 
z
M 2034 4750 
Q 2819 4750 3233 4129 
Q 3647 3509 3647 2328 
Q 3647 1150 3233 529 
Q 2819 -91 2034 -91 
Q 1250 -91 836 529 
Q 422 1150 422 2328 
Q 422 3509 836 4129 
Q 1250 4750 2034 4750 
z
" transform="scale(0.015625)"/>
       </defs>
       <use xlink:href="#DejaVuSans-30"/>
      </g>
     </g>
    </g>
    <g id="ytick_2">
     <g id="line2d_22">
      <g>
       <use xlink:href="#m7b83936c7f" x="145.634448" y="201.580501" style="stroke: #000000; stroke-width: 0.8"/>
      </g>
     </g>
     <g id="text_23">
      <!-- 5 -->
      <g transform="translate(132.271948 205.37972) scale(0.1 -0.1)">
       <defs>
        <path id="DejaVuSans-35" d="M 691 4666 
L 3169 4666 
L 3169 4134 
L 1269 4134 
L 1269 2991 
Q 1406 3038 1543 3061 
Q 1681 3084 1819 3084 
Q 2600 3084 3056 2656 
Q 3513 2228 3513 1497 
Q 3513 744 3044 326 
Q 2575 -91 1722 -91 
Q 1428 -91 1123 -41 
Q 819 9 494 109 
L 494 744 
Q 775 591 1075 516 
Q 1375 441 1709 441 
Q 2250 441 2565 725 
Q 2881 1009 2881 1497 
Q 2881 1984 2565 2268 
Q 2250 2553 1709 2553 
Q 1456 2553 1204 2497 
Q 953 2441 691 2322 
L 691 4666 
z
" transform="scale(0.015625)"/>
       </defs>
       <use xlink:href="#DejaVuSans-35"/>
      </g>
     </g>
    </g>
    <g id="ytick_3">
     <g id="line2d_23">
      <g>
       <use xlink:href="#m7b83936c7f" x="145.634448" y="163.282481" style="stroke: #000000; stroke-width: 0.8"/>
      </g>
     </g>
     <g id="text_24">
      <!-- 10 -->
      <g transform="translate(125.909448 167.0817) scale(0.1 -0.1)">
       <defs>
        <path id="DejaVuSans-31" d="M 794 531 
L 1825 531 
L 1825 4091 
L 703 3866 
L 703 4441 
L 1819 4666 
L 2450 4666 
L 2450 531 
L 3481 531 
L 3481 0 
L 794 0 
L 794 531 
z
" transform="scale(0.015625)"/>
       </defs>
       <use xlink:href="#DejaVuSans-31"/>
       <use xlink:href="#DejaVuSans-30" x="63.623047"/>
      </g>
     </g>
    </g>
    <g id="ytick_4">
     <g id="line2d_24">
      <g>
       <use xlink:href="#m7b83936c7f" x="145.634448" y="124.984462" style="stroke: #000000; stroke-width: 0.8"/>
      </g>
     </g>
     <g id="text_25">
      <!-- 15 -->
      <g transform="translate(125.909448 128.783681) scale(0.1 -0.1)">
       <use xlink:href="#DejaVuSans-31"/>
       <use xlink:href="#DejaVuSans-35" x="63.623047"/>
      </g>
     </g>
    </g>
    <g id="ytick_5">
     <g id="line2d_25">
      <g>
       <use xlink:href="#m7b83936c7f" x="145.634448" y="86.686442" style="stroke: #000000; stroke-width: 0.8"/>
      </g>
     </g>
     <g id="text_26">
      <!-- 20 -->
      <g transform="translate(125.909448 90.485661) scale(0.1 -0.1)">
       <defs>
        <path id="DejaVuSans-32" d="M 1228 531 
L 3431 531 
L 3431 0 
L 469 0 
L 469 531 
Q 828 903 1448 1529 
Q 2069 2156 2228 2338 
Q 2531 2678 2651 2914 
Q 2772 3150 2772 3378 
Q 2772 3750 2511 3984 
Q 2250 4219 1831 4219 
Q 1534 4219 1204 4116 
Q 875 4013 500 3803 
L 500 4441 
Q 881 4594 1212 4672 
Q 1544 4750 1819 4750 
Q 2544 4750 2975 4387 
Q 3406 4025 3406 3419 
Q 3406 3131 3298 2873 
Q 3191 2616 2906 2266 
Q 2828 2175 2409 1742 
Q 1991 1309 1228 531 
z
" transform="scale(0.015625)"/>
       </defs>
       <use xlink:href="#DejaVuSans-32"/>
       <use xlink:href="#DejaVuSans-30" x="63.623047"/>
      </g>
     </g>
    </g>
    <g id="ytick_6">
     <g id="line2d_26">
      <g>
       <use xlink:href="#m7b83936c7f" x="145.634448" y="48.388423" style="stroke: #000000; stroke-width: 0.8"/>
      </g>
     </g>
     <g id="text_27">
      <!-- 25 -->
      <g transform="translate(125.909448 52.187642) scale(0.1 -0.1)">
       <use xlink:href="#DejaVuSans-32"/>
       <use xlink:href="#DejaVuSans-35" x="63.623047"/>
      </g>
     </g>
    </g>
    <g id="text_28">
     <!-- Number of Responses -->
     <g transform="translate(118.993823 189.221448) rotate(-90) scale(0.12 -0.12)">
      <defs>
       <path id="NotoSansTC-Thin-4e" d="M 704 0 
L 704 4646 
L 954 4646 
L 3002 1261 
L 3533 346 
L 3565 346 
Q 3546 685 3536 1008 
Q 3526 1331 3526 1658 
L 3526 4646 
L 3757 4646 
L 3757 0 
L 3501 0 
L 1459 3386 
L 928 4301 
L 902 4301 
Q 915 3974 921 3667 
Q 928 3360 928 3027 
L 928 0 
L 704 0 
z
" transform="scale(0.015625)"/>
       <path id="NotoSansTC-Thin-75" d="M 1632 -83 
Q 1114 -83 864 230 
Q 614 544 614 1203 
L 614 3373 
L 845 3373 
L 845 1229 
Q 845 672 1033 400 
Q 1222 128 1651 128 
Q 1965 128 2224 304 
Q 2483 480 2797 851 
L 2797 3373 
L 3027 3373 
L 3027 0 
L 2829 0 
L 2803 576 
L 2790 576 
Q 2534 282 2259 99 
Q 1984 -83 1632 -83 
z
" transform="scale(0.015625)"/>
       <path id="NotoSansTC-Thin-6d" d="M 672 0 
L 672 3373 
L 864 3373 
L 902 2835 
L 915 2835 
Q 1146 3098 1427 3277 
Q 1709 3456 1984 3456 
Q 2400 3456 2614 3264 
Q 2829 3072 2912 2752 
Q 3213 3078 3497 3267 
Q 3782 3456 4070 3456 
Q 4563 3456 4816 3139 
Q 5069 2822 5069 2170 
L 5069 0 
L 4845 0 
L 4845 2138 
Q 4845 2694 4649 2969 
Q 4454 3245 4045 3245 
Q 3795 3245 3539 3078 
Q 3283 2912 2982 2579 
L 2982 0 
L 2758 0 
L 2758 2138 
Q 2758 2694 2566 2969 
Q 2374 3245 1965 3245 
Q 1722 3245 1456 3078 
Q 1190 2912 902 2579 
L 902 0 
L 672 0 
z
" transform="scale(0.015625)"/>
       <path id="NotoSansTC-Thin-62" d="M 1933 -83 
Q 1696 -83 1424 32 
Q 1152 147 915 339 
L 896 339 
L 864 0 
L 672 0 
L 672 5082 
L 902 5082 
L 902 3584 
L 883 2906 
Q 1146 3130 1453 3293 
Q 1760 3456 2074 3456 
Q 2534 3456 2835 3241 
Q 3136 3027 3283 2643 
Q 3430 2259 3430 1734 
Q 3430 1165 3222 755 
Q 3014 346 2675 131 
Q 2336 -83 1933 -83 
z
M 1952 128 
Q 2310 128 2588 333 
Q 2867 538 3027 902 
Q 3187 1267 3187 1734 
Q 3187 2163 3075 2505 
Q 2963 2848 2716 3046 
Q 2470 3245 2054 3245 
Q 1798 3245 1507 3094 
Q 1216 2944 902 2662 
L 902 582 
Q 1190 333 1472 230 
Q 1754 128 1952 128 
z
" transform="scale(0.015625)"/>
       <path id="NotoSansTC-Thin-72" d="M 672 0 
L 672 3373 
L 864 3373 
L 902 2739 
L 915 2739 
Q 1082 3046 1325 3251 
Q 1568 3456 1869 3456 
Q 1958 3456 2035 3443 
Q 2112 3430 2195 3386 
L 2138 3174 
Q 2054 3206 1996 3219 
Q 1939 3232 1837 3232 
Q 1613 3232 1357 3030 
Q 1101 2829 902 2330 
L 902 0 
L 672 0 
z
" transform="scale(0.015625)"/>
       <path id="NotoSansTC-Thin-66" d="M 704 0 
L 704 4192 
Q 704 4525 797 4739 
Q 890 4954 1066 5059 
Q 1242 5165 1485 5165 
Q 1594 5165 1715 5136 
Q 1837 5107 1958 5056 
L 1888 4858 
Q 1683 4960 1478 4960 
Q 1190 4960 1059 4749 
Q 928 4538 928 4160 
L 928 0 
L 704 0 
z
M 237 3162 
L 237 3341 
L 704 3373 
L 1728 3373 
L 1728 3162 
L 237 3162 
z
" transform="scale(0.015625)"/>
       <path id="NotoSansTC-Thin-70" d="M 672 -1555 
L 672 3373 
L 864 3373 
L 902 2938 
L 915 2938 
Q 1165 3136 1462 3296 
Q 1760 3456 2074 3456 
Q 2534 3456 2835 3241 
Q 3136 3027 3283 2643 
Q 3430 2259 3430 1734 
Q 3430 1165 3222 755 
Q 3014 346 2675 131 
Q 2336 -83 1933 -83 
Q 1696 -83 1433 29 
Q 1171 141 902 339 
L 902 -294 
L 902 -1555 
L 672 -1555 
z
M 1952 128 
Q 2310 128 2588 333 
Q 2867 538 3027 902 
Q 3187 1267 3187 1734 
Q 3187 2163 3075 2505 
Q 2963 2848 2716 3046 
Q 2470 3245 2054 3245 
Q 1798 3245 1510 3094 
Q 1222 2944 902 2662 
L 902 582 
Q 1203 333 1478 230 
Q 1754 128 1952 128 
z
" transform="scale(0.015625)"/>
       <path id="NotoSansTC-Thin-6e" d="M 672 0 
L 672 3373 
L 864 3373 
L 902 2835 
L 915 2835 
Q 1178 3098 1453 3277 
Q 1728 3456 2080 3456 
Q 2598 3456 2848 3139 
Q 3098 2822 3098 2170 
L 3098 0 
L 2867 0 
L 2867 2138 
Q 2867 2694 2678 2969 
Q 2490 3245 2054 3245 
Q 1741 3245 1481 3078 
Q 1222 2912 902 2579 
L 902 0 
L 672 0 
z
" transform="scale(0.015625)"/>
      </defs>
      <use xlink:href="#NotoSansTC-Thin-4e"/>
      <use xlink:href="#NotoSansTC-Thin-75" x="69.599991"/>
      <use xlink:href="#NotoSansTC-Thin-6d" x="127.299988"/>
      <use xlink:href="#NotoSansTC-Thin-62" x="216.199982"/>
      <use xlink:href="#NotoSansTC-Thin-65" x="275.499969"/>
      <use xlink:href="#NotoSansTC-Thin-72" x="328.199966"/>
      <use xlink:href="#NotoSansTC-Thin-20" x="362.09996"/>
      <use xlink:href="#NotoSansTC-Thin-6f" x="384.099945"/>
      <use xlink:href="#NotoSansTC-Thin-66" x="442.699936"/>
      <use xlink:href="#NotoSansTC-Thin-20" x="470.59993"/>
      <use xlink:href="#NotoSansTC-Thin-52" x="492.599915"/>
      <use xlink:href="#NotoSansTC-Thin-65" x="551.499908"/>
      <use xlink:href="#NotoSansTC-Thin-73" x="604.199905"/>
      <use xlink:href="#NotoSansTC-Thin-70" x="648.299896"/>
      <use xlink:href="#NotoSansTC-Thin-6f" x="707.799881"/>
      <use xlink:href="#NotoSansTC-Thin-6e" x="766.399872"/>
      <use xlink:href="#NotoSansTC-Thin-73" x="824.399857"/>
      <use xlink:href="#NotoSansTC-Thin-65" x="868.499847"/>
      <use xlink:href="#NotoSansTC-Thin-73" x="921.199844"/>
     </g>
    </g>
   </g>
   <g id="patch_23">
    <path d="M 145.634448 239.87852 
L 145.634448 22.72875 
" style="fill: none; stroke: #000000; stroke-width: 0.8; stroke-linejoin: miter; stroke-linecap: square"/>
   </g>
   <g id="patch_24">
    <path d="M 704.984218 239.87852 
L 704.984218 22.72875 
" style="fill: none; stroke: #000000; stroke-width: 0.8; stroke-linejoin: miter; stroke-linecap: square"/>
   </g>
   <g id="patch_25">
    <path d="M 145.634448 239.87852 
L 704.984218 239.87852 
" style="fill: none; stroke: #000000; stroke-width: 0.8; stroke-linejoin: miter; stroke-linecap: square"/>
   </g>
   <g id="patch_26">
    <path d="M 145.634448 22.72875 
L 704.984218 22.72875 
" style="fill: none; stroke: #000000; stroke-width: 0.8; stroke-linejoin: miter; stroke-linecap: square"/>
   </g>
   <g id="text_29">
    <!-- Preferred AI Roles -->
    <g transform="translate(378.878708 16.72875) scale(0.12 -0.12)">
     <defs>
      <path id="NotoSansTC-Thin-50" d="M 704 0 
L 704 4646 
L 1824 4646 
Q 2355 4646 2726 4521 
Q 3098 4397 3293 4121 
Q 3488 3846 3488 3379 
Q 3488 2931 3296 2636 
Q 3104 2342 2739 2195 
Q 2374 2048 1850 2048 
L 941 2048 
L 941 0 
L 704 0 
z
M 941 2259 
L 1766 2259 
Q 2509 2259 2870 2518 
Q 3232 2778 3232 3379 
Q 3232 3987 2864 4211 
Q 2496 4435 1741 4435 
L 941 4435 
L 941 2259 
z
" transform="scale(0.015625)"/>
      <path id="NotoSansTC-Thin-64" d="M 1773 -83 
Q 1350 -83 1036 118 
Q 723 320 550 713 
Q 378 1107 378 1677 
Q 378 2221 586 2621 
Q 794 3021 1136 3238 
Q 1478 3456 1888 3456 
Q 2195 3456 2432 3347 
Q 2669 3238 2925 3034 
L 2906 3667 
L 2906 5082 
L 3136 5082 
L 3136 0 
L 2944 0 
L 2912 448 
L 2899 448 
Q 2688 237 2406 77 
Q 2125 -83 1773 -83 
z
M 1792 128 
Q 2086 128 2358 281 
Q 2630 435 2906 710 
L 2906 2784 
Q 2630 3034 2384 3139 
Q 2138 3245 1875 3245 
Q 1523 3245 1238 3033 
Q 954 2822 787 2467 
Q 621 2112 621 1677 
Q 621 1216 758 867 
Q 896 518 1158 323 
Q 1421 128 1792 128 
z
" transform="scale(0.015625)"/>
      <path id="NotoSansTC-Thin-41" d="M 70 0 
L 1728 4646 
L 1939 4646 
L 3603 0 
L 3347 0 
L 2381 2784 
Q 2234 3206 2106 3587 
Q 1978 3968 1850 4403 
L 1824 4403 
Q 1696 3968 1565 3587 
Q 1434 3206 1286 2784 
L 307 0 
L 70 0 
z
M 787 1651 
L 787 1856 
L 2861 1856 
L 2861 1651 
L 787 1651 
z
" transform="scale(0.015625)"/>
      <path id="NotoSansTC-Thin-49" d="M 704 0 
L 704 4646 
L 941 4646 
L 941 0 
L 704 0 
z
" transform="scale(0.015625)"/>
     </defs>
     <use xlink:href="#NotoSansTC-Thin-50"/>
     <use xlink:href="#NotoSansTC-Thin-72" x="59.799988"/>
     <use xlink:href="#NotoSansTC-Thin-65" x="93.699982"/>
     <use xlink:href="#NotoSansTC-Thin-66" x="146.399979"/>
     <use xlink:href="#NotoSansTC-Thin-65" x="174.299973"/>
     <use xlink:href="#NotoSansTC-Thin-72" x="226.999969"/>
     <use xlink:href="#NotoSansTC-Thin-72" x="260.899963"/>
     <use xlink:href="#NotoSansTC-Thin-65" x="294.799957"/>
     <use xlink:href="#NotoSansTC-Thin-64" x="347.499954"/>
     <use xlink:href="#NotoSansTC-Thin-20" x="406.999939"/>
     <use xlink:href="#NotoSansTC-Thin-41" x="428.999924"/>
     <use xlink:href="#NotoSansTC-Thin-49" x="486.399918"/>
     <use xlink:href="#NotoSansTC-Thin-20" x="512.099915"/>
     <use xlink:href="#NotoSansTC-Thin-52" x="534.099899"/>
     <use xlink:href="#NotoSansTC-Thin-6f" x="592.999893"/>
     <use xlink:href="#NotoSansTC-Thin-6c" x="651.599884"/>
     <use xlink:href="#NotoSansTC-Thin-65" x="676.999878"/>
     <use xlink:href="#NotoSansTC-Thin-73" x="729.699875"/>
    </g>
   </g>
  </g>
 </g>
 <defs>
  <clipPath id="p5af45703b6">
   <rect x="145.634448" y="22.72875" width="559.34977" height="217.14977"/>
  </clipPath>
 </defs>
</svg>
