<?xml version="1.0" encoding="utf-8" standalone="no"?>
<!DOCTYPE svg PUBLIC "-//W3C//DTD SVG 1.1//EN"
  "http://www.w3.org/Graphics/SVG/1.1/DTD/svg11.dtd">
<svg xmlns:xlink="http://www.w3.org/1999/xlink" width="711.759954pt" height="423.136354pt" viewBox="0 0 711.759954 423.136354" xmlns="http://www.w3.org/2000/svg" version="1.1">
 <metadata>
  <rdf:RDF xmlns:dc="http://purl.org/dc/elements/1.1/" xmlns:cc="http://creativecommons.org/ns#" xmlns:rdf="http://www.w3.org/1999/02/22-rdf-syntax-ns#">
   <cc:Work>
    <dc:type rdf:resource="http://purl.org/dc/dcmitype/StillImage"/>
    <dc:date>2024-06-02T21:58:45.150567</dc:date>
    <dc:format>image/svg+xml</dc:format>
    <dc:creator>
     <cc:Agent>
      <dc:title>Matplotlib v3.8.4, https://matplotlib.org/</dc:title>
     </cc:Agent>
    </dc:creator>
   </cc:Work>
  </rdf:RDF>
 </metadata>
 <defs>
  <style type="text/css">*{stroke-linejoin: round; stroke-linecap: butt}</style>
 </defs>
 <g id="figure_1">
  <g id="patch_1">
   <path d="M 0 423.136354 
L 711.759954 423.136354 
L 711.759954 0 
L 0 0 
z
" style="fill: #ffffff"/>
  </g>
  <g id="axes_1">
   <g id="patch_2">
    <path d="M 127.178961 257.909743 
L 704.559954 257.909743 
L 704.559954 22.72875 
L 127.178961 22.72875 
z
" style="fill: #ffffff"/>
   </g>
   <g id="patch_3">
    <path d="M 134.396224 257.909743 
L 148.830749 257.909743 
L 148.830749 33.927845 
L 134.396224 33.927845 
z
" clip-path="url(#p81a3789415)" style="fill: #228b22"/>
   </g>
   <g id="patch_4">
    <path d="M 163.265273 257.909743 
L 177.699798 257.909743 
L 177.699798 118.477303 
L 163.265273 118.477303 
z
" clip-path="url(#p81a3789415)" style="fill: #228b22"/>
   </g>
   <g id="patch_5">
    <path d="M 192.134323 257.909743 
L 206.568848 257.909743 
L 206.568848 154.077075 
L 192.134323 154.077075 
z
" clip-path="url(#p81a3789415)" style="fill: #228b22"/>
   </g>
   <g id="patch_6">
    <path d="M 221.003373 257.909743 
L 235.437897 257.909743 
L 235.437897 192.643495 
L 221.003373 192.643495 
z
" clip-path="url(#p81a3789415)" style="fill: #228b22"/>
   </g>
   <g id="patch_7">
    <path d="M 249.872422 257.909743 
L 264.306947 257.909743 
L 264.306947 201.543438 
L 249.872422 201.543438 
z
" clip-path="url(#p81a3789415)" style="fill: #228b22"/>
   </g>
   <g id="patch_8">
    <path d="M 278.741472 257.909743 
L 293.175997 257.909743 
L 293.175997 219.343324 
L 278.741472 219.343324 
z
" clip-path="url(#p81a3789415)" style="fill: #228b22"/>
   </g>
   <g id="patch_9">
    <path d="M 307.610522 257.909743 
L 322.045046 257.909743 
L 322.045046 219.343324 
L 307.610522 219.343324 
z
" clip-path="url(#p81a3789415)" style="fill: #228b22"/>
   </g>
   <g id="patch_10">
    <path d="M 336.479571 257.909743 
L 350.914096 257.909743 
L 350.914096 225.276619 
L 336.479571 225.276619 
z
" clip-path="url(#p81a3789415)" style="fill: #228b22"/>
   </g>
   <g id="patch_11">
    <path d="M 365.348621 257.909743 
L 379.783146 257.909743 
L 379.783146 229.72659 
L 365.348621 229.72659 
z
" clip-path="url(#p81a3789415)" style="fill: #228b22"/>
   </g>
   <g id="patch_12">
    <path d="M 394.217671 257.909743 
L 408.652195 257.909743 
L 408.652195 235.659886 
L 394.217671 235.659886 
z
" clip-path="url(#p81a3789415)" style="fill: #228b22"/>
   </g>
   <g id="patch_13">
    <path d="M 423.08672 257.909743 
L 437.521245 257.909743 
L 437.521245 240.109857 
L 423.08672 240.109857 
z
" clip-path="url(#p81a3789415)" style="fill: #228b22"/>
   </g>
   <g id="patch_14">
    <path d="M 451.95577 257.909743 
L 466.390295 257.909743 
L 466.390295 241.593181 
L 451.95577 241.593181 
z
" clip-path="url(#p81a3789415)" style="fill: #228b22"/>
   </g>
   <g id="patch_15">
    <path d="M 480.82482 257.909743 
L 495.259344 257.909743 
L 495.259344 241.593181 
L 480.82482 241.593181 
z
" clip-path="url(#p81a3789415)" style="fill: #228b22"/>
   </g>
   <g id="patch_16">
    <path d="M 509.693869 257.909743 
L 524.128394 257.909743 
L 524.128394 246.043153 
L 509.693869 246.043153 
z
" clip-path="url(#p81a3789415)" style="fill: #228b22"/>
   </g>
   <g id="patch_17">
    <path d="M 538.562919 257.909743 
L 552.997444 257.909743 
L 552.997444 246.043153 
L 538.562919 246.043153 
z
" clip-path="url(#p81a3789415)" style="fill: #228b22"/>
   </g>
   <g id="patch_18">
    <path d="M 567.431969 257.909743 
L 581.866493 257.909743 
L 581.866493 247.526476 
L 567.431969 247.526476 
z
" clip-path="url(#p81a3789415)" style="fill: #228b22"/>
   </g>
   <g id="patch_19">
    <path d="M 596.301018 257.909743 
L 610.735543 257.909743 
L 610.735543 249.0098 
L 596.301018 249.0098 
z
" clip-path="url(#p81a3789415)" style="fill: #228b22"/>
   </g>
   <g id="patch_20">
    <path d="M 625.170068 257.909743 
L 639.604593 257.909743 
L 639.604593 249.0098 
L 625.170068 249.0098 
z
" clip-path="url(#p81a3789415)" style="fill: #228b22"/>
   </g>
   <g id="patch_21">
    <path d="M 654.039118 257.909743 
L 668.473642 257.909743 
L 668.473642 249.0098 
L 654.039118 249.0098 
z
" clip-path="url(#p81a3789415)" style="fill: #228b22"/>
   </g>
   <g id="patch_22">
    <path d="M 682.908167 257.909743 
L 697.342692 257.909743 
L 697.342692 250.493124 
L 682.908167 250.493124 
z
" clip-path="url(#p81a3789415)" style="fill: #228b22"/>
   </g>
   <g id="matplotlib.axis_1">
    <g id="xtick_1">
     <g id="line2d_1">
      <defs>
       <path id="m15b120be50" d="M 0 0 
L 0 3.5 
" style="stroke: #000000; stroke-width: 0.8"/>
      </defs>
      <g>
       <use xlink:href="#m15b120be50" x="141.613486" y="257.909743" style="stroke: #000000; stroke-width: 0.8"/>
      </g>
     </g>
     <g id="text_1">
      <!-- 珊瑚礁, 熱帶雨林, 濕地, 草原, 沙漠 -->
      <g transform="translate(13.937844 397.261571) rotate(-45) scale(0.12 -0.12)">
       <defs>
        <path id="NotoSansTC-Thin-73ca" d="M 314 4794 
L 2240 4794 
L 2240 4602 
L 314 4602 
L 314 4794 
z
M 442 2938 
L 2106 2938 
L 2106 2746 
L 442 2746 
L 442 2938 
z
M 1971 2586 
L 6099 2586 
L 6099 2400 
L 1971 2400 
L 1971 2586 
z
M 3482 4896 
L 3674 4896 
L 3674 -442 
L 3482 -442 
L 3482 4896 
z
M 4467 4896 
L 4653 4896 
L 4653 -442 
L 4467 -442 
L 4467 4896 
z
M 288 550 
Q 666 659 1194 825 
Q 1722 992 2272 1171 
L 2298 992 
Q 1773 826 1261 653 
Q 749 480 346 352 
L 288 550 
z
M 5478 4966 
L 5664 4966 
L 5664 -166 
Q 5664 -275 5635 -332 
Q 5606 -390 5536 -416 
Q 5459 -442 5328 -448 
Q 5197 -454 4998 -454 
Q 4992 -429 4979 -393 
Q 4966 -358 4950 -320 
Q 4934 -282 4922 -256 
Q 5088 -262 5219 -262 
Q 5350 -262 5395 -262 
Q 5446 -256 5462 -240 
Q 5478 -224 5478 -173 
L 5478 4966 
z
M 2522 4966 
L 5574 4966 
L 5574 4781 
L 2714 4781 
L 2714 -454 
L 2522 -454 
L 2522 4966 
z
M 1146 4717 
L 1331 4717 
L 1331 762 
L 1146 704 
L 1146 4717 
z
" transform="scale(0.015625)"/>
        <path id="NotoSansTC-Thin-745a" d="M 2912 5286 
L 3098 5286 
L 3098 2240 
L 2912 2240 
L 2912 5286 
z
M 1984 3949 
L 4045 3949 
L 4045 3757 
L 1984 3757 
L 1984 3949 
z
M 4422 5043 
L 5754 5043 
L 5754 4858 
L 4422 4858 
L 4422 5043 
z
M 2208 2330 
L 2400 2330 
L 2400 -102 
L 2208 -102 
L 2208 2330 
z
M 2291 2330 
L 3840 2330 
L 3840 288 
L 2291 288 
L 2291 480 
L 3654 480 
L 3654 2138 
L 2291 2138 
L 2291 2330 
z
M 4333 5043 
L 4525 5043 
L 4525 2419 
Q 4525 2080 4499 1702 
Q 4474 1325 4397 944 
Q 4320 563 4173 208 
Q 4026 -147 3776 -448 
Q 3763 -429 3734 -406 
Q 3706 -384 3680 -361 
Q 3654 -339 3629 -326 
Q 3955 64 4102 531 
Q 4250 998 4291 1488 
Q 4333 1978 4333 2419 
L 4333 5043 
z
M 5664 5043 
L 5856 5043 
L 5856 -128 
Q 5856 -262 5811 -326 
Q 5766 -390 5670 -416 
Q 5574 -442 5379 -445 
Q 5184 -448 4838 -448 
Q 4832 -416 4809 -361 
Q 4787 -307 4762 -269 
Q 5043 -275 5257 -275 
Q 5472 -275 5536 -269 
Q 5606 -262 5635 -236 
Q 5664 -211 5664 -134 
L 5664 5043 
z
M 314 4813 
L 2016 4813 
L 2016 4621 
L 314 4621 
L 314 4813 
z
M 390 2950 
L 1920 2950 
L 1920 2758 
L 390 2758 
L 390 2950 
z
M 243 461 
Q 582 563 1040 723 
Q 1498 883 1984 1056 
L 2010 870 
Q 1555 710 1110 550 
Q 666 390 307 262 
L 243 461 
z
M 1075 4736 
L 1261 4736 
L 1261 698 
L 1075 621 
L 1075 4736 
z
M 4730 1504 
Q 4922 1632 5184 1814 
Q 5446 1997 5728 2202 
L 5798 2042 
Q 5562 1856 5328 1680 
Q 5094 1504 4870 1344 
L 4730 1504 
z
M 4781 3590 
L 4934 3667 
Q 5101 3488 5270 3270 
Q 5440 3053 5530 2899 
L 5357 2797 
Q 5274 2963 5107 3187 
Q 4941 3411 4781 3590 
z
" transform="scale(0.015625)"/>
        <path id="NotoSansTC-Thin-7901" d="M 442 4915 
L 2278 4915 
L 2278 4730 
L 442 4730 
L 442 4915 
z
M 973 2970 
L 2163 2970 
L 2163 384 
L 973 384 
L 973 570 
L 1978 570 
L 1978 2778 
L 973 2778 
L 973 2970 
z
M 1274 4845 
L 1472 4813 
Q 1376 4218 1235 3664 
Q 1094 3110 912 2633 
Q 730 2157 486 1786 
Q 467 1805 435 1827 
Q 403 1850 371 1872 
Q 339 1894 314 1907 
Q 691 2438 921 3209 
Q 1152 3981 1274 4845 
z
M 877 2970 
L 1069 2970 
L 1069 -166 
L 877 -166 
L 877 2970 
z
M 2982 3347 
L 5837 3347 
L 5837 3162 
L 2982 3162 
L 2982 3347 
z
M 2982 2419 
L 5869 2419 
L 5869 2234 
L 2982 2234 
L 2982 2419 
z
M 4410 4198 
L 4602 4198 
L 4602 1376 
L 4410 1376 
L 4410 4198 
z
M 3386 5318 
L 3571 5274 
Q 3424 4883 3229 4508 
Q 3034 4134 2810 3811 
Q 2586 3488 2349 3232 
Q 2336 3251 2304 3270 
Q 2272 3290 2240 3312 
Q 2208 3334 2182 3347 
Q 2560 3718 2873 4236 
Q 3187 4755 3386 5318 
z
M 2982 832 
L 3142 762 
Q 3040 467 2873 115 
Q 2707 -237 2496 -480 
L 2336 -384 
Q 2477 -230 2598 -19 
Q 2720 192 2819 419 
Q 2918 646 2982 832 
z
M 3616 768 
L 3795 800 
Q 3885 531 3949 214 
Q 4013 -102 4019 -326 
L 3827 -365 
Q 3821 -141 3760 176 
Q 3699 493 3616 768 
z
M 4454 768 
L 4627 819 
Q 4774 563 4892 249 
Q 5011 -64 5056 -288 
L 4870 -346 
Q 4826 -122 4707 192 
Q 4589 506 4454 768 
z
M 5299 832 
L 5466 896 
Q 5600 704 5737 480 
Q 5875 256 5993 45 
Q 6112 -166 6182 -326 
L 6010 -416 
Q 5939 -250 5820 -32 
Q 5702 186 5564 413 
Q 5427 640 5299 832 
z
M 2950 1466 
L 6061 1466 
L 6061 1274 
L 2950 1274 
L 2950 1466 
z
M 4243 5248 
L 4422 5306 
Q 4531 5114 4633 4886 
Q 4736 4659 4787 4499 
L 4602 4422 
Q 4544 4589 4441 4819 
Q 4339 5050 4243 5248 
z
M 3059 4275 
L 6042 4275 
L 6042 4083 
L 3059 4083 
L 3059 992 
L 2874 992 
L 2874 4128 
L 3008 4275 
L 3059 4275 
z
" transform="scale(0.015625)"/>
        <path id="NotoSansTC-Thin-2c" d="M 422 -1062 
L 339 -890 
Q 563 -762 707 -541 
Q 851 -320 851 -13 
L 755 371 
L 992 70 
Q 947 0 889 -22 
Q 832 -45 768 -45 
Q 659 -45 582 25 
Q 506 96 506 218 
Q 506 346 586 413 
Q 666 480 768 480 
Q 909 480 995 358 
Q 1082 237 1082 32 
Q 1082 -326 893 -611 
Q 704 -896 422 -1062 
z
" transform="scale(0.015625)"/>
        <path id="NotoSansTC-Thin-20" transform="scale(0.015625)"/>
        <path id="NotoSansTC-Thin-71b1" d="M 710 4742 
L 2976 4742 
L 2976 4557 
L 710 4557 
L 710 4742 
z
M 3322 4314 
L 5325 4314 
L 5325 4128 
L 3322 4128 
L 3322 4314 
z
M 442 3898 
L 3213 3898 
L 3213 3706 
L 442 3706 
L 442 3898 
z
M 1734 5267 
L 1920 5267 
L 1920 3827 
L 1734 3827 
L 1734 5267 
z
M 1734 2970 
L 1920 2970 
L 1920 1331 
L 1734 1331 
L 1734 2970 
z
M 621 2400 
L 3053 2400 
L 3053 2208 
L 621 2208 
L 621 2400 
z
M 371 1286 
Q 723 1318 1180 1366 
Q 1638 1414 2160 1472 
Q 2682 1530 3213 1587 
L 3213 1408 
Q 2701 1350 2192 1289 
Q 1683 1229 1225 1177 
Q 768 1126 403 1088 
L 371 1286 
z
M 4218 5318 
L 4403 5318 
Q 4390 4531 4348 3868 
Q 4307 3206 4185 2662 
Q 4064 2118 3817 1692 
Q 3571 1267 3142 966 
Q 3117 998 3069 1036 
Q 3021 1075 2982 1101 
Q 3405 1382 3648 1792 
Q 3891 2202 4009 2733 
Q 4128 3264 4169 3913 
Q 4211 4563 4218 5318 
z
M 3341 3302 
L 3456 3418 
Q 3725 3232 4016 3017 
Q 4307 2803 4572 2601 
Q 4838 2400 5011 2246 
L 4890 2099 
Q 4717 2253 4454 2464 
Q 4192 2675 3901 2896 
Q 3610 3117 3341 3302 
z
M 5242 4314 
L 5427 4314 
L 5427 1600 
Q 5427 1466 5433 1379 
Q 5440 1293 5466 1267 
Q 5498 1242 5568 1242 
Q 5600 1242 5651 1242 
Q 5702 1242 5747 1242 
Q 5843 1242 5882 1286 
Q 5926 1344 5946 1504 
Q 5958 1613 5961 1827 
Q 5965 2042 5965 2342 
Q 6003 2304 6054 2281 
Q 6106 2259 6150 2246 
Q 6150 2074 6144 1894 
Q 6138 1715 6131 1574 
Q 6125 1434 6112 1376 
Q 6086 1184 5990 1126 
Q 5952 1101 5897 1085 
Q 5843 1069 5773 1069 
Q 5734 1069 5660 1069 
Q 5587 1069 5555 1069 
Q 5498 1069 5434 1085 
Q 5370 1101 5318 1146 
Q 5267 1184 5254 1277 
Q 5242 1370 5242 1677 
L 5242 4314 
z
M 2285 634 
L 2458 640 
Q 2522 390 2563 105 
Q 2605 -179 2611 -365 
L 2419 -397 
Q 2419 -192 2380 96 
Q 2342 384 2285 634 
z
M 3629 653 
L 3802 691 
Q 3930 448 4048 153 
Q 4166 -141 4211 -333 
L 4026 -390 
Q 3981 -186 3869 108 
Q 3757 403 3629 653 
z
M 4998 678 
L 5165 755 
Q 5331 582 5494 377 
Q 5658 173 5798 -22 
Q 5939 -218 6022 -371 
L 5856 -454 
Q 5773 -301 5632 -102 
Q 5491 96 5328 301 
Q 5165 506 4998 678 
z
M 1229 742 
L 1389 691 
Q 1248 378 1033 61 
Q 819 -256 557 -461 
L 410 -384 
Q 666 -186 883 121 
Q 1101 429 1229 742 
z
M 1306 3776 
L 1498 3776 
Q 1459 3475 1344 3254 
Q 1229 3034 1017 2886 
Q 806 2739 474 2637 
Q 454 2675 416 2716 
Q 378 2758 346 2784 
Q 666 2874 864 3005 
Q 1062 3136 1168 3325 
Q 1274 3514 1306 3776 
z
M 2189 3814 
L 2381 3814 
L 2381 3238 
Q 2381 3117 2397 3078 
Q 2413 3040 2470 3040 
Q 2515 3040 2627 3040 
Q 2739 3040 2851 3040 
Q 2963 3040 3002 3040 
Q 3053 3040 3123 3046 
Q 3194 3053 3245 3059 
Q 3251 3027 3257 2969 
Q 3264 2912 3270 2880 
Q 3226 2867 3149 2864 
Q 3072 2861 3002 2861 
Q 2963 2861 2848 2861 
Q 2733 2861 2621 2861 
Q 2509 2861 2470 2861 
Q 2298 2861 2243 2944 
Q 2189 3027 2189 3245 
L 2189 3814 
z
" transform="scale(0.015625)"/>
        <path id="NotoSansTC-Thin-5e36" d="M 576 2822 
L 5869 2822 
L 5869 1747 
L 5677 1747 
L 5677 2637 
L 768 2637 
L 768 1747 
L 576 1747 
L 576 2822 
z
M 2490 5190 
L 2682 5190 
L 2682 3379 
L 3731 3379 
L 3731 5190 
L 3923 5190 
L 3923 3194 
L 2490 3194 
L 2490 5190 
z
M 403 4467 
L 5997 4467 
L 5997 4282 
L 403 4282 
L 403 4467 
z
M 1562 5210 
L 1754 5210 
L 1754 4410 
Q 1754 4237 1715 4038 
Q 1677 3840 1555 3645 
Q 1434 3450 1194 3270 
Q 954 3091 550 2944 
Q 538 2982 506 3024 
Q 474 3066 442 3091 
Q 826 3213 1050 3373 
Q 1274 3533 1382 3712 
Q 1491 3891 1526 4070 
Q 1562 4250 1562 4410 
L 1562 5210 
z
M 3091 2496 
L 3283 2496 
L 3283 -435 
L 3091 -435 
L 3091 2496 
z
M 1216 1805 
L 5133 1805 
L 5133 1619 
L 1408 1619 
L 1408 -83 
L 1216 -83 
L 1216 1805 
z
M 5062 1805 
L 5248 1805 
L 5248 243 
Q 5248 141 5219 83 
Q 5190 26 5082 -6 
Q 4979 -32 4755 -35 
Q 4531 -38 4141 -38 
Q 4134 0 4112 45 
Q 4090 90 4064 134 
Q 4288 134 4467 131 
Q 4646 128 4771 131 
Q 4896 134 4941 134 
Q 5011 141 5036 163 
Q 5062 186 5062 237 
L 5062 1805 
z
M 4704 5210 
L 4896 5210 
L 4896 3526 
Q 4896 3398 4918 3360 
Q 4941 3322 5024 3322 
Q 5075 3322 5212 3322 
Q 5350 3322 5488 3322 
Q 5626 3322 5670 3322 
Q 5734 3322 5817 3325 
Q 5901 3328 5958 3334 
Q 5965 3302 5968 3248 
Q 5971 3194 5978 3162 
Q 5933 3155 5853 3152 
Q 5773 3149 5677 3149 
Q 5626 3149 5478 3149 
Q 5331 3149 5193 3149 
Q 5056 3149 5018 3149 
Q 4890 3149 4822 3181 
Q 4755 3213 4729 3299 
Q 4704 3386 4704 3533 
L 4704 5210 
z
" transform="scale(0.015625)"/>
        <path id="NotoSansTC-Thin-96e8" d="M 3078 4845 
L 3270 4845 
L 3270 -384 
L 3078 -384 
L 3078 4845 
z
M 710 3603 
L 5606 3603 
L 5606 3411 
L 896 3411 
L 896 -435 
L 710 -435 
L 710 3603 
z
M 5510 3603 
L 5696 3603 
L 5696 -38 
Q 5696 -179 5651 -252 
Q 5606 -326 5485 -358 
Q 5363 -384 5094 -390 
Q 4826 -397 4416 -397 
Q 4410 -352 4387 -291 
Q 4365 -230 4333 -186 
Q 4589 -192 4800 -192 
Q 5011 -192 5158 -189 
Q 5306 -186 5363 -186 
Q 5453 -179 5481 -150 
Q 5510 -122 5510 -45 
L 5510 3603 
z
M 371 4883 
L 6022 4883 
L 6022 4691 
L 371 4691 
L 371 4883 
z
M 1146 410 
Q 1434 582 1846 854 
Q 2259 1126 2688 1408 
L 2746 1254 
Q 2362 986 1974 723 
Q 1587 461 1267 256 
L 1146 410 
z
M 1306 2803 
L 1434 2918 
Q 1651 2784 1894 2621 
Q 2138 2458 2355 2304 
Q 2573 2150 2720 2029 
L 2592 1888 
Q 2451 2010 2233 2170 
Q 2016 2330 1773 2499 
Q 1530 2669 1306 2803 
z
M 5056 2925 
L 5184 2778 
Q 4986 2618 4730 2451 
Q 4474 2285 4211 2137 
Q 3949 1990 3725 1875 
L 3629 2003 
Q 3846 2118 4108 2278 
Q 4371 2438 4624 2611 
Q 4877 2784 5056 2925 
z
M 3603 1293 
L 3718 1395 
Q 3974 1254 4252 1081 
Q 4531 909 4780 736 
Q 5030 563 5197 429 
L 5075 301 
Q 4915 435 4665 611 
Q 4416 787 4137 966 
Q 3859 1146 3603 1293 
z
" transform="scale(0.015625)"/>
        <path id="NotoSansTC-Thin-6797" d="M 3206 3891 
L 5946 3891 
L 5946 3699 
L 3206 3699 
L 3206 3891 
z
M 4454 5318 
L 4640 5318 
L 4640 -435 
L 4454 -435 
L 4454 5318 
z
M 4403 3840 
L 4582 3782 
Q 4467 3328 4291 2864 
Q 4115 2400 3894 1965 
Q 3674 1530 3424 1168 
Q 3174 806 2925 557 
Q 2899 595 2854 643 
Q 2810 691 2778 717 
Q 3021 954 3264 1299 
Q 3507 1645 3728 2064 
Q 3949 2483 4125 2937 
Q 4301 3392 4403 3840 
z
M 4698 3840 
Q 4845 3245 5072 2656 
Q 5299 2067 5574 1580 
Q 5850 1094 6144 800 
Q 6106 774 6058 726 
Q 6010 678 5978 640 
Q 5690 966 5411 1475 
Q 5133 1984 4902 2585 
Q 4672 3187 4518 3789 
L 4698 3840 
z
M 390 3891 
L 2848 3891 
L 2848 3699 
L 390 3699 
L 390 3891 
z
M 1670 5318 
L 1856 5318 
L 1856 -435 
L 1670 -435 
L 1670 5318 
z
M 1645 3814 
L 1811 3757 
Q 1709 3366 1549 2950 
Q 1389 2534 1197 2137 
Q 1005 1741 797 1405 
Q 589 1069 384 838 
Q 358 870 316 915 
Q 275 960 243 986 
Q 448 1210 653 1530 
Q 858 1850 1050 2230 
Q 1242 2611 1395 3017 
Q 1549 3424 1645 3814 
z
M 1850 3539 
Q 1914 3482 2029 3354 
Q 2144 3226 2285 3066 
Q 2426 2906 2566 2742 
Q 2707 2579 2819 2451 
Q 2931 2323 2982 2259 
L 2822 2093 
Q 2752 2202 2605 2387 
Q 2458 2573 2285 2781 
Q 2112 2989 1958 3168 
Q 1805 3347 1722 3430 
L 1850 3539 
z
" transform="scale(0.015625)"/>
        <path id="NotoSansTC-Thin-6fd5" d="M 2374 4090 
L 2374 3456 
L 5338 3456 
L 5338 4090 
L 2374 4090 
z
M 2374 4902 
L 2374 4282 
L 5338 4282 
L 5338 4902 
L 2374 4902 
z
M 2182 5088 
L 5530 5088 
L 5530 3270 
L 2182 3270 
L 2182 5088 
z
M 3187 691 
L 3354 723 
Q 3443 467 3507 160 
Q 3571 -147 3590 -365 
L 3411 -403 
Q 3392 -179 3331 128 
Q 3270 435 3187 691 
z
M 4160 691 
L 4314 742 
Q 4461 493 4595 192 
Q 4730 -109 4794 -320 
L 4621 -384 
Q 4570 -166 4435 138 
Q 4301 442 4160 691 
z
M 5165 768 
L 5312 838 
Q 5466 653 5616 432 
Q 5766 211 5891 3 
Q 6016 -205 6086 -371 
L 5926 -448 
Q 5856 -282 5734 -70 
Q 5613 141 5462 361 
Q 5312 582 5165 768 
z
M 2387 781 
L 2541 704 
Q 2419 435 2236 112 
Q 2054 -211 1830 -435 
L 1677 -339 
Q 1830 -198 1964 -3 
Q 2099 192 2204 400 
Q 2310 608 2387 781 
z
M 3200 1779 
L 3360 1850 
Q 3501 1651 3622 1401 
Q 3744 1152 3802 973 
L 3635 890 
Q 3578 1075 3456 1324 
Q 3334 1574 3200 1779 
z
M 2016 2003 
Q 2010 2042 1987 2109 
Q 1965 2176 1946 2214 
Q 2010 2227 2061 2265 
Q 2112 2304 2170 2368 
Q 2221 2413 2323 2537 
Q 2426 2662 2547 2835 
Q 2669 3008 2752 3187 
L 2950 3098 
Q 2778 2810 2579 2560 
Q 2381 2310 2195 2138 
L 2195 2131 
Q 2195 2131 2169 2121 
Q 2144 2112 2105 2093 
Q 2067 2074 2041 2051 
Q 2016 2029 2016 2003 
z
M 2016 2003 
L 2016 2170 
L 2163 2240 
L 3181 2298 
Q 3174 2259 3171 2204 
Q 3168 2150 3174 2118 
Q 2707 2086 2470 2067 
Q 2234 2048 2144 2035 
Q 2054 2022 2016 2003 
z
M 2048 1005 
Q 2042 1043 2022 1110 
Q 2003 1178 1978 1222 
Q 2054 1229 2147 1296 
Q 2240 1363 2349 1466 
Q 2426 1536 2608 1725 
Q 2790 1914 3008 2173 
Q 3226 2432 3405 2701 
L 3603 2598 
Q 3270 2170 2924 1789 
Q 2579 1408 2234 1139 
L 2234 1133 
Q 2234 1133 2205 1123 
Q 2176 1114 2141 1094 
Q 2106 1075 2077 1052 
Q 2048 1030 2048 1005 
z
M 2048 1005 
L 2048 1171 
L 2195 1254 
L 3584 1389 
Q 3578 1350 3578 1296 
Q 3578 1242 3578 1210 
Q 3098 1158 2806 1126 
Q 2515 1094 2361 1072 
Q 2208 1050 2144 1034 
Q 2080 1018 2048 1005 
z
M 5293 1779 
L 5446 1856 
Q 5613 1645 5760 1392 
Q 5907 1139 5978 954 
L 5811 864 
Q 5741 1056 5597 1312 
Q 5453 1568 5293 1779 
z
M 3994 1978 
Q 3987 2016 3968 2083 
Q 3949 2150 3930 2189 
Q 3987 2202 4038 2237 
Q 4090 2272 4154 2336 
Q 4198 2381 4297 2502 
Q 4397 2624 4512 2793 
Q 4627 2963 4710 3136 
L 4915 3046 
Q 4736 2771 4550 2524 
Q 4365 2278 4179 2112 
L 4179 2106 
Q 4179 2106 4150 2096 
Q 4122 2086 4086 2067 
Q 4051 2048 4022 2025 
Q 3994 2003 3994 1978 
z
M 3994 1978 
L 3994 2144 
L 4147 2214 
L 5165 2272 
Q 5158 2234 5155 2179 
Q 5152 2125 5158 2093 
Q 4691 2061 4454 2041 
Q 4218 2022 4125 2009 
Q 4032 1997 3994 1978 
z
M 4026 979 
Q 4019 1018 4000 1088 
Q 3981 1158 3962 1197 
Q 4032 1203 4128 1270 
Q 4224 1338 4333 1440 
Q 4416 1510 4601 1699 
Q 4787 1888 5008 2147 
Q 5229 2406 5414 2675 
L 5606 2573 
Q 5274 2144 4922 1763 
Q 4570 1382 4218 1114 
L 4218 1107 
Q 4218 1107 4189 1097 
Q 4160 1088 4121 1069 
Q 4083 1050 4054 1027 
Q 4026 1005 4026 979 
z
M 4026 979 
L 4026 1152 
L 4186 1229 
L 5696 1382 
Q 5690 1338 5690 1283 
Q 5690 1229 5696 1197 
Q 5171 1139 4854 1104 
Q 4538 1069 4371 1049 
Q 4205 1030 4134 1014 
Q 4064 998 4026 979 
z
M 646 5094 
L 749 5235 
Q 934 5152 1132 5040 
Q 1331 4928 1507 4806 
Q 1683 4685 1792 4576 
L 1696 4403 
Q 1587 4518 1411 4643 
Q 1235 4768 1036 4886 
Q 838 5005 646 5094 
z
M 307 3354 
L 403 3501 
Q 589 3424 784 3318 
Q 979 3213 1148 3097 
Q 1318 2982 1427 2880 
L 1331 2714 
Q 1222 2816 1049 2934 
Q 877 3053 685 3161 
Q 493 3270 307 3354 
z
M 493 -166 
Q 646 83 828 432 
Q 1011 781 1200 1165 
Q 1389 1549 1542 1901 
L 1670 1773 
Q 1523 1440 1344 1065 
Q 1165 691 982 332 
Q 800 -26 640 -307 
L 493 -166 
z
" transform="scale(0.015625)"/>
        <path id="NotoSansTC-Thin-5730" d="M 384 3718 
L 2221 3718 
L 2221 3533 
L 384 3533 
L 384 3718 
z
M 1242 5254 
L 1434 5254 
L 1434 1190 
L 1242 1190 
L 1242 5254 
z
M 288 870 
Q 538 966 861 1100 
Q 1184 1235 1545 1388 
Q 1907 1542 2272 1696 
L 2310 1517 
Q 1792 1293 1280 1072 
Q 768 851 365 685 
L 288 870 
z
M 4179 5318 
L 4365 5318 
L 4365 915 
L 4179 915 
L 4179 5318 
z
M 2048 2611 
L 5626 4109 
L 5709 3942 
L 2125 2438 
L 2048 2611 
z
M 2797 4742 
L 2989 4742 
L 2989 320 
Q 2989 160 3033 67 
Q 3078 -26 3196 -64 
Q 3315 -102 3546 -102 
Q 3616 -102 3792 -102 
Q 3968 -102 4201 -102 
Q 4435 -102 4672 -102 
Q 4909 -102 5101 -102 
Q 5293 -102 5389 -102 
Q 5594 -102 5693 -16 
Q 5792 70 5833 291 
Q 5875 512 5894 915 
Q 5939 883 5990 860 
Q 6042 838 6086 832 
Q 6061 403 6006 160 
Q 5952 -83 5805 -185 
Q 5658 -288 5363 -288 
Q 5318 -288 5139 -288 
Q 4960 -288 4713 -288 
Q 4467 -288 4220 -288 
Q 3974 -288 3795 -288 
Q 3616 -288 3578 -288 
Q 3283 -288 3110 -237 
Q 2938 -186 2867 -51 
Q 2797 83 2797 333 
L 2797 4742 
z
M 5562 3974 
L 5491 3974 
L 5626 4109 
L 5779 4051 
L 5760 4000 
Q 5722 3539 5661 3020 
Q 5600 2502 5526 2022 
Q 5453 1542 5363 1197 
L 5203 1248 
Q 5261 1504 5315 1837 
Q 5370 2170 5418 2538 
Q 5466 2906 5501 3277 
Q 5536 3648 5562 3974 
z
" transform="scale(0.015625)"/>
        <path id="NotoSansTC-Thin-8349" d="M 384 890 
L 6035 890 
L 6035 704 
L 384 704 
L 384 890 
z
M 3085 1741 
L 3277 1741 
L 3277 -461 
L 3085 -461 
L 3085 1741 
z
M 1414 2630 
L 1414 1805 
L 5005 1805 
L 5005 2630 
L 1414 2630 
z
M 1414 3629 
L 1414 2816 
L 5005 2816 
L 5005 3629 
L 1414 3629 
z
M 1222 3814 
L 5197 3814 
L 5197 1619 
L 1222 1619 
L 1222 3814 
z
M 435 4781 
L 3008 4781 
L 3008 4595 
L 435 4595 
L 435 4781 
z
M 1894 5318 
L 2086 5318 
L 2086 3968 
L 1894 3968 
L 1894 5318 
z
M 4320 5312 
L 4512 5312 
L 4512 3962 
L 4320 3962 
L 4320 5312 
z
M 3392 4781 
L 5997 4781 
L 5997 4595 
L 3392 4595 
L 3392 4781 
z
" transform="scale(0.015625)"/>
        <path id="NotoSansTC-Thin-539f" d="M 1069 4890 
L 5984 4890 
L 5984 4698 
L 1069 4698 
L 1069 4890 
z
M 966 4890 
L 1158 4890 
L 1158 3123 
Q 1158 2746 1136 2304 
Q 1114 1862 1040 1401 
Q 966 941 828 496 
Q 691 51 461 -333 
Q 448 -314 419 -291 
Q 390 -269 361 -246 
Q 333 -224 307 -218 
Q 531 160 662 585 
Q 794 1011 861 1456 
Q 928 1901 947 2326 
Q 966 2752 966 3123 
L 966 4890 
z
M 2080 2675 
L 2080 1882 
L 5222 1882 
L 5222 2675 
L 2080 2675 
z
M 2080 3642 
L 2080 2861 
L 5222 2861 
L 5222 3642 
L 2080 3642 
z
M 1888 3827 
L 5408 3827 
L 5408 1696 
L 1888 1696 
L 1888 3827 
z
M 3539 1869 
L 3725 1869 
L 3725 -141 
Q 3725 -262 3686 -320 
Q 3648 -378 3546 -410 
Q 3437 -435 3203 -435 
Q 2970 -435 2566 -435 
Q 2560 -403 2534 -355 
Q 2509 -307 2483 -262 
Q 2842 -269 3085 -272 
Q 3328 -275 3405 -269 
Q 3488 -262 3513 -236 
Q 3539 -211 3539 -147 
L 3539 1869 
z
M 3552 4563 
L 3744 4506 
Q 3661 4307 3568 4086 
Q 3475 3866 3386 3699 
L 3226 3744 
Q 3315 3917 3408 4150 
Q 3501 4384 3552 4563 
z
M 4506 1133 
L 4653 1216 
Q 4870 1018 5104 784 
Q 5338 550 5546 326 
Q 5754 102 5888 -58 
L 5734 -173 
Q 5600 -6 5392 221 
Q 5184 448 4950 688 
Q 4717 928 4506 1133 
z
M 2458 1248 
L 2643 1184 
Q 2470 960 2265 720 
Q 2061 480 1856 259 
Q 1651 38 1466 -134 
Q 1446 -122 1414 -99 
Q 1382 -77 1350 -54 
Q 1318 -32 1293 -19 
Q 1594 243 1907 582 
Q 2221 922 2458 1248 
z
" transform="scale(0.015625)"/>
        <path id="NotoSansTC-Thin-6c99" d="M 2842 4166 
L 3034 4128 
Q 2931 3744 2793 3363 
Q 2656 2982 2502 2649 
Q 2349 2317 2182 2054 
Q 2163 2067 2131 2083 
Q 2099 2099 2067 2115 
Q 2035 2131 2003 2138 
Q 2182 2400 2336 2729 
Q 2490 3059 2618 3427 
Q 2746 3795 2842 4166 
z
M 4928 4179 
L 5088 4250 
Q 5299 3974 5494 3651 
Q 5690 3328 5850 3017 
Q 6010 2707 6093 2464 
L 5914 2394 
Q 5830 2637 5673 2947 
Q 5517 3258 5325 3581 
Q 5133 3904 4928 4179 
z
M 5370 2362 
L 5549 2291 
Q 5318 1587 4873 1036 
Q 4429 486 3757 105 
Q 3085 -275 2150 -486 
Q 2131 -448 2099 -403 
Q 2067 -358 2035 -326 
Q 2957 -122 3619 246 
Q 4282 614 4710 1145 
Q 5139 1677 5370 2362 
z
M 3859 5293 
L 4045 5293 
L 4045 1594 
L 3859 1594 
L 3859 5293 
z
M 627 5107 
L 749 5235 
Q 966 5146 1196 5027 
Q 1427 4909 1635 4781 
Q 1843 4653 1978 4544 
L 1856 4384 
Q 1722 4493 1517 4624 
Q 1312 4755 1078 4883 
Q 845 5011 627 5107 
z
M 314 3354 
L 435 3488 
Q 640 3398 861 3280 
Q 1082 3162 1277 3040 
Q 1472 2918 1600 2810 
L 1478 2656 
Q 1350 2758 1155 2883 
Q 960 3008 742 3133 
Q 525 3258 314 3354 
z
M 518 -224 
Q 691 26 908 381 
Q 1126 736 1344 1129 
Q 1562 1523 1741 1882 
L 1875 1760 
Q 1709 1421 1501 1037 
Q 1293 653 1078 291 
Q 864 -70 678 -358 
L 518 -224 
z
" transform="scale(0.015625)"/>
        <path id="NotoSansTC-Thin-6f20" d="M 1984 4691 
L 3910 4691 
L 3910 4506 
L 1984 4506 
L 1984 4691 
z
M 1830 1235 
L 6074 1235 
L 6074 1050 
L 1830 1050 
L 1830 1235 
z
M 3014 5312 
L 3200 5312 
L 3200 3904 
L 3014 3904 
L 3014 5312 
z
M 4704 5312 
L 4896 5312 
L 4896 3904 
L 4704 3904 
L 4704 5312 
z
M 2522 2758 
L 2522 2112 
L 5376 2112 
L 5376 2758 
L 2522 2758 
z
M 2522 3584 
L 2522 2950 
L 5376 2950 
L 5376 3584 
L 2522 3584 
z
M 2336 3770 
L 5562 3770 
L 5562 1926 
L 2336 1926 
L 2336 3770 
z
M 3853 1971 
L 4045 1971 
Q 3987 1478 3849 1084 
Q 3712 691 3459 393 
Q 3206 96 2790 -115 
Q 2374 -326 1760 -461 
Q 1747 -429 1712 -377 
Q 1677 -326 1645 -301 
Q 2253 -179 2656 19 
Q 3059 218 3302 499 
Q 3546 781 3670 1149 
Q 3795 1517 3853 1971 
z
M 4115 4691 
L 6042 4691 
L 6042 4506 
L 4115 4506 
L 4115 4691 
z
M 4134 781 
L 4243 915 
Q 4557 736 4893 521 
Q 5229 307 5529 102 
Q 5830 -102 6029 -256 
L 5920 -422 
Q 5722 -262 5421 -51 
Q 5120 160 4781 381 
Q 4442 602 4134 781 
z
M 627 5107 
L 755 5222 
Q 922 5101 1107 4960 
Q 1293 4819 1456 4684 
Q 1619 4550 1728 4448 
L 1606 4307 
Q 1498 4416 1331 4553 
Q 1165 4691 982 4838 
Q 800 4986 627 5107 
z
M 314 3354 
L 435 3482 
Q 621 3373 819 3238 
Q 1018 3104 1200 2976 
Q 1382 2848 1498 2752 
L 1389 2605 
Q 1267 2701 1084 2832 
Q 902 2963 700 3100 
Q 499 3238 314 3354 
z
M 474 -224 
Q 621 32 797 387 
Q 973 742 1149 1132 
Q 1325 1523 1472 1882 
L 1613 1766 
Q 1478 1434 1308 1050 
Q 1139 666 966 304 
Q 794 -58 640 -346 
L 474 -224 
z
" transform="scale(0.015625)"/>
       </defs>
       <use xlink:href="#NotoSansTC-Thin-73ca"/>
       <use xlink:href="#NotoSansTC-Thin-745a" x="99.999985"/>
       <use xlink:href="#NotoSansTC-Thin-7901" x="199.999969"/>
       <use xlink:href="#NotoSansTC-Thin-2c" x="299.999954"/>
       <use xlink:href="#NotoSansTC-Thin-20" x="323.099945"/>
       <use xlink:href="#NotoSansTC-Thin-71b1" x="345.09993"/>
       <use xlink:href="#NotoSansTC-Thin-5e36" x="445.099915"/>
       <use xlink:href="#NotoSansTC-Thin-96e8" x="545.099899"/>
       <use xlink:href="#NotoSansTC-Thin-6797" x="645.099884"/>
       <use xlink:href="#NotoSansTC-Thin-2c" x="745.099869"/>
       <use xlink:href="#NotoSansTC-Thin-20" x="768.19986"/>
       <use xlink:href="#NotoSansTC-Thin-6fd5" x="790.199844"/>
       <use xlink:href="#NotoSansTC-Thin-5730" x="890.199829"/>
       <use xlink:href="#NotoSansTC-Thin-2c" x="990.199814"/>
       <use xlink:href="#NotoSansTC-Thin-20" x="1013.299805"/>
       <use xlink:href="#NotoSansTC-Thin-8349" x="1035.299789"/>
       <use xlink:href="#NotoSansTC-Thin-539f" x="1135.299774"/>
       <use xlink:href="#NotoSansTC-Thin-2c" x="1235.299759"/>
       <use xlink:href="#NotoSansTC-Thin-20" x="1258.39975"/>
       <use xlink:href="#NotoSansTC-Thin-6c99" x="1280.399734"/>
       <use xlink:href="#NotoSansTC-Thin-6f20" x="1380.399719"/>
      </g>
     </g>
    </g>
    <g id="xtick_2">
     <g id="line2d_2">
      <g>
       <use xlink:href="#m15b120be50" x="170.482536" y="257.909743" style="stroke: #000000; stroke-width: 0.8"/>
      </g>
     </g>
     <g id="text_2">
      <!-- 珊瑚礁, 濕地, 熱帶雨林, 草原, 沙漠 -->
      <g transform="translate(42.806893 397.261571) rotate(-45) scale(0.12 -0.12)">
       <use xlink:href="#NotoSansTC-Thin-73ca"/>
       <use xlink:href="#NotoSansTC-Thin-745a" x="99.999985"/>
       <use xlink:href="#NotoSansTC-Thin-7901" x="199.999969"/>
       <use xlink:href="#NotoSansTC-Thin-2c" x="299.999954"/>
       <use xlink:href="#NotoSansTC-Thin-20" x="323.099945"/>
       <use xlink:href="#NotoSansTC-Thin-6fd5" x="345.09993"/>
       <use xlink:href="#NotoSansTC-Thin-5730" x="445.099915"/>
       <use xlink:href="#NotoSansTC-Thin-2c" x="545.099899"/>
       <use xlink:href="#NotoSansTC-Thin-20" x="568.19989"/>
       <use xlink:href="#NotoSansTC-Thin-71b1" x="590.199875"/>
       <use xlink:href="#NotoSansTC-Thin-5e36" x="690.19986"/>
       <use xlink:href="#NotoSansTC-Thin-96e8" x="790.199844"/>
       <use xlink:href="#NotoSansTC-Thin-6797" x="890.199829"/>
       <use xlink:href="#NotoSansTC-Thin-2c" x="990.199814"/>
       <use xlink:href="#NotoSansTC-Thin-20" x="1013.299805"/>
       <use xlink:href="#NotoSansTC-Thin-8349" x="1035.299789"/>
       <use xlink:href="#NotoSansTC-Thin-539f" x="1135.299774"/>
       <use xlink:href="#NotoSansTC-Thin-2c" x="1235.299759"/>
       <use xlink:href="#NotoSansTC-Thin-20" x="1258.39975"/>
       <use xlink:href="#NotoSansTC-Thin-6c99" x="1280.399734"/>
       <use xlink:href="#NotoSansTC-Thin-6f20" x="1380.399719"/>
      </g>
     </g>
    </g>
    <g id="xtick_3">
     <g id="line2d_3">
      <g>
       <use xlink:href="#m15b120be50" x="199.351585" y="257.909743" style="stroke: #000000; stroke-width: 0.8"/>
      </g>
     </g>
     <g id="text_3">
      <!-- 熱帶雨林, 珊瑚礁, 濕地, 草原, 沙漠 -->
      <g transform="translate(71.675943 397.261571) rotate(-45) scale(0.12 -0.12)">
       <use xlink:href="#NotoSansTC-Thin-71b1"/>
       <use xlink:href="#NotoSansTC-Thin-5e36" x="99.999985"/>
       <use xlink:href="#NotoSansTC-Thin-96e8" x="199.999969"/>
       <use xlink:href="#NotoSansTC-Thin-6797" x="299.999954"/>
       <use xlink:href="#NotoSansTC-Thin-2c" x="399.999939"/>
       <use xlink:href="#NotoSansTC-Thin-20" x="423.09993"/>
       <use xlink:href="#NotoSansTC-Thin-73ca" x="445.099915"/>
       <use xlink:href="#NotoSansTC-Thin-745a" x="545.099899"/>
       <use xlink:href="#NotoSansTC-Thin-7901" x="645.099884"/>
       <use xlink:href="#NotoSansTC-Thin-2c" x="745.099869"/>
       <use xlink:href="#NotoSansTC-Thin-20" x="768.19986"/>
       <use xlink:href="#NotoSansTC-Thin-6fd5" x="790.199844"/>
       <use xlink:href="#NotoSansTC-Thin-5730" x="890.199829"/>
       <use xlink:href="#NotoSansTC-Thin-2c" x="990.199814"/>
       <use xlink:href="#NotoSansTC-Thin-20" x="1013.299805"/>
       <use xlink:href="#NotoSansTC-Thin-8349" x="1035.299789"/>
       <use xlink:href="#NotoSansTC-Thin-539f" x="1135.299774"/>
       <use xlink:href="#NotoSansTC-Thin-2c" x="1235.299759"/>
       <use xlink:href="#NotoSansTC-Thin-20" x="1258.39975"/>
       <use xlink:href="#NotoSansTC-Thin-6c99" x="1280.399734"/>
       <use xlink:href="#NotoSansTC-Thin-6f20" x="1380.399719"/>
      </g>
     </g>
    </g>
    <g id="xtick_4">
     <g id="line2d_4">
      <g>
       <use xlink:href="#m15b120be50" x="228.220635" y="257.909743" style="stroke: #000000; stroke-width: 0.8"/>
      </g>
     </g>
     <g id="text_4">
      <!-- 珊瑚礁, 熱帶雨林, 草原, 濕地, 沙漠 -->
      <g transform="translate(100.544993 397.261571) rotate(-45) scale(0.12 -0.12)">
       <use xlink:href="#NotoSansTC-Thin-73ca"/>
       <use xlink:href="#NotoSansTC-Thin-745a" x="99.999985"/>
       <use xlink:href="#NotoSansTC-Thin-7901" x="199.999969"/>
       <use xlink:href="#NotoSansTC-Thin-2c" x="299.999954"/>
       <use xlink:href="#NotoSansTC-Thin-20" x="323.099945"/>
       <use xlink:href="#NotoSansTC-Thin-71b1" x="345.09993"/>
       <use xlink:href="#NotoSansTC-Thin-5e36" x="445.099915"/>
       <use xlink:href="#NotoSansTC-Thin-96e8" x="545.099899"/>
       <use xlink:href="#NotoSansTC-Thin-6797" x="645.099884"/>
       <use xlink:href="#NotoSansTC-Thin-2c" x="745.099869"/>
       <use xlink:href="#NotoSansTC-Thin-20" x="768.19986"/>
       <use xlink:href="#NotoSansTC-Thin-8349" x="790.199844"/>
       <use xlink:href="#NotoSansTC-Thin-539f" x="890.199829"/>
       <use xlink:href="#NotoSansTC-Thin-2c" x="990.199814"/>
       <use xlink:href="#NotoSansTC-Thin-20" x="1013.299805"/>
       <use xlink:href="#NotoSansTC-Thin-6fd5" x="1035.299789"/>
       <use xlink:href="#NotoSansTC-Thin-5730" x="1135.299774"/>
       <use xlink:href="#NotoSansTC-Thin-2c" x="1235.299759"/>
       <use xlink:href="#NotoSansTC-Thin-20" x="1258.39975"/>
       <use xlink:href="#NotoSansTC-Thin-6c99" x="1280.399734"/>
       <use xlink:href="#NotoSansTC-Thin-6f20" x="1380.399719"/>
      </g>
     </g>
    </g>
    <g id="xtick_5">
     <g id="line2d_5">
      <g>
       <use xlink:href="#m15b120be50" x="257.089685" y="257.909743" style="stroke: #000000; stroke-width: 0.8"/>
      </g>
     </g>
     <g id="text_5">
      <!-- 珊瑚礁, 熱帶雨林, 濕地, 沙漠, 草原 -->
      <g transform="translate(129.414042 397.261571) rotate(-45) scale(0.12 -0.12)">
       <use xlink:href="#NotoSansTC-Thin-73ca"/>
       <use xlink:href="#NotoSansTC-Thin-745a" x="99.999985"/>
       <use xlink:href="#NotoSansTC-Thin-7901" x="199.999969"/>
       <use xlink:href="#NotoSansTC-Thin-2c" x="299.999954"/>
       <use xlink:href="#NotoSansTC-Thin-20" x="323.099945"/>
       <use xlink:href="#NotoSansTC-Thin-71b1" x="345.09993"/>
       <use xlink:href="#NotoSansTC-Thin-5e36" x="445.099915"/>
       <use xlink:href="#NotoSansTC-Thin-96e8" x="545.099899"/>
       <use xlink:href="#NotoSansTC-Thin-6797" x="645.099884"/>
       <use xlink:href="#NotoSansTC-Thin-2c" x="745.099869"/>
       <use xlink:href="#NotoSansTC-Thin-20" x="768.19986"/>
       <use xlink:href="#NotoSansTC-Thin-6fd5" x="790.199844"/>
       <use xlink:href="#NotoSansTC-Thin-5730" x="890.199829"/>
       <use xlink:href="#NotoSansTC-Thin-2c" x="990.199814"/>
       <use xlink:href="#NotoSansTC-Thin-20" x="1013.299805"/>
       <use xlink:href="#NotoSansTC-Thin-6c99" x="1035.299789"/>
       <use xlink:href="#NotoSansTC-Thin-6f20" x="1135.299774"/>
       <use xlink:href="#NotoSansTC-Thin-2c" x="1235.299759"/>
       <use xlink:href="#NotoSansTC-Thin-20" x="1258.39975"/>
       <use xlink:href="#NotoSansTC-Thin-8349" x="1280.399734"/>
       <use xlink:href="#NotoSansTC-Thin-539f" x="1380.399719"/>
      </g>
     </g>
    </g>
    <g id="xtick_6">
     <g id="line2d_6">
      <g>
       <use xlink:href="#m15b120be50" x="285.958734" y="257.909743" style="stroke: #000000; stroke-width: 0.8"/>
      </g>
     </g>
     <g id="text_6">
      <!-- 熱帶雨林, 珊瑚礁, 草原, 濕地, 沙漠 -->
      <g transform="translate(158.283092 397.261571) rotate(-45) scale(0.12 -0.12)">
       <use xlink:href="#NotoSansTC-Thin-71b1"/>
       <use xlink:href="#NotoSansTC-Thin-5e36" x="99.999985"/>
       <use xlink:href="#NotoSansTC-Thin-96e8" x="199.999969"/>
       <use xlink:href="#NotoSansTC-Thin-6797" x="299.999954"/>
       <use xlink:href="#NotoSansTC-Thin-2c" x="399.999939"/>
       <use xlink:href="#NotoSansTC-Thin-20" x="423.09993"/>
       <use xlink:href="#NotoSansTC-Thin-73ca" x="445.099915"/>
       <use xlink:href="#NotoSansTC-Thin-745a" x="545.099899"/>
       <use xlink:href="#NotoSansTC-Thin-7901" x="645.099884"/>
       <use xlink:href="#NotoSansTC-Thin-2c" x="745.099869"/>
       <use xlink:href="#NotoSansTC-Thin-20" x="768.19986"/>
       <use xlink:href="#NotoSansTC-Thin-8349" x="790.199844"/>
       <use xlink:href="#NotoSansTC-Thin-539f" x="890.199829"/>
       <use xlink:href="#NotoSansTC-Thin-2c" x="990.199814"/>
       <use xlink:href="#NotoSansTC-Thin-20" x="1013.299805"/>
       <use xlink:href="#NotoSansTC-Thin-6fd5" x="1035.299789"/>
       <use xlink:href="#NotoSansTC-Thin-5730" x="1135.299774"/>
       <use xlink:href="#NotoSansTC-Thin-2c" x="1235.299759"/>
       <use xlink:href="#NotoSansTC-Thin-20" x="1258.39975"/>
       <use xlink:href="#NotoSansTC-Thin-6c99" x="1280.399734"/>
       <use xlink:href="#NotoSansTC-Thin-6f20" x="1380.399719"/>
      </g>
     </g>
    </g>
    <g id="xtick_7">
     <g id="line2d_7">
      <g>
       <use xlink:href="#m15b120be50" x="314.827784" y="257.909743" style="stroke: #000000; stroke-width: 0.8"/>
      </g>
     </g>
     <g id="text_7">
      <!-- 珊瑚礁, 濕地, 草原, 熱帶雨林, 沙漠 -->
      <g transform="translate(187.152142 397.261571) rotate(-45) scale(0.12 -0.12)">
       <use xlink:href="#NotoSansTC-Thin-73ca"/>
       <use xlink:href="#NotoSansTC-Thin-745a" x="99.999985"/>
       <use xlink:href="#NotoSansTC-Thin-7901" x="199.999969"/>
       <use xlink:href="#NotoSansTC-Thin-2c" x="299.999954"/>
       <use xlink:href="#NotoSansTC-Thin-20" x="323.099945"/>
       <use xlink:href="#NotoSansTC-Thin-6fd5" x="345.09993"/>
       <use xlink:href="#NotoSansTC-Thin-5730" x="445.099915"/>
       <use xlink:href="#NotoSansTC-Thin-2c" x="545.099899"/>
       <use xlink:href="#NotoSansTC-Thin-20" x="568.19989"/>
       <use xlink:href="#NotoSansTC-Thin-8349" x="590.199875"/>
       <use xlink:href="#NotoSansTC-Thin-539f" x="690.19986"/>
       <use xlink:href="#NotoSansTC-Thin-2c" x="790.199844"/>
       <use xlink:href="#NotoSansTC-Thin-20" x="813.299835"/>
       <use xlink:href="#NotoSansTC-Thin-71b1" x="835.29982"/>
       <use xlink:href="#NotoSansTC-Thin-5e36" x="935.299805"/>
       <use xlink:href="#NotoSansTC-Thin-96e8" x="1035.299789"/>
       <use xlink:href="#NotoSansTC-Thin-6797" x="1135.299774"/>
       <use xlink:href="#NotoSansTC-Thin-2c" x="1235.299759"/>
       <use xlink:href="#NotoSansTC-Thin-20" x="1258.39975"/>
       <use xlink:href="#NotoSansTC-Thin-6c99" x="1280.399734"/>
       <use xlink:href="#NotoSansTC-Thin-6f20" x="1380.399719"/>
      </g>
     </g>
    </g>
    <g id="xtick_8">
     <g id="line2d_8">
      <g>
       <use xlink:href="#m15b120be50" x="343.696834" y="257.909743" style="stroke: #000000; stroke-width: 0.8"/>
      </g>
     </g>
     <g id="text_8">
      <!-- 珊瑚礁, 熱帶雨林, 沙漠, 濕地, 草原 -->
      <g transform="translate(216.021191 397.261571) rotate(-45) scale(0.12 -0.12)">
       <use xlink:href="#NotoSansTC-Thin-73ca"/>
       <use xlink:href="#NotoSansTC-Thin-745a" x="99.999985"/>
       <use xlink:href="#NotoSansTC-Thin-7901" x="199.999969"/>
       <use xlink:href="#NotoSansTC-Thin-2c" x="299.999954"/>
       <use xlink:href="#NotoSansTC-Thin-20" x="323.099945"/>
       <use xlink:href="#NotoSansTC-Thin-71b1" x="345.09993"/>
       <use xlink:href="#NotoSansTC-Thin-5e36" x="445.099915"/>
       <use xlink:href="#NotoSansTC-Thin-96e8" x="545.099899"/>
       <use xlink:href="#NotoSansTC-Thin-6797" x="645.099884"/>
       <use xlink:href="#NotoSansTC-Thin-2c" x="745.099869"/>
       <use xlink:href="#NotoSansTC-Thin-20" x="768.19986"/>
       <use xlink:href="#NotoSansTC-Thin-6c99" x="790.199844"/>
       <use xlink:href="#NotoSansTC-Thin-6f20" x="890.199829"/>
       <use xlink:href="#NotoSansTC-Thin-2c" x="990.199814"/>
       <use xlink:href="#NotoSansTC-Thin-20" x="1013.299805"/>
       <use xlink:href="#NotoSansTC-Thin-6fd5" x="1035.299789"/>
       <use xlink:href="#NotoSansTC-Thin-5730" x="1135.299774"/>
       <use xlink:href="#NotoSansTC-Thin-2c" x="1235.299759"/>
       <use xlink:href="#NotoSansTC-Thin-20" x="1258.39975"/>
       <use xlink:href="#NotoSansTC-Thin-8349" x="1280.399734"/>
       <use xlink:href="#NotoSansTC-Thin-539f" x="1380.399719"/>
      </g>
     </g>
    </g>
    <g id="xtick_9">
     <g id="line2d_9">
      <g>
       <use xlink:href="#m15b120be50" x="372.565883" y="257.909743" style="stroke: #000000; stroke-width: 0.8"/>
      </g>
     </g>
     <g id="text_9">
      <!-- 熱帶雨林, 珊瑚礁, 濕地, 沙漠, 草原 -->
      <g transform="translate(244.890241 397.261571) rotate(-45) scale(0.12 -0.12)">
       <use xlink:href="#NotoSansTC-Thin-71b1"/>
       <use xlink:href="#NotoSansTC-Thin-5e36" x="99.999985"/>
       <use xlink:href="#NotoSansTC-Thin-96e8" x="199.999969"/>
       <use xlink:href="#NotoSansTC-Thin-6797" x="299.999954"/>
       <use xlink:href="#NotoSansTC-Thin-2c" x="399.999939"/>
       <use xlink:href="#NotoSansTC-Thin-20" x="423.09993"/>
       <use xlink:href="#NotoSansTC-Thin-73ca" x="445.099915"/>
       <use xlink:href="#NotoSansTC-Thin-745a" x="545.099899"/>
       <use xlink:href="#NotoSansTC-Thin-7901" x="645.099884"/>
       <use xlink:href="#NotoSansTC-Thin-2c" x="745.099869"/>
       <use xlink:href="#NotoSansTC-Thin-20" x="768.19986"/>
       <use xlink:href="#NotoSansTC-Thin-6fd5" x="790.199844"/>
       <use xlink:href="#NotoSansTC-Thin-5730" x="890.199829"/>
       <use xlink:href="#NotoSansTC-Thin-2c" x="990.199814"/>
       <use xlink:href="#NotoSansTC-Thin-20" x="1013.299805"/>
       <use xlink:href="#NotoSansTC-Thin-6c99" x="1035.299789"/>
       <use xlink:href="#NotoSansTC-Thin-6f20" x="1135.299774"/>
       <use xlink:href="#NotoSansTC-Thin-2c" x="1235.299759"/>
       <use xlink:href="#NotoSansTC-Thin-20" x="1258.39975"/>
       <use xlink:href="#NotoSansTC-Thin-8349" x="1280.399734"/>
       <use xlink:href="#NotoSansTC-Thin-539f" x="1380.399719"/>
      </g>
     </g>
    </g>
    <g id="xtick_10">
     <g id="line2d_10">
      <g>
       <use xlink:href="#m15b120be50" x="401.434933" y="257.909743" style="stroke: #000000; stroke-width: 0.8"/>
      </g>
     </g>
     <g id="text_10">
      <!-- 熱帶雨林, 濕地, 珊瑚礁, 草原, 沙漠 -->
      <g transform="translate(273.759291 397.261571) rotate(-45) scale(0.12 -0.12)">
       <use xlink:href="#NotoSansTC-Thin-71b1"/>
       <use xlink:href="#NotoSansTC-Thin-5e36" x="99.999985"/>
       <use xlink:href="#NotoSansTC-Thin-96e8" x="199.999969"/>
       <use xlink:href="#NotoSansTC-Thin-6797" x="299.999954"/>
       <use xlink:href="#NotoSansTC-Thin-2c" x="399.999939"/>
       <use xlink:href="#NotoSansTC-Thin-20" x="423.09993"/>
       <use xlink:href="#NotoSansTC-Thin-6fd5" x="445.099915"/>
       <use xlink:href="#NotoSansTC-Thin-5730" x="545.099899"/>
       <use xlink:href="#NotoSansTC-Thin-2c" x="645.099884"/>
       <use xlink:href="#NotoSansTC-Thin-20" x="668.199875"/>
       <use xlink:href="#NotoSansTC-Thin-73ca" x="690.19986"/>
       <use xlink:href="#NotoSansTC-Thin-745a" x="790.199844"/>
       <use xlink:href="#NotoSansTC-Thin-7901" x="890.199829"/>
       <use xlink:href="#NotoSansTC-Thin-2c" x="990.199814"/>
       <use xlink:href="#NotoSansTC-Thin-20" x="1013.299805"/>
       <use xlink:href="#NotoSansTC-Thin-8349" x="1035.299789"/>
       <use xlink:href="#NotoSansTC-Thin-539f" x="1135.299774"/>
       <use xlink:href="#NotoSansTC-Thin-2c" x="1235.299759"/>
       <use xlink:href="#NotoSansTC-Thin-20" x="1258.39975"/>
       <use xlink:href="#NotoSansTC-Thin-6c99" x="1280.399734"/>
       <use xlink:href="#NotoSansTC-Thin-6f20" x="1380.399719"/>
      </g>
     </g>
    </g>
    <g id="xtick_11">
     <g id="line2d_11">
      <g>
       <use xlink:href="#m15b120be50" x="430.303983" y="257.909743" style="stroke: #000000; stroke-width: 0.8"/>
      </g>
     </g>
     <g id="text_11">
      <!-- 珊瑚礁, 濕地, 沙漠, 草原, 熱帶雨林 -->
      <g transform="translate(302.62834 397.261571) rotate(-45) scale(0.12 -0.12)">
       <use xlink:href="#NotoSansTC-Thin-73ca"/>
       <use xlink:href="#NotoSansTC-Thin-745a" x="99.999985"/>
       <use xlink:href="#NotoSansTC-Thin-7901" x="199.999969"/>
       <use xlink:href="#NotoSansTC-Thin-2c" x="299.999954"/>
       <use xlink:href="#NotoSansTC-Thin-20" x="323.099945"/>
       <use xlink:href="#NotoSansTC-Thin-6fd5" x="345.09993"/>
       <use xlink:href="#NotoSansTC-Thin-5730" x="445.099915"/>
       <use xlink:href="#NotoSansTC-Thin-2c" x="545.099899"/>
       <use xlink:href="#NotoSansTC-Thin-20" x="568.19989"/>
       <use xlink:href="#NotoSansTC-Thin-6c99" x="590.199875"/>
       <use xlink:href="#NotoSansTC-Thin-6f20" x="690.19986"/>
       <use xlink:href="#NotoSansTC-Thin-2c" x="790.199844"/>
       <use xlink:href="#NotoSansTC-Thin-20" x="813.299835"/>
       <use xlink:href="#NotoSansTC-Thin-8349" x="835.29982"/>
       <use xlink:href="#NotoSansTC-Thin-539f" x="935.299805"/>
       <use xlink:href="#NotoSansTC-Thin-2c" x="1035.299789"/>
       <use xlink:href="#NotoSansTC-Thin-20" x="1058.39978"/>
       <use xlink:href="#NotoSansTC-Thin-71b1" x="1080.399765"/>
       <use xlink:href="#NotoSansTC-Thin-5e36" x="1180.39975"/>
       <use xlink:href="#NotoSansTC-Thin-96e8" x="1280.399734"/>
       <use xlink:href="#NotoSansTC-Thin-6797" x="1380.399719"/>
      </g>
     </g>
    </g>
    <g id="xtick_12">
     <g id="line2d_12">
      <g>
       <use xlink:href="#m15b120be50" x="459.173032" y="257.909743" style="stroke: #000000; stroke-width: 0.8"/>
      </g>
     </g>
     <g id="text_12">
      <!-- 珊瑚礁, 濕地, 熱帶雨林, 沙漠, 草原 -->
      <g transform="translate(331.49739 397.261571) rotate(-45) scale(0.12 -0.12)">
       <use xlink:href="#NotoSansTC-Thin-73ca"/>
       <use xlink:href="#NotoSansTC-Thin-745a" x="99.999985"/>
       <use xlink:href="#NotoSansTC-Thin-7901" x="199.999969"/>
       <use xlink:href="#NotoSansTC-Thin-2c" x="299.999954"/>
       <use xlink:href="#NotoSansTC-Thin-20" x="323.099945"/>
       <use xlink:href="#NotoSansTC-Thin-6fd5" x="345.09993"/>
       <use xlink:href="#NotoSansTC-Thin-5730" x="445.099915"/>
       <use xlink:href="#NotoSansTC-Thin-2c" x="545.099899"/>
       <use xlink:href="#NotoSansTC-Thin-20" x="568.19989"/>
       <use xlink:href="#NotoSansTC-Thin-71b1" x="590.199875"/>
       <use xlink:href="#NotoSansTC-Thin-5e36" x="690.19986"/>
       <use xlink:href="#NotoSansTC-Thin-96e8" x="790.199844"/>
       <use xlink:href="#NotoSansTC-Thin-6797" x="890.199829"/>
       <use xlink:href="#NotoSansTC-Thin-2c" x="990.199814"/>
       <use xlink:href="#NotoSansTC-Thin-20" x="1013.299805"/>
       <use xlink:href="#NotoSansTC-Thin-6c99" x="1035.299789"/>
       <use xlink:href="#NotoSansTC-Thin-6f20" x="1135.299774"/>
       <use xlink:href="#NotoSansTC-Thin-2c" x="1235.299759"/>
       <use xlink:href="#NotoSansTC-Thin-20" x="1258.39975"/>
       <use xlink:href="#NotoSansTC-Thin-8349" x="1280.399734"/>
       <use xlink:href="#NotoSansTC-Thin-539f" x="1380.399719"/>
      </g>
     </g>
    </g>
    <g id="xtick_13">
     <g id="line2d_13">
      <g>
       <use xlink:href="#m15b120be50" x="488.042082" y="257.909743" style="stroke: #000000; stroke-width: 0.8"/>
      </g>
     </g>
     <g id="text_13">
      <!-- 珊瑚礁, 草原, 濕地, 熱帶雨林, 沙漠 -->
      <g transform="translate(360.36644 397.261571) rotate(-45) scale(0.12 -0.12)">
       <use xlink:href="#NotoSansTC-Thin-73ca"/>
       <use xlink:href="#NotoSansTC-Thin-745a" x="99.999985"/>
       <use xlink:href="#NotoSansTC-Thin-7901" x="199.999969"/>
       <use xlink:href="#NotoSansTC-Thin-2c" x="299.999954"/>
       <use xlink:href="#NotoSansTC-Thin-20" x="323.099945"/>
       <use xlink:href="#NotoSansTC-Thin-8349" x="345.09993"/>
       <use xlink:href="#NotoSansTC-Thin-539f" x="445.099915"/>
       <use xlink:href="#NotoSansTC-Thin-2c" x="545.099899"/>
       <use xlink:href="#NotoSansTC-Thin-20" x="568.19989"/>
       <use xlink:href="#NotoSansTC-Thin-6fd5" x="590.199875"/>
       <use xlink:href="#NotoSansTC-Thin-5730" x="690.19986"/>
       <use xlink:href="#NotoSansTC-Thin-2c" x="790.199844"/>
       <use xlink:href="#NotoSansTC-Thin-20" x="813.299835"/>
       <use xlink:href="#NotoSansTC-Thin-71b1" x="835.29982"/>
       <use xlink:href="#NotoSansTC-Thin-5e36" x="935.299805"/>
       <use xlink:href="#NotoSansTC-Thin-96e8" x="1035.299789"/>
       <use xlink:href="#NotoSansTC-Thin-6797" x="1135.299774"/>
       <use xlink:href="#NotoSansTC-Thin-2c" x="1235.299759"/>
       <use xlink:href="#NotoSansTC-Thin-20" x="1258.39975"/>
       <use xlink:href="#NotoSansTC-Thin-6c99" x="1280.399734"/>
       <use xlink:href="#NotoSansTC-Thin-6f20" x="1380.399719"/>
      </g>
     </g>
    </g>
    <g id="xtick_14">
     <g id="line2d_14">
      <g>
       <use xlink:href="#m15b120be50" x="516.911132" y="257.909743" style="stroke: #000000; stroke-width: 0.8"/>
      </g>
     </g>
     <g id="text_14">
      <!-- 珊瑚礁, 草原, 熱帶雨林, 濕地, 沙漠 -->
      <g transform="translate(389.235489 397.261571) rotate(-45) scale(0.12 -0.12)">
       <use xlink:href="#NotoSansTC-Thin-73ca"/>
       <use xlink:href="#NotoSansTC-Thin-745a" x="99.999985"/>
       <use xlink:href="#NotoSansTC-Thin-7901" x="199.999969"/>
       <use xlink:href="#NotoSansTC-Thin-2c" x="299.999954"/>
       <use xlink:href="#NotoSansTC-Thin-20" x="323.099945"/>
       <use xlink:href="#NotoSansTC-Thin-8349" x="345.09993"/>
       <use xlink:href="#NotoSansTC-Thin-539f" x="445.099915"/>
       <use xlink:href="#NotoSansTC-Thin-2c" x="545.099899"/>
       <use xlink:href="#NotoSansTC-Thin-20" x="568.19989"/>
       <use xlink:href="#NotoSansTC-Thin-71b1" x="590.199875"/>
       <use xlink:href="#NotoSansTC-Thin-5e36" x="690.19986"/>
       <use xlink:href="#NotoSansTC-Thin-96e8" x="790.199844"/>
       <use xlink:href="#NotoSansTC-Thin-6797" x="890.199829"/>
       <use xlink:href="#NotoSansTC-Thin-2c" x="990.199814"/>
       <use xlink:href="#NotoSansTC-Thin-20" x="1013.299805"/>
       <use xlink:href="#NotoSansTC-Thin-6fd5" x="1035.299789"/>
       <use xlink:href="#NotoSansTC-Thin-5730" x="1135.299774"/>
       <use xlink:href="#NotoSansTC-Thin-2c" x="1235.299759"/>
       <use xlink:href="#NotoSansTC-Thin-20" x="1258.39975"/>
       <use xlink:href="#NotoSansTC-Thin-6c99" x="1280.399734"/>
       <use xlink:href="#NotoSansTC-Thin-6f20" x="1380.399719"/>
      </g>
     </g>
    </g>
    <g id="xtick_15">
     <g id="line2d_15">
      <g>
       <use xlink:href="#m15b120be50" x="545.780181" y="257.909743" style="stroke: #000000; stroke-width: 0.8"/>
      </g>
     </g>
     <g id="text_15">
      <!-- 熱帶雨林, 濕地, 珊瑚礁, 沙漠, 草原 -->
      <g transform="translate(418.104539 397.261571) rotate(-45) scale(0.12 -0.12)">
       <use xlink:href="#NotoSansTC-Thin-71b1"/>
       <use xlink:href="#NotoSansTC-Thin-5e36" x="99.999985"/>
       <use xlink:href="#NotoSansTC-Thin-96e8" x="199.999969"/>
       <use xlink:href="#NotoSansTC-Thin-6797" x="299.999954"/>
       <use xlink:href="#NotoSansTC-Thin-2c" x="399.999939"/>
       <use xlink:href="#NotoSansTC-Thin-20" x="423.09993"/>
       <use xlink:href="#NotoSansTC-Thin-6fd5" x="445.099915"/>
       <use xlink:href="#NotoSansTC-Thin-5730" x="545.099899"/>
       <use xlink:href="#NotoSansTC-Thin-2c" x="645.099884"/>
       <use xlink:href="#NotoSansTC-Thin-20" x="668.199875"/>
       <use xlink:href="#NotoSansTC-Thin-73ca" x="690.19986"/>
       <use xlink:href="#NotoSansTC-Thin-745a" x="790.199844"/>
       <use xlink:href="#NotoSansTC-Thin-7901" x="890.199829"/>
       <use xlink:href="#NotoSansTC-Thin-2c" x="990.199814"/>
       <use xlink:href="#NotoSansTC-Thin-20" x="1013.299805"/>
       <use xlink:href="#NotoSansTC-Thin-6c99" x="1035.299789"/>
       <use xlink:href="#NotoSansTC-Thin-6f20" x="1135.299774"/>
       <use xlink:href="#NotoSansTC-Thin-2c" x="1235.299759"/>
       <use xlink:href="#NotoSansTC-Thin-20" x="1258.39975"/>
       <use xlink:href="#NotoSansTC-Thin-8349" x="1280.399734"/>
       <use xlink:href="#NotoSansTC-Thin-539f" x="1380.399719"/>
      </g>
     </g>
    </g>
    <g id="xtick_16">
     <g id="line2d_16">
      <g>
       <use xlink:href="#m15b120be50" x="574.649231" y="257.909743" style="stroke: #000000; stroke-width: 0.8"/>
      </g>
     </g>
     <g id="text_16">
      <!-- 熱帶雨林, 珊瑚礁, 沙漠, 濕地, 草原 -->
      <g transform="translate(446.973589 397.261571) rotate(-45) scale(0.12 -0.12)">
       <use xlink:href="#NotoSansTC-Thin-71b1"/>
       <use xlink:href="#NotoSansTC-Thin-5e36" x="99.999985"/>
       <use xlink:href="#NotoSansTC-Thin-96e8" x="199.999969"/>
       <use xlink:href="#NotoSansTC-Thin-6797" x="299.999954"/>
       <use xlink:href="#NotoSansTC-Thin-2c" x="399.999939"/>
       <use xlink:href="#NotoSansTC-Thin-20" x="423.09993"/>
       <use xlink:href="#NotoSansTC-Thin-73ca" x="445.099915"/>
       <use xlink:href="#NotoSansTC-Thin-745a" x="545.099899"/>
       <use xlink:href="#NotoSansTC-Thin-7901" x="645.099884"/>
       <use xlink:href="#NotoSansTC-Thin-2c" x="745.099869"/>
       <use xlink:href="#NotoSansTC-Thin-20" x="768.19986"/>
       <use xlink:href="#NotoSansTC-Thin-6c99" x="790.199844"/>
       <use xlink:href="#NotoSansTC-Thin-6f20" x="890.199829"/>
       <use xlink:href="#NotoSansTC-Thin-2c" x="990.199814"/>
       <use xlink:href="#NotoSansTC-Thin-20" x="1013.299805"/>
       <use xlink:href="#NotoSansTC-Thin-6fd5" x="1035.299789"/>
       <use xlink:href="#NotoSansTC-Thin-5730" x="1135.299774"/>
       <use xlink:href="#NotoSansTC-Thin-2c" x="1235.299759"/>
       <use xlink:href="#NotoSansTC-Thin-20" x="1258.39975"/>
       <use xlink:href="#NotoSansTC-Thin-8349" x="1280.399734"/>
       <use xlink:href="#NotoSansTC-Thin-539f" x="1380.399719"/>
      </g>
     </g>
    </g>
    <g id="xtick_17">
     <g id="line2d_17">
      <g>
       <use xlink:href="#m15b120be50" x="603.518281" y="257.909743" style="stroke: #000000; stroke-width: 0.8"/>
      </g>
     </g>
     <g id="text_17">
      <!-- 熱帶雨林, 濕地, 草原, 珊瑚礁, 沙漠 -->
      <g transform="translate(475.842638 397.261571) rotate(-45) scale(0.12 -0.12)">
       <use xlink:href="#NotoSansTC-Thin-71b1"/>
       <use xlink:href="#NotoSansTC-Thin-5e36" x="99.999985"/>
       <use xlink:href="#NotoSansTC-Thin-96e8" x="199.999969"/>
       <use xlink:href="#NotoSansTC-Thin-6797" x="299.999954"/>
       <use xlink:href="#NotoSansTC-Thin-2c" x="399.999939"/>
       <use xlink:href="#NotoSansTC-Thin-20" x="423.09993"/>
       <use xlink:href="#NotoSansTC-Thin-6fd5" x="445.099915"/>
       <use xlink:href="#NotoSansTC-Thin-5730" x="545.099899"/>
       <use xlink:href="#NotoSansTC-Thin-2c" x="645.099884"/>
       <use xlink:href="#NotoSansTC-Thin-20" x="668.199875"/>
       <use xlink:href="#NotoSansTC-Thin-8349" x="690.19986"/>
       <use xlink:href="#NotoSansTC-Thin-539f" x="790.199844"/>
       <use xlink:href="#NotoSansTC-Thin-2c" x="890.199829"/>
       <use xlink:href="#NotoSansTC-Thin-20" x="913.29982"/>
       <use xlink:href="#NotoSansTC-Thin-73ca" x="935.299805"/>
       <use xlink:href="#NotoSansTC-Thin-745a" x="1035.299789"/>
       <use xlink:href="#NotoSansTC-Thin-7901" x="1135.299774"/>
       <use xlink:href="#NotoSansTC-Thin-2c" x="1235.299759"/>
       <use xlink:href="#NotoSansTC-Thin-20" x="1258.39975"/>
       <use xlink:href="#NotoSansTC-Thin-6c99" x="1280.399734"/>
       <use xlink:href="#NotoSansTC-Thin-6f20" x="1380.399719"/>
      </g>
     </g>
    </g>
    <g id="xtick_18">
     <g id="line2d_18">
      <g>
       <use xlink:href="#m15b120be50" x="632.38733" y="257.909743" style="stroke: #000000; stroke-width: 0.8"/>
      </g>
     </g>
     <g id="text_18">
      <!-- 熱帶雨林, 珊瑚礁, 草原, 沙漠, 濕地 -->
      <g transform="translate(504.711688 397.261571) rotate(-45) scale(0.12 -0.12)">
       <use xlink:href="#NotoSansTC-Thin-71b1"/>
       <use xlink:href="#NotoSansTC-Thin-5e36" x="99.999985"/>
       <use xlink:href="#NotoSansTC-Thin-96e8" x="199.999969"/>
       <use xlink:href="#NotoSansTC-Thin-6797" x="299.999954"/>
       <use xlink:href="#NotoSansTC-Thin-2c" x="399.999939"/>
       <use xlink:href="#NotoSansTC-Thin-20" x="423.09993"/>
       <use xlink:href="#NotoSansTC-Thin-73ca" x="445.099915"/>
       <use xlink:href="#NotoSansTC-Thin-745a" x="545.099899"/>
       <use xlink:href="#NotoSansTC-Thin-7901" x="645.099884"/>
       <use xlink:href="#NotoSansTC-Thin-2c" x="745.099869"/>
       <use xlink:href="#NotoSansTC-Thin-20" x="768.19986"/>
       <use xlink:href="#NotoSansTC-Thin-8349" x="790.199844"/>
       <use xlink:href="#NotoSansTC-Thin-539f" x="890.199829"/>
       <use xlink:href="#NotoSansTC-Thin-2c" x="990.199814"/>
       <use xlink:href="#NotoSansTC-Thin-20" x="1013.299805"/>
       <use xlink:href="#NotoSansTC-Thin-6c99" x="1035.299789"/>
       <use xlink:href="#NotoSansTC-Thin-6f20" x="1135.299774"/>
       <use xlink:href="#NotoSansTC-Thin-2c" x="1235.299759"/>
       <use xlink:href="#NotoSansTC-Thin-20" x="1258.39975"/>
       <use xlink:href="#NotoSansTC-Thin-6fd5" x="1280.399734"/>
       <use xlink:href="#NotoSansTC-Thin-5730" x="1380.399719"/>
      </g>
     </g>
    </g>
    <g id="xtick_19">
     <g id="line2d_19">
      <g>
       <use xlink:href="#m15b120be50" x="661.25638" y="257.909743" style="stroke: #000000; stroke-width: 0.8"/>
      </g>
     </g>
     <g id="text_19">
      <!-- 珊瑚礁, 沙漠, 熱帶雨林, 草原, 濕地 -->
      <g transform="translate(533.580738 397.261571) rotate(-45) scale(0.12 -0.12)">
       <use xlink:href="#NotoSansTC-Thin-73ca"/>
       <use xlink:href="#NotoSansTC-Thin-745a" x="99.999985"/>
       <use xlink:href="#NotoSansTC-Thin-7901" x="199.999969"/>
       <use xlink:href="#NotoSansTC-Thin-2c" x="299.999954"/>
       <use xlink:href="#NotoSansTC-Thin-20" x="323.099945"/>
       <use xlink:href="#NotoSansTC-Thin-6c99" x="345.09993"/>
       <use xlink:href="#NotoSansTC-Thin-6f20" x="445.099915"/>
       <use xlink:href="#NotoSansTC-Thin-2c" x="545.099899"/>
       <use xlink:href="#NotoSansTC-Thin-20" x="568.19989"/>
       <use xlink:href="#NotoSansTC-Thin-71b1" x="590.199875"/>
       <use xlink:href="#NotoSansTC-Thin-5e36" x="690.19986"/>
       <use xlink:href="#NotoSansTC-Thin-96e8" x="790.199844"/>
       <use xlink:href="#NotoSansTC-Thin-6797" x="890.199829"/>
       <use xlink:href="#NotoSansTC-Thin-2c" x="990.199814"/>
       <use xlink:href="#NotoSansTC-Thin-20" x="1013.299805"/>
       <use xlink:href="#NotoSansTC-Thin-8349" x="1035.299789"/>
       <use xlink:href="#NotoSansTC-Thin-539f" x="1135.299774"/>
       <use xlink:href="#NotoSansTC-Thin-2c" x="1235.299759"/>
       <use xlink:href="#NotoSansTC-Thin-20" x="1258.39975"/>
       <use xlink:href="#NotoSansTC-Thin-6fd5" x="1280.399734"/>
       <use xlink:href="#NotoSansTC-Thin-5730" x="1380.399719"/>
      </g>
     </g>
    </g>
    <g id="xtick_20">
     <g id="line2d_20">
      <g>
       <use xlink:href="#m15b120be50" x="690.12543" y="257.909743" style="stroke: #000000; stroke-width: 0.8"/>
      </g>
     </g>
     <g id="text_20">
      <!-- 珊瑚礁, 熱帶雨林, 草原, 沙漠, 濕地 -->
      <g transform="translate(562.449787 397.261571) rotate(-45) scale(0.12 -0.12)">
       <use xlink:href="#NotoSansTC-Thin-73ca"/>
       <use xlink:href="#NotoSansTC-Thin-745a" x="99.999985"/>
       <use xlink:href="#NotoSansTC-Thin-7901" x="199.999969"/>
       <use xlink:href="#NotoSansTC-Thin-2c" x="299.999954"/>
       <use xlink:href="#NotoSansTC-Thin-20" x="323.099945"/>
       <use xlink:href="#NotoSansTC-Thin-71b1" x="345.09993"/>
       <use xlink:href="#NotoSansTC-Thin-5e36" x="445.099915"/>
       <use xlink:href="#NotoSansTC-Thin-96e8" x="545.099899"/>
       <use xlink:href="#NotoSansTC-Thin-6797" x="645.099884"/>
       <use xlink:href="#NotoSansTC-Thin-2c" x="745.099869"/>
       <use xlink:href="#NotoSansTC-Thin-20" x="768.19986"/>
       <use xlink:href="#NotoSansTC-Thin-8349" x="790.199844"/>
       <use xlink:href="#NotoSansTC-Thin-539f" x="890.199829"/>
       <use xlink:href="#NotoSansTC-Thin-2c" x="990.199814"/>
       <use xlink:href="#NotoSansTC-Thin-20" x="1013.299805"/>
       <use xlink:href="#NotoSansTC-Thin-6c99" x="1035.299789"/>
       <use xlink:href="#NotoSansTC-Thin-6f20" x="1135.299774"/>
       <use xlink:href="#NotoSansTC-Thin-2c" x="1235.299759"/>
       <use xlink:href="#NotoSansTC-Thin-20" x="1258.39975"/>
       <use xlink:href="#NotoSansTC-Thin-6fd5" x="1280.399734"/>
       <use xlink:href="#NotoSansTC-Thin-5730" x="1380.399719"/>
      </g>
     </g>
    </g>
    <g id="text_21">
     <!-- Sensitivity Ranking -->
     <g transform="translate(366.470708 412.851979) scale(0.12 -0.12)">
      <defs>
       <path id="NotoSansTC-Thin-53" d="M 1888 -83 
Q 1376 -83 989 115 
Q 602 314 339 621 
L 499 787 
Q 755 493 1113 317 
Q 1472 141 1888 141 
Q 2445 141 2774 416 
Q 3104 691 3104 1126 
Q 3104 1440 2985 1625 
Q 2867 1811 2675 1929 
Q 2483 2048 2246 2150 
L 1536 2470 
Q 1338 2560 1117 2694 
Q 896 2829 742 3049 
Q 589 3270 589 3610 
Q 589 3949 761 4198 
Q 934 4448 1232 4589 
Q 1530 4730 1907 4730 
Q 2330 4730 2653 4566 
Q 2976 4403 3174 4179 
L 3027 4019 
Q 2829 4237 2547 4371 
Q 2266 4506 1907 4506 
Q 1421 4506 1126 4269 
Q 832 4032 832 3635 
Q 832 3347 966 3164 
Q 1101 2982 1293 2876 
Q 1485 2771 1645 2694 
L 2355 2374 
Q 2618 2259 2842 2108 
Q 3066 1958 3203 1731 
Q 3341 1504 3341 1146 
Q 3341 794 3161 515 
Q 2982 237 2656 77 
Q 2330 -83 1888 -83 
z
" transform="scale(0.015625)"/>
       <path id="NotoSansTC-Thin-65" d="M 1920 -83 
Q 1498 -83 1146 128 
Q 794 339 586 732 
Q 378 1126 378 1677 
Q 378 2093 496 2419 
Q 614 2746 822 2979 
Q 1030 3213 1289 3334 
Q 1549 3456 1830 3456 
Q 2221 3456 2505 3277 
Q 2790 3098 2947 2749 
Q 3104 2400 3104 1901 
Q 3104 1850 3104 1795 
Q 3104 1741 3091 1670 
L 621 1670 
Q 621 1229 784 880 
Q 947 531 1241 329 
Q 1536 128 1933 128 
Q 2221 128 2445 211 
Q 2669 294 2861 435 
L 2963 237 
Q 2771 122 2534 19 
Q 2298 -83 1920 -83 
z
M 621 1882 
L 2880 1882 
Q 2880 2566 2592 2905 
Q 2304 3245 1830 3245 
Q 1530 3245 1267 3081 
Q 1005 2918 832 2614 
Q 659 2310 621 1882 
z
" transform="scale(0.015625)"/>
       <path id="NotoSansTC-Thin-6e" d="M 672 0 
L 672 3373 
L 864 3373 
L 902 2835 
L 915 2835 
Q 1178 3098 1453 3277 
Q 1728 3456 2080 3456 
Q 2598 3456 2848 3139 
Q 3098 2822 3098 2170 
L 3098 0 
L 2867 0 
L 2867 2138 
Q 2867 2694 2678 2969 
Q 2490 3245 2054 3245 
Q 1741 3245 1481 3078 
Q 1222 2912 902 2579 
L 902 0 
L 672 0 
z
" transform="scale(0.015625)"/>
       <path id="NotoSansTC-Thin-73" d="M 1466 -83 
Q 1088 -83 774 54 
Q 461 192 237 378 
L 384 563 
Q 595 384 851 256 
Q 1107 128 1478 128 
Q 1901 128 2115 339 
Q 2330 550 2330 838 
Q 2330 1062 2202 1209 
Q 2074 1357 1878 1453 
Q 1683 1549 1485 1619 
Q 1229 1715 985 1824 
Q 742 1933 582 2112 
Q 422 2291 422 2579 
Q 422 2816 544 3014 
Q 666 3213 902 3334 
Q 1139 3456 1485 3456 
Q 1741 3456 1990 3360 
Q 2240 3264 2419 3110 
L 2285 2938 
Q 2118 3066 1926 3155 
Q 1734 3245 1472 3245 
Q 1056 3245 857 3043 
Q 659 2842 659 2592 
Q 659 2394 771 2262 
Q 883 2131 1065 2044 
Q 1248 1958 1446 1882 
Q 1651 1805 1849 1725 
Q 2048 1645 2208 1536 
Q 2368 1427 2467 1264 
Q 2566 1101 2566 851 
Q 2566 602 2438 387 
Q 2310 173 2067 45 
Q 1824 -83 1466 -83 
z
" transform="scale(0.015625)"/>
       <path id="NotoSansTC-Thin-69" d="M 672 0 
L 672 3373 
L 902 3373 
L 902 0 
L 672 0 
z
M 794 4224 
Q 691 4224 627 4294 
Q 563 4365 563 4486 
Q 563 4595 627 4662 
Q 691 4730 794 4730 
Q 890 4730 957 4662 
Q 1024 4595 1024 4486 
Q 1024 4365 957 4294 
Q 890 4224 794 4224 
z
" transform="scale(0.015625)"/>
       <path id="NotoSansTC-Thin-74" d="M 1542 -83 
Q 1229 -83 1056 38 
Q 883 160 816 381 
Q 749 602 749 896 
L 749 3162 
L 211 3162 
L 211 3341 
L 749 3373 
L 774 4358 
L 973 4358 
L 973 3373 
L 1971 3373 
L 1971 3162 
L 973 3162 
L 973 864 
Q 973 538 1081 333 
Q 1190 128 1562 128 
Q 1658 128 1779 160 
Q 1901 192 1990 237 
L 2067 45 
Q 1920 -6 1776 -44 
Q 1632 -83 1542 -83 
z
" transform="scale(0.015625)"/>
       <path id="NotoSansTC-Thin-76" d="M 1363 0 
L 83 3373 
L 339 3373 
L 1133 1197 
Q 1222 954 1312 707 
Q 1402 461 1485 237 
L 1510 237 
Q 1600 461 1689 707 
Q 1779 954 1862 1197 
L 2662 3373 
L 2899 3373 
L 1638 0 
L 1363 0 
z
" transform="scale(0.015625)"/>
       <path id="NotoSansTC-Thin-79" d="M 474 -1562 
Q 390 -1562 300 -1542 
Q 211 -1523 147 -1491 
L 205 -1280 
Q 256 -1306 333 -1322 
Q 410 -1338 486 -1338 
Q 806 -1338 1024 -1066 
Q 1242 -794 1382 -390 
L 1478 -77 
L 83 3373 
L 339 3373 
L 1190 1171 
Q 1274 954 1373 701 
Q 1472 448 1568 224 
L 1600 224 
Q 1683 448 1766 701 
Q 1850 954 1920 1171 
L 2675 3373 
L 2912 3373 
L 1568 -474 
Q 1485 -736 1337 -985 
Q 1190 -1235 979 -1398 
Q 768 -1562 474 -1562 
z
" transform="scale(0.015625)"/>
       <path id="NotoSansTC-Thin-52" d="M 704 0 
L 704 4646 
L 1990 4646 
Q 2451 4646 2787 4524 
Q 3123 4403 3305 4140 
Q 3488 3878 3488 3450 
Q 3488 3040 3305 2758 
Q 3123 2477 2787 2333 
Q 2451 2189 1990 2189 
L 941 2189 
L 941 0 
L 704 0 
z
M 941 2394 
L 1907 2394 
Q 2547 2394 2889 2653 
Q 3232 2912 3232 3450 
Q 3232 3994 2889 4214 
Q 2547 4435 1907 4435 
L 941 4435 
L 941 2394 
z
M 3283 0 
L 1926 2259 
L 2195 2285 
L 3558 0 
L 3283 0 
z
" transform="scale(0.015625)"/>
       <path id="NotoSansTC-Thin-61" d="M 1395 -83 
Q 1133 -83 912 13 
Q 691 109 556 310 
Q 422 512 422 832 
Q 422 1395 953 1686 
Q 1485 1978 2624 2106 
Q 2637 2381 2576 2640 
Q 2515 2899 2336 3072 
Q 2157 3245 1805 3245 
Q 1446 3245 1158 3104 
Q 870 2963 704 2835 
L 589 3021 
Q 698 3098 880 3200 
Q 1062 3302 1302 3379 
Q 1542 3456 1818 3456 
Q 2214 3456 2441 3280 
Q 2669 3104 2761 2816 
Q 2854 2528 2854 2182 
L 2854 0 
L 2662 0 
L 2630 448 
L 2611 448 
Q 2355 237 2044 77 
Q 1734 -83 1395 -83 
z
M 1414 128 
Q 1715 128 2003 272 
Q 2291 416 2624 698 
L 2624 1907 
Q 1894 1830 1462 1686 
Q 1030 1542 844 1334 
Q 659 1126 659 838 
Q 659 448 883 288 
Q 1107 128 1414 128 
z
" transform="scale(0.015625)"/>
       <path id="NotoSansTC-Thin-6b" d="M 672 0 
L 672 5082 
L 902 5082 
L 902 1242 
L 915 1242 
L 2650 3373 
L 2918 3373 
L 1830 2042 
L 3110 0 
L 2861 0 
L 1696 1869 
L 902 928 
L 902 0 
L 672 0 
z
" transform="scale(0.015625)"/>
       <path id="NotoSansTC-Thin-67" d="M 1760 -1645 
Q 1331 -1645 1020 -1526 
Q 710 -1408 544 -1197 
Q 378 -986 378 -704 
Q 378 -480 515 -259 
Q 653 -38 890 128 
L 890 154 
Q 762 230 675 364 
Q 589 499 589 691 
Q 589 922 720 1078 
Q 851 1235 960 1312 
L 960 1338 
Q 800 1478 665 1718 
Q 531 1958 531 2266 
Q 531 2611 684 2880 
Q 838 3149 1104 3302 
Q 1370 3456 1690 3456 
Q 1837 3456 1949 3430 
Q 2061 3405 2131 3373 
L 3258 3373 
L 3258 3162 
L 2451 3162 
Q 2630 3014 2739 2784 
Q 2848 2554 2848 2266 
Q 2848 1933 2694 1661 
Q 2541 1389 2278 1229 
Q 2016 1069 1690 1069 
Q 1549 1069 1392 1110 
Q 1235 1152 1120 1222 
Q 1005 1133 915 1008 
Q 826 883 826 710 
Q 826 518 960 380 
Q 1094 243 1485 243 
L 2234 243 
Q 2790 243 3052 60 
Q 3315 -122 3315 -512 
Q 3315 -794 3123 -1056 
Q 2931 -1318 2582 -1481 
Q 2234 -1645 1760 -1645 
z
M 1690 1280 
Q 1939 1280 2147 1405 
Q 2355 1530 2483 1754 
Q 2611 1978 2611 2266 
Q 2611 2566 2486 2787 
Q 2362 3008 2154 3126 
Q 1946 3245 1690 3245 
Q 1440 3245 1232 3126 
Q 1024 3008 899 2790 
Q 774 2573 774 2266 
Q 774 1978 902 1754 
Q 1030 1530 1238 1405 
Q 1446 1280 1690 1280 
z
M 1773 -1440 
Q 2176 -1440 2467 -1305 
Q 2758 -1171 2918 -963 
Q 3078 -755 3078 -538 
Q 3078 -237 2870 -112 
Q 2662 13 2266 13 
L 1498 13 
Q 1466 13 1347 25 
Q 1229 38 1088 70 
Q 838 -96 729 -297 
Q 621 -499 621 -685 
Q 621 -1018 921 -1229 
Q 1222 -1440 1773 -1440 
z
" transform="scale(0.015625)"/>
      </defs>
      <use xlink:href="#NotoSansTC-Thin-53"/>
      <use xlink:href="#NotoSansTC-Thin-65" x="56.899994"/>
      <use xlink:href="#NotoSansTC-Thin-6e" x="109.599991"/>
      <use xlink:href="#NotoSansTC-Thin-73" x="167.599976"/>
      <use xlink:href="#NotoSansTC-Thin-69" x="211.699966"/>
      <use xlink:href="#NotoSansTC-Thin-74" x="236.199951"/>
      <use xlink:href="#NotoSansTC-Thin-69" x="269.599945"/>
      <use xlink:href="#NotoSansTC-Thin-76" x="294.09993"/>
      <use xlink:href="#NotoSansTC-Thin-69" x="340.699921"/>
      <use xlink:href="#NotoSansTC-Thin-74" x="365.199905"/>
      <use xlink:href="#NotoSansTC-Thin-79" x="398.599899"/>
      <use xlink:href="#NotoSansTC-Thin-20" x="445.399887"/>
      <use xlink:href="#NotoSansTC-Thin-52" x="467.399872"/>
      <use xlink:href="#NotoSansTC-Thin-61" x="526.299866"/>
      <use xlink:href="#NotoSansTC-Thin-6e" x="579.899857"/>
      <use xlink:href="#NotoSansTC-Thin-6b" x="637.899841"/>
      <use xlink:href="#NotoSansTC-Thin-69" x="687.799835"/>
      <use xlink:href="#NotoSansTC-Thin-6e" x="712.29982"/>
      <use xlink:href="#NotoSansTC-Thin-67" x="770.299805"/>
     </g>
    </g>
   </g>
   <g id="matplotlib.axis_2">
    <g id="ytick_1">
     <g id="line2d_21">
      <defs>
       <path id="mff20223379" d="M 0 0 
L -3.5 0 
" style="stroke: #000000; stroke-width: 0.8"/>
      </defs>
      <g>
       <use xlink:href="#mff20223379" x="127.178961" y="257.909743" style="stroke: #000000; stroke-width: 0.8"/>
      </g>
     </g>
     <g id="text_22">
      <!-- 0 -->
      <g transform="translate(113.816461 261.708962) scale(0.1 -0.1)">
       <defs>
        <path id="DejaVuSans-30" d="M 2034 4250 
Q 1547 4250 1301 3770 
Q 1056 3291 1056 2328 
Q 1056 1369 1301 889 
Q 1547 409 2034 409 
Q 2525 409 2770 889 
Q 3016 1369 3016 2328 
Q 3016 3291 2770 3770 
Q 2525 4250 2034 4250 
z
M 2034 4750 
Q 2819 4750 3233 4129 
Q 3647 3509 3647 2328 
Q 3647 1150 3233 529 
Q 2819 -91 2034 -91 
Q 1250 -91 836 529 
Q 422 1150 422 2328 
Q 422 3509 836 4129 
Q 1250 4750 2034 4750 
z
" transform="scale(0.015625)"/>
       </defs>
       <use xlink:href="#DejaVuSans-30"/>
      </g>
     </g>
    </g>
    <g id="ytick_2">
     <g id="line2d_22">
      <g>
       <use xlink:href="#mff20223379" x="127.178961" y="228.243267" style="stroke: #000000; stroke-width: 0.8"/>
      </g>
     </g>
     <g id="text_23">
      <!-- 20 -->
      <g transform="translate(107.453961 232.042485) scale(0.1 -0.1)">
       <defs>
        <path id="DejaVuSans-32" d="M 1228 531 
L 3431 531 
L 3431 0 
L 469 0 
L 469 531 
Q 828 903 1448 1529 
Q 2069 2156 2228 2338 
Q 2531 2678 2651 2914 
Q 2772 3150 2772 3378 
Q 2772 3750 2511 3984 
Q 2250 4219 1831 4219 
Q 1534 4219 1204 4116 
Q 875 4013 500 3803 
L 500 4441 
Q 881 4594 1212 4672 
Q 1544 4750 1819 4750 
Q 2544 4750 2975 4387 
Q 3406 4025 3406 3419 
Q 3406 3131 3298 2873 
Q 3191 2616 2906 2266 
Q 2828 2175 2409 1742 
Q 1991 1309 1228 531 
z
" transform="scale(0.015625)"/>
       </defs>
       <use xlink:href="#DejaVuSans-32"/>
       <use xlink:href="#DejaVuSans-30" x="63.623047"/>
      </g>
     </g>
    </g>
    <g id="ytick_3">
     <g id="line2d_23">
      <g>
       <use xlink:href="#mff20223379" x="127.178961" y="198.57679" style="stroke: #000000; stroke-width: 0.8"/>
      </g>
     </g>
     <g id="text_24">
      <!-- 40 -->
      <g transform="translate(107.453961 202.376009) scale(0.1 -0.1)">
       <defs>
        <path id="DejaVuSans-34" d="M 2419 4116 
L 825 1625 
L 2419 1625 
L 2419 4116 
z
M 2253 4666 
L 3047 4666 
L 3047 1625 
L 3713 1625 
L 3713 1100 
L 3047 1100 
L 3047 0 
L 2419 0 
L 2419 1100 
L 313 1100 
L 313 1709 
L 2253 4666 
z
" transform="scale(0.015625)"/>
       </defs>
       <use xlink:href="#DejaVuSans-34"/>
       <use xlink:href="#DejaVuSans-30" x="63.623047"/>
      </g>
     </g>
    </g>
    <g id="ytick_4">
     <g id="line2d_24">
      <g>
       <use xlink:href="#mff20223379" x="127.178961" y="168.910313" style="stroke: #000000; stroke-width: 0.8"/>
      </g>
     </g>
     <g id="text_25">
      <!-- 60 -->
      <g transform="translate(107.453961 172.709532) scale(0.1 -0.1)">
       <defs>
        <path id="DejaVuSans-36" d="M 2113 2584 
Q 1688 2584 1439 2293 
Q 1191 2003 1191 1497 
Q 1191 994 1439 701 
Q 1688 409 2113 409 
Q 2538 409 2786 701 
Q 3034 994 3034 1497 
Q 3034 2003 2786 2293 
Q 2538 2584 2113 2584 
z
M 3366 4563 
L 3366 3988 
Q 3128 4100 2886 4159 
Q 2644 4219 2406 4219 
Q 1781 4219 1451 3797 
Q 1122 3375 1075 2522 
Q 1259 2794 1537 2939 
Q 1816 3084 2150 3084 
Q 2853 3084 3261 2657 
Q 3669 2231 3669 1497 
Q 3669 778 3244 343 
Q 2819 -91 2113 -91 
Q 1303 -91 875 529 
Q 447 1150 447 2328 
Q 447 3434 972 4092 
Q 1497 4750 2381 4750 
Q 2619 4750 2861 4703 
Q 3103 4656 3366 4563 
z
" transform="scale(0.015625)"/>
       </defs>
       <use xlink:href="#DejaVuSans-36"/>
       <use xlink:href="#DejaVuSans-30" x="63.623047"/>
      </g>
     </g>
    </g>
    <g id="ytick_5">
     <g id="line2d_25">
      <g>
       <use xlink:href="#mff20223379" x="127.178961" y="139.243837" style="stroke: #000000; stroke-width: 0.8"/>
      </g>
     </g>
     <g id="text_26">
      <!-- 80 -->
      <g transform="translate(107.453961 143.043056) scale(0.1 -0.1)">
       <defs>
        <path id="DejaVuSans-38" d="M 2034 2216 
Q 1584 2216 1326 1975 
Q 1069 1734 1069 1313 
Q 1069 891 1326 650 
Q 1584 409 2034 409 
Q 2484 409 2743 651 
Q 3003 894 3003 1313 
Q 3003 1734 2745 1975 
Q 2488 2216 2034 2216 
z
M 1403 2484 
Q 997 2584 770 2862 
Q 544 3141 544 3541 
Q 544 4100 942 4425 
Q 1341 4750 2034 4750 
Q 2731 4750 3128 4425 
Q 3525 4100 3525 3541 
Q 3525 3141 3298 2862 
Q 3072 2584 2669 2484 
Q 3125 2378 3379 2068 
Q 3634 1759 3634 1313 
Q 3634 634 3220 271 
Q 2806 -91 2034 -91 
Q 1263 -91 848 271 
Q 434 634 434 1313 
Q 434 1759 690 2068 
Q 947 2378 1403 2484 
z
M 1172 3481 
Q 1172 3119 1398 2916 
Q 1625 2713 2034 2713 
Q 2441 2713 2670 2916 
Q 2900 3119 2900 3481 
Q 2900 3844 2670 4047 
Q 2441 4250 2034 4250 
Q 1625 4250 1398 4047 
Q 1172 3844 1172 3481 
z
" transform="scale(0.015625)"/>
       </defs>
       <use xlink:href="#DejaVuSans-38"/>
       <use xlink:href="#DejaVuSans-30" x="63.623047"/>
      </g>
     </g>
    </g>
    <g id="ytick_6">
     <g id="line2d_26">
      <g>
       <use xlink:href="#mff20223379" x="127.178961" y="109.57736" style="stroke: #000000; stroke-width: 0.8"/>
      </g>
     </g>
     <g id="text_27">
      <!-- 100 -->
      <g transform="translate(101.091461 113.376579) scale(0.1 -0.1)">
       <defs>
        <path id="DejaVuSans-31" d="M 794 531 
L 1825 531 
L 1825 4091 
L 703 3866 
L 703 4441 
L 1819 4666 
L 2450 4666 
L 2450 531 
L 3481 531 
L 3481 0 
L 794 0 
L 794 531 
z
" transform="scale(0.015625)"/>
       </defs>
       <use xlink:href="#DejaVuSans-31"/>
       <use xlink:href="#DejaVuSans-30" x="63.623047"/>
       <use xlink:href="#DejaVuSans-30" x="127.246094"/>
      </g>
     </g>
    </g>
    <g id="ytick_7">
     <g id="line2d_27">
      <g>
       <use xlink:href="#mff20223379" x="127.178961" y="79.910884" style="stroke: #000000; stroke-width: 0.8"/>
      </g>
     </g>
     <g id="text_28">
      <!-- 120 -->
      <g transform="translate(101.091461 83.710102) scale(0.1 -0.1)">
       <use xlink:href="#DejaVuSans-31"/>
       <use xlink:href="#DejaVuSans-32" x="63.623047"/>
       <use xlink:href="#DejaVuSans-30" x="127.246094"/>
      </g>
     </g>
    </g>
    <g id="ytick_8">
     <g id="line2d_28">
      <g>
       <use xlink:href="#mff20223379" x="127.178961" y="50.244407" style="stroke: #000000; stroke-width: 0.8"/>
      </g>
     </g>
     <g id="text_29">
      <!-- 140 -->
      <g transform="translate(101.091461 54.043626) scale(0.1 -0.1)">
       <use xlink:href="#DejaVuSans-31"/>
       <use xlink:href="#DejaVuSans-34" x="63.623047"/>
       <use xlink:href="#DejaVuSans-30" x="127.246094"/>
      </g>
     </g>
    </g>
    <g id="text_30">
     <!-- Number of Responses -->
     <g transform="translate(94.175836 198.237059) rotate(-90) scale(0.12 -0.12)">
      <defs>
       <path id="NotoSansTC-Thin-4e" d="M 704 0 
L 704 4646 
L 954 4646 
L 3002 1261 
L 3533 346 
L 3565 346 
Q 3546 685 3536 1008 
Q 3526 1331 3526 1658 
L 3526 4646 
L 3757 4646 
L 3757 0 
L 3501 0 
L 1459 3386 
L 928 4301 
L 902 4301 
Q 915 3974 921 3667 
Q 928 3360 928 3027 
L 928 0 
L 704 0 
z
" transform="scale(0.015625)"/>
       <path id="NotoSansTC-Thin-75" d="M 1632 -83 
Q 1114 -83 864 230 
Q 614 544 614 1203 
L 614 3373 
L 845 3373 
L 845 1229 
Q 845 672 1033 400 
Q 1222 128 1651 128 
Q 1965 128 2224 304 
Q 2483 480 2797 851 
L 2797 3373 
L 3027 3373 
L 3027 0 
L 2829 0 
L 2803 576 
L 2790 576 
Q 2534 282 2259 99 
Q 1984 -83 1632 -83 
z
" transform="scale(0.015625)"/>
       <path id="NotoSansTC-Thin-6d" d="M 672 0 
L 672 3373 
L 864 3373 
L 902 2835 
L 915 2835 
Q 1146 3098 1427 3277 
Q 1709 3456 1984 3456 
Q 2400 3456 2614 3264 
Q 2829 3072 2912 2752 
Q 3213 3078 3497 3267 
Q 3782 3456 4070 3456 
Q 4563 3456 4816 3139 
Q 5069 2822 5069 2170 
L 5069 0 
L 4845 0 
L 4845 2138 
Q 4845 2694 4649 2969 
Q 4454 3245 4045 3245 
Q 3795 3245 3539 3078 
Q 3283 2912 2982 2579 
L 2982 0 
L 2758 0 
L 2758 2138 
Q 2758 2694 2566 2969 
Q 2374 3245 1965 3245 
Q 1722 3245 1456 3078 
Q 1190 2912 902 2579 
L 902 0 
L 672 0 
z
" transform="scale(0.015625)"/>
       <path id="NotoSansTC-Thin-62" d="M 1933 -83 
Q 1696 -83 1424 32 
Q 1152 147 915 339 
L 896 339 
L 864 0 
L 672 0 
L 672 5082 
L 902 5082 
L 902 3584 
L 883 2906 
Q 1146 3130 1453 3293 
Q 1760 3456 2074 3456 
Q 2534 3456 2835 3241 
Q 3136 3027 3283 2643 
Q 3430 2259 3430 1734 
Q 3430 1165 3222 755 
Q 3014 346 2675 131 
Q 2336 -83 1933 -83 
z
M 1952 128 
Q 2310 128 2588 333 
Q 2867 538 3027 902 
Q 3187 1267 3187 1734 
Q 3187 2163 3075 2505 
Q 2963 2848 2716 3046 
Q 2470 3245 2054 3245 
Q 1798 3245 1507 3094 
Q 1216 2944 902 2662 
L 902 582 
Q 1190 333 1472 230 
Q 1754 128 1952 128 
z
" transform="scale(0.015625)"/>
       <path id="NotoSansTC-Thin-72" d="M 672 0 
L 672 3373 
L 864 3373 
L 902 2739 
L 915 2739 
Q 1082 3046 1325 3251 
Q 1568 3456 1869 3456 
Q 1958 3456 2035 3443 
Q 2112 3430 2195 3386 
L 2138 3174 
Q 2054 3206 1996 3219 
Q 1939 3232 1837 3232 
Q 1613 3232 1357 3030 
Q 1101 2829 902 2330 
L 902 0 
L 672 0 
z
" transform="scale(0.015625)"/>
       <path id="NotoSansTC-Thin-6f" d="M 1875 -83 
Q 1472 -83 1129 125 
Q 787 333 582 726 
Q 378 1120 378 1677 
Q 378 2246 582 2643 
Q 787 3040 1129 3248 
Q 1472 3456 1875 3456 
Q 2176 3456 2448 3337 
Q 2720 3219 2928 2992 
Q 3136 2765 3254 2432 
Q 3373 2099 3373 1677 
Q 3373 1120 3165 726 
Q 2957 333 2617 125 
Q 2278 -83 1875 -83 
z
M 1875 128 
Q 2234 128 2518 323 
Q 2803 518 2969 867 
Q 3136 1216 3136 1677 
Q 3136 2144 2969 2496 
Q 2803 2848 2518 3046 
Q 2234 3245 1875 3245 
Q 1517 3245 1232 3046 
Q 947 2848 784 2496 
Q 621 2144 621 1677 
Q 621 1216 784 867 
Q 947 518 1232 323 
Q 1517 128 1875 128 
z
" transform="scale(0.015625)"/>
       <path id="NotoSansTC-Thin-66" d="M 704 0 
L 704 4192 
Q 704 4525 797 4739 
Q 890 4954 1066 5059 
Q 1242 5165 1485 5165 
Q 1594 5165 1715 5136 
Q 1837 5107 1958 5056 
L 1888 4858 
Q 1683 4960 1478 4960 
Q 1190 4960 1059 4749 
Q 928 4538 928 4160 
L 928 0 
L 704 0 
z
M 237 3162 
L 237 3341 
L 704 3373 
L 1728 3373 
L 1728 3162 
L 237 3162 
z
" transform="scale(0.015625)"/>
       <path id="NotoSansTC-Thin-70" d="M 672 -1555 
L 672 3373 
L 864 3373 
L 902 2938 
L 915 2938 
Q 1165 3136 1462 3296 
Q 1760 3456 2074 3456 
Q 2534 3456 2835 3241 
Q 3136 3027 3283 2643 
Q 3430 2259 3430 1734 
Q 3430 1165 3222 755 
Q 3014 346 2675 131 
Q 2336 -83 1933 -83 
Q 1696 -83 1433 29 
Q 1171 141 902 339 
L 902 -294 
L 902 -1555 
L 672 -1555 
z
M 1952 128 
Q 2310 128 2588 333 
Q 2867 538 3027 902 
Q 3187 1267 3187 1734 
Q 3187 2163 3075 2505 
Q 2963 2848 2716 3046 
Q 2470 3245 2054 3245 
Q 1798 3245 1510 3094 
Q 1222 2944 902 2662 
L 902 582 
Q 1203 333 1478 230 
Q 1754 128 1952 128 
z
" transform="scale(0.015625)"/>
      </defs>
      <use xlink:href="#NotoSansTC-Thin-4e"/>
      <use xlink:href="#NotoSansTC-Thin-75" x="69.599991"/>
      <use xlink:href="#NotoSansTC-Thin-6d" x="127.299988"/>
      <use xlink:href="#NotoSansTC-Thin-62" x="216.199982"/>
      <use xlink:href="#NotoSansTC-Thin-65" x="275.499969"/>
      <use xlink:href="#NotoSansTC-Thin-72" x="328.199966"/>
      <use xlink:href="#NotoSansTC-Thin-20" x="362.09996"/>
      <use xlink:href="#NotoSansTC-Thin-6f" x="384.099945"/>
      <use xlink:href="#NotoSansTC-Thin-66" x="442.699936"/>
      <use xlink:href="#NotoSansTC-Thin-20" x="470.59993"/>
      <use xlink:href="#NotoSansTC-Thin-52" x="492.599915"/>
      <use xlink:href="#NotoSansTC-Thin-65" x="551.499908"/>
      <use xlink:href="#NotoSansTC-Thin-73" x="604.199905"/>
      <use xlink:href="#NotoSansTC-Thin-70" x="648.299896"/>
      <use xlink:href="#NotoSansTC-Thin-6f" x="707.799881"/>
      <use xlink:href="#NotoSansTC-Thin-6e" x="766.399872"/>
      <use xlink:href="#NotoSansTC-Thin-73" x="824.399857"/>
      <use xlink:href="#NotoSansTC-Thin-65" x="868.499847"/>
      <use xlink:href="#NotoSansTC-Thin-73" x="921.199844"/>
     </g>
    </g>
   </g>
   <g id="patch_23">
    <path d="M 127.178961 257.909743 
L 127.178961 22.72875 
" style="fill: none; stroke: #000000; stroke-width: 0.8; stroke-linejoin: miter; stroke-linecap: square"/>
   </g>
   <g id="patch_24">
    <path d="M 704.559954 257.909743 
L 704.559954 22.72875 
" style="fill: none; stroke: #000000; stroke-width: 0.8; stroke-linejoin: miter; stroke-linecap: square"/>
   </g>
   <g id="patch_25">
    <path d="M 127.178961 257.909743 
L 704.559954 257.909743 
" style="fill: none; stroke: #000000; stroke-width: 0.8; stroke-linejoin: miter; stroke-linecap: square"/>
   </g>
   <g id="patch_26">
    <path d="M 127.178961 22.72875 
L 704.559954 22.72875 
" style="fill: none; stroke: #000000; stroke-width: 0.8; stroke-linejoin: miter; stroke-linecap: square"/>
   </g>
   <g id="text_31">
    <!-- Ecosystem Sensitivity to Environmental Degradation -->
    <g transform="translate(278.222895 16.72875) scale(0.12 -0.12)">
     <defs>
      <path id="NotoSansTC-Thin-45" d="M 704 0 
L 704 4646 
L 3200 4646 
L 3200 4435 
L 941 4435 
L 941 2586 
L 2835 2586 
L 2835 2374 
L 941 2374 
L 941 211 
L 3270 211 
L 3270 0 
L 704 0 
z
" transform="scale(0.015625)"/>
      <path id="NotoSansTC-Thin-63" d="M 1888 -83 
Q 1459 -83 1116 125 
Q 774 333 576 726 
Q 378 1120 378 1677 
Q 378 2246 589 2643 
Q 800 3040 1145 3248 
Q 1491 3456 1894 3456 
Q 2240 3456 2477 3325 
Q 2714 3194 2880 3034 
L 2733 2867 
Q 2566 3027 2361 3136 
Q 2157 3245 1894 3245 
Q 1536 3245 1248 3046 
Q 960 2848 790 2496 
Q 621 2144 621 1677 
Q 621 1216 781 867 
Q 941 518 1225 323 
Q 1510 128 1894 128 
Q 2176 128 2413 246 
Q 2650 365 2829 531 
L 2963 365 
Q 2752 179 2483 48 
Q 2214 -83 1888 -83 
z
" transform="scale(0.015625)"/>
      <path id="NotoSansTC-Thin-6c" d="M 1018 -83 
Q 909 -83 832 -35 
Q 755 13 713 115 
Q 672 218 672 378 
L 672 5082 
L 902 5082 
L 902 339 
Q 902 237 940 182 
Q 979 128 1043 128 
Q 1062 128 1088 131 
Q 1114 134 1165 141 
L 1210 -58 
Q 1165 -64 1126 -73 
Q 1088 -83 1018 -83 
z
" transform="scale(0.015625)"/>
      <path id="NotoSansTC-Thin-44" d="M 704 0 
L 704 4646 
L 1747 4646 
Q 2470 4646 2931 4358 
Q 3392 4070 3613 3552 
Q 3834 3034 3834 2336 
Q 3834 1645 3613 1117 
Q 3392 589 2931 294 
Q 2470 0 1754 0 
L 704 0 
z
M 941 211 
L 1715 211 
Q 2374 211 2787 486 
Q 3200 762 3392 1245 
Q 3584 1728 3584 2336 
Q 3584 2950 3392 3424 
Q 3200 3898 2787 4166 
Q 2374 4435 1715 4435 
L 941 4435 
L 941 211 
z
" transform="scale(0.015625)"/>
      <path id="NotoSansTC-Thin-64" d="M 1773 -83 
Q 1350 -83 1036 118 
Q 723 320 550 713 
Q 378 1107 378 1677 
Q 378 2221 586 2621 
Q 794 3021 1136 3238 
Q 1478 3456 1888 3456 
Q 2195 3456 2432 3347 
Q 2669 3238 2925 3034 
L 2906 3667 
L 2906 5082 
L 3136 5082 
L 3136 0 
L 2944 0 
L 2912 448 
L 2899 448 
Q 2688 237 2406 77 
Q 2125 -83 1773 -83 
z
M 1792 128 
Q 2086 128 2358 281 
Q 2630 435 2906 710 
L 2906 2784 
Q 2630 3034 2384 3139 
Q 2138 3245 1875 3245 
Q 1523 3245 1238 3033 
Q 954 2822 787 2467 
Q 621 2112 621 1677 
Q 621 1216 758 867 
Q 896 518 1158 323 
Q 1421 128 1792 128 
z
" transform="scale(0.015625)"/>
     </defs>
     <use xlink:href="#NotoSansTC-Thin-45"/>
     <use xlink:href="#NotoSansTC-Thin-63" x="56.199997"/>
     <use xlink:href="#NotoSansTC-Thin-6f" x="105.399994"/>
     <use xlink:href="#NotoSansTC-Thin-73" x="163.999985"/>
     <use xlink:href="#NotoSansTC-Thin-79" x="208.099976"/>
     <use xlink:href="#NotoSansTC-Thin-73" x="254.899963"/>
     <use xlink:href="#NotoSansTC-Thin-74" x="298.999954"/>
     <use xlink:href="#NotoSansTC-Thin-65" x="332.399948"/>
     <use xlink:href="#NotoSansTC-Thin-6d" x="385.099945"/>
     <use xlink:href="#NotoSansTC-Thin-20" x="473.999939"/>
     <use xlink:href="#NotoSansTC-Thin-53" x="495.999924"/>
     <use xlink:href="#NotoSansTC-Thin-65" x="552.899918"/>
     <use xlink:href="#NotoSansTC-Thin-6e" x="605.599915"/>
     <use xlink:href="#NotoSansTC-Thin-73" x="663.599899"/>
     <use xlink:href="#NotoSansTC-Thin-69" x="707.69989"/>
     <use xlink:href="#NotoSansTC-Thin-74" x="732.199875"/>
     <use xlink:href="#NotoSansTC-Thin-69" x="765.599869"/>
     <use xlink:href="#NotoSansTC-Thin-76" x="790.099854"/>
     <use xlink:href="#NotoSansTC-Thin-69" x="836.699844"/>
     <use xlink:href="#NotoSansTC-Thin-74" x="861.199829"/>
     <use xlink:href="#NotoSansTC-Thin-79" x="894.599823"/>
     <use xlink:href="#NotoSansTC-Thin-20" x="941.399811"/>
     <use xlink:href="#NotoSansTC-Thin-74" x="963.399796"/>
     <use xlink:href="#NotoSansTC-Thin-6f" x="996.799789"/>
     <use xlink:href="#NotoSansTC-Thin-20" x="1055.39978"/>
     <use xlink:href="#NotoSansTC-Thin-45" x="1077.399765"/>
     <use xlink:href="#NotoSansTC-Thin-6e" x="1133.599762"/>
     <use xlink:href="#NotoSansTC-Thin-76" x="1191.599747"/>
     <use xlink:href="#NotoSansTC-Thin-69" x="1238.199738"/>
     <use xlink:href="#NotoSansTC-Thin-72" x="1262.699722"/>
     <use xlink:href="#NotoSansTC-Thin-6f" x="1296.599716"/>
     <use xlink:href="#NotoSansTC-Thin-6e" x="1355.199707"/>
     <use xlink:href="#NotoSansTC-Thin-6d" x="1413.199692"/>
     <use xlink:href="#NotoSansTC-Thin-65" x="1502.099686"/>
     <use xlink:href="#NotoSansTC-Thin-6e" x="1554.799683"/>
     <use xlink:href="#NotoSansTC-Thin-74" x="1612.799667"/>
     <use xlink:href="#NotoSansTC-Thin-61" x="1646.199661"/>
     <use xlink:href="#NotoSansTC-Thin-6c" x="1699.799652"/>
     <use xlink:href="#NotoSansTC-Thin-20" x="1725.199646"/>
     <use xlink:href="#NotoSansTC-Thin-44" x="1747.199631"/>
     <use xlink:href="#NotoSansTC-Thin-65" x="1813.299622"/>
     <use xlink:href="#NotoSansTC-Thin-67" x="1865.999619"/>
     <use xlink:href="#NotoSansTC-Thin-72" x="1918.999603"/>
     <use xlink:href="#NotoSansTC-Thin-61" x="1952.899597"/>
     <use xlink:href="#NotoSansTC-Thin-64" x="2006.499588"/>
     <use xlink:href="#NotoSansTC-Thin-61" x="2065.999573"/>
     <use xlink:href="#NotoSansTC-Thin-74" x="2119.599564"/>
     <use xlink:href="#NotoSansTC-Thin-69" x="2152.999557"/>
     <use xlink:href="#NotoSansTC-Thin-6f" x="2177.499542"/>
     <use xlink:href="#NotoSansTC-Thin-6e" x="2236.099533"/>
    </g>
   </g>
  </g>
 </g>
 <defs>
  <clipPath id="p81a3789415">
   <rect x="127.178961" y="22.72875" width="577.380993" height="235.180993"/>
  </clipPath>
 </defs>
</svg>
