<?xml version="1.0" encoding="utf-8" standalone="no"?>
<!DOCTYPE svg PUBLIC "-//W3C//DTD SVG 1.1//EN"
  "http://www.w3.org/Graphics/SVG/1.1/DTD/svg11.dtd">
<svg xmlns:xlink="http://www.w3.org/1999/xlink" width="703.757434pt" height="422.996772pt" viewBox="0 0 703.757434 422.996772" xmlns="http://www.w3.org/2000/svg" version="1.1">
 <metadata>
  <rdf:RDF xmlns:dc="http://purl.org/dc/elements/1.1/" xmlns:cc="http://creativecommons.org/ns#" xmlns:rdf="http://www.w3.org/1999/02/22-rdf-syntax-ns#">
   <cc:Work>
    <dc:type rdf:resource="http://purl.org/dc/dcmitype/StillImage"/>
    <dc:date>2024-06-18T23:48:03.435727</dc:date>
    <dc:format>image/svg+xml</dc:format>
    <dc:creator>
     <cc:Agent>
      <dc:title>Matplotlib v3.8.4, https://matplotlib.org/</dc:title>
     </cc:Agent>
    </dc:creator>
   </cc:Work>
  </rdf:RDF>
 </metadata>
 <defs>
  <style type="text/css">*{stroke-linejoin: round; stroke-linecap: butt}</style>
 </defs>
 <g id="figure_1">
  <g id="patch_1">
   <path d="M 0 422.996772 
L 703.757434 422.996772 
L 703.757434 0 
L 0 0 
z
" style="fill: #ffffff"/>
  </g>
  <g id="axes_1">
   <g id="patch_2">
    <path d="M 53.395295 193.806094 
L 696.557434 193.806094 
L 696.557434 22.72875 
L 53.395295 22.72875 
z
" style="fill: #ffffff"/>
   </g>
   <g id="patch_3">
    <path d="M 85.553402 193.806094 
L 149.869616 193.806094 
L 149.869616 30.87529 
L 85.553402 30.87529 
z
" clip-path="url(#paf888e4d7a)" style="fill: #87ceeb"/>
   </g>
   <g id="patch_4">
    <path d="M 214.18583 193.806094 
L 278.502044 193.806094 
L 278.502044 147.375036 
L 214.18583 147.375036 
z
" clip-path="url(#paf888e4d7a)" style="fill: #87ceeb"/>
   </g>
   <g id="patch_5">
    <path d="M 342.818258 193.806094 
L 407.134471 193.806094 
L 407.134471 155.394946 
L 342.818258 155.394946 
z
" clip-path="url(#paf888e4d7a)" style="fill: #87ceeb"/>
   </g>
   <g id="patch_6">
    <path d="M 471.450685 193.806094 
L 535.766899 193.806094 
L 535.766899 169.324263 
L 471.450685 169.324263 
z
" clip-path="url(#paf888e4d7a)" style="fill: #87ceeb"/>
   </g>
   <g id="patch_7">
    <path d="M 600.083113 193.806094 
L 664.399327 193.806094 
L 664.399327 178.610475 
L 600.083113 178.610475 
z
" clip-path="url(#paf888e4d7a)" style="fill: #87ceeb"/>
   </g>
   <g id="matplotlib.axis_1">
    <g id="xtick_1">
     <g id="line2d_1">
      <defs>
       <path id="m01c42a00e6" d="M 0 0 
L 0 3.5 
" style="stroke: #000000; stroke-width: 0.8"/>
      </defs>
      <g>
       <use xlink:href="#m01c42a00e6" x="117.711509" y="193.806094" style="stroke: #000000; stroke-width: 0.8"/>
      </g>
     </g>
     <g id="text_1">
      <!-- 股市基金。年化回報 5-15% -->
      <g transform="translate(13.937844 309.255945) rotate(-45) scale(0.12 -0.12)">
       <defs>
        <path id="NotoSansTC-Thin-80a1" d="M 954 5069 
L 2259 5069 
L 2259 4883 
L 954 4883 
L 954 5069 
z
M 832 5069 
L 1018 5069 
L 1018 2797 
Q 1018 2432 998 2013 
Q 979 1594 921 1158 
Q 864 723 745 310 
Q 627 -102 435 -454 
Q 422 -435 390 -416 
Q 358 -397 329 -381 
Q 301 -365 275 -352 
Q 467 -6 579 394 
Q 691 794 745 1210 
Q 800 1626 816 2032 
Q 832 2438 832 2797 
L 832 5069 
z
M 2214 5069 
L 2400 5069 
L 2400 -90 
Q 2400 -211 2355 -272 
Q 2310 -333 2221 -365 
Q 2131 -390 1942 -393 
Q 1754 -397 1427 -397 
Q 1421 -371 1405 -339 
Q 1389 -307 1376 -272 
Q 1363 -237 1344 -211 
Q 1619 -218 1824 -218 
Q 2029 -218 2093 -218 
Q 2214 -211 2214 -90 
L 2214 5069 
z
M 3571 5056 
L 5184 5056 
L 5184 4870 
L 3571 4870 
L 3571 5056 
z
M 2829 2438 
L 5658 2438 
L 5658 2253 
L 2829 2253 
L 2829 2438 
z
M 5587 2438 
L 5632 2438 
L 5670 2451 
L 5792 2394 
Q 5594 1824 5267 1363 
Q 4941 902 4525 547 
Q 4109 192 3645 -57 
Q 3181 -307 2720 -461 
Q 2707 -435 2688 -406 
Q 2669 -378 2646 -346 
Q 2624 -314 2598 -294 
Q 3053 -160 3504 80 
Q 3955 320 4364 659 
Q 4774 998 5091 1436 
Q 5408 1875 5587 2400 
L 5587 2438 
z
M 3322 2349 
Q 3539 1709 3932 1181 
Q 4326 653 4870 275 
Q 5414 -102 6080 -282 
Q 6054 -301 6028 -333 
Q 6003 -365 5980 -393 
Q 5958 -422 5939 -448 
Q 5274 -250 4730 140 
Q 4186 531 3786 1078 
Q 3386 1626 3155 2291 
L 3322 2349 
z
M 3526 5056 
L 3712 5056 
L 3712 4339 
Q 3712 4077 3645 3782 
Q 3578 3488 3389 3203 
Q 3200 2918 2835 2682 
Q 2822 2701 2800 2726 
Q 2778 2752 2755 2781 
Q 2733 2810 2714 2822 
Q 3053 3046 3225 3305 
Q 3398 3565 3462 3833 
Q 3526 4102 3526 4339 
L 3526 5056 
z
M 5088 5056 
L 5274 5056 
L 5274 3482 
Q 5274 3354 5293 3309 
Q 5312 3264 5376 3264 
Q 5414 3264 5510 3264 
Q 5606 3264 5702 3264 
Q 5798 3264 5837 3264 
Q 5882 3264 5949 3270 
Q 6016 3277 6067 3283 
Q 6074 3245 6080 3184 
Q 6086 3123 6093 3091 
Q 6048 3085 5981 3078 
Q 5914 3072 5843 3072 
Q 5805 3072 5705 3072 
Q 5606 3072 5510 3072 
Q 5414 3072 5382 3072 
Q 5267 3072 5203 3107 
Q 5139 3142 5113 3235 
Q 5088 3328 5088 3488 
L 5088 5056 
z
M 1024 1696 
Q 1274 1811 1613 1996 
Q 1952 2182 2310 2381 
L 2362 2214 
Q 2048 2035 1734 1856 
Q 1421 1677 1158 1517 
L 1024 1696 
z
M 1133 3776 
L 1274 3885 
Q 1517 3680 1760 3433 
Q 2003 3187 2138 3008 
L 1978 2880 
Q 1843 3066 1603 3322 
Q 1363 3578 1133 3776 
z
" transform="scale(0.015625)"/>
        <path id="NotoSansTC-Thin-5e02" d="M 3085 4256 
L 3277 4256 
L 3277 -461 
L 3085 -461 
L 3085 4256 
z
M 378 4307 
L 6029 4307 
L 6029 4122 
L 378 4122 
L 378 4307 
z
M 1082 3091 
L 5274 3091 
L 5274 2906 
L 1267 2906 
L 1267 371 
L 1082 371 
L 1082 3091 
z
M 5190 3091 
L 5376 3091 
L 5376 749 
Q 5376 614 5334 550 
Q 5293 486 5171 454 
Q 5043 429 4771 422 
Q 4499 416 4051 416 
Q 4045 467 4019 515 
Q 3994 563 3974 608 
Q 4250 602 4467 598 
Q 4685 595 4832 598 
Q 4979 602 5043 602 
Q 5133 614 5161 643 
Q 5190 672 5190 742 
L 5190 3091 
z
M 2758 5286 
L 2931 5344 
Q 3078 5126 3232 4860 
Q 3386 4595 3450 4410 
L 3270 4339 
Q 3226 4467 3142 4630 
Q 3059 4794 2960 4966 
Q 2861 5139 2758 5286 
z
" transform="scale(0.015625)"/>
        <path id="NotoSansTC-Thin-57fa" d="M 634 4563 
L 5779 4563 
L 5779 4371 
L 634 4371 
L 634 4563 
z
M 806 -96 
L 5606 -96 
L 5606 -282 
L 806 -282 
L 806 -96 
z
M 1818 3795 
L 4595 3795 
L 4595 3610 
L 1818 3610 
L 1818 3795 
z
M 1818 3002 
L 4595 3002 
L 4595 2810 
L 1818 2810 
L 1818 3002 
z
M 378 2176 
L 6029 2176 
L 6029 1990 
L 378 1990 
L 378 2176 
z
M 1606 1043 
L 4800 1043 
L 4800 851 
L 1606 851 
L 1606 1043 
z
M 1702 5312 
L 1888 5312 
L 1888 2067 
L 1702 2067 
L 1702 5312 
z
M 4538 5312 
L 4723 5312 
L 4723 2067 
L 4538 2067 
L 4538 5312 
z
M 3091 1715 
L 3283 1715 
L 3283 -179 
L 3091 -179 
L 3091 1715 
z
M 1984 2131 
L 2144 2067 
Q 1965 1747 1683 1446 
Q 1402 1146 1078 902 
Q 755 659 448 506 
Q 435 531 409 556 
Q 384 582 358 608 
Q 333 634 307 653 
Q 621 787 937 1017 
Q 1254 1248 1529 1539 
Q 1805 1830 1984 2131 
z
M 4442 2131 
Q 4608 1837 4873 1568 
Q 5139 1299 5462 1088 
Q 5786 877 6118 755 
Q 6099 736 6073 710 
Q 6048 685 6025 656 
Q 6003 627 5984 602 
Q 5651 736 5324 966 
Q 4998 1197 4729 1481 
Q 4461 1766 4288 2074 
L 4442 2131 
z
" transform="scale(0.015625)"/>
        <path id="NotoSansTC-Thin-91d1" d="M 1613 3334 
L 4806 3334 
L 4806 3142 
L 1613 3142 
L 1613 3334 
z
M 717 2067 
L 5715 2067 
L 5715 1875 
L 717 1875 
L 717 2067 
z
M 454 -32 
L 5958 -32 
L 5958 -218 
L 454 -218 
L 454 -32 
z
M 3085 3270 
L 3277 3270 
L 3277 -147 
L 3085 -147 
L 3085 3270 
z
M 1382 1478 
L 1549 1536 
Q 1683 1344 1808 1117 
Q 1933 890 2035 675 
Q 2138 461 2189 294 
L 2016 224 
Q 1965 390 1865 608 
Q 1766 826 1641 1056 
Q 1517 1286 1382 1478 
z
M 4826 1555 
L 5005 1466 
Q 4832 1152 4614 803 
Q 4397 454 4205 211 
L 4058 288 
Q 4186 454 4326 678 
Q 4467 902 4601 1136 
Q 4736 1370 4826 1555 
z
M 3290 5107 
Q 3526 4806 3859 4512 
Q 4192 4218 4579 3952 
Q 4966 3686 5369 3475 
Q 5773 3264 6144 3130 
Q 6118 3110 6092 3081 
Q 6067 3053 6041 3024 
Q 6016 2995 5997 2963 
Q 5632 3110 5232 3331 
Q 4832 3552 4441 3827 
Q 4051 4102 3712 4409 
Q 3373 4717 3130 5024 
L 3290 5107 
z
M 3277 5363 
L 3443 5280 
Q 3117 4794 2633 4346 
Q 2150 3898 1577 3542 
Q 1005 3187 397 2957 
Q 371 2995 332 3046 
Q 294 3098 256 3123 
Q 858 3341 1434 3683 
Q 2010 4026 2490 4458 
Q 2970 4890 3277 5363 
z
" transform="scale(0.015625)"/>
        <path id="NotoSansTC-Thin-3002" d="M 3219 3341 
Q 3475 3341 3680 3216 
Q 3885 3091 4009 2886 
Q 4134 2682 4134 2426 
Q 4134 2176 4009 1968 
Q 3885 1760 3680 1635 
Q 3475 1510 3219 1510 
Q 2970 1510 2762 1635 
Q 2554 1760 2429 1968 
Q 2304 2176 2304 2426 
Q 2304 2682 2429 2886 
Q 2554 3091 2762 3216 
Q 2970 3341 3219 3341 
z
M 3219 1702 
Q 3520 1702 3731 1913 
Q 3942 2125 3942 2426 
Q 3942 2624 3846 2787 
Q 3750 2950 3587 3049 
Q 3424 3149 3219 3149 
Q 3021 3149 2857 3049 
Q 2694 2950 2595 2787 
Q 2496 2624 2496 2426 
Q 2496 2227 2595 2060 
Q 2694 1894 2857 1798 
Q 3021 1702 3219 1702 
z
" transform="scale(0.015625)"/>
        <path id="NotoSansTC-Thin-5e74" d="M 1958 5338 
L 2144 5286 
Q 1958 4819 1712 4384 
Q 1466 3949 1178 3577 
Q 890 3206 576 2918 
Q 557 2931 528 2953 
Q 499 2976 467 2998 
Q 435 3021 403 3034 
Q 730 3315 1018 3676 
Q 1306 4038 1546 4464 
Q 1786 4890 1958 5338 
z
M 1626 4474 
L 5811 4474 
L 5811 4288 
L 1530 4288 
L 1626 4474 
z
M 1453 3085 
L 5670 3085 
L 5670 2899 
L 1638 2899 
L 1638 1216 
L 1453 1216 
L 1453 3085 
z
M 352 1318 
L 6061 1318 
L 6061 1133 
L 352 1133 
L 352 1318 
z
M 3405 4371 
L 3597 4371 
L 3597 -454 
L 3405 -454 
L 3405 4371 
z
" transform="scale(0.015625)"/>
        <path id="NotoSansTC-Thin-5316" d="M 3238 5229 
L 3424 5229 
L 3424 435 
Q 3424 282 3462 192 
Q 3501 102 3600 67 
Q 3699 32 3872 32 
Q 3942 32 4128 32 
Q 4314 32 4544 32 
Q 4774 32 4976 32 
Q 5178 32 5274 32 
Q 5472 32 5571 157 
Q 5670 282 5712 592 
Q 5754 902 5773 1466 
Q 5824 1434 5875 1408 
Q 5926 1382 5971 1370 
Q 5946 787 5891 454 
Q 5837 122 5696 -19 
Q 5555 -160 5254 -160 
Q 5216 -160 5078 -160 
Q 4941 -160 4755 -160 
Q 4570 -160 4384 -160 
Q 4198 -160 4060 -160 
Q 3923 -160 3891 -160 
Q 3642 -160 3501 -112 
Q 3360 -64 3299 70 
Q 3238 205 3238 448 
L 3238 5229 
z
M 2182 5293 
L 2362 5235 
Q 2118 4691 1801 4182 
Q 1485 3674 1120 3232 
Q 755 2790 371 2438 
Q 358 2458 332 2490 
Q 307 2522 281 2550 
Q 256 2579 230 2598 
Q 614 2925 976 3353 
Q 1338 3782 1648 4278 
Q 1958 4774 2182 5293 
z
M 1498 3904 
L 1677 4077 
L 1690 4070 
L 1690 -454 
L 1498 -454 
L 1498 3904 
z
M 3334 3360 
L 5766 3360 
L 5766 3174 
L 3334 3174 
L 3334 3360 
z
" transform="scale(0.015625)"/>
        <path id="NotoSansTC-Thin-56de" d="M 2202 3392 
L 2202 1562 
L 4186 1562 
L 4186 3392 
L 2202 3392 
z
M 2016 3584 
L 4371 3584 
L 4371 1376 
L 2016 1376 
L 2016 3584 
z
M 595 5011 
L 5811 5011 
L 5811 -435 
L 5619 -435 
L 5619 4826 
L 787 4826 
L 787 -435 
L 595 -435 
L 595 5011 
z
M 704 96 
L 5734 96 
L 5734 -96 
L 704 -96 
L 704 96 
z
" transform="scale(0.015625)"/>
        <path id="NotoSansTC-Thin-5831" d="M 3501 2848 
L 5734 2848 
L 5734 2662 
L 3501 2662 
L 3501 2848 
z
M 3398 4992 
L 5600 4992 
L 5600 4800 
L 3590 4800 
L 3590 -435 
L 3398 -435 
L 3398 4992 
z
M 5549 4992 
L 5734 4992 
L 5734 3731 
Q 5734 3622 5699 3564 
Q 5664 3507 5555 3475 
Q 5446 3450 5216 3443 
Q 4986 3437 4595 3437 
Q 4589 3482 4566 3530 
Q 4544 3578 4512 3622 
Q 4755 3616 4940 3613 
Q 5126 3610 5248 3613 
Q 5370 3616 5421 3622 
Q 5504 3629 5526 3651 
Q 5549 3674 5549 3725 
L 5549 4992 
z
M 3942 2803 
Q 4128 2138 4448 1533 
Q 4768 928 5197 467 
Q 5626 6 6138 -237 
Q 6099 -269 6054 -320 
Q 6010 -371 5978 -416 
Q 5466 -141 5037 339 
Q 4608 819 4285 1440 
Q 3962 2061 3763 2752 
L 3942 2803 
z
M 5664 2848 
L 5702 2848 
L 5747 2861 
L 5882 2810 
Q 5741 2150 5449 1526 
Q 5158 902 4723 390 
Q 4288 -122 3712 -461 
Q 3686 -429 3648 -393 
Q 3610 -358 3571 -333 
Q 4128 -13 4553 492 
Q 4979 998 5260 1596 
Q 5542 2195 5664 2784 
L 5664 2848 
z
M 563 4570 
L 2912 4570 
L 2912 4378 
L 563 4378 
L 563 4570 
z
M 358 1184 
L 3098 1184 
L 3098 998 
L 358 998 
L 358 1184 
z
M 365 3533 
L 3078 3533 
L 3078 3341 
L 365 3341 
L 365 3533 
z
M 486 2266 
L 2976 2266 
L 2976 2080 
L 486 2080 
L 486 2266 
z
M 1651 5318 
L 1837 5318 
L 1837 3482 
L 1651 3482 
L 1651 5318 
z
M 1651 2202 
L 1837 2202 
L 1837 -422 
L 1651 -422 
L 1651 2202 
z
M 2477 3277 
L 2675 3213 
Q 2534 2950 2368 2659 
Q 2202 2368 2042 2157 
L 1869 2221 
Q 1978 2362 2093 2550 
Q 2208 2739 2310 2931 
Q 2413 3123 2477 3277 
z
M 851 3187 
L 1005 3238 
Q 1133 3040 1238 2803 
Q 1344 2566 1382 2400 
L 1216 2330 
Q 1178 2502 1075 2745 
Q 973 2989 851 3187 
z
" transform="scale(0.015625)"/>
        <path id="NotoSansTC-Thin-20" transform="scale(0.015625)"/>
        <path id="NotoSansTC-Thin-35" d="M 1581 -83 
Q 1222 -83 963 9 
Q 704 102 515 240 
Q 326 378 186 518 
L 333 691 
Q 467 550 636 422 
Q 806 294 1040 211 
Q 1274 128 1594 128 
Q 1901 128 2166 294 
Q 2432 461 2592 765 
Q 2752 1069 2752 1466 
Q 2752 2061 2441 2406 
Q 2131 2752 1606 2752 
Q 1350 2752 1152 2665 
Q 954 2579 755 2445 
L 563 2560 
L 730 4646 
L 2758 4646 
L 2758 4435 
L 941 4435 
L 787 2726 
Q 966 2835 1168 2902 
Q 1370 2970 1626 2970 
Q 2010 2970 2320 2813 
Q 2630 2656 2812 2326 
Q 2995 1997 2995 1478 
Q 2995 979 2787 630 
Q 2579 282 2256 99 
Q 1933 -83 1581 -83 
z
" transform="scale(0.015625)"/>
        <path id="NotoSansTC-Thin-2d" d="M 282 1638 
L 282 1862 
L 1811 1862 
L 1811 1638 
L 282 1638 
z
" transform="scale(0.015625)"/>
        <path id="NotoSansTC-Thin-31" d="M 608 0 
L 608 211 
L 1677 211 
L 1677 4211 
L 864 4211 
L 864 4378 
Q 1133 4422 1344 4492 
Q 1555 4563 1702 4646 
L 1901 4646 
L 1901 211 
L 2899 211 
L 2899 0 
L 608 0 
z
" transform="scale(0.015625)"/>
        <path id="NotoSansTC-Thin-25" d="M 1267 1818 
Q 966 1818 745 1987 
Q 525 2157 409 2483 
Q 294 2810 294 3283 
Q 294 3750 409 4070 
Q 525 4390 745 4560 
Q 966 4730 1267 4730 
Q 1574 4730 1795 4560 
Q 2016 4390 2131 4070 
Q 2246 3750 2246 3283 
Q 2246 2810 2131 2483 
Q 2016 2157 1795 1987 
Q 1574 1818 1267 1818 
z
M 1267 2003 
Q 1619 2003 1820 2342 
Q 2022 2682 2022 3283 
Q 2022 3885 1820 4214 
Q 1619 4544 1267 4544 
Q 922 4544 717 4214 
Q 512 3885 512 3283 
Q 512 2682 717 2342 
Q 922 2003 1267 2003 
z
M 1382 -83 
L 3987 4730 
L 4218 4730 
L 1619 -83 
L 1382 -83 
z
M 4365 -83 
Q 4058 -83 3840 86 
Q 3622 256 3504 582 
Q 3386 909 3386 1382 
Q 3386 1850 3504 2170 
Q 3622 2490 3840 2659 
Q 4058 2829 4365 2829 
Q 4666 2829 4883 2659 
Q 5101 2490 5219 2170 
Q 5338 1850 5338 1382 
Q 5338 909 5219 582 
Q 5101 256 4883 86 
Q 4666 -83 4365 -83 
z
M 4365 102 
Q 4704 102 4912 441 
Q 5120 781 5120 1382 
Q 5120 1984 4912 2313 
Q 4704 2643 4365 2643 
Q 4013 2643 3808 2313 
Q 3603 1984 3603 1382 
Q 3603 781 3808 441 
Q 4013 102 4365 102 
z
" transform="scale(0.015625)"/>
       </defs>
       <use xlink:href="#NotoSansTC-Thin-80a1"/>
       <use xlink:href="#NotoSansTC-Thin-5e02" x="99.999985"/>
       <use xlink:href="#NotoSansTC-Thin-57fa" x="199.999969"/>
       <use xlink:href="#NotoSansTC-Thin-91d1" x="299.999954"/>
       <use xlink:href="#NotoSansTC-Thin-3002" x="399.999939"/>
       <use xlink:href="#NotoSansTC-Thin-5e74" x="499.999924"/>
       <use xlink:href="#NotoSansTC-Thin-5316" x="599.999908"/>
       <use xlink:href="#NotoSansTC-Thin-56de" x="699.999893"/>
       <use xlink:href="#NotoSansTC-Thin-5831" x="799.999878"/>
       <use xlink:href="#NotoSansTC-Thin-20" x="899.999863"/>
       <use xlink:href="#NotoSansTC-Thin-35" x="921.999847"/>
       <use xlink:href="#NotoSansTC-Thin-2d" x="974.099838"/>
       <use xlink:href="#NotoSansTC-Thin-31" x="1006.499832"/>
       <use xlink:href="#NotoSansTC-Thin-35" x="1058.599823"/>
       <use xlink:href="#NotoSansTC-Thin-25" x="1110.699814"/>
      </g>
     </g>
    </g>
    <g id="xtick_2">
     <g id="line2d_2">
      <g>
       <use xlink:href="#m01c42a00e6" x="246.343937" y="193.806094" style="stroke: #000000; stroke-width: 0.8"/>
      </g>
     </g>
     <g id="text_2">
      <!-- 政府債券。年化回報 2-3% -->
      <g transform="translate(146.990573 304.835644) rotate(-45) scale(0.12 -0.12)">
       <defs>
        <path id="NotoSansTC-Thin-653f" d="M 371 4787 
L 3315 4787 
L 3315 4602 
L 371 4602 
L 371 4787 
z
M 1901 2912 
L 3008 2912 
L 3008 2720 
L 1901 2720 
L 1901 2912 
z
M 1798 4685 
L 1990 4685 
L 1990 621 
L 1798 621 
L 1798 4685 
z
M 723 3424 
L 909 3424 
L 909 378 
L 723 378 
L 723 3424 
z
M 294 371 
Q 659 454 1148 569 
Q 1638 685 2192 822 
Q 2746 960 3302 1094 
L 3322 909 
Q 2784 774 2246 643 
Q 1709 512 1219 393 
Q 730 275 346 179 
L 294 371 
z
M 3725 4102 
L 6074 4102 
L 6074 3917 
L 3725 3917 
L 3725 4102 
z
M 4000 5312 
L 4198 5274 
Q 4070 4698 3894 4154 
Q 3718 3610 3507 3139 
Q 3296 2669 3046 2298 
Q 3027 2317 2995 2336 
Q 2963 2355 2928 2374 
Q 2893 2394 2867 2406 
Q 3130 2765 3341 3229 
Q 3552 3693 3718 4227 
Q 3885 4762 4000 5312 
z
M 5440 4064 
L 5632 4032 
Q 5446 2912 5126 2067 
Q 4806 1222 4284 601 
Q 3763 -19 2963 -461 
Q 2950 -435 2928 -406 
Q 2906 -378 2880 -349 
Q 2854 -320 2829 -301 
Q 3616 109 4131 717 
Q 4646 1325 4956 2153 
Q 5267 2982 5440 4064 
z
M 3750 3834 
Q 3923 2880 4233 2054 
Q 4544 1229 5014 617 
Q 5485 6 6144 -307 
Q 6125 -326 6096 -352 
Q 6067 -378 6041 -406 
Q 6016 -435 5997 -461 
Q 5338 -115 4864 509 
Q 4390 1133 4076 1971 
Q 3763 2810 3584 3795 
L 3750 3834 
z
" transform="scale(0.015625)"/>
        <path id="NotoSansTC-Thin-5e9c" d="M 2810 3040 
L 6035 3040 
L 6035 2854 
L 2810 2854 
L 2810 3040 
z
M 3213 2157 
L 3373 2234 
Q 3533 2022 3696 1782 
Q 3859 1542 4003 1312 
Q 4147 1082 4230 909 
L 4058 819 
Q 3968 992 3827 1225 
Q 3686 1459 3526 1705 
Q 3366 1952 3213 2157 
z
M 4992 4115 
L 5184 4115 
L 5184 -109 
Q 5184 -250 5139 -310 
Q 5094 -371 4986 -403 
Q 4883 -429 4665 -432 
Q 4448 -435 4083 -435 
Q 4077 -403 4051 -345 
Q 4026 -288 4000 -243 
Q 4320 -250 4553 -250 
Q 4787 -250 4864 -250 
Q 4934 -243 4963 -214 
Q 4992 -186 4992 -109 
L 4992 4115 
z
M 2566 4147 
L 2758 4096 
Q 2624 3706 2419 3286 
Q 2214 2867 1955 2483 
Q 1696 2099 1395 1798 
Q 1382 1818 1360 1843 
Q 1338 1869 1312 1894 
Q 1286 1920 1261 1939 
Q 1555 2227 1808 2595 
Q 2061 2963 2256 3366 
Q 2451 3770 2566 4147 
z
M 883 4544 
L 6029 4544 
L 6029 4352 
L 883 4352 
L 883 4544 
z
M 787 4544 
L 973 4544 
L 973 1837 
Q 973 1562 957 1254 
Q 941 947 889 640 
Q 838 333 742 48 
Q 646 -237 480 -467 
Q 467 -448 438 -425 
Q 410 -403 381 -384 
Q 352 -365 326 -352 
Q 486 -128 579 141 
Q 672 410 717 698 
Q 762 986 774 1274 
Q 787 1562 787 1830 
L 787 4544 
z
M 2074 2938 
L 2253 3117 
L 2259 3110 
L 2259 -454 
L 2074 -454 
L 2074 2938 
z
M 3136 5306 
L 3302 5370 
Q 3430 5158 3564 4912 
Q 3699 4666 3763 4493 
L 3590 4416 
Q 3520 4595 3392 4848 
Q 3264 5101 3136 5306 
z
" transform="scale(0.015625)"/>
        <path id="NotoSansTC-Thin-50b5" d="M 2144 4915 
L 5933 4915 
L 5933 4730 
L 2144 4730 
L 2144 4915 
z
M 2336 4294 
L 5728 4294 
L 5728 4109 
L 2336 4109 
L 2336 4294 
z
M 1862 3635 
L 6106 3635 
L 6106 3443 
L 1862 3443 
L 1862 3635 
z
M 3910 5299 
L 4096 5299 
L 4096 3552 
L 3910 3552 
L 3910 5299 
z
M 2611 2112 
L 2611 1574 
L 5478 1574 
L 5478 2112 
L 2611 2112 
z
M 2611 1389 
L 2611 838 
L 5478 838 
L 5478 1389 
L 2611 1389 
z
M 2611 2829 
L 2611 2304 
L 5478 2304 
L 5478 2829 
L 2611 2829 
z
M 2419 3021 
L 5664 3021 
L 5664 653 
L 2419 653 
L 2419 3021 
z
M 3354 461 
L 3539 390 
Q 3347 230 3081 76 
Q 2816 -77 2531 -208 
Q 2246 -339 1978 -435 
Q 1965 -416 1936 -390 
Q 1907 -365 1875 -336 
Q 1843 -307 1818 -288 
Q 2234 -154 2656 41 
Q 3078 237 3354 461 
z
M 1862 5293 
L 2048 5242 
Q 1837 4704 1555 4192 
Q 1274 3680 950 3235 
Q 627 2790 282 2438 
Q 269 2458 246 2486 
Q 224 2515 198 2547 
Q 173 2579 147 2592 
Q 493 2925 809 3357 
Q 1126 3789 1398 4285 
Q 1670 4781 1862 5293 
z
M 1152 3763 
L 1325 3942 
L 1338 3936 
L 1338 -435 
L 1152 -435 
L 1152 3763 
z
M 4557 378 
L 4717 486 
Q 4966 358 5219 208 
Q 5472 58 5696 -86 
Q 5920 -230 6067 -346 
L 5901 -480 
Q 5754 -358 5526 -204 
Q 5299 -51 5046 102 
Q 4794 256 4557 378 
z
" transform="scale(0.015625)"/>
        <path id="NotoSansTC-Thin-5238" d="M 448 2989 
L 5984 2989 
L 5984 2797 
L 448 2797 
L 448 2989 
z
M 851 4077 
L 5510 4077 
L 5510 3891 
L 851 3891 
L 851 4077 
z
M 4083 2970 
Q 4288 2618 4617 2310 
Q 4947 2003 5347 1769 
Q 5747 1536 6170 1408 
Q 6144 1389 6118 1360 
Q 6093 1331 6070 1302 
Q 6048 1274 6029 1242 
Q 5613 1389 5206 1638 
Q 4800 1888 4461 2211 
Q 4122 2534 3910 2899 
L 4083 2970 
z
M 3213 5318 
L 3405 5293 
Q 3322 4762 3098 4195 
Q 2874 3629 2506 3085 
Q 2138 2541 1613 2077 
Q 1088 1613 403 1280 
Q 390 1306 368 1328 
Q 346 1350 320 1376 
Q 294 1402 269 1421 
Q 947 1741 1465 2195 
Q 1984 2650 2345 3181 
Q 2707 3712 2921 4262 
Q 3136 4813 3213 5318 
z
M 1440 5024 
L 1587 5107 
Q 1760 4922 1933 4688 
Q 2106 4454 2189 4288 
L 2035 4186 
Q 1952 4352 1782 4592 
Q 1613 4832 1440 5024 
z
M 4787 5107 
L 4960 5030 
Q 4787 4768 4572 4480 
Q 4358 4192 4166 3987 
L 4026 4051 
Q 4154 4192 4298 4377 
Q 4442 4563 4570 4758 
Q 4698 4954 4787 5107 
z
M 1376 1856 
L 4653 1856 
L 4653 1670 
L 1376 1670 
L 1376 1856 
z
M 4589 1856 
L 4781 1856 
Q 4781 1856 4777 1811 
Q 4774 1766 4768 1734 
Q 4723 1056 4672 646 
Q 4621 237 4560 25 
Q 4499 -186 4410 -275 
Q 4339 -339 4262 -364 
Q 4186 -390 4051 -397 
Q 3930 -403 3683 -396 
Q 3437 -390 3162 -365 
Q 3155 -320 3142 -269 
Q 3130 -218 3098 -179 
Q 3398 -205 3660 -211 
Q 3923 -218 4006 -218 
Q 4109 -218 4163 -208 
Q 4218 -198 4256 -160 
Q 4333 -90 4387 118 
Q 4442 326 4493 739 
Q 4544 1152 4589 1818 
L 4589 1856 
z
M 2547 1760 
L 2746 1760 
Q 2682 1350 2550 1004 
Q 2419 659 2192 380 
Q 1965 102 1613 -109 
Q 1261 -320 755 -461 
Q 742 -435 720 -409 
Q 698 -384 672 -355 
Q 646 -326 627 -307 
Q 1126 -179 1468 19 
Q 1811 218 2028 483 
Q 2246 749 2368 1069 
Q 2490 1389 2547 1760 
z
" transform="scale(0.015625)"/>
        <path id="NotoSansTC-Thin-32" d="M 294 0 
L 294 147 
Q 1120 858 1613 1434 
Q 2106 2010 2323 2499 
Q 2541 2989 2541 3424 
Q 2541 3725 2435 3974 
Q 2330 4224 2106 4371 
Q 1882 4518 1523 4518 
Q 1210 4518 931 4352 
Q 653 4186 442 3923 
L 282 4070 
Q 525 4346 829 4538 
Q 1133 4730 1542 4730 
Q 1939 4730 2214 4566 
Q 2490 4403 2637 4112 
Q 2784 3821 2784 3424 
Q 2784 2918 2537 2406 
Q 2291 1894 1820 1347 
Q 1350 800 678 179 
Q 870 192 1062 201 
Q 1254 211 1440 211 
L 3014 211 
L 3014 0 
L 294 0 
z
" transform="scale(0.015625)"/>
        <path id="NotoSansTC-Thin-33" d="M 1619 -83 
Q 1261 -83 998 13 
Q 736 109 544 256 
Q 352 403 211 550 
L 358 717 
Q 563 499 857 313 
Q 1152 128 1632 128 
Q 1952 128 2198 262 
Q 2445 397 2585 640 
Q 2726 883 2726 1210 
Q 2726 1542 2560 1795 
Q 2394 2048 2038 2189 
Q 1683 2330 1114 2330 
L 1114 2554 
Q 1651 2554 1964 2698 
Q 2278 2842 2416 3088 
Q 2554 3334 2554 3629 
Q 2554 4026 2298 4272 
Q 2042 4518 1606 4518 
Q 1293 4518 1017 4374 
Q 742 4230 557 4026 
L 410 4192 
Q 634 4410 925 4570 
Q 1216 4730 1606 4730 
Q 1939 4730 2211 4598 
Q 2483 4467 2643 4224 
Q 2803 3981 2803 3642 
Q 2803 3168 2550 2877 
Q 2298 2586 1926 2464 
L 1926 2438 
Q 2208 2381 2445 2221 
Q 2682 2061 2826 1808 
Q 2970 1555 2970 1222 
Q 2970 826 2790 531 
Q 2611 237 2307 77 
Q 2003 -83 1619 -83 
z
" transform="scale(0.015625)"/>
       </defs>
       <use xlink:href="#NotoSansTC-Thin-653f"/>
       <use xlink:href="#NotoSansTC-Thin-5e9c" x="99.999985"/>
       <use xlink:href="#NotoSansTC-Thin-50b5" x="199.999969"/>
       <use xlink:href="#NotoSansTC-Thin-5238" x="299.999954"/>
       <use xlink:href="#NotoSansTC-Thin-3002" x="399.999939"/>
       <use xlink:href="#NotoSansTC-Thin-5e74" x="499.999924"/>
       <use xlink:href="#NotoSansTC-Thin-5316" x="599.999908"/>
       <use xlink:href="#NotoSansTC-Thin-56de" x="699.999893"/>
       <use xlink:href="#NotoSansTC-Thin-5831" x="799.999878"/>
       <use xlink:href="#NotoSansTC-Thin-20" x="899.999863"/>
       <use xlink:href="#NotoSansTC-Thin-32" x="921.999847"/>
       <use xlink:href="#NotoSansTC-Thin-2d" x="974.099838"/>
       <use xlink:href="#NotoSansTC-Thin-33" x="1006.499832"/>
       <use xlink:href="#NotoSansTC-Thin-25" x="1058.599823"/>
      </g>
     </g>
    </g>
    <g id="xtick_3">
     <g id="line2d_3">
      <g>
       <use xlink:href="#m01c42a00e6" x="374.976364" y="193.806094" style="stroke: #000000; stroke-width: 0.8"/>
      </g>
     </g>
     <g id="text_3">
      <!-- ESG環保投資基金。年化回報 2-7% -->
      <g transform="translate(243.446548 337.012096) rotate(-45) scale(0.12 -0.12)">
       <defs>
        <path id="NotoSansTC-Thin-45" d="M 704 0 
L 704 4646 
L 3200 4646 
L 3200 4435 
L 941 4435 
L 941 2586 
L 2835 2586 
L 2835 2374 
L 941 2374 
L 941 211 
L 3270 211 
L 3270 0 
L 704 0 
z
" transform="scale(0.015625)"/>
        <path id="NotoSansTC-Thin-53" d="M 1888 -83 
Q 1376 -83 989 115 
Q 602 314 339 621 
L 499 787 
Q 755 493 1113 317 
Q 1472 141 1888 141 
Q 2445 141 2774 416 
Q 3104 691 3104 1126 
Q 3104 1440 2985 1625 
Q 2867 1811 2675 1929 
Q 2483 2048 2246 2150 
L 1536 2470 
Q 1338 2560 1117 2694 
Q 896 2829 742 3049 
Q 589 3270 589 3610 
Q 589 3949 761 4198 
Q 934 4448 1232 4589 
Q 1530 4730 1907 4730 
Q 2330 4730 2653 4566 
Q 2976 4403 3174 4179 
L 3027 4019 
Q 2829 4237 2547 4371 
Q 2266 4506 1907 4506 
Q 1421 4506 1126 4269 
Q 832 4032 832 3635 
Q 832 3347 966 3164 
Q 1101 2982 1293 2876 
Q 1485 2771 1645 2694 
L 2355 2374 
Q 2618 2259 2842 2108 
Q 3066 1958 3203 1731 
Q 3341 1504 3341 1146 
Q 3341 794 3161 515 
Q 2982 237 2656 77 
Q 2330 -83 1888 -83 
z
" transform="scale(0.015625)"/>
        <path id="NotoSansTC-Thin-47" d="M 2355 -83 
Q 1766 -83 1324 217 
Q 883 518 640 1062 
Q 397 1606 397 2336 
Q 397 2886 541 3328 
Q 685 3770 953 4083 
Q 1222 4397 1593 4563 
Q 1965 4730 2426 4730 
Q 2893 4730 3190 4550 
Q 3488 4371 3667 4179 
L 3520 4019 
Q 3341 4218 3078 4362 
Q 2816 4506 2426 4506 
Q 1875 4506 1475 4240 
Q 1075 3974 860 3488 
Q 646 3002 646 2336 
Q 646 1670 854 1177 
Q 1062 685 1449 413 
Q 1837 141 2374 141 
Q 2707 141 3001 240 
Q 3296 339 3469 512 
L 3469 2035 
L 2323 2035 
L 2323 2246 
L 3718 2246 
L 3718 435 
Q 3501 205 3155 61 
Q 2810 -83 2355 -83 
z
" transform="scale(0.015625)"/>
        <path id="NotoSansTC-Thin-74b0" d="M 314 4813 
L 2016 4813 
L 2016 4621 
L 314 4621 
L 314 4813 
z
M 390 2950 
L 1920 2950 
L 1920 2758 
L 390 2758 
L 390 2950 
z
M 243 461 
Q 582 563 1040 723 
Q 1498 883 1984 1056 
L 2010 870 
Q 1555 710 1110 550 
Q 666 390 307 262 
L 243 461 
z
M 1094 4736 
L 1280 4736 
L 1280 698 
L 1094 621 
L 1094 4736 
z
M 2202 3373 
L 6016 3373 
L 6016 3187 
L 2202 3187 
L 2202 3373 
z
M 2886 2522 
L 2886 1670 
L 5376 1670 
L 5376 2522 
L 2886 2522 
z
M 2701 2714 
L 5562 2714 
L 5562 1478 
L 2701 1478 
L 2701 2714 
z
M 4736 4890 
L 4736 3994 
L 5600 3994 
L 5600 4890 
L 4736 4890 
z
M 3699 4890 
L 3699 3994 
L 4550 3994 
L 4550 4890 
L 3699 4890 
z
M 2701 4890 
L 2701 3994 
L 3514 3994 
L 3514 4890 
L 2701 4890 
z
M 2509 5075 
L 5792 5075 
L 5792 3808 
L 2509 3808 
L 2509 5075 
z
M 4250 1613 
Q 4397 1184 4669 809 
Q 4941 435 5318 163 
Q 5696 -109 6150 -237 
Q 6118 -262 6076 -310 
Q 6035 -358 6016 -403 
Q 5325 -179 4822 349 
Q 4320 877 4090 1562 
L 4250 1613 
z
M 5741 1312 
L 5894 1184 
Q 5651 1005 5337 819 
Q 5024 634 4762 506 
L 4634 602 
Q 4806 698 5011 822 
Q 5216 947 5411 1078 
Q 5606 1210 5741 1312 
z
M 3987 1651 
L 4141 1568 
Q 3917 1325 3571 1088 
Q 3226 851 2848 662 
Q 2470 474 2125 358 
Q 2106 397 2070 441 
Q 2035 486 2003 512 
Q 2355 614 2732 790 
Q 3110 966 3443 1190 
Q 3776 1414 3987 1651 
z
M 2912 -416 
Q 2899 -371 2867 -313 
Q 2835 -256 2803 -218 
Q 2854 -192 2918 -115 
Q 2982 -38 2982 141 
L 2982 851 
L 3168 902 
L 3168 -154 
Q 3168 -154 3129 -179 
Q 3091 -205 3040 -246 
Q 2989 -288 2950 -333 
Q 2912 -378 2912 -416 
z
M 2912 -416 
L 2912 -250 
L 3046 -141 
L 4410 224 
Q 4410 192 4413 144 
Q 4416 96 4422 64 
Q 3942 -77 3657 -160 
Q 3373 -243 3222 -291 
Q 3072 -339 3008 -368 
Q 2944 -397 2912 -416 
z
" transform="scale(0.015625)"/>
        <path id="NotoSansTC-Thin-4fdd" d="M 3923 3187 
L 4115 3187 
L 4115 -454 
L 3923 -454 
L 3923 3187 
z
M 1875 2157 
L 6086 2157 
L 6086 1971 
L 1875 1971 
L 1875 2157 
z
M 2586 4806 
L 2586 3315 
L 5472 3315 
L 5472 4806 
L 2586 4806 
z
M 2400 4992 
L 5658 4992 
L 5658 3123 
L 2400 3123 
L 2400 4992 
z
M 1914 5293 
L 2099 5242 
Q 1882 4704 1597 4198 
Q 1312 3693 985 3254 
Q 659 2816 314 2464 
Q 301 2483 275 2515 
Q 250 2547 224 2576 
Q 198 2605 173 2624 
Q 518 2950 838 3376 
Q 1158 3802 1436 4291 
Q 1715 4781 1914 5293 
z
M 1197 3763 
L 1376 3942 
L 1389 3936 
L 1389 -435 
L 1197 -435 
L 1197 3763 
z
M 3123 1549 
L 3302 1485 
Q 3130 1216 2922 928 
Q 2714 640 2502 374 
Q 2291 109 2093 -102 
Q 2080 -90 2051 -64 
Q 2022 -38 1990 -16 
Q 1958 6 1933 19 
Q 2240 333 2560 745 
Q 2880 1158 3123 1549 
z
M 4621 1459 
L 4774 1549 
Q 5011 1312 5257 1033 
Q 5504 755 5715 489 
Q 5926 224 6054 19 
L 5888 -96 
Q 5760 115 5549 387 
Q 5338 659 5098 940 
Q 4858 1222 4621 1459 
z
" transform="scale(0.015625)"/>
        <path id="NotoSansTC-Thin-6295" d="M 262 1792 
Q 640 1901 1168 2067 
Q 1696 2234 2246 2413 
L 2278 2240 
Q 1766 2067 1257 1900 
Q 749 1734 346 1600 
L 262 1792 
z
M 339 3949 
L 2432 3949 
L 2432 3757 
L 339 3757 
L 339 3949 
z
M 1325 5312 
L 1510 5312 
L 1510 -90 
Q 1510 -218 1465 -278 
Q 1421 -339 1331 -365 
Q 1242 -390 1059 -396 
Q 877 -403 557 -403 
Q 550 -365 528 -310 
Q 506 -256 480 -211 
Q 742 -218 940 -218 
Q 1139 -218 1197 -218 
Q 1267 -211 1296 -185 
Q 1325 -160 1325 -96 
L 1325 5312 
z
M 3181 5056 
L 4794 5056 
L 4794 4870 
L 3181 4870 
L 3181 5056 
z
M 2400 2438 
L 5395 2438 
L 5395 2253 
L 2400 2253 
L 2400 2438 
z
M 5318 2438 
L 5363 2438 
L 5408 2451 
L 5536 2381 
Q 5306 1792 4922 1325 
Q 4538 858 4054 502 
Q 3571 147 3033 -93 
Q 2496 -333 1958 -474 
Q 1952 -442 1933 -410 
Q 1914 -378 1891 -346 
Q 1869 -314 1843 -294 
Q 2368 -166 2896 61 
Q 3424 288 3897 624 
Q 4371 960 4739 1405 
Q 5107 1850 5318 2400 
L 5318 2438 
z
M 2784 2349 
Q 3053 1683 3520 1152 
Q 3987 621 4630 256 
Q 5274 -109 6054 -282 
Q 6029 -301 6003 -333 
Q 5978 -365 5958 -397 
Q 5939 -429 5920 -454 
Q 4742 -173 3891 534 
Q 3040 1242 2624 2285 
L 2784 2349 
z
M 3091 5056 
L 3283 5056 
L 3283 4339 
Q 3283 4077 3212 3782 
Q 3142 3488 2953 3203 
Q 2765 2918 2406 2682 
Q 2394 2701 2371 2726 
Q 2349 2752 2323 2781 
Q 2298 2810 2278 2822 
Q 2618 3046 2794 3305 
Q 2970 3565 3030 3833 
Q 3091 4102 3091 4339 
L 3091 5056 
z
M 4698 5056 
L 4890 5056 
L 4890 3494 
Q 4890 3360 4912 3312 
Q 4934 3264 5018 3264 
Q 5069 3264 5206 3264 
Q 5344 3264 5478 3264 
Q 5613 3264 5664 3264 
Q 5728 3264 5808 3270 
Q 5888 3277 5946 3283 
Q 5952 3245 5958 3184 
Q 5965 3123 5971 3091 
Q 5926 3085 5843 3078 
Q 5760 3072 5670 3072 
Q 5619 3072 5475 3072 
Q 5331 3072 5196 3072 
Q 5062 3072 5024 3072 
Q 4896 3072 4822 3110 
Q 4749 3149 4723 3241 
Q 4698 3334 4698 3501 
L 4698 5056 
z
" transform="scale(0.015625)"/>
        <path id="NotoSansTC-Thin-8cc7" d="M 1408 2112 
L 1408 1510 
L 5075 1510 
L 5075 2112 
L 1408 2112 
z
M 1408 1325 
L 1408 710 
L 5075 710 
L 5075 1325 
L 1408 1325 
z
M 1408 2899 
L 1408 2304 
L 5075 2304 
L 5075 2899 
L 1408 2899 
z
M 1216 3085 
L 5261 3085 
L 5261 525 
L 1216 525 
L 1216 3085 
z
M 3910 237 
L 4051 365 
Q 4416 269 4777 157 
Q 5139 45 5456 -64 
Q 5773 -173 6010 -275 
L 5837 -416 
Q 5613 -314 5305 -205 
Q 4998 -96 4643 19 
Q 4288 134 3910 237 
z
M 2317 378 
L 2490 294 
Q 2234 160 1904 25 
Q 1574 -109 1222 -224 
Q 870 -339 557 -422 
Q 550 -403 524 -374 
Q 499 -346 470 -314 
Q 442 -282 416 -262 
Q 736 -186 1085 -86 
Q 1434 13 1754 131 
Q 2074 250 2317 378 
z
M 3046 4838 
L 5728 4838 
L 5728 4646 
L 3046 4646 
L 3046 4838 
z
M 3200 5312 
L 3386 5274 
Q 3264 4883 3059 4521 
Q 2854 4160 2618 3904 
Q 2605 3923 2576 3942 
Q 2547 3962 2515 3981 
Q 2483 4000 2458 4013 
Q 2701 4262 2893 4601 
Q 3085 4941 3200 5312 
z
M 4070 4800 
L 4262 4800 
L 4262 4614 
Q 4262 4429 4204 4230 
Q 4147 4032 3958 3837 
Q 3770 3642 3376 3472 
Q 2982 3302 2310 3168 
Q 2291 3206 2256 3254 
Q 2221 3302 2189 3328 
Q 2848 3443 3229 3603 
Q 3610 3763 3789 3939 
Q 3968 4115 4019 4288 
Q 4070 4461 4070 4614 
L 4070 4800 
z
M 4198 4294 
Q 4358 4077 4649 3888 
Q 4941 3699 5321 3571 
Q 5702 3443 6125 3386 
Q 6093 3360 6054 3312 
Q 6016 3264 5997 3226 
Q 5574 3296 5190 3443 
Q 4806 3590 4512 3795 
Q 4218 4000 4051 4243 
L 4198 4294 
z
M 499 4870 
L 1939 4870 
L 1939 4678 
L 499 4678 
L 499 4870 
z
M 358 3859 
L 2112 3859 
L 2112 3667 
L 358 3667 
L 358 3859 
z
M 5683 4838 
L 5728 4838 
L 5766 4851 
L 5888 4794 
Q 5766 4576 5638 4339 
Q 5510 4102 5389 3949 
L 5229 3994 
Q 5338 4154 5462 4371 
Q 5587 4589 5683 4794 
L 5683 4838 
z
" transform="scale(0.015625)"/>
        <path id="NotoSansTC-Thin-37" d="M 1344 0 
Q 1376 717 1462 1318 
Q 1549 1920 1712 2445 
Q 1875 2970 2124 3459 
Q 2374 3949 2726 4435 
L 307 4435 
L 307 4646 
L 3034 4646 
L 3034 4512 
Q 2624 3955 2355 3436 
Q 2086 2918 1932 2384 
Q 1779 1850 1705 1267 
Q 1632 685 1606 0 
L 1344 0 
z
" transform="scale(0.015625)"/>
       </defs>
       <use xlink:href="#NotoSansTC-Thin-45"/>
       <use xlink:href="#NotoSansTC-Thin-53" x="56.199997"/>
       <use xlink:href="#NotoSansTC-Thin-47" x="113.099991"/>
       <use xlink:href="#NotoSansTC-Thin-74b0" x="179.199982"/>
       <use xlink:href="#NotoSansTC-Thin-4fdd" x="279.199966"/>
       <use xlink:href="#NotoSansTC-Thin-6295" x="379.199951"/>
       <use xlink:href="#NotoSansTC-Thin-8cc7" x="479.199936"/>
       <use xlink:href="#NotoSansTC-Thin-57fa" x="579.199921"/>
       <use xlink:href="#NotoSansTC-Thin-91d1" x="679.199905"/>
       <use xlink:href="#NotoSansTC-Thin-3002" x="779.19989"/>
       <use xlink:href="#NotoSansTC-Thin-5e74" x="879.199875"/>
       <use xlink:href="#NotoSansTC-Thin-5316" x="979.19986"/>
       <use xlink:href="#NotoSansTC-Thin-56de" x="1079.199844"/>
       <use xlink:href="#NotoSansTC-Thin-5831" x="1179.199829"/>
       <use xlink:href="#NotoSansTC-Thin-20" x="1279.199814"/>
       <use xlink:href="#NotoSansTC-Thin-32" x="1301.199799"/>
       <use xlink:href="#NotoSansTC-Thin-2d" x="1353.299789"/>
       <use xlink:href="#NotoSansTC-Thin-37" x="1385.699783"/>
       <use xlink:href="#NotoSansTC-Thin-25" x="1437.799774"/>
      </g>
     </g>
    </g>
    <g id="xtick_4">
     <g id="line2d_4">
      <g>
       <use xlink:href="#m01c42a00e6" x="503.608792" y="193.806094" style="stroke: #000000; stroke-width: 0.8"/>
      </g>
     </g>
     <g id="text_4">
      <!-- 房地產投資信託。年化回報 2-7% -->
      <g transform="translate(378.799584 330.291488) rotate(-45) scale(0.12 -0.12)">
       <defs>
        <path id="NotoSansTC-Thin-623f" d="M 3187 2752 
L 3328 2848 
Q 3494 2675 3644 2464 
Q 3795 2253 3872 2093 
L 3712 1984 
Q 3648 2150 3497 2364 
Q 3347 2579 3187 2752 
z
M 1120 2131 
L 6035 2131 
L 6035 1946 
L 1120 1946 
L 1120 2131 
z
M 2790 1286 
L 5229 1286 
L 5229 1101 
L 2790 1101 
L 2790 1286 
z
M 5146 1286 
L 5338 1286 
Q 5338 1286 5334 1241 
Q 5331 1197 5325 1165 
Q 5274 666 5216 355 
Q 5158 45 5091 -124 
Q 5024 -294 4941 -371 
Q 4877 -422 4803 -444 
Q 4730 -467 4608 -467 
Q 4506 -474 4285 -467 
Q 4064 -461 3821 -442 
Q 3814 -403 3801 -352 
Q 3789 -301 3763 -256 
Q 4026 -282 4256 -288 
Q 4486 -294 4570 -294 
Q 4659 -294 4710 -288 
Q 4762 -282 4800 -243 
Q 4902 -154 4982 179 
Q 5062 512 5146 1248 
L 5146 1286 
z
M 2861 2086 
L 3053 2086 
Q 3002 1606 2883 1206 
Q 2765 806 2547 486 
Q 2330 166 1978 -74 
Q 1626 -314 1094 -467 
Q 1082 -442 1059 -416 
Q 1037 -390 1014 -364 
Q 992 -339 966 -326 
Q 1491 -179 1836 48 
Q 2182 275 2390 582 
Q 2598 890 2707 1267 
Q 2816 1645 2861 2086 
z
M 1114 4198 
L 5504 4198 
L 5504 2918 
L 1114 2918 
L 1114 3104 
L 5312 3104 
L 5312 4006 
L 1114 4006 
L 1114 4198 
z
M 5088 5312 
L 5261 5158 
Q 4877 5075 4377 5001 
Q 3878 4928 3318 4867 
Q 2758 4806 2179 4758 
Q 1600 4710 1056 4678 
Q 1050 4717 1034 4765 
Q 1018 4813 998 4851 
Q 1536 4883 2112 4931 
Q 2688 4979 3241 5036 
Q 3795 5094 4272 5164 
Q 4749 5235 5088 5312 
z
M 998 4851 
L 1184 4851 
L 1184 2912 
Q 1184 2541 1158 2109 
Q 1133 1677 1062 1225 
Q 992 774 848 348 
Q 704 -77 461 -442 
Q 448 -422 416 -403 
Q 384 -384 355 -365 
Q 326 -346 301 -339 
Q 538 19 678 432 
Q 819 845 886 1277 
Q 954 1709 976 2128 
Q 998 2547 998 2912 
L 998 4851 
z
" transform="scale(0.015625)"/>
        <path id="NotoSansTC-Thin-5730" d="M 384 3718 
L 2221 3718 
L 2221 3533 
L 384 3533 
L 384 3718 
z
M 1242 5254 
L 1434 5254 
L 1434 1190 
L 1242 1190 
L 1242 5254 
z
M 288 870 
Q 538 966 861 1100 
Q 1184 1235 1545 1388 
Q 1907 1542 2272 1696 
L 2310 1517 
Q 1792 1293 1280 1072 
Q 768 851 365 685 
L 288 870 
z
M 4179 5318 
L 4365 5318 
L 4365 915 
L 4179 915 
L 4179 5318 
z
M 2048 2611 
L 5626 4109 
L 5709 3942 
L 2125 2438 
L 2048 2611 
z
M 2797 4742 
L 2989 4742 
L 2989 320 
Q 2989 160 3033 67 
Q 3078 -26 3196 -64 
Q 3315 -102 3546 -102 
Q 3616 -102 3792 -102 
Q 3968 -102 4201 -102 
Q 4435 -102 4672 -102 
Q 4909 -102 5101 -102 
Q 5293 -102 5389 -102 
Q 5594 -102 5693 -16 
Q 5792 70 5833 291 
Q 5875 512 5894 915 
Q 5939 883 5990 860 
Q 6042 838 6086 832 
Q 6061 403 6006 160 
Q 5952 -83 5805 -185 
Q 5658 -288 5363 -288 
Q 5318 -288 5139 -288 
Q 4960 -288 4713 -288 
Q 4467 -288 4220 -288 
Q 3974 -288 3795 -288 
Q 3616 -288 3578 -288 
Q 3283 -288 3110 -237 
Q 2938 -186 2867 -51 
Q 2797 83 2797 333 
L 2797 4742 
z
M 5562 3974 
L 5491 3974 
L 5626 4109 
L 5779 4051 
L 5760 4000 
Q 5722 3539 5661 3020 
Q 5600 2502 5526 2022 
Q 5453 1542 5363 1197 
L 5203 1248 
Q 5261 1504 5315 1837 
Q 5370 2170 5418 2538 
Q 5466 2906 5501 3277 
Q 5536 3648 5562 3974 
z
" transform="scale(0.015625)"/>
        <path id="NotoSansTC-Thin-7522" d="M 992 3123 
L 5990 3123 
L 5990 2938 
L 992 2938 
L 992 3123 
z
M 890 4646 
L 5773 4646 
L 5773 4461 
L 890 4461 
L 890 4646 
z
M 1837 2125 
L 5600 2125 
L 5600 1939 
L 1837 1939 
L 1837 2125 
z
M 1882 1126 
L 5498 1126 
L 5498 934 
L 1882 934 
L 1882 1126 
z
M 1254 -6 
L 6086 -6 
L 6086 -192 
L 1254 -192 
L 1254 -6 
z
M 3526 2822 
L 3712 2822 
L 3712 -109 
L 3526 -109 
L 3526 2822 
z
M 883 3123 
L 1075 3123 
L 1075 1568 
Q 1075 1325 1052 1053 
Q 1030 781 960 505 
Q 890 230 762 -26 
Q 634 -282 422 -506 
Q 410 -480 384 -457 
Q 358 -435 332 -412 
Q 307 -390 282 -378 
Q 550 -96 678 237 
Q 806 570 844 915 
Q 883 1261 883 1568 
L 883 3123 
z
M 2099 2771 
L 2278 2726 
Q 2118 2291 1868 1884 
Q 1619 1478 1344 1190 
Q 1331 1203 1299 1222 
Q 1267 1242 1235 1264 
Q 1203 1286 1171 1293 
Q 1459 1574 1699 1964 
Q 1939 2355 2099 2771 
z
M 1645 4269 
L 1792 4416 
Q 2214 4301 2691 4160 
Q 3168 4019 3638 3865 
Q 4109 3712 4521 3565 
Q 4934 3418 5229 3302 
L 5094 3136 
Q 4800 3258 4390 3408 
Q 3981 3558 3513 3712 
Q 3046 3866 2566 4010 
Q 2086 4154 1645 4269 
z
M 4774 4448 
L 4947 4339 
Q 4634 4154 4230 3981 
Q 3827 3808 3379 3651 
Q 2931 3494 2476 3366 
Q 2022 3238 1606 3142 
Q 1594 3174 1558 3228 
Q 1523 3283 1491 3309 
Q 1901 3398 2355 3520 
Q 2810 3642 3261 3792 
Q 3712 3942 4102 4108 
Q 4493 4275 4774 4448 
z
M 2957 5261 
L 3123 5357 
Q 3290 5190 3446 4976 
Q 3603 4762 3686 4608 
L 3514 4486 
Q 3430 4646 3270 4864 
Q 3110 5082 2957 5261 
z
" transform="scale(0.015625)"/>
        <path id="NotoSansTC-Thin-4fe1" d="M 2438 3322 
L 5440 3322 
L 5440 3130 
L 2438 3130 
L 2438 3322 
z
M 2438 2438 
L 5440 2438 
L 5440 2253 
L 2438 2253 
L 2438 2438 
z
M 2458 32 
L 5402 32 
L 5402 -154 
L 2458 -154 
L 2458 32 
z
M 1965 4198 
L 5978 4198 
L 5978 4006 
L 1965 4006 
L 1965 4198 
z
M 2368 1523 
L 5491 1523 
L 5491 -442 
L 5299 -442 
L 5299 1338 
L 2554 1338 
L 2554 -461 
L 2368 -461 
L 2368 1523 
z
M 3475 5229 
L 3661 5299 
Q 3802 5107 3933 4880 
Q 4064 4653 4128 4486 
L 3936 4397 
Q 3872 4563 3741 4796 
Q 3610 5030 3475 5229 
z
M 1773 5293 
L 1952 5248 
Q 1766 4710 1523 4201 
Q 1280 3693 995 3245 
Q 710 2797 403 2438 
Q 390 2458 364 2486 
Q 339 2515 310 2544 
Q 282 2573 256 2592 
Q 563 2925 844 3360 
Q 1126 3795 1363 4288 
Q 1600 4781 1773 5293 
z
M 1152 3731 
L 1325 3910 
L 1338 3904 
L 1338 -467 
L 1152 -467 
L 1152 3731 
z
" transform="scale(0.015625)"/>
        <path id="NotoSansTC-Thin-8a17" d="M 3898 4589 
L 4083 4589 
L 4083 179 
Q 4083 -13 4153 -73 
Q 4224 -134 4442 -134 
Q 4499 -134 4656 -134 
Q 4813 -134 5001 -134 
Q 5190 -134 5353 -134 
Q 5517 -134 5587 -134 
Q 5728 -134 5795 -48 
Q 5862 38 5891 262 
Q 5920 486 5933 909 
Q 5978 877 6029 854 
Q 6080 832 6125 819 
Q 6106 378 6064 128 
Q 6022 -122 5913 -224 
Q 5805 -326 5581 -326 
Q 5542 -326 5379 -326 
Q 5216 -326 5017 -326 
Q 4819 -326 4656 -326 
Q 4493 -326 4454 -326 
Q 4237 -326 4115 -284 
Q 3994 -243 3946 -131 
Q 3898 -19 3898 186 
L 3898 4589 
z
M 5498 5190 
L 5677 5043 
Q 5338 4877 4861 4723 
Q 4384 4570 3853 4442 
Q 3322 4314 2816 4211 
Q 2810 4250 2787 4291 
Q 2765 4333 2746 4365 
Q 3238 4467 3763 4598 
Q 4288 4730 4749 4880 
Q 5210 5030 5498 5190 
z
M 544 3398 
L 2362 3398 
L 2362 3213 
L 544 3213 
L 544 3398 
z
M 544 2586 
L 2387 2586 
L 2387 2400 
L 544 2400 
L 544 2586 
z
M 275 4205 
L 2624 4205 
L 2624 4013 
L 275 4013 
L 275 4205 
z
M 614 1760 
L 2387 1760 
L 2387 -32 
L 614 -32 
L 614 160 
L 2163 160 
L 2163 1568 
L 614 1568 
L 614 1760 
z
M 538 1760 
L 749 1760 
L 749 -365 
L 538 -365 
L 538 1760 
z
M 1024 5242 
L 1203 5325 
Q 1350 5139 1494 4918 
Q 1638 4698 1709 4538 
L 1510 4435 
Q 1446 4602 1305 4829 
Q 1165 5056 1024 5242 
z
M 2586 2496 
L 6093 2496 
L 6093 2310 
L 2586 2310 
L 2586 2496 
z
" transform="scale(0.015625)"/>
       </defs>
       <use xlink:href="#NotoSansTC-Thin-623f"/>
       <use xlink:href="#NotoSansTC-Thin-5730" x="99.999985"/>
       <use xlink:href="#NotoSansTC-Thin-7522" x="199.999969"/>
       <use xlink:href="#NotoSansTC-Thin-6295" x="299.999954"/>
       <use xlink:href="#NotoSansTC-Thin-8cc7" x="399.999939"/>
       <use xlink:href="#NotoSansTC-Thin-4fe1" x="499.999924"/>
       <use xlink:href="#NotoSansTC-Thin-8a17" x="599.999908"/>
       <use xlink:href="#NotoSansTC-Thin-3002" x="699.999893"/>
       <use xlink:href="#NotoSansTC-Thin-5e74" x="799.999878"/>
       <use xlink:href="#NotoSansTC-Thin-5316" x="899.999863"/>
       <use xlink:href="#NotoSansTC-Thin-56de" x="999.999847"/>
       <use xlink:href="#NotoSansTC-Thin-5831" x="1099.999832"/>
       <use xlink:href="#NotoSansTC-Thin-20" x="1199.999817"/>
       <use xlink:href="#NotoSansTC-Thin-32" x="1221.999802"/>
       <use xlink:href="#NotoSansTC-Thin-2d" x="1274.099792"/>
       <use xlink:href="#NotoSansTC-Thin-37" x="1306.499786"/>
       <use xlink:href="#NotoSansTC-Thin-25" x="1358.599777"/>
      </g>
     </g>
    </g>
    <g id="xtick_5">
     <g id="line2d_5">
      <g>
       <use xlink:href="#m01c42a00e6" x="632.24122" y="193.806094" style="stroke: #000000; stroke-width: 0.8"/>
      </g>
     </g>
     <g id="text_5">
      <!-- 加密貨幣。高度變動性，每年最高可達 50% 或更多 -->
      <g transform="translate(440.43276 397.290739) rotate(-45) scale(0.12 -0.12)">
       <defs>
        <path id="NotoSansTC-Thin-52a0" d="M 3827 294 
L 5664 294 
L 5664 109 
L 3827 109 
L 3827 294 
z
M 365 4038 
L 2938 4038 
L 2938 3853 
L 365 3853 
L 365 4038 
z
M 3738 4454 
L 5779 4454 
L 5779 -339 
L 5587 -339 
L 5587 4269 
L 3930 4269 
L 3930 -384 
L 3738 -384 
L 3738 4454 
z
M 2874 4038 
L 3059 4038 
Q 3059 4038 3059 4009 
Q 3059 3981 3059 3949 
Q 3059 3917 3059 3898 
Q 3040 2790 3021 2044 
Q 3002 1299 2973 838 
Q 2944 378 2896 138 
Q 2848 -102 2771 -198 
Q 2707 -288 2627 -323 
Q 2547 -358 2419 -365 
Q 2298 -371 2090 -364 
Q 1882 -358 1670 -339 
Q 1664 -294 1654 -240 
Q 1645 -186 1613 -147 
Q 1875 -166 2092 -169 
Q 2310 -173 2394 -173 
Q 2464 -179 2515 -163 
Q 2566 -147 2605 -90 
Q 2662 -13 2704 227 
Q 2746 467 2778 934 
Q 2810 1402 2832 2150 
Q 2854 2899 2874 3981 
L 2874 4038 
z
M 1421 5235 
L 1606 5235 
Q 1600 4410 1571 3584 
Q 1542 2758 1433 2000 
Q 1325 1242 1081 611 
Q 838 -19 410 -461 
Q 390 -442 358 -426 
Q 326 -410 294 -394 
Q 262 -378 237 -365 
Q 576 -32 797 438 
Q 1018 909 1146 1472 
Q 1274 2035 1331 2662 
Q 1389 3290 1405 3942 
Q 1421 4595 1421 5235 
z
" transform="scale(0.015625)"/>
        <path id="NotoSansTC-Thin-5bc6" d="M 1267 3488 
L 1427 3411 
Q 1267 3117 1040 2768 
Q 813 2419 512 2176 
L 352 2278 
Q 659 2502 892 2848 
Q 1126 3194 1267 3488 
z
M 2016 3648 
L 2202 3648 
L 2202 2272 
Q 2202 2150 2291 2108 
Q 2381 2067 2682 2067 
Q 2752 2067 2960 2067 
Q 3168 2067 3421 2067 
Q 3674 2067 3898 2067 
Q 4122 2067 4218 2067 
Q 4390 2067 4473 2121 
Q 4557 2176 4592 2352 
Q 4627 2528 4634 2886 
Q 4678 2861 4729 2838 
Q 4781 2816 4826 2803 
Q 4806 2432 4758 2230 
Q 4710 2029 4588 1952 
Q 4467 1875 4224 1875 
Q 4186 1875 4032 1875 
Q 3878 1875 3667 1875 
Q 3456 1875 3248 1875 
Q 3040 1875 2886 1875 
Q 2733 1875 2701 1875 
Q 2432 1875 2285 1904 
Q 2138 1933 2077 2019 
Q 2016 2106 2016 2272 
L 2016 3648 
z
M 2374 4122 
L 2496 4243 
Q 2701 4141 2909 4003 
Q 3117 3866 3299 3728 
Q 3482 3590 3597 3469 
L 3469 3334 
Q 3354 3456 3171 3600 
Q 2989 3744 2781 3881 
Q 2573 4019 2374 4122 
z
M 4736 3366 
L 4883 3469 
Q 5107 3290 5331 3075 
Q 5555 2861 5740 2646 
Q 5926 2432 6029 2259 
L 5875 2138 
Q 5766 2310 5584 2528 
Q 5402 2746 5181 2966 
Q 4960 3187 4736 3366 
z
M 4518 4032 
L 4691 3942 
Q 4211 3360 3532 2912 
Q 2854 2464 2060 2128 
Q 1267 1792 448 1555 
Q 435 1581 409 1613 
Q 384 1645 355 1680 
Q 326 1715 301 1734 
Q 1139 1946 1932 2272 
Q 2726 2598 3395 3040 
Q 4064 3482 4518 4032 
z
M 3091 1600 
L 3283 1600 
L 3283 -38 
L 3091 -38 
L 3091 1600 
z
M 5158 1229 
L 5344 1229 
L 5344 -461 
L 5158 -461 
L 5158 1229 
z
M 544 4691 
L 5875 4691 
L 5875 3533 
L 5690 3533 
L 5690 4506 
L 736 4506 
L 736 3533 
L 544 3533 
L 544 4691 
z
M 2982 5331 
L 3155 5357 
Q 3232 5178 3293 4970 
Q 3354 4762 3373 4614 
L 3187 4570 
Q 3162 4717 3107 4934 
Q 3053 5152 2982 5331 
z
M 1107 1229 
L 1293 1229 
L 1293 77 
L 5299 77 
L 5299 -109 
L 1107 -109 
L 1107 1229 
z
" transform="scale(0.015625)"/>
        <path id="NotoSansTC-Thin-8ca8" d="M 2336 5331 
L 2509 5267 
Q 2259 4986 1929 4726 
Q 1600 4467 1241 4246 
Q 883 4026 538 3859 
Q 525 3878 496 3900 
Q 467 3923 435 3948 
Q 403 3974 378 3987 
Q 736 4147 1094 4358 
Q 1453 4570 1776 4819 
Q 2099 5069 2336 5331 
z
M 1408 2112 
L 1408 1510 
L 5075 1510 
L 5075 2112 
L 1408 2112 
z
M 1408 1325 
L 1408 710 
L 5075 710 
L 5075 1325 
L 1408 1325 
z
M 1408 2899 
L 1408 2304 
L 5075 2304 
L 5075 2899 
L 1408 2899 
z
M 1216 3085 
L 5261 3085 
L 5261 525 
L 1216 525 
L 1216 3085 
z
M 3910 211 
L 4051 333 
Q 4416 237 4777 128 
Q 5139 19 5456 -93 
Q 5773 -205 6010 -307 
L 5837 -448 
Q 5613 -346 5305 -237 
Q 4998 -128 4643 -13 
Q 4288 102 3910 211 
z
M 2317 333 
L 2490 250 
Q 2234 115 1904 -19 
Q 1574 -154 1222 -269 
Q 870 -384 557 -467 
Q 550 -448 524 -416 
Q 499 -384 470 -355 
Q 442 -326 416 -307 
Q 736 -230 1085 -131 
Q 1434 -32 1754 86 
Q 2074 205 2317 333 
z
M 1555 4576 
L 1747 4762 
L 1747 4755 
L 1747 3290 
L 1555 3290 
L 1555 4576 
z
M 3213 5312 
L 3398 5312 
L 3398 3930 
Q 3398 3770 3456 3709 
Q 3514 3648 3686 3648 
Q 3757 3648 3929 3648 
Q 4102 3648 4326 3648 
Q 4550 3648 4774 3648 
Q 4998 3648 5171 3648 
Q 5344 3648 5408 3648 
Q 5517 3648 5689 3654 
Q 5862 3661 5946 3667 
Q 5958 3629 5964 3577 
Q 5971 3526 5978 3494 
Q 5914 3482 5760 3475 
Q 5606 3469 5421 3469 
Q 5350 3469 5164 3469 
Q 4979 3469 4745 3469 
Q 4512 3469 4281 3469 
Q 4051 3469 3888 3469 
Q 3725 3469 3693 3469 
Q 3507 3469 3401 3513 
Q 3296 3558 3254 3660 
Q 3213 3763 3213 3936 
L 3213 5312 
z
M 3309 4710 
L 5626 4710 
L 5626 4525 
L 3309 4525 
L 3309 4710 
z
" transform="scale(0.015625)"/>
        <path id="NotoSansTC-Thin-5e63" d="M 627 4192 
L 3046 4192 
L 3046 4000 
L 819 4000 
L 819 2061 
L 627 2061 
L 627 4192 
z
M 3974 4608 
L 6067 4608 
L 6067 4422 
L 3974 4422 
L 3974 4608 
z
M 1792 5312 
L 1978 5312 
L 1978 4122 
L 1978 4122 
L 1978 2138 
L 1792 2138 
L 1792 4122 
L 1792 4122 
L 1792 5312 
z
M 4218 5318 
L 4403 5280 
Q 4256 4794 3997 4378 
Q 3738 3962 3424 3667 
Q 3411 3686 3382 3708 
Q 3354 3731 3322 3753 
Q 3290 3776 3264 3789 
Q 3578 4070 3827 4467 
Q 4077 4864 4218 5318 
z
M 1280 3699 
L 1472 3667 
Q 1427 3392 1347 3123 
Q 1267 2854 1158 2662 
Q 1133 2675 1078 2700 
Q 1024 2726 979 2739 
Q 1107 2944 1171 3190 
Q 1235 3437 1280 3699 
z
M 672 5082 
L 832 5165 
Q 979 4998 1120 4790 
Q 1261 4582 1325 4429 
L 1165 4326 
Q 1101 4486 960 4700 
Q 819 4915 672 5082 
z
M 5459 4563 
L 5651 4531 
Q 5427 3635 4854 3088 
Q 4282 2541 3462 2221 
Q 3450 2240 3427 2272 
Q 3405 2304 3379 2336 
Q 3354 2368 3334 2387 
Q 4147 2662 4697 3187 
Q 5248 3712 5459 4563 
z
M 3987 4442 
Q 4160 3936 4461 3507 
Q 4762 3078 5174 2764 
Q 5587 2451 6074 2285 
Q 6042 2259 6003 2211 
Q 5965 2163 5939 2125 
Q 5203 2406 4649 3001 
Q 4096 3597 3821 4390 
L 3987 4442 
z
M 2272 3648 
L 2438 3686 
Q 2547 3469 2630 3203 
Q 2714 2938 2739 2746 
L 2560 2701 
Q 2534 2893 2457 3158 
Q 2381 3424 2272 3648 
z
M 2931 5197 
L 3104 5101 
Q 2982 4896 2828 4678 
Q 2675 4461 2534 4301 
L 2394 4378 
Q 2522 4544 2678 4781 
Q 2835 5018 2931 5197 
z
M 3091 2144 
L 3283 2144 
L 3283 -448 
L 3091 -448 
L 3091 2144 
z
M 1069 1690 
L 5306 1690 
L 5306 1498 
L 1254 1498 
L 1254 -109 
L 1069 -109 
L 1069 1690 
z
M 5222 1690 
L 5408 1690 
L 5408 211 
Q 5408 109 5373 48 
Q 5338 -13 5229 -45 
Q 5114 -70 4861 -73 
Q 4608 -77 4166 -77 
Q 4160 -38 4137 6 
Q 4115 51 4090 96 
Q 4346 96 4547 93 
Q 4749 90 4886 93 
Q 5024 96 5082 96 
Q 5171 102 5196 124 
Q 5222 147 5222 211 
L 5222 1690 
z
M 2944 4192 
L 3142 4192 
L 3142 2240 
L 2944 2240 
L 2944 4192 
z
" transform="scale(0.015625)"/>
        <path id="NotoSansTC-Thin-9ad8" d="M 410 4576 
L 5971 4576 
L 5971 4384 
L 410 4384 
L 410 4576 
z
M 1690 3718 
L 1690 2906 
L 4742 2906 
L 4742 3718 
L 1690 3718 
z
M 1498 3910 
L 4928 3910 
L 4928 2720 
L 1498 2720 
L 1498 3910 
z
M 698 2259 
L 5619 2259 
L 5619 2074 
L 883 2074 
L 883 -442 
L 698 -442 
L 698 2259 
z
M 5517 2259 
L 5702 2259 
L 5702 -134 
Q 5702 -237 5673 -285 
Q 5645 -333 5562 -365 
Q 5485 -390 5321 -393 
Q 5158 -397 4877 -397 
Q 4870 -358 4848 -310 
Q 4826 -262 4800 -230 
Q 4954 -230 5082 -230 
Q 5210 -230 5299 -230 
Q 5389 -230 5421 -230 
Q 5517 -224 5517 -141 
L 5517 2259 
z
M 2970 5286 
L 3110 5312 
Q 3194 5107 3270 4870 
Q 3347 4634 3379 4486 
L 3232 4429 
Q 3194 4595 3117 4838 
Q 3040 5082 2970 5286 
z
M 1926 1549 
L 4474 1549 
L 4474 346 
L 1926 346 
L 1926 531 
L 4288 531 
L 4288 1363 
L 1926 1363 
L 1926 1549 
z
M 1843 1549 
L 2035 1549 
L 2035 -32 
L 1843 -32 
L 1843 1549 
z
" transform="scale(0.015625)"/>
        <path id="NotoSansTC-Thin-5ea6" d="M 1280 3526 
L 5939 3526 
L 5939 3341 
L 1280 3341 
L 1280 3526 
z
M 1408 1658 
L 5222 1658 
L 5222 1466 
L 1408 1466 
L 1408 1658 
z
M 2470 4218 
L 2662 4218 
L 2662 2406 
L 4608 2406 
L 4608 4218 
L 4794 4218 
L 4794 2221 
L 2470 2221 
L 2470 4218 
z
M 5165 1658 
L 5210 1658 
L 5248 1670 
L 5370 1587 
Q 5101 1107 4653 761 
Q 4205 416 3641 182 
Q 3078 -51 2454 -195 
Q 1830 -339 1197 -416 
Q 1190 -384 1164 -333 
Q 1139 -282 1114 -243 
Q 1722 -179 2336 -44 
Q 2950 90 3500 310 
Q 4051 531 4483 854 
Q 4915 1178 5165 1613 
L 5165 1658 
z
M 2374 1459 
Q 2701 966 3264 608 
Q 3827 250 4553 26 
Q 5280 -198 6093 -288 
Q 6074 -307 6051 -339 
Q 6029 -371 6009 -400 
Q 5990 -429 5978 -454 
Q 5171 -346 4438 -112 
Q 3706 122 3126 493 
Q 2547 864 2208 1382 
L 2374 1459 
z
M 992 4595 
L 6022 4595 
L 6022 4403 
L 992 4403 
L 992 4595 
z
M 902 4595 
L 1094 4595 
L 1094 2822 
Q 1094 2464 1072 2045 
Q 1050 1626 986 1187 
Q 922 749 800 326 
Q 678 -96 474 -461 
Q 461 -442 429 -422 
Q 397 -403 368 -384 
Q 339 -365 314 -358 
Q 518 0 633 409 
Q 749 819 809 1241 
Q 870 1664 886 2067 
Q 902 2470 902 2822 
L 902 4595 
z
M 3098 5274 
L 3277 5331 
Q 3398 5152 3523 4934 
Q 3648 4717 3706 4570 
L 3526 4493 
Q 3462 4646 3344 4870 
Q 3226 5094 3098 5274 
z
" transform="scale(0.015625)"/>
        <path id="NotoSansTC-Thin-8b8a" d="M 2362 4198 
L 4058 4198 
L 4058 4006 
L 2362 4006 
L 2362 4198 
z
M 2362 3642 
L 4058 3642 
L 4058 3450 
L 2362 3450 
L 2362 3642 
z
M 2227 4755 
L 4211 4755 
L 4211 4570 
L 2227 4570 
L 2227 4755 
z
M 2586 2848 
L 2586 2093 
L 3834 2093 
L 3834 2848 
L 2586 2848 
z
M 2400 3034 
L 4019 3034 
L 4019 1901 
L 2400 1901 
L 2400 3034 
z
M 1645 3853 
L 1811 3891 
Q 1926 3661 2032 3389 
Q 2138 3117 2182 2938 
L 2010 2880 
Q 1965 3066 1859 3344 
Q 1754 3622 1645 3853 
z
M 512 3904 
Q 506 3942 483 4009 
Q 461 4077 442 4115 
Q 506 4128 563 4176 
Q 621 4224 691 4307 
Q 742 4365 854 4521 
Q 966 4678 1094 4889 
Q 1222 5101 1318 5318 
L 1510 5229 
Q 1331 4883 1116 4572 
Q 902 4262 691 4038 
L 691 4032 
Q 691 4032 665 4022 
Q 640 4013 601 3993 
Q 563 3974 537 3952 
Q 512 3930 512 3904 
z
M 512 3904 
L 512 4070 
L 653 4147 
L 1530 4205 
Q 1523 4160 1523 4109 
Q 1523 4058 1523 4026 
Q 1126 3994 918 3971 
Q 710 3949 627 3936 
Q 544 3923 512 3904 
z
M 493 2931 
Q 486 2970 464 3037 
Q 442 3104 422 3149 
Q 499 3155 592 3232 
Q 685 3309 800 3418 
Q 883 3501 1068 3709 
Q 1254 3917 1475 4198 
Q 1696 4480 1875 4774 
L 2074 4678 
Q 1741 4211 1389 3788 
Q 1037 3366 678 3066 
L 678 3059 
Q 678 3059 649 3049 
Q 621 3040 585 3021 
Q 550 3002 521 2979 
Q 493 2957 493 2931 
z
M 493 2931 
L 493 3104 
L 634 3194 
L 2022 3386 
Q 2016 3347 2019 3296 
Q 2022 3245 2029 3213 
Q 1542 3136 1251 3091 
Q 960 3046 806 3014 
Q 653 2982 589 2966 
Q 525 2950 493 2931 
z
M 1126 2714 
L 1299 2739 
Q 1357 2528 1401 2281 
Q 1446 2035 1453 1862 
L 1261 1824 
Q 1254 2010 1216 2253 
Q 1178 2496 1126 2714 
z
M 608 2739 
L 806 2701 
Q 755 2438 678 2147 
Q 602 1856 525 1645 
Q 499 1664 448 1702 
Q 397 1741 358 1760 
Q 448 1971 505 2230 
Q 563 2490 608 2739 
z
M 1715 2752 
L 1882 2790 
Q 1952 2605 2019 2381 
Q 2086 2157 2112 2003 
L 1933 1946 
Q 1907 2112 1843 2336 
Q 1779 2560 1715 2752 
z
M 2893 5248 
L 3053 5299 
Q 3155 5165 3251 4995 
Q 3347 4826 3386 4698 
L 3219 4621 
Q 3174 4755 3088 4931 
Q 3002 5107 2893 5248 
z
M 5510 3853 
L 5683 3891 
Q 5811 3667 5913 3395 
Q 6016 3123 6048 2938 
L 5869 2880 
Q 5837 3072 5734 3347 
Q 5632 3622 5510 3853 
z
M 4320 3942 
Q 4314 3974 4294 4044 
Q 4275 4115 4256 4154 
Q 4314 4166 4374 4214 
Q 4435 4262 4506 4346 
Q 4557 4403 4665 4560 
Q 4774 4717 4905 4928 
Q 5037 5139 5133 5357 
L 5325 5261 
Q 5146 4922 4931 4611 
Q 4717 4301 4506 4077 
L 4506 4070 
Q 4506 4070 4477 4057 
Q 4448 4045 4413 4025 
Q 4378 4006 4349 3984 
Q 4320 3962 4320 3942 
z
M 4320 3942 
L 4320 4109 
L 4467 4186 
L 5344 4243 
Q 5338 4198 5338 4147 
Q 5338 4096 5338 4064 
Q 4941 4026 4733 4006 
Q 4525 3987 4441 3974 
Q 4358 3962 4320 3942 
z
M 4320 2976 
Q 4314 3014 4294 3081 
Q 4275 3149 4256 3194 
Q 4326 3200 4422 3277 
Q 4518 3354 4627 3462 
Q 4710 3546 4899 3754 
Q 5088 3962 5309 4243 
Q 5530 4525 5709 4819 
L 5901 4723 
Q 5574 4256 5219 3833 
Q 4864 3411 4512 3110 
L 4512 3104 
Q 4512 3104 4483 3091 
Q 4454 3078 4416 3059 
Q 4378 3040 4349 3017 
Q 4320 2995 4320 2976 
z
M 4320 2976 
L 4320 3149 
L 4467 3238 
L 5824 3424 
Q 5818 3379 5821 3331 
Q 5824 3283 5830 3251 
Q 5357 3174 5072 3129 
Q 4787 3085 4636 3056 
Q 4486 3027 4419 3011 
Q 4352 2995 4320 2976 
z
M 5005 2746 
L 5184 2771 
Q 5235 2560 5273 2307 
Q 5312 2054 5318 1875 
L 5133 1843 
Q 5126 2029 5091 2278 
Q 5056 2528 5005 2746 
z
M 4454 2778 
L 4646 2733 
Q 4602 2490 4538 2214 
Q 4474 1939 4403 1734 
Q 4378 1760 4326 1792 
Q 4275 1824 4243 1843 
Q 4314 2048 4365 2294 
Q 4416 2541 4454 2778 
z
M 5581 2816 
L 5754 2861 
Q 5843 2637 5916 2371 
Q 5990 2106 6029 1920 
L 5850 1869 
Q 5811 2061 5734 2326 
Q 5658 2592 5581 2816 
z
M 1811 1453 
L 5939 1453 
L 5939 1261 
L 1811 1261 
L 1811 1453 
z
M 4928 1434 
L 5107 1344 
Q 4768 928 4253 624 
Q 3738 320 3107 109 
Q 2477 -102 1782 -246 
Q 1088 -390 384 -486 
Q 378 -461 358 -425 
Q 339 -390 316 -355 
Q 294 -320 275 -294 
Q 979 -218 1670 -83 
Q 2362 51 2982 256 
Q 3603 461 4105 752 
Q 4608 1043 4928 1434 
z
M 2144 1888 
L 2330 1830 
Q 2138 1530 1853 1267 
Q 1568 1005 1238 790 
Q 909 576 576 416 
Q 563 435 537 464 
Q 512 493 486 521 
Q 461 550 435 570 
Q 768 717 1094 915 
Q 1421 1114 1693 1360 
Q 1965 1606 2144 1888 
z
M 1760 1248 
Q 2086 954 2576 701 
Q 3066 448 3651 253 
Q 4237 58 4867 -76 
Q 5498 -211 6118 -282 
Q 6086 -320 6054 -368 
Q 6022 -416 6003 -454 
Q 5395 -378 4761 -234 
Q 4128 -90 3536 112 
Q 2944 314 2445 576 
Q 1946 838 1600 1152 
L 1760 1248 
z
" transform="scale(0.015625)"/>
        <path id="NotoSansTC-Thin-52d5" d="M 512 1094 
L 3360 1094 
L 3360 902 
L 512 902 
L 512 1094 
z
M 314 4218 
L 3507 4218 
L 3507 4026 
L 314 4026 
L 314 4218 
z
M 1818 4922 
L 2010 4922 
L 2010 96 
L 1818 96 
L 1818 4922 
z
M 339 0 
Q 723 45 1222 99 
Q 1722 154 2285 224 
Q 2848 294 3411 365 
L 3418 192 
Q 2874 122 2326 48 
Q 1779 -26 1280 -86 
Q 781 -147 384 -198 
L 339 0 
z
M 710 2458 
L 710 1811 
L 3174 1811 
L 3174 2458 
L 710 2458 
z
M 710 3283 
L 710 2650 
L 3174 2650 
L 3174 3283 
L 710 3283 
z
M 525 3469 
L 3360 3469 
L 3360 1626 
L 525 1626 
L 525 3469 
z
M 3213 5222 
L 3354 5056 
Q 3008 4979 2521 4912 
Q 2035 4845 1504 4800 
Q 973 4755 493 4730 
Q 486 4768 467 4816 
Q 448 4864 429 4902 
Q 787 4922 1174 4954 
Q 1562 4986 1942 5024 
Q 2323 5062 2652 5113 
Q 2982 5165 3213 5222 
z
M 3411 3770 
L 5818 3770 
L 5818 3584 
L 3411 3584 
L 3411 3770 
z
M 5754 3770 
L 5939 3770 
Q 5939 3770 5939 3741 
Q 5939 3712 5939 3680 
Q 5939 3648 5939 3629 
Q 5907 2592 5875 1888 
Q 5843 1184 5801 745 
Q 5760 307 5702 73 
Q 5645 -160 5562 -256 
Q 5498 -346 5411 -381 
Q 5325 -416 5197 -416 
Q 5075 -422 4864 -416 
Q 4653 -410 4429 -397 
Q 4422 -352 4409 -297 
Q 4397 -243 4371 -205 
Q 4634 -224 4858 -230 
Q 5082 -237 5171 -237 
Q 5254 -237 5305 -221 
Q 5357 -205 5402 -147 
Q 5466 -70 5517 163 
Q 5568 397 5609 841 
Q 5651 1286 5686 1990 
Q 5722 2694 5754 3712 
L 5754 3770 
z
M 4346 5261 
L 4538 5261 
Q 4531 4557 4515 3872 
Q 4499 3187 4425 2550 
Q 4352 1914 4182 1354 
Q 4013 794 3712 333 
Q 3411 -128 2938 -467 
Q 2918 -448 2886 -425 
Q 2854 -403 2822 -384 
Q 2790 -365 2758 -352 
Q 3232 -32 3529 419 
Q 3827 870 3996 1424 
Q 4166 1978 4236 2605 
Q 4307 3232 4326 3904 
Q 4346 4576 4346 5261 
z
" transform="scale(0.015625)"/>
        <path id="NotoSansTC-Thin-6027" d="M 1248 5318 
L 1440 5318 
L 1440 -435 
L 1248 -435 
L 1248 5318 
z
M 608 4115 
L 787 4083 
Q 768 3840 723 3542 
Q 678 3245 608 2953 
Q 538 2662 442 2438 
L 256 2496 
Q 352 2707 422 2988 
Q 493 3270 541 3568 
Q 589 3866 608 4115 
z
M 1683 4243 
L 1837 4314 
Q 1997 4045 2137 3728 
Q 2278 3411 2336 3206 
L 2170 3104 
Q 2131 3251 2054 3446 
Q 1978 3642 1882 3853 
Q 1786 4064 1683 4243 
z
M 3085 5018 
L 3277 4979 
Q 3174 4525 3033 4089 
Q 2893 3654 2726 3273 
Q 2560 2893 2368 2592 
Q 2349 2605 2317 2624 
Q 2285 2643 2249 2659 
Q 2214 2675 2189 2688 
Q 2394 2982 2563 3356 
Q 2733 3731 2864 4156 
Q 2995 4582 3085 5018 
z
M 2867 3898 
L 5869 3898 
L 5869 3706 
L 2790 3706 
L 2867 3898 
z
M 4064 5306 
L 4262 5306 
L 4262 -109 
L 4064 -109 
L 4064 5306 
z
M 2586 2093 
L 5722 2093 
L 5722 1907 
L 2586 1907 
L 2586 2093 
z
M 2106 -13 
L 5978 -13 
L 5978 -198 
L 2106 -198 
L 2106 -13 
z
" transform="scale(0.015625)"/>
        <path id="NotoSansTC-Thin-ff0c" d="M 2694 1382 
L 2611 1542 
Q 2995 1741 3196 2016 
Q 3398 2291 3398 2739 
L 3206 3187 
L 3546 2790 
Q 3482 2694 3402 2668 
Q 3322 2643 3245 2643 
Q 3091 2643 2995 2723 
Q 2899 2803 2899 2982 
Q 2899 3168 3004 3248 
Q 3110 3328 3238 3328 
Q 3437 3328 3539 3165 
Q 3642 3002 3642 2733 
Q 3642 2240 3376 1897 
Q 3110 1555 2694 1382 
z
" transform="scale(0.015625)"/>
        <path id="NotoSansTC-Thin-6bcf" d="M 1594 3622 
L 5158 3622 
L 5158 3430 
L 1594 3430 
L 1594 3622 
z
M 1120 563 
L 5920 563 
L 5920 378 
L 1120 378 
L 1120 563 
z
M 1485 4602 
L 5894 4602 
L 5894 4416 
L 1485 4416 
L 1485 4602 
z
M 5075 3622 
L 5261 3622 
Q 5261 3622 5261 3593 
Q 5261 3565 5257 3533 
Q 5254 3501 5254 3482 
Q 5222 2483 5187 1798 
Q 5152 1114 5107 688 
Q 5062 262 5001 32 
Q 4941 -198 4864 -294 
Q 4794 -378 4704 -410 
Q 4614 -442 4486 -448 
Q 4365 -448 4144 -441 
Q 3923 -435 3693 -416 
Q 3686 -378 3676 -326 
Q 3667 -275 3642 -237 
Q 3910 -256 4140 -262 
Q 4371 -269 4461 -269 
Q 4550 -269 4601 -253 
Q 4653 -237 4698 -186 
Q 4768 -109 4822 121 
Q 4877 352 4921 784 
Q 4966 1216 5004 1901 
Q 5043 2586 5075 3571 
L 5075 3622 
z
M 1491 3622 
L 1683 3622 
Q 1632 3245 1571 2803 
Q 1510 2362 1443 1914 
Q 1376 1466 1309 1069 
Q 1242 672 1184 384 
L 992 384 
Q 1056 685 1123 1085 
Q 1190 1485 1260 1933 
Q 1331 2381 1388 2819 
Q 1446 3258 1491 3622 
z
M 1811 5350 
L 2003 5299 
Q 1811 4864 1568 4448 
Q 1325 4032 1053 3670 
Q 781 3309 493 3027 
Q 474 3040 442 3062 
Q 410 3085 378 3110 
Q 346 3136 320 3149 
Q 621 3418 896 3773 
Q 1171 4128 1404 4531 
Q 1638 4934 1811 5350 
z
M 2502 3110 
L 2630 3245 
Q 2867 3142 3113 3008 
Q 3360 2874 3574 2733 
Q 3789 2592 3923 2458 
L 3795 2310 
Q 3661 2438 3446 2585 
Q 3232 2733 2985 2870 
Q 2739 3008 2502 3110 
z
M 2259 1626 
L 2381 1760 
Q 2637 1638 2902 1475 
Q 3168 1312 3398 1145 
Q 3629 979 3770 832 
L 3654 672 
Q 3507 819 3276 992 
Q 3046 1165 2780 1331 
Q 2515 1498 2259 1626 
z
M 326 2106 
L 1370 2106 
L 1370 2106 
L 5120 2106 
L 5120 2106 
L 6093 2106 
L 6093 1920 
L 5120 1920 
L 5120 1920 
L 1370 1920 
L 1370 1920 
L 326 1920 
L 326 2106 
z
" transform="scale(0.015625)"/>
        <path id="NotoSansTC-Thin-6700" d="M 1171 5011 
L 5242 5011 
L 5242 3162 
L 5050 3162 
L 5050 4826 
L 1363 4826 
L 1363 3162 
L 1171 3162 
L 1171 5011 
z
M 1722 4301 
L 4685 4301 
L 4685 4115 
L 1722 4115 
L 1722 4301 
z
M 1722 3578 
L 4685 3578 
L 4685 3386 
L 1722 3386 
L 1722 3578 
z
M 403 2797 
L 5965 2797 
L 5965 2611 
L 403 2611 
L 403 2797 
z
M 3046 2048 
L 5555 2048 
L 5555 1856 
L 3046 1856 
L 3046 2048 
z
M 1056 2022 
L 2752 2022 
L 2752 1830 
L 1056 1830 
L 1056 2022 
z
M 1056 1235 
L 2752 1235 
L 2752 1050 
L 1056 1050 
L 1056 1235 
z
M 3674 1862 
Q 3968 1069 4598 499 
Q 5229 -70 6086 -294 
Q 6067 -314 6041 -342 
Q 6016 -371 5997 -396 
Q 5978 -422 5958 -448 
Q 5101 -192 4461 393 
Q 3821 979 3514 1805 
L 3674 1862 
z
M 5498 2048 
L 5536 2048 
L 5574 2061 
L 5690 1997 
Q 5466 1357 5043 873 
Q 4621 390 4096 67 
Q 3571 -256 3040 -429 
Q 3021 -397 2985 -349 
Q 2950 -301 2918 -275 
Q 3443 -122 3958 188 
Q 4474 499 4883 956 
Q 5293 1414 5498 2003 
L 5498 2048 
z
M 307 224 
Q 608 256 998 304 
Q 1389 352 1833 409 
Q 2278 467 2733 525 
L 2739 339 
Q 2080 256 1446 173 
Q 813 90 339 32 
L 307 224 
z
M 2643 2739 
L 2829 2739 
L 2829 -448 
L 2643 -448 
L 2643 2739 
z
M 973 2746 
L 1165 2746 
L 1165 211 
L 973 211 
L 973 2746 
z
" transform="scale(0.015625)"/>
        <path id="NotoSansTC-Thin-53ef" d="M 4998 4762 
L 5190 4762 
L 5190 -38 
Q 5190 -211 5136 -294 
Q 5082 -378 4934 -410 
Q 4794 -435 4477 -435 
Q 4160 -435 3706 -435 
Q 3699 -410 3683 -371 
Q 3667 -333 3654 -291 
Q 3642 -250 3622 -218 
Q 3910 -224 4156 -227 
Q 4403 -230 4579 -227 
Q 4755 -224 4832 -224 
Q 4928 -211 4963 -176 
Q 4998 -141 4998 -38 
L 4998 4762 
z
M 1126 3482 
L 1312 3482 
L 1312 659 
L 1126 659 
L 1126 3482 
z
M 1203 3482 
L 3642 3482 
L 3642 1190 
L 1203 1190 
L 1203 1382 
L 3450 1382 
L 3450 3296 
L 1203 3296 
L 1203 3482 
z
M 403 4838 
L 6022 4838 
L 6022 4646 
L 403 4646 
L 403 4838 
z
" transform="scale(0.015625)"/>
        <path id="NotoSansTC-Thin-9054" d="M 2720 3546 
L 2886 3610 
Q 3014 3450 3120 3248 
Q 3226 3046 3264 2893 
L 3085 2822 
Q 3053 2976 2950 3181 
Q 2848 3386 2720 3546 
z
M 2330 4717 
L 5466 4717 
L 5466 4531 
L 2330 4531 
L 2330 4717 
z
M 2298 1978 
L 5549 1978 
L 5549 1786 
L 2298 1786 
L 2298 1978 
z
M 2118 2752 
L 5824 2752 
L 5824 2566 
L 2118 2566 
L 2118 2752 
z
M 1946 3891 
L 5901 3891 
L 5901 3699 
L 1946 3699 
L 1946 3891 
z
M 1984 1146 
L 5882 1146 
L 5882 954 
L 1984 954 
L 1984 1146 
z
M 3808 5318 
L 3994 5318 
L 3994 3763 
L 3808 3763 
L 3808 5318 
z
M 3808 2701 
L 3994 2701 
L 3994 70 
L 3808 70 
L 3808 2701 
z
M 4864 3654 
L 5043 3565 
Q 4947 3373 4838 3168 
Q 4730 2963 4627 2816 
L 4486 2893 
Q 4582 3046 4691 3270 
Q 4800 3494 4864 3654 
z
M 621 5235 
L 774 5312 
Q 979 5069 1190 4784 
Q 1402 4499 1510 4294 
L 1350 4205 
Q 1274 4339 1152 4518 
Q 1030 4698 889 4886 
Q 749 5075 621 5235 
z
M 320 3853 
L 1683 3853 
L 1683 3661 
L 320 3661 
L 320 3853 
z
M 1306 768 
Q 1530 358 1910 156 
Q 2291 -45 2832 -109 
Q 3373 -173 4070 -173 
Q 4403 -173 4771 -166 
Q 5139 -160 5494 -147 
Q 5850 -134 6144 -109 
Q 6125 -134 6112 -169 
Q 6099 -205 6089 -243 
Q 6080 -282 6074 -307 
Q 5805 -320 5465 -333 
Q 5126 -346 4768 -349 
Q 4410 -352 4077 -352 
Q 3507 -352 3052 -313 
Q 2598 -275 2243 -166 
Q 1888 -58 1625 144 
Q 1363 346 1178 678 
L 1306 768 
z
M 1562 2214 
L 1606 2214 
L 1651 2221 
L 1766 2176 
Q 1606 1210 1244 560 
Q 883 -90 397 -448 
Q 384 -422 355 -396 
Q 326 -371 300 -342 
Q 275 -314 250 -301 
Q 723 38 1072 656 
Q 1421 1274 1562 2163 
L 1562 2214 
z
M 390 1946 
L 390 2131 
L 576 2214 
L 1632 2214 
L 1632 2029 
L 749 2029 
Q 627 2029 524 2003 
Q 422 1978 390 1946 
z
M 390 1946 
Q 384 1978 361 2022 
Q 339 2067 320 2115 
Q 301 2163 282 2189 
Q 346 2208 419 2246 
Q 493 2285 557 2368 
Q 634 2445 768 2633 
Q 902 2822 1059 3052 
Q 1216 3283 1353 3494 
Q 1491 3706 1562 3827 
L 1562 3840 
L 1651 3885 
L 1818 3802 
Q 1715 3642 1561 3421 
Q 1408 3200 1235 2957 
Q 1062 2714 896 2496 
Q 730 2278 602 2125 
Q 602 2125 570 2109 
Q 538 2093 496 2064 
Q 454 2035 422 2006 
Q 390 1978 390 1946 
z
" transform="scale(0.015625)"/>
        <path id="NotoSansTC-Thin-30" d="M 1670 -83 
Q 1261 -83 963 179 
Q 666 442 509 979 
Q 352 1517 352 2336 
Q 352 3149 509 3677 
Q 666 4205 963 4467 
Q 1261 4730 1670 4730 
Q 2080 4730 2371 4467 
Q 2662 4205 2822 3677 
Q 2982 3149 2982 2336 
Q 2982 1517 2822 979 
Q 2662 442 2371 179 
Q 2080 -83 1670 -83 
z
M 1670 128 
Q 1997 128 2240 384 
Q 2483 640 2614 1133 
Q 2746 1626 2746 2336 
Q 2746 3040 2614 3529 
Q 2483 4019 2240 4272 
Q 1997 4525 1670 4525 
Q 1344 4525 1101 4272 
Q 858 4019 723 3529 
Q 589 3040 589 2336 
Q 589 1626 723 1133 
Q 858 640 1101 384 
Q 1344 128 1670 128 
z
" transform="scale(0.015625)"/>
        <path id="NotoSansTC-Thin-6216" d="M 3680 5306 
L 3885 5306 
Q 3891 4474 3945 3741 
Q 4000 3008 4099 2387 
Q 4198 1766 4345 1276 
Q 4493 787 4678 444 
Q 4864 102 5085 -77 
Q 5306 -256 5562 -256 
Q 5734 -256 5808 25 
Q 5882 307 5914 986 
Q 5946 960 6000 934 
Q 6054 909 6093 896 
Q 6067 397 6016 102 
Q 5965 -192 5856 -320 
Q 5747 -448 5555 -448 
Q 5248 -448 4992 -249 
Q 4736 -51 4531 320 
Q 4326 691 4172 1209 
Q 4019 1728 3910 2371 
Q 3802 3014 3747 3753 
Q 3693 4493 3680 5306 
z
M 4371 5139 
L 4480 5261 
Q 4704 5171 4937 5043 
Q 5171 4915 5376 4784 
Q 5581 4653 5709 4538 
L 5600 4384 
Q 5472 4506 5267 4643 
Q 5062 4781 4828 4912 
Q 4595 5043 4371 5139 
z
M 5414 3411 
L 5594 3360 
Q 5152 2042 4390 1114 
Q 3629 186 2528 -403 
Q 2515 -384 2489 -355 
Q 2464 -326 2438 -294 
Q 2413 -262 2394 -243 
Q 3488 307 4243 1222 
Q 4998 2138 5414 3411 
z
M 525 4211 
L 5914 4211 
L 5914 4019 
L 525 4019 
L 525 4211 
z
M 480 275 
Q 819 346 1270 442 
Q 1722 538 2237 650 
Q 2752 762 3277 870 
L 3290 691 
Q 2790 582 2288 470 
Q 1786 358 1334 259 
Q 883 160 525 83 
L 480 275 
z
M 1146 3098 
L 1146 1606 
L 2803 1606 
L 2803 3098 
L 1146 3098 
z
M 954 3290 
L 2995 3290 
L 2995 1421 
L 954 1421 
L 954 3290 
z
" transform="scale(0.015625)"/>
        <path id="NotoSansTC-Thin-66f4" d="M 442 4922 
L 5946 4922 
L 5946 4736 
L 442 4736 
L 442 4922 
z
M 3130 4845 
L 3322 4845 
L 3322 2464 
Q 3322 2112 3280 1769 
Q 3238 1427 3094 1107 
Q 2950 787 2643 499 
Q 2336 211 1805 -29 
Q 1274 -269 461 -454 
Q 448 -435 429 -406 
Q 410 -378 390 -346 
Q 371 -314 352 -288 
Q 1158 -115 1676 112 
Q 2195 339 2489 611 
Q 2784 883 2921 1187 
Q 3059 1491 3094 1811 
Q 3130 2131 3130 2464 
L 3130 4845 
z
M 1248 2784 
L 1248 1901 
L 5357 1901 
L 5357 2784 
L 1248 2784 
z
M 1248 3846 
L 1248 2976 
L 5357 2976 
L 5357 3846 
L 1248 3846 
z
M 1056 4032 
L 5555 4032 
L 5555 1715 
L 1056 1715 
L 1056 4032 
z
M 1523 1581 
Q 1798 1062 2208 723 
Q 2618 384 3178 179 
Q 3738 -26 4470 -131 
Q 5203 -237 6118 -288 
Q 6093 -320 6067 -374 
Q 6042 -429 6029 -474 
Q 5107 -416 4368 -301 
Q 3629 -186 3059 32 
Q 2490 250 2070 611 
Q 1651 973 1376 1517 
L 1523 1581 
z
" transform="scale(0.015625)"/>
        <path id="NotoSansTC-Thin-591a" d="M 1677 4077 
L 1805 4211 
Q 2093 4083 2390 3910 
Q 2688 3738 2950 3558 
Q 3213 3379 3373 3219 
L 3238 3066 
Q 3078 3226 2819 3408 
Q 2560 3590 2262 3766 
Q 1965 3942 1677 4077 
z
M 4710 4717 
L 4755 4717 
L 4800 4730 
L 4922 4640 
Q 4608 4102 4112 3651 
Q 3616 3200 3017 2851 
Q 2419 2502 1792 2252 
Q 1165 2003 595 1869 
Q 582 1914 553 1971 
Q 525 2029 493 2061 
Q 1056 2182 1673 2416 
Q 2291 2650 2876 2989 
Q 3462 3328 3942 3750 
Q 4422 4173 4710 4672 
L 4710 4717 
z
M 2451 4717 
L 4774 4717 
L 4774 4531 
L 2451 4531 
L 2451 4717 
z
M 3046 5318 
L 3290 5267 
Q 2893 4806 2233 4336 
Q 1574 3866 685 3507 
Q 672 3533 646 3561 
Q 621 3590 592 3616 
Q 563 3642 538 3661 
Q 1126 3878 1609 4160 
Q 2093 4442 2457 4742 
Q 2822 5043 3046 5318 
z
M 2445 1811 
L 2598 1933 
Q 2906 1779 3229 1574 
Q 3552 1370 3830 1162 
Q 4109 954 4288 768 
L 4128 627 
Q 3955 813 3676 1024 
Q 3398 1235 3078 1443 
Q 2758 1651 2445 1811 
z
M 5766 2573 
L 5811 2573 
L 5856 2586 
L 5971 2502 
Q 5658 1818 5126 1309 
Q 4595 800 3920 445 
Q 3245 90 2499 -134 
Q 1754 -358 1011 -474 
Q 1005 -429 976 -377 
Q 947 -326 922 -294 
Q 1645 -192 2381 22 
Q 3117 237 3776 579 
Q 4435 922 4953 1408 
Q 5472 1894 5766 2534 
L 5766 2573 
z
M 3494 2573 
L 5818 2573 
L 5818 2387 
L 3494 2387 
L 3494 2573 
z
M 4077 3149 
L 4307 3098 
Q 3872 2592 3110 2093 
Q 2349 1594 1299 1235 
Q 1286 1261 1264 1286 
Q 1242 1312 1219 1337 
Q 1197 1363 1171 1382 
Q 1856 1606 2422 1900 
Q 2989 2195 3408 2521 
Q 3827 2848 4077 3149 
z
" transform="scale(0.015625)"/>
       </defs>
       <use xlink:href="#NotoSansTC-Thin-52a0"/>
       <use xlink:href="#NotoSansTC-Thin-5bc6" x="99.999985"/>
       <use xlink:href="#NotoSansTC-Thin-8ca8" x="199.999969"/>
       <use xlink:href="#NotoSansTC-Thin-5e63" x="299.999954"/>
       <use xlink:href="#NotoSansTC-Thin-3002" x="399.999939"/>
       <use xlink:href="#NotoSansTC-Thin-9ad8" x="499.999924"/>
       <use xlink:href="#NotoSansTC-Thin-5ea6" x="599.999908"/>
       <use xlink:href="#NotoSansTC-Thin-8b8a" x="699.999893"/>
       <use xlink:href="#NotoSansTC-Thin-52d5" x="799.999878"/>
       <use xlink:href="#NotoSansTC-Thin-6027" x="899.999863"/>
       <use xlink:href="#NotoSansTC-Thin-ff0c" x="999.999847"/>
       <use xlink:href="#NotoSansTC-Thin-6bcf" x="1099.999832"/>
       <use xlink:href="#NotoSansTC-Thin-5e74" x="1199.999817"/>
       <use xlink:href="#NotoSansTC-Thin-6700" x="1299.999802"/>
       <use xlink:href="#NotoSansTC-Thin-9ad8" x="1399.999786"/>
       <use xlink:href="#NotoSansTC-Thin-53ef" x="1499.999771"/>
       <use xlink:href="#NotoSansTC-Thin-9054" x="1599.999756"/>
       <use xlink:href="#NotoSansTC-Thin-20" x="1699.999741"/>
       <use xlink:href="#NotoSansTC-Thin-35" x="1721.999725"/>
       <use xlink:href="#NotoSansTC-Thin-30" x="1774.099716"/>
       <use xlink:href="#NotoSansTC-Thin-25" x="1826.199707"/>
       <use xlink:href="#NotoSansTC-Thin-20" x="1914.199692"/>
       <use xlink:href="#NotoSansTC-Thin-6216" x="1936.199677"/>
       <use xlink:href="#NotoSansTC-Thin-66f4" x="2036.199661"/>
       <use xlink:href="#NotoSansTC-Thin-591a" x="2136.199646"/>
      </g>
     </g>
    </g>
    <g id="text_6">
     <!-- Investment Options -->
     <g transform="translate(323.075427 412.881147) scale(0.12 -0.12)">
      <defs>
       <path id="NotoSansTC-Thin-49" d="M 704 0 
L 704 4646 
L 941 4646 
L 941 0 
L 704 0 
z
" transform="scale(0.015625)"/>
       <path id="NotoSansTC-Thin-6e" d="M 672 0 
L 672 3373 
L 864 3373 
L 902 2835 
L 915 2835 
Q 1178 3098 1453 3277 
Q 1728 3456 2080 3456 
Q 2598 3456 2848 3139 
Q 3098 2822 3098 2170 
L 3098 0 
L 2867 0 
L 2867 2138 
Q 2867 2694 2678 2969 
Q 2490 3245 2054 3245 
Q 1741 3245 1481 3078 
Q 1222 2912 902 2579 
L 902 0 
L 672 0 
z
" transform="scale(0.015625)"/>
       <path id="NotoSansTC-Thin-76" d="M 1363 0 
L 83 3373 
L 339 3373 
L 1133 1197 
Q 1222 954 1312 707 
Q 1402 461 1485 237 
L 1510 237 
Q 1600 461 1689 707 
Q 1779 954 1862 1197 
L 2662 3373 
L 2899 3373 
L 1638 0 
L 1363 0 
z
" transform="scale(0.015625)"/>
       <path id="NotoSansTC-Thin-65" d="M 1920 -83 
Q 1498 -83 1146 128 
Q 794 339 586 732 
Q 378 1126 378 1677 
Q 378 2093 496 2419 
Q 614 2746 822 2979 
Q 1030 3213 1289 3334 
Q 1549 3456 1830 3456 
Q 2221 3456 2505 3277 
Q 2790 3098 2947 2749 
Q 3104 2400 3104 1901 
Q 3104 1850 3104 1795 
Q 3104 1741 3091 1670 
L 621 1670 
Q 621 1229 784 880 
Q 947 531 1241 329 
Q 1536 128 1933 128 
Q 2221 128 2445 211 
Q 2669 294 2861 435 
L 2963 237 
Q 2771 122 2534 19 
Q 2298 -83 1920 -83 
z
M 621 1882 
L 2880 1882 
Q 2880 2566 2592 2905 
Q 2304 3245 1830 3245 
Q 1530 3245 1267 3081 
Q 1005 2918 832 2614 
Q 659 2310 621 1882 
z
" transform="scale(0.015625)"/>
       <path id="NotoSansTC-Thin-73" d="M 1466 -83 
Q 1088 -83 774 54 
Q 461 192 237 378 
L 384 563 
Q 595 384 851 256 
Q 1107 128 1478 128 
Q 1901 128 2115 339 
Q 2330 550 2330 838 
Q 2330 1062 2202 1209 
Q 2074 1357 1878 1453 
Q 1683 1549 1485 1619 
Q 1229 1715 985 1824 
Q 742 1933 582 2112 
Q 422 2291 422 2579 
Q 422 2816 544 3014 
Q 666 3213 902 3334 
Q 1139 3456 1485 3456 
Q 1741 3456 1990 3360 
Q 2240 3264 2419 3110 
L 2285 2938 
Q 2118 3066 1926 3155 
Q 1734 3245 1472 3245 
Q 1056 3245 857 3043 
Q 659 2842 659 2592 
Q 659 2394 771 2262 
Q 883 2131 1065 2044 
Q 1248 1958 1446 1882 
Q 1651 1805 1849 1725 
Q 2048 1645 2208 1536 
Q 2368 1427 2467 1264 
Q 2566 1101 2566 851 
Q 2566 602 2438 387 
Q 2310 173 2067 45 
Q 1824 -83 1466 -83 
z
" transform="scale(0.015625)"/>
       <path id="NotoSansTC-Thin-74" d="M 1542 -83 
Q 1229 -83 1056 38 
Q 883 160 816 381 
Q 749 602 749 896 
L 749 3162 
L 211 3162 
L 211 3341 
L 749 3373 
L 774 4358 
L 973 4358 
L 973 3373 
L 1971 3373 
L 1971 3162 
L 973 3162 
L 973 864 
Q 973 538 1081 333 
Q 1190 128 1562 128 
Q 1658 128 1779 160 
Q 1901 192 1990 237 
L 2067 45 
Q 1920 -6 1776 -44 
Q 1632 -83 1542 -83 
z
" transform="scale(0.015625)"/>
       <path id="NotoSansTC-Thin-6d" d="M 672 0 
L 672 3373 
L 864 3373 
L 902 2835 
L 915 2835 
Q 1146 3098 1427 3277 
Q 1709 3456 1984 3456 
Q 2400 3456 2614 3264 
Q 2829 3072 2912 2752 
Q 3213 3078 3497 3267 
Q 3782 3456 4070 3456 
Q 4563 3456 4816 3139 
Q 5069 2822 5069 2170 
L 5069 0 
L 4845 0 
L 4845 2138 
Q 4845 2694 4649 2969 
Q 4454 3245 4045 3245 
Q 3795 3245 3539 3078 
Q 3283 2912 2982 2579 
L 2982 0 
L 2758 0 
L 2758 2138 
Q 2758 2694 2566 2969 
Q 2374 3245 1965 3245 
Q 1722 3245 1456 3078 
Q 1190 2912 902 2579 
L 902 0 
L 672 0 
z
" transform="scale(0.015625)"/>
       <path id="NotoSansTC-Thin-4f" d="M 2285 -83 
Q 1734 -83 1308 217 
Q 883 518 640 1062 
Q 397 1606 397 2336 
Q 397 3072 640 3606 
Q 883 4141 1308 4435 
Q 1734 4730 2285 4730 
Q 2835 4730 3260 4435 
Q 3686 4141 3929 3606 
Q 4173 3072 4173 2336 
Q 4173 1606 3929 1062 
Q 3686 518 3260 217 
Q 2835 -83 2285 -83 
z
M 2285 141 
Q 2778 141 3146 413 
Q 3514 685 3718 1177 
Q 3923 1670 3923 2336 
Q 3923 3002 3718 3488 
Q 3514 3974 3146 4240 
Q 2778 4506 2285 4506 
Q 1798 4506 1427 4240 
Q 1056 3974 851 3488 
Q 646 3002 646 2336 
Q 646 1670 851 1177 
Q 1056 685 1427 413 
Q 1798 141 2285 141 
z
" transform="scale(0.015625)"/>
       <path id="NotoSansTC-Thin-70" d="M 672 -1555 
L 672 3373 
L 864 3373 
L 902 2938 
L 915 2938 
Q 1165 3136 1462 3296 
Q 1760 3456 2074 3456 
Q 2534 3456 2835 3241 
Q 3136 3027 3283 2643 
Q 3430 2259 3430 1734 
Q 3430 1165 3222 755 
Q 3014 346 2675 131 
Q 2336 -83 1933 -83 
Q 1696 -83 1433 29 
Q 1171 141 902 339 
L 902 -294 
L 902 -1555 
L 672 -1555 
z
M 1952 128 
Q 2310 128 2588 333 
Q 2867 538 3027 902 
Q 3187 1267 3187 1734 
Q 3187 2163 3075 2505 
Q 2963 2848 2716 3046 
Q 2470 3245 2054 3245 
Q 1798 3245 1510 3094 
Q 1222 2944 902 2662 
L 902 582 
Q 1203 333 1478 230 
Q 1754 128 1952 128 
z
" transform="scale(0.015625)"/>
       <path id="NotoSansTC-Thin-69" d="M 672 0 
L 672 3373 
L 902 3373 
L 902 0 
L 672 0 
z
M 794 4224 
Q 691 4224 627 4294 
Q 563 4365 563 4486 
Q 563 4595 627 4662 
Q 691 4730 794 4730 
Q 890 4730 957 4662 
Q 1024 4595 1024 4486 
Q 1024 4365 957 4294 
Q 890 4224 794 4224 
z
" transform="scale(0.015625)"/>
       <path id="NotoSansTC-Thin-6f" d="M 1875 -83 
Q 1472 -83 1129 125 
Q 787 333 582 726 
Q 378 1120 378 1677 
Q 378 2246 582 2643 
Q 787 3040 1129 3248 
Q 1472 3456 1875 3456 
Q 2176 3456 2448 3337 
Q 2720 3219 2928 2992 
Q 3136 2765 3254 2432 
Q 3373 2099 3373 1677 
Q 3373 1120 3165 726 
Q 2957 333 2617 125 
Q 2278 -83 1875 -83 
z
M 1875 128 
Q 2234 128 2518 323 
Q 2803 518 2969 867 
Q 3136 1216 3136 1677 
Q 3136 2144 2969 2496 
Q 2803 2848 2518 3046 
Q 2234 3245 1875 3245 
Q 1517 3245 1232 3046 
Q 947 2848 784 2496 
Q 621 2144 621 1677 
Q 621 1216 784 867 
Q 947 518 1232 323 
Q 1517 128 1875 128 
z
" transform="scale(0.015625)"/>
      </defs>
      <use xlink:href="#NotoSansTC-Thin-49"/>
      <use xlink:href="#NotoSansTC-Thin-6e" x="25.699997"/>
      <use xlink:href="#NotoSansTC-Thin-76" x="83.699982"/>
      <use xlink:href="#NotoSansTC-Thin-65" x="130.299973"/>
      <use xlink:href="#NotoSansTC-Thin-73" x="182.999969"/>
      <use xlink:href="#NotoSansTC-Thin-74" x="227.09996"/>
      <use xlink:href="#NotoSansTC-Thin-6d" x="260.499954"/>
      <use xlink:href="#NotoSansTC-Thin-65" x="349.399948"/>
      <use xlink:href="#NotoSansTC-Thin-6e" x="402.099945"/>
      <use xlink:href="#NotoSansTC-Thin-74" x="460.09993"/>
      <use xlink:href="#NotoSansTC-Thin-20" x="493.499924"/>
      <use xlink:href="#NotoSansTC-Thin-4f" x="515.499908"/>
      <use xlink:href="#NotoSansTC-Thin-70" x="586.899902"/>
      <use xlink:href="#NotoSansTC-Thin-74" x="646.399887"/>
      <use xlink:href="#NotoSansTC-Thin-69" x="679.799881"/>
      <use xlink:href="#NotoSansTC-Thin-6f" x="704.299866"/>
      <use xlink:href="#NotoSansTC-Thin-6e" x="762.899857"/>
      <use xlink:href="#NotoSansTC-Thin-73" x="820.899841"/>
     </g>
    </g>
   </g>
   <g id="matplotlib.axis_2">
    <g id="ytick_1">
     <g id="line2d_6">
      <defs>
       <path id="m273c7cb1b5" d="M 0 0 
L -3.5 0 
" style="stroke: #000000; stroke-width: 0.8"/>
      </defs>
      <g>
       <use xlink:href="#m273c7cb1b5" x="53.395295" y="193.806094" style="stroke: #000000; stroke-width: 0.8"/>
      </g>
     </g>
     <g id="text_7">
      <!-- 0 -->
      <g transform="translate(40.032795 197.605313) scale(0.1 -0.1)">
       <defs>
        <path id="DejaVuSans-30" d="M 2034 4250 
Q 1547 4250 1301 3770 
Q 1056 3291 1056 2328 
Q 1056 1369 1301 889 
Q 1547 409 2034 409 
Q 2525 409 2770 889 
Q 3016 1369 3016 2328 
Q 3016 3291 2770 3770 
Q 2525 4250 2034 4250 
z
M 2034 4750 
Q 2819 4750 3233 4129 
Q 3647 3509 3647 2328 
Q 3647 1150 3233 529 
Q 2819 -91 2034 -91 
Q 1250 -91 836 529 
Q 422 1150 422 2328 
Q 422 3509 836 4129 
Q 1250 4750 2034 4750 
z
" transform="scale(0.015625)"/>
       </defs>
       <use xlink:href="#DejaVuSans-30"/>
      </g>
     </g>
    </g>
    <g id="ytick_2">
     <g id="line2d_7">
      <g>
       <use xlink:href="#m273c7cb1b5" x="53.395295" y="151.596041" style="stroke: #000000; stroke-width: 0.8"/>
      </g>
     </g>
     <g id="text_8">
      <!-- 100 -->
      <g transform="translate(27.307795 155.39526) scale(0.1 -0.1)">
       <defs>
        <path id="DejaVuSans-31" d="M 794 531 
L 1825 531 
L 1825 4091 
L 703 3866 
L 703 4441 
L 1819 4666 
L 2450 4666 
L 2450 531 
L 3481 531 
L 3481 0 
L 794 0 
L 794 531 
z
" transform="scale(0.015625)"/>
       </defs>
       <use xlink:href="#DejaVuSans-31"/>
       <use xlink:href="#DejaVuSans-30" x="63.623047"/>
       <use xlink:href="#DejaVuSans-30" x="127.246094"/>
      </g>
     </g>
    </g>
    <g id="ytick_3">
     <g id="line2d_8">
      <g>
       <use xlink:href="#m273c7cb1b5" x="53.395295" y="109.385988" style="stroke: #000000; stroke-width: 0.8"/>
      </g>
     </g>
     <g id="text_9">
      <!-- 200 -->
      <g transform="translate(27.307795 113.185207) scale(0.1 -0.1)">
       <defs>
        <path id="DejaVuSans-32" d="M 1228 531 
L 3431 531 
L 3431 0 
L 469 0 
L 469 531 
Q 828 903 1448 1529 
Q 2069 2156 2228 2338 
Q 2531 2678 2651 2914 
Q 2772 3150 2772 3378 
Q 2772 3750 2511 3984 
Q 2250 4219 1831 4219 
Q 1534 4219 1204 4116 
Q 875 4013 500 3803 
L 500 4441 
Q 881 4594 1212 4672 
Q 1544 4750 1819 4750 
Q 2544 4750 2975 4387 
Q 3406 4025 3406 3419 
Q 3406 3131 3298 2873 
Q 3191 2616 2906 2266 
Q 2828 2175 2409 1742 
Q 1991 1309 1228 531 
z
" transform="scale(0.015625)"/>
       </defs>
       <use xlink:href="#DejaVuSans-32"/>
       <use xlink:href="#DejaVuSans-30" x="63.623047"/>
       <use xlink:href="#DejaVuSans-30" x="127.246094"/>
      </g>
     </g>
    </g>
    <g id="ytick_4">
     <g id="line2d_9">
      <g>
       <use xlink:href="#m273c7cb1b5" x="53.395295" y="67.175936" style="stroke: #000000; stroke-width: 0.8"/>
      </g>
     </g>
     <g id="text_10">
      <!-- 300 -->
      <g transform="translate(27.307795 70.975154) scale(0.1 -0.1)">
       <defs>
        <path id="DejaVuSans-33" d="M 2597 2516 
Q 3050 2419 3304 2112 
Q 3559 1806 3559 1356 
Q 3559 666 3084 287 
Q 2609 -91 1734 -91 
Q 1441 -91 1130 -33 
Q 819 25 488 141 
L 488 750 
Q 750 597 1062 519 
Q 1375 441 1716 441 
Q 2309 441 2620 675 
Q 2931 909 2931 1356 
Q 2931 1769 2642 2001 
Q 2353 2234 1838 2234 
L 1294 2234 
L 1294 2753 
L 1863 2753 
Q 2328 2753 2575 2939 
Q 2822 3125 2822 3475 
Q 2822 3834 2567 4026 
Q 2313 4219 1838 4219 
Q 1578 4219 1281 4162 
Q 984 4106 628 3988 
L 628 4550 
Q 988 4650 1302 4700 
Q 1616 4750 1894 4750 
Q 2613 4750 3031 4423 
Q 3450 4097 3450 3541 
Q 3450 3153 3228 2886 
Q 3006 2619 2597 2516 
z
" transform="scale(0.015625)"/>
       </defs>
       <use xlink:href="#DejaVuSans-33"/>
       <use xlink:href="#DejaVuSans-30" x="63.623047"/>
       <use xlink:href="#DejaVuSans-30" x="127.246094"/>
      </g>
     </g>
    </g>
    <g id="ytick_5">
     <g id="line2d_10">
      <g>
       <use xlink:href="#m273c7cb1b5" x="53.395295" y="24.965883" style="stroke: #000000; stroke-width: 0.8"/>
      </g>
     </g>
     <g id="text_11">
      <!-- 400 -->
      <g transform="translate(27.307795 28.765102) scale(0.1 -0.1)">
       <defs>
        <path id="DejaVuSans-34" d="M 2419 4116 
L 825 1625 
L 2419 1625 
L 2419 4116 
z
M 2253 4666 
L 3047 4666 
L 3047 1625 
L 3713 1625 
L 3713 1100 
L 3047 1100 
L 3047 0 
L 2419 0 
L 2419 1100 
L 313 1100 
L 313 1709 
L 2253 4666 
z
" transform="scale(0.015625)"/>
       </defs>
       <use xlink:href="#DejaVuSans-34"/>
       <use xlink:href="#DejaVuSans-30" x="63.623047"/>
       <use xlink:href="#DejaVuSans-30" x="127.246094"/>
      </g>
     </g>
    </g>
    <g id="text_12">
     <!-- Number of Responses -->
     <g transform="translate(20.39217 166.185235) rotate(-90) scale(0.12 -0.12)">
      <defs>
       <path id="NotoSansTC-Thin-4e" d="M 704 0 
L 704 4646 
L 954 4646 
L 3002 1261 
L 3533 346 
L 3565 346 
Q 3546 685 3536 1008 
Q 3526 1331 3526 1658 
L 3526 4646 
L 3757 4646 
L 3757 0 
L 3501 0 
L 1459 3386 
L 928 4301 
L 902 4301 
Q 915 3974 921 3667 
Q 928 3360 928 3027 
L 928 0 
L 704 0 
z
" transform="scale(0.015625)"/>
       <path id="NotoSansTC-Thin-75" d="M 1632 -83 
Q 1114 -83 864 230 
Q 614 544 614 1203 
L 614 3373 
L 845 3373 
L 845 1229 
Q 845 672 1033 400 
Q 1222 128 1651 128 
Q 1965 128 2224 304 
Q 2483 480 2797 851 
L 2797 3373 
L 3027 3373 
L 3027 0 
L 2829 0 
L 2803 576 
L 2790 576 
Q 2534 282 2259 99 
Q 1984 -83 1632 -83 
z
" transform="scale(0.015625)"/>
       <path id="NotoSansTC-Thin-62" d="M 1933 -83 
Q 1696 -83 1424 32 
Q 1152 147 915 339 
L 896 339 
L 864 0 
L 672 0 
L 672 5082 
L 902 5082 
L 902 3584 
L 883 2906 
Q 1146 3130 1453 3293 
Q 1760 3456 2074 3456 
Q 2534 3456 2835 3241 
Q 3136 3027 3283 2643 
Q 3430 2259 3430 1734 
Q 3430 1165 3222 755 
Q 3014 346 2675 131 
Q 2336 -83 1933 -83 
z
M 1952 128 
Q 2310 128 2588 333 
Q 2867 538 3027 902 
Q 3187 1267 3187 1734 
Q 3187 2163 3075 2505 
Q 2963 2848 2716 3046 
Q 2470 3245 2054 3245 
Q 1798 3245 1507 3094 
Q 1216 2944 902 2662 
L 902 582 
Q 1190 333 1472 230 
Q 1754 128 1952 128 
z
" transform="scale(0.015625)"/>
       <path id="NotoSansTC-Thin-72" d="M 672 0 
L 672 3373 
L 864 3373 
L 902 2739 
L 915 2739 
Q 1082 3046 1325 3251 
Q 1568 3456 1869 3456 
Q 1958 3456 2035 3443 
Q 2112 3430 2195 3386 
L 2138 3174 
Q 2054 3206 1996 3219 
Q 1939 3232 1837 3232 
Q 1613 3232 1357 3030 
Q 1101 2829 902 2330 
L 902 0 
L 672 0 
z
" transform="scale(0.015625)"/>
       <path id="NotoSansTC-Thin-66" d="M 704 0 
L 704 4192 
Q 704 4525 797 4739 
Q 890 4954 1066 5059 
Q 1242 5165 1485 5165 
Q 1594 5165 1715 5136 
Q 1837 5107 1958 5056 
L 1888 4858 
Q 1683 4960 1478 4960 
Q 1190 4960 1059 4749 
Q 928 4538 928 4160 
L 928 0 
L 704 0 
z
M 237 3162 
L 237 3341 
L 704 3373 
L 1728 3373 
L 1728 3162 
L 237 3162 
z
" transform="scale(0.015625)"/>
       <path id="NotoSansTC-Thin-52" d="M 704 0 
L 704 4646 
L 1990 4646 
Q 2451 4646 2787 4524 
Q 3123 4403 3305 4140 
Q 3488 3878 3488 3450 
Q 3488 3040 3305 2758 
Q 3123 2477 2787 2333 
Q 2451 2189 1990 2189 
L 941 2189 
L 941 0 
L 704 0 
z
M 941 2394 
L 1907 2394 
Q 2547 2394 2889 2653 
Q 3232 2912 3232 3450 
Q 3232 3994 2889 4214 
Q 2547 4435 1907 4435 
L 941 4435 
L 941 2394 
z
M 3283 0 
L 1926 2259 
L 2195 2285 
L 3558 0 
L 3283 0 
z
" transform="scale(0.015625)"/>
      </defs>
      <use xlink:href="#NotoSansTC-Thin-4e"/>
      <use xlink:href="#NotoSansTC-Thin-75" x="69.599991"/>
      <use xlink:href="#NotoSansTC-Thin-6d" x="127.299988"/>
      <use xlink:href="#NotoSansTC-Thin-62" x="216.199982"/>
      <use xlink:href="#NotoSansTC-Thin-65" x="275.499969"/>
      <use xlink:href="#NotoSansTC-Thin-72" x="328.199966"/>
      <use xlink:href="#NotoSansTC-Thin-20" x="362.09996"/>
      <use xlink:href="#NotoSansTC-Thin-6f" x="384.099945"/>
      <use xlink:href="#NotoSansTC-Thin-66" x="442.699936"/>
      <use xlink:href="#NotoSansTC-Thin-20" x="470.59993"/>
      <use xlink:href="#NotoSansTC-Thin-52" x="492.599915"/>
      <use xlink:href="#NotoSansTC-Thin-65" x="551.499908"/>
      <use xlink:href="#NotoSansTC-Thin-73" x="604.199905"/>
      <use xlink:href="#NotoSansTC-Thin-70" x="648.299896"/>
      <use xlink:href="#NotoSansTC-Thin-6f" x="707.799881"/>
      <use xlink:href="#NotoSansTC-Thin-6e" x="766.399872"/>
      <use xlink:href="#NotoSansTC-Thin-73" x="824.399857"/>
      <use xlink:href="#NotoSansTC-Thin-65" x="868.499847"/>
      <use xlink:href="#NotoSansTC-Thin-73" x="921.199844"/>
     </g>
    </g>
   </g>
   <g id="patch_8">
    <path d="M 53.395295 193.806094 
L 53.395295 22.72875 
" style="fill: none; stroke: #000000; stroke-width: 0.8; stroke-linejoin: miter; stroke-linecap: square"/>
   </g>
   <g id="patch_9">
    <path d="M 696.557434 193.806094 
L 696.557434 22.72875 
" style="fill: none; stroke: #000000; stroke-width: 0.8; stroke-linejoin: miter; stroke-linecap: square"/>
   </g>
   <g id="patch_10">
    <path d="M 53.395295 193.806094 
L 696.557434 193.806094 
" style="fill: none; stroke: #000000; stroke-width: 0.8; stroke-linejoin: miter; stroke-linecap: square"/>
   </g>
   <g id="patch_11">
    <path d="M 53.395295 22.72875 
L 696.557434 22.72875 
" style="fill: none; stroke: #000000; stroke-width: 0.8; stroke-linejoin: miter; stroke-linecap: square"/>
   </g>
   <g id="text_13">
    <!-- Investment Choices -->
    <g transform="translate(323.135427 16.72875) scale(0.12 -0.12)">
     <defs>
      <path id="NotoSansTC-Thin-43" d="M 2317 -83 
Q 1888 -83 1536 86 
Q 1184 256 928 576 
Q 672 896 534 1341 
Q 397 1786 397 2336 
Q 397 2886 537 3328 
Q 678 3770 934 4083 
Q 1190 4397 1552 4563 
Q 1914 4730 2355 4730 
Q 2758 4730 3059 4560 
Q 3360 4390 3539 4179 
L 3392 4019 
Q 3206 4237 2944 4371 
Q 2682 4506 2355 4506 
Q 1824 4506 1440 4240 
Q 1056 3974 851 3488 
Q 646 3002 646 2336 
Q 646 1670 851 1177 
Q 1056 685 1433 413 
Q 1811 141 2330 141 
Q 2694 141 2982 288 
Q 3270 435 3533 730 
L 3680 576 
Q 3418 269 3094 93 
Q 2771 -83 2317 -83 
z
" transform="scale(0.015625)"/>
      <path id="NotoSansTC-Thin-68" d="M 672 0 
L 672 5082 
L 902 5082 
L 902 3584 
L 902 2822 
Q 1171 3098 1449 3277 
Q 1728 3456 2080 3456 
Q 2598 3456 2848 3139 
Q 3098 2822 3098 2170 
L 3098 0 
L 2867 0 
L 2867 2138 
Q 2867 2694 2678 2969 
Q 2490 3245 2054 3245 
Q 1741 3245 1481 3078 
Q 1222 2912 902 2579 
L 902 0 
L 672 0 
z
" transform="scale(0.015625)"/>
      <path id="NotoSansTC-Thin-63" d="M 1888 -83 
Q 1459 -83 1116 125 
Q 774 333 576 726 
Q 378 1120 378 1677 
Q 378 2246 589 2643 
Q 800 3040 1145 3248 
Q 1491 3456 1894 3456 
Q 2240 3456 2477 3325 
Q 2714 3194 2880 3034 
L 2733 2867 
Q 2566 3027 2361 3136 
Q 2157 3245 1894 3245 
Q 1536 3245 1248 3046 
Q 960 2848 790 2496 
Q 621 2144 621 1677 
Q 621 1216 781 867 
Q 941 518 1225 323 
Q 1510 128 1894 128 
Q 2176 128 2413 246 
Q 2650 365 2829 531 
L 2963 365 
Q 2752 179 2483 48 
Q 2214 -83 1888 -83 
z
" transform="scale(0.015625)"/>
     </defs>
     <use xlink:href="#NotoSansTC-Thin-49"/>
     <use xlink:href="#NotoSansTC-Thin-6e" x="25.699997"/>
     <use xlink:href="#NotoSansTC-Thin-76" x="83.699982"/>
     <use xlink:href="#NotoSansTC-Thin-65" x="130.299973"/>
     <use xlink:href="#NotoSansTC-Thin-73" x="182.999969"/>
     <use xlink:href="#NotoSansTC-Thin-74" x="227.09996"/>
     <use xlink:href="#NotoSansTC-Thin-6d" x="260.499954"/>
     <use xlink:href="#NotoSansTC-Thin-65" x="349.399948"/>
     <use xlink:href="#NotoSansTC-Thin-6e" x="402.099945"/>
     <use xlink:href="#NotoSansTC-Thin-74" x="460.09993"/>
     <use xlink:href="#NotoSansTC-Thin-20" x="493.499924"/>
     <use xlink:href="#NotoSansTC-Thin-43" x="515.499908"/>
     <use xlink:href="#NotoSansTC-Thin-68" x="577.399902"/>
     <use xlink:href="#NotoSansTC-Thin-6f" x="634.899887"/>
     <use xlink:href="#NotoSansTC-Thin-69" x="693.499878"/>
     <use xlink:href="#NotoSansTC-Thin-63" x="717.999863"/>
     <use xlink:href="#NotoSansTC-Thin-65" x="767.19986"/>
     <use xlink:href="#NotoSansTC-Thin-73" x="819.899857"/>
    </g>
   </g>
  </g>
 </g>
 <defs>
  <clipPath id="paf888e4d7a">
   <rect x="53.395295" y="22.72875" width="643.162138" height="171.077344"/>
  </clipPath>
 </defs>
</svg>
