<?xml version="1.0" encoding="utf-8" standalone="no"?>
<!DOCTYPE svg PUBLIC "-//W3C//DTD SVG 1.1//EN"
  "http://www.w3.org/Graphics/SVG/1.1/DTD/svg11.dtd">
<svg xmlns:xlink="http://www.w3.org/1999/xlink" width="891.165625pt" height="629.035125pt" viewBox="0 0 891.165625 629.035125" xmlns="http://www.w3.org/2000/svg" version="1.1">
 <metadata>
  <rdf:RDF xmlns:dc="http://purl.org/dc/elements/1.1/" xmlns:cc="http://creativecommons.org/ns#" xmlns:rdf="http://www.w3.org/1999/02/22-rdf-syntax-ns#">
   <cc:Work>
    <dc:type rdf:resource="http://purl.org/dc/dcmitype/StillImage"/>
    <dc:date>2024-06-18T23:48:00.654353</dc:date>
    <dc:format>image/svg+xml</dc:format>
    <dc:creator>
     <cc:Agent>
      <dc:title>Matplotlib v3.8.4, https://matplotlib.org/</dc:title>
     </cc:Agent>
    </dc:creator>
   </cc:Work>
  </rdf:RDF>
 </metadata>
 <defs>
  <style type="text/css">*{stroke-linejoin: round; stroke-linecap: butt}</style>
 </defs>
 <g id="figure_1">
  <g id="patch_1">
   <path d="M 0 629.035125 
L 891.165625 629.035125 
L 891.165625 0 
L 0 0 
z
" style="fill: #ffffff"/>
  </g>
  <g id="axes_1">
   <g id="patch_2">
    <path d="M 46.965625 268.078875 
L 427.42017 268.078875 
L 427.42017 37.078875 
L 46.965625 37.078875 
z
" style="fill: #ffffff"/>
   </g>
   <g id="patch_3">
    <path d="M 54.574716 268.078875 
L 115.447443 268.078875 
L 115.447443 145.474708 
L 54.574716 145.474708 
z
" clip-path="url(#p19c6454fd0)" style="fill: #a1c9f4"/>
   </g>
   <g id="patch_4">
    <path d="M 130.665625 268.078875 
L 191.538352 268.078875 
L 191.538352 48.078875 
L 130.665625 48.078875 
z
" clip-path="url(#p19c6454fd0)" style="fill: #ffb482"/>
   </g>
   <g id="patch_5">
    <path d="M 206.756534 268.078875 
L 267.629261 268.078875 
L 267.629261 107.662208 
L 206.756534 107.662208 
z
" clip-path="url(#p19c6454fd0)" style="fill: #8de5a1"/>
   </g>
   <g id="patch_6">
    <path d="M 282.847443 268.078875 
L 343.72017 268.078875 
L 343.72017 106.516375 
L 282.847443 106.516375 
z
" clip-path="url(#p19c6454fd0)" style="fill: #ff9f9b"/>
   </g>
   <g id="patch_7">
    <path d="M 358.938352 268.078875 
L 419.81108 268.078875 
L 419.81108 152.349708 
L 358.938352 152.349708 
z
" clip-path="url(#p19c6454fd0)" style="fill: #d0bbff"/>
   </g>
   <g id="matplotlib.axis_1">
    <g id="xtick_1">
     <g id="line2d_1">
      <defs>
       <path id="m4c66f01875" d="M 0 0 
L 0 3.5 
" style="stroke: #000000; stroke-width: 0.8"/>
      </defs>
      <g>
       <use xlink:href="#m4c66f01875" x="85.01108" y="268.078875" style="stroke: #000000; stroke-width: 0.8"/>
      </g>
     </g>
     <g id="text_1">
      <!-- 1 -->
      <g transform="translate(81.82983 282.677313) scale(0.1 -0.1)">
       <defs>
        <path id="DejaVuSans-31" d="M 794 531 
L 1825 531 
L 1825 4091 
L 703 3866 
L 703 4441 
L 1819 4666 
L 2450 4666 
L 2450 531 
L 3481 531 
L 3481 0 
L 794 0 
L 794 531 
z
" transform="scale(0.015625)"/>
       </defs>
       <use xlink:href="#DejaVuSans-31"/>
      </g>
     </g>
    </g>
    <g id="xtick_2">
     <g id="line2d_2">
      <g>
       <use xlink:href="#m4c66f01875" x="161.101989" y="268.078875" style="stroke: #000000; stroke-width: 0.8"/>
      </g>
     </g>
     <g id="text_2">
      <!-- 2 -->
      <g transform="translate(157.920739 282.677313) scale(0.1 -0.1)">
       <defs>
        <path id="DejaVuSans-32" d="M 1228 531 
L 3431 531 
L 3431 0 
L 469 0 
L 469 531 
Q 828 903 1448 1529 
Q 2069 2156 2228 2338 
Q 2531 2678 2651 2914 
Q 2772 3150 2772 3378 
Q 2772 3750 2511 3984 
Q 2250 4219 1831 4219 
Q 1534 4219 1204 4116 
Q 875 4013 500 3803 
L 500 4441 
Q 881 4594 1212 4672 
Q 1544 4750 1819 4750 
Q 2544 4750 2975 4387 
Q 3406 4025 3406 3419 
Q 3406 3131 3298 2873 
Q 3191 2616 2906 2266 
Q 2828 2175 2409 1742 
Q 1991 1309 1228 531 
z
" transform="scale(0.015625)"/>
       </defs>
       <use xlink:href="#DejaVuSans-32"/>
      </g>
     </g>
    </g>
    <g id="xtick_3">
     <g id="line2d_3">
      <g>
       <use xlink:href="#m4c66f01875" x="237.192898" y="268.078875" style="stroke: #000000; stroke-width: 0.8"/>
      </g>
     </g>
     <g id="text_3">
      <!-- 3 -->
      <g transform="translate(234.011648 282.677313) scale(0.1 -0.1)">
       <defs>
        <path id="DejaVuSans-33" d="M 2597 2516 
Q 3050 2419 3304 2112 
Q 3559 1806 3559 1356 
Q 3559 666 3084 287 
Q 2609 -91 1734 -91 
Q 1441 -91 1130 -33 
Q 819 25 488 141 
L 488 750 
Q 750 597 1062 519 
Q 1375 441 1716 441 
Q 2309 441 2620 675 
Q 2931 909 2931 1356 
Q 2931 1769 2642 2001 
Q 2353 2234 1838 2234 
L 1294 2234 
L 1294 2753 
L 1863 2753 
Q 2328 2753 2575 2939 
Q 2822 3125 2822 3475 
Q 2822 3834 2567 4026 
Q 2313 4219 1838 4219 
Q 1578 4219 1281 4162 
Q 984 4106 628 3988 
L 628 4550 
Q 988 4650 1302 4700 
Q 1616 4750 1894 4750 
Q 2613 4750 3031 4423 
Q 3450 4097 3450 3541 
Q 3450 3153 3228 2886 
Q 3006 2619 2597 2516 
z
" transform="scale(0.015625)"/>
       </defs>
       <use xlink:href="#DejaVuSans-33"/>
      </g>
     </g>
    </g>
    <g id="xtick_4">
     <g id="line2d_4">
      <g>
       <use xlink:href="#m4c66f01875" x="313.283807" y="268.078875" style="stroke: #000000; stroke-width: 0.8"/>
      </g>
     </g>
     <g id="text_4">
      <!-- 4 -->
      <g transform="translate(310.102557 282.677313) scale(0.1 -0.1)">
       <defs>
        <path id="DejaVuSans-34" d="M 2419 4116 
L 825 1625 
L 2419 1625 
L 2419 4116 
z
M 2253 4666 
L 3047 4666 
L 3047 1625 
L 3713 1625 
L 3713 1100 
L 3047 1100 
L 3047 0 
L 2419 0 
L 2419 1100 
L 313 1100 
L 313 1709 
L 2253 4666 
z
" transform="scale(0.015625)"/>
       </defs>
       <use xlink:href="#DejaVuSans-34"/>
      </g>
     </g>
    </g>
    <g id="xtick_5">
     <g id="line2d_5">
      <g>
       <use xlink:href="#m4c66f01875" x="389.374716" y="268.078875" style="stroke: #000000; stroke-width: 0.8"/>
      </g>
     </g>
     <g id="text_5">
      <!-- 5 -->
      <g transform="translate(386.193466 282.677313) scale(0.1 -0.1)">
       <defs>
        <path id="DejaVuSans-35" d="M 691 4666 
L 3169 4666 
L 3169 4134 
L 1269 4134 
L 1269 2991 
Q 1406 3038 1543 3061 
Q 1681 3084 1819 3084 
Q 2600 3084 3056 2656 
Q 3513 2228 3513 1497 
Q 3513 744 3044 326 
Q 2575 -91 1722 -91 
Q 1428 -91 1123 -41 
Q 819 9 494 109 
L 494 744 
Q 775 591 1075 516 
Q 1375 441 1709 441 
Q 2250 441 2565 725 
Q 2881 1009 2881 1497 
Q 2881 1984 2565 2268 
Q 2250 2553 1709 2553 
Q 1456 2553 1204 2497 
Q 953 2441 691 2322 
L 691 4666 
z
" transform="scale(0.015625)"/>
       </defs>
       <use xlink:href="#DejaVuSans-35"/>
      </g>
     </g>
    </g>
    <g id="text_6">
     <!-- ← Disagreement — Neutral — Agreement → -->
     <g transform="translate(127.803835 296.355438) scale(0.1 -0.1)">
      <defs>
       <path id="DejaVuSans-2190" d="M 313 1866 
L 313 2147 
L 1541 3375 
L 1916 3000 
L 1188 2272 
L 4997 2272 
L 4997 1741 
L 1188 1741 
L 1916 1013 
L 1541 638 
L 313 1866 
z
" transform="scale(0.015625)"/>
       <path id="DejaVuSans-20" transform="scale(0.015625)"/>
       <path id="DejaVuSans-44" d="M 1259 4147 
L 1259 519 
L 2022 519 
Q 2988 519 3436 956 
Q 3884 1394 3884 2338 
Q 3884 3275 3436 3711 
Q 2988 4147 2022 4147 
L 1259 4147 
z
M 628 4666 
L 1925 4666 
Q 3281 4666 3915 4102 
Q 4550 3538 4550 2338 
Q 4550 1131 3912 565 
Q 3275 0 1925 0 
L 628 0 
L 628 4666 
z
" transform="scale(0.015625)"/>
       <path id="DejaVuSans-69" d="M 603 3500 
L 1178 3500 
L 1178 0 
L 603 0 
L 603 3500 
z
M 603 4863 
L 1178 4863 
L 1178 4134 
L 603 4134 
L 603 4863 
z
" transform="scale(0.015625)"/>
       <path id="DejaVuSans-73" d="M 2834 3397 
L 2834 2853 
Q 2591 2978 2328 3040 
Q 2066 3103 1784 3103 
Q 1356 3103 1142 2972 
Q 928 2841 928 2578 
Q 928 2378 1081 2264 
Q 1234 2150 1697 2047 
L 1894 2003 
Q 2506 1872 2764 1633 
Q 3022 1394 3022 966 
Q 3022 478 2636 193 
Q 2250 -91 1575 -91 
Q 1294 -91 989 -36 
Q 684 19 347 128 
L 347 722 
Q 666 556 975 473 
Q 1284 391 1588 391 
Q 1994 391 2212 530 
Q 2431 669 2431 922 
Q 2431 1156 2273 1281 
Q 2116 1406 1581 1522 
L 1381 1569 
Q 847 1681 609 1914 
Q 372 2147 372 2553 
Q 372 3047 722 3315 
Q 1072 3584 1716 3584 
Q 2034 3584 2315 3537 
Q 2597 3491 2834 3397 
z
" transform="scale(0.015625)"/>
       <path id="DejaVuSans-61" d="M 2194 1759 
Q 1497 1759 1228 1600 
Q 959 1441 959 1056 
Q 959 750 1161 570 
Q 1363 391 1709 391 
Q 2188 391 2477 730 
Q 2766 1069 2766 1631 
L 2766 1759 
L 2194 1759 
z
M 3341 1997 
L 3341 0 
L 2766 0 
L 2766 531 
Q 2569 213 2275 61 
Q 1981 -91 1556 -91 
Q 1019 -91 701 211 
Q 384 513 384 1019 
Q 384 1609 779 1909 
Q 1175 2209 1959 2209 
L 2766 2209 
L 2766 2266 
Q 2766 2663 2505 2880 
Q 2244 3097 1772 3097 
Q 1472 3097 1187 3025 
Q 903 2953 641 2809 
L 641 3341 
Q 956 3463 1253 3523 
Q 1550 3584 1831 3584 
Q 2591 3584 2966 3190 
Q 3341 2797 3341 1997 
z
" transform="scale(0.015625)"/>
       <path id="DejaVuSans-67" d="M 2906 1791 
Q 2906 2416 2648 2759 
Q 2391 3103 1925 3103 
Q 1463 3103 1205 2759 
Q 947 2416 947 1791 
Q 947 1169 1205 825 
Q 1463 481 1925 481 
Q 2391 481 2648 825 
Q 2906 1169 2906 1791 
z
M 3481 434 
Q 3481 -459 3084 -895 
Q 2688 -1331 1869 -1331 
Q 1566 -1331 1297 -1286 
Q 1028 -1241 775 -1147 
L 775 -588 
Q 1028 -725 1275 -790 
Q 1522 -856 1778 -856 
Q 2344 -856 2625 -561 
Q 2906 -266 2906 331 
L 2906 616 
Q 2728 306 2450 153 
Q 2172 0 1784 0 
Q 1141 0 747 490 
Q 353 981 353 1791 
Q 353 2603 747 3093 
Q 1141 3584 1784 3584 
Q 2172 3584 2450 3431 
Q 2728 3278 2906 2969 
L 2906 3500 
L 3481 3500 
L 3481 434 
z
" transform="scale(0.015625)"/>
       <path id="DejaVuSans-72" d="M 2631 2963 
Q 2534 3019 2420 3045 
Q 2306 3072 2169 3072 
Q 1681 3072 1420 2755 
Q 1159 2438 1159 1844 
L 1159 0 
L 581 0 
L 581 3500 
L 1159 3500 
L 1159 2956 
Q 1341 3275 1631 3429 
Q 1922 3584 2338 3584 
Q 2397 3584 2469 3576 
Q 2541 3569 2628 3553 
L 2631 2963 
z
" transform="scale(0.015625)"/>
       <path id="DejaVuSans-65" d="M 3597 1894 
L 3597 1613 
L 953 1613 
Q 991 1019 1311 708 
Q 1631 397 2203 397 
Q 2534 397 2845 478 
Q 3156 559 3463 722 
L 3463 178 
Q 3153 47 2828 -22 
Q 2503 -91 2169 -91 
Q 1331 -91 842 396 
Q 353 884 353 1716 
Q 353 2575 817 3079 
Q 1281 3584 2069 3584 
Q 2775 3584 3186 3129 
Q 3597 2675 3597 1894 
z
M 3022 2063 
Q 3016 2534 2758 2815 
Q 2500 3097 2075 3097 
Q 1594 3097 1305 2825 
Q 1016 2553 972 2059 
L 3022 2063 
z
" transform="scale(0.015625)"/>
       <path id="DejaVuSans-6d" d="M 3328 2828 
Q 3544 3216 3844 3400 
Q 4144 3584 4550 3584 
Q 5097 3584 5394 3201 
Q 5691 2819 5691 2113 
L 5691 0 
L 5113 0 
L 5113 2094 
Q 5113 2597 4934 2840 
Q 4756 3084 4391 3084 
Q 3944 3084 3684 2787 
Q 3425 2491 3425 1978 
L 3425 0 
L 2847 0 
L 2847 2094 
Q 2847 2600 2669 2842 
Q 2491 3084 2119 3084 
Q 1678 3084 1418 2786 
Q 1159 2488 1159 1978 
L 1159 0 
L 581 0 
L 581 3500 
L 1159 3500 
L 1159 2956 
Q 1356 3278 1631 3431 
Q 1906 3584 2284 3584 
Q 2666 3584 2933 3390 
Q 3200 3197 3328 2828 
z
" transform="scale(0.015625)"/>
       <path id="DejaVuSans-6e" d="M 3513 2113 
L 3513 0 
L 2938 0 
L 2938 2094 
Q 2938 2591 2744 2837 
Q 2550 3084 2163 3084 
Q 1697 3084 1428 2787 
Q 1159 2491 1159 1978 
L 1159 0 
L 581 0 
L 581 3500 
L 1159 3500 
L 1159 2956 
Q 1366 3272 1645 3428 
Q 1925 3584 2291 3584 
Q 2894 3584 3203 3211 
Q 3513 2838 3513 2113 
z
" transform="scale(0.015625)"/>
       <path id="DejaVuSans-74" d="M 1172 4494 
L 1172 3500 
L 2356 3500 
L 2356 3053 
L 1172 3053 
L 1172 1153 
Q 1172 725 1289 603 
Q 1406 481 1766 481 
L 2356 481 
L 2356 0 
L 1766 0 
Q 1100 0 847 248 
Q 594 497 594 1153 
L 594 3053 
L 172 3053 
L 172 3500 
L 594 3500 
L 594 4494 
L 1172 4494 
z
" transform="scale(0.015625)"/>
       <path id="DejaVuSans-2014" d="M 313 1978 
L 6088 1978 
L 6088 1528 
L 313 1528 
L 313 1978 
z
" transform="scale(0.015625)"/>
       <path id="DejaVuSans-4e" d="M 628 4666 
L 1478 4666 
L 3547 763 
L 3547 4666 
L 4159 4666 
L 4159 0 
L 3309 0 
L 1241 3903 
L 1241 0 
L 628 0 
L 628 4666 
z
" transform="scale(0.015625)"/>
       <path id="DejaVuSans-75" d="M 544 1381 
L 544 3500 
L 1119 3500 
L 1119 1403 
Q 1119 906 1312 657 
Q 1506 409 1894 409 
Q 2359 409 2629 706 
Q 2900 1003 2900 1516 
L 2900 3500 
L 3475 3500 
L 3475 0 
L 2900 0 
L 2900 538 
Q 2691 219 2414 64 
Q 2138 -91 1772 -91 
Q 1169 -91 856 284 
Q 544 659 544 1381 
z
M 1991 3584 
L 1991 3584 
z
" transform="scale(0.015625)"/>
       <path id="DejaVuSans-6c" d="M 603 4863 
L 1178 4863 
L 1178 0 
L 603 0 
L 603 4863 
z
" transform="scale(0.015625)"/>
       <path id="DejaVuSans-41" d="M 2188 4044 
L 1331 1722 
L 3047 1722 
L 2188 4044 
z
M 1831 4666 
L 2547 4666 
L 4325 0 
L 3669 0 
L 3244 1197 
L 1141 1197 
L 716 0 
L 50 0 
L 1831 4666 
z
" transform="scale(0.015625)"/>
       <path id="DejaVuSans-2192" d="M 5050 2147 
L 5050 1866 
L 3822 638 
L 3447 1013 
L 4175 1741 
L 366 1741 
L 366 2272 
L 4175 2272 
L 3447 3000 
L 3822 3375 
L 5050 2147 
z
" transform="scale(0.015625)"/>
      </defs>
      <use xlink:href="#DejaVuSans-2190"/>
      <use xlink:href="#DejaVuSans-20" x="83.789062"/>
      <use xlink:href="#DejaVuSans-44" x="115.576172"/>
      <use xlink:href="#DejaVuSans-69" x="192.578125"/>
      <use xlink:href="#DejaVuSans-73" x="220.361328"/>
      <use xlink:href="#DejaVuSans-61" x="272.460938"/>
      <use xlink:href="#DejaVuSans-67" x="333.740234"/>
      <use xlink:href="#DejaVuSans-72" x="397.216797"/>
      <use xlink:href="#DejaVuSans-65" x="436.080078"/>
      <use xlink:href="#DejaVuSans-65" x="497.603516"/>
      <use xlink:href="#DejaVuSans-6d" x="559.126953"/>
      <use xlink:href="#DejaVuSans-65" x="656.539062"/>
      <use xlink:href="#DejaVuSans-6e" x="718.0625"/>
      <use xlink:href="#DejaVuSans-74" x="781.441406"/>
      <use xlink:href="#DejaVuSans-20" x="820.650391"/>
      <use xlink:href="#DejaVuSans-2014" x="852.4375"/>
      <use xlink:href="#DejaVuSans-20" x="952.4375"/>
      <use xlink:href="#DejaVuSans-4e" x="984.224609"/>
      <use xlink:href="#DejaVuSans-65" x="1059.029297"/>
      <use xlink:href="#DejaVuSans-75" x="1120.552734"/>
      <use xlink:href="#DejaVuSans-74" x="1183.931641"/>
      <use xlink:href="#DejaVuSans-72" x="1223.140625"/>
      <use xlink:href="#DejaVuSans-61" x="1264.253906"/>
      <use xlink:href="#DejaVuSans-6c" x="1325.533203"/>
      <use xlink:href="#DejaVuSans-20" x="1353.316406"/>
      <use xlink:href="#DejaVuSans-2014" x="1385.103516"/>
      <use xlink:href="#DejaVuSans-20" x="1485.103516"/>
      <use xlink:href="#DejaVuSans-41" x="1516.890625"/>
      <use xlink:href="#DejaVuSans-67" x="1585.298828"/>
      <use xlink:href="#DejaVuSans-72" x="1648.775391"/>
      <use xlink:href="#DejaVuSans-65" x="1687.638672"/>
      <use xlink:href="#DejaVuSans-65" x="1749.162109"/>
      <use xlink:href="#DejaVuSans-6d" x="1810.685547"/>
      <use xlink:href="#DejaVuSans-65" x="1908.097656"/>
      <use xlink:href="#DejaVuSans-6e" x="1969.621094"/>
      <use xlink:href="#DejaVuSans-74" x="2033"/>
      <use xlink:href="#DejaVuSans-20" x="2072.208984"/>
      <use xlink:href="#DejaVuSans-2192" x="2103.996094"/>
     </g>
    </g>
   </g>
   <g id="matplotlib.axis_2">
    <g id="ytick_1">
     <g id="line2d_6">
      <defs>
       <path id="m01b15a3b13" d="M 0 0 
L -3.5 0 
" style="stroke: #000000; stroke-width: 0.8"/>
      </defs>
      <g>
       <use xlink:href="#m01b15a3b13" x="46.965625" y="268.078875" style="stroke: #000000; stroke-width: 0.8"/>
      </g>
     </g>
     <g id="text_7">
      <!-- 0 -->
      <g transform="translate(33.603125 271.878094) scale(0.1 -0.1)">
       <defs>
        <path id="DejaVuSans-30" d="M 2034 4250 
Q 1547 4250 1301 3770 
Q 1056 3291 1056 2328 
Q 1056 1369 1301 889 
Q 1547 409 2034 409 
Q 2525 409 2770 889 
Q 3016 1369 3016 2328 
Q 3016 3291 2770 3770 
Q 2525 4250 2034 4250 
z
M 2034 4750 
Q 2819 4750 3233 4129 
Q 3647 3509 3647 2328 
Q 3647 1150 3233 529 
Q 2819 -91 2034 -91 
Q 1250 -91 836 529 
Q 422 1150 422 2328 
Q 422 3509 836 4129 
Q 1250 4750 2034 4750 
z
" transform="scale(0.015625)"/>
       </defs>
       <use xlink:href="#DejaVuSans-30"/>
      </g>
     </g>
    </g>
    <g id="ytick_2">
     <g id="line2d_7">
      <g>
       <use xlink:href="#m01b15a3b13" x="46.965625" y="239.433042" style="stroke: #000000; stroke-width: 0.8"/>
      </g>
     </g>
     <g id="text_8">
      <!-- 25 -->
      <g transform="translate(27.240625 243.23226) scale(0.1 -0.1)">
       <use xlink:href="#DejaVuSans-32"/>
       <use xlink:href="#DejaVuSans-35" x="63.623047"/>
      </g>
     </g>
    </g>
    <g id="ytick_3">
     <g id="line2d_8">
      <g>
       <use xlink:href="#m01b15a3b13" x="46.965625" y="210.787208" style="stroke: #000000; stroke-width: 0.8"/>
      </g>
     </g>
     <g id="text_9">
      <!-- 50 -->
      <g transform="translate(27.240625 214.586427) scale(0.1 -0.1)">
       <use xlink:href="#DejaVuSans-35"/>
       <use xlink:href="#DejaVuSans-30" x="63.623047"/>
      </g>
     </g>
    </g>
    <g id="ytick_4">
     <g id="line2d_9">
      <g>
       <use xlink:href="#m01b15a3b13" x="46.965625" y="182.141375" style="stroke: #000000; stroke-width: 0.8"/>
      </g>
     </g>
     <g id="text_10">
      <!-- 75 -->
      <g transform="translate(27.240625 185.940594) scale(0.1 -0.1)">
       <defs>
        <path id="DejaVuSans-37" d="M 525 4666 
L 3525 4666 
L 3525 4397 
L 1831 0 
L 1172 0 
L 2766 4134 
L 525 4134 
L 525 4666 
z
" transform="scale(0.015625)"/>
       </defs>
       <use xlink:href="#DejaVuSans-37"/>
       <use xlink:href="#DejaVuSans-35" x="63.623047"/>
      </g>
     </g>
    </g>
    <g id="ytick_5">
     <g id="line2d_10">
      <g>
       <use xlink:href="#m01b15a3b13" x="46.965625" y="153.495542" style="stroke: #000000; stroke-width: 0.8"/>
      </g>
     </g>
     <g id="text_11">
      <!-- 100 -->
      <g transform="translate(20.878125 157.29476) scale(0.1 -0.1)">
       <use xlink:href="#DejaVuSans-31"/>
       <use xlink:href="#DejaVuSans-30" x="63.623047"/>
       <use xlink:href="#DejaVuSans-30" x="127.246094"/>
      </g>
     </g>
    </g>
    <g id="ytick_6">
     <g id="line2d_11">
      <g>
       <use xlink:href="#m01b15a3b13" x="46.965625" y="124.849708" style="stroke: #000000; stroke-width: 0.8"/>
      </g>
     </g>
     <g id="text_12">
      <!-- 125 -->
      <g transform="translate(20.878125 128.648927) scale(0.1 -0.1)">
       <use xlink:href="#DejaVuSans-31"/>
       <use xlink:href="#DejaVuSans-32" x="63.623047"/>
       <use xlink:href="#DejaVuSans-35" x="127.246094"/>
      </g>
     </g>
    </g>
    <g id="ytick_7">
     <g id="line2d_12">
      <g>
       <use xlink:href="#m01b15a3b13" x="46.965625" y="96.203875" style="stroke: #000000; stroke-width: 0.8"/>
      </g>
     </g>
     <g id="text_13">
      <!-- 150 -->
      <g transform="translate(20.878125 100.003094) scale(0.1 -0.1)">
       <use xlink:href="#DejaVuSans-31"/>
       <use xlink:href="#DejaVuSans-35" x="63.623047"/>
       <use xlink:href="#DejaVuSans-30" x="127.246094"/>
      </g>
     </g>
    </g>
    <g id="ytick_8">
     <g id="line2d_13">
      <g>
       <use xlink:href="#m01b15a3b13" x="46.965625" y="67.558042" style="stroke: #000000; stroke-width: 0.8"/>
      </g>
     </g>
     <g id="text_14">
      <!-- 175 -->
      <g transform="translate(20.878125 71.35726) scale(0.1 -0.1)">
       <use xlink:href="#DejaVuSans-31"/>
       <use xlink:href="#DejaVuSans-37" x="63.623047"/>
       <use xlink:href="#DejaVuSans-35" x="127.246094"/>
      </g>
     </g>
    </g>
    <g id="ytick_9">
     <g id="line2d_14">
      <g>
       <use xlink:href="#m01b15a3b13" x="46.965625" y="38.912208" style="stroke: #000000; stroke-width: 0.8"/>
      </g>
     </g>
     <g id="text_15">
      <!-- 200 -->
      <g transform="translate(20.878125 42.711427) scale(0.1 -0.1)">
       <use xlink:href="#DejaVuSans-32"/>
       <use xlink:href="#DejaVuSans-30" x="63.623047"/>
       <use xlink:href="#DejaVuSans-30" x="127.246094"/>
      </g>
     </g>
    </g>
    <g id="text_16">
     <!-- Frequency -->
     <g transform="translate(14.798438 178.408562) rotate(-90) scale(0.1 -0.1)">
      <defs>
       <path id="DejaVuSans-46" d="M 628 4666 
L 3309 4666 
L 3309 4134 
L 1259 4134 
L 1259 2759 
L 3109 2759 
L 3109 2228 
L 1259 2228 
L 1259 0 
L 628 0 
L 628 4666 
z
" transform="scale(0.015625)"/>
       <path id="DejaVuSans-71" d="M 947 1747 
Q 947 1113 1208 752 
Q 1469 391 1925 391 
Q 2381 391 2643 752 
Q 2906 1113 2906 1747 
Q 2906 2381 2643 2742 
Q 2381 3103 1925 3103 
Q 1469 3103 1208 2742 
Q 947 2381 947 1747 
z
M 2906 525 
Q 2725 213 2448 61 
Q 2172 -91 1784 -91 
Q 1150 -91 751 415 
Q 353 922 353 1747 
Q 353 2572 751 3078 
Q 1150 3584 1784 3584 
Q 2172 3584 2448 3432 
Q 2725 3281 2906 2969 
L 2906 3500 
L 3481 3500 
L 3481 -1331 
L 2906 -1331 
L 2906 525 
z
" transform="scale(0.015625)"/>
       <path id="DejaVuSans-63" d="M 3122 3366 
L 3122 2828 
Q 2878 2963 2633 3030 
Q 2388 3097 2138 3097 
Q 1578 3097 1268 2742 
Q 959 2388 959 1747 
Q 959 1106 1268 751 
Q 1578 397 2138 397 
Q 2388 397 2633 464 
Q 2878 531 3122 666 
L 3122 134 
Q 2881 22 2623 -34 
Q 2366 -91 2075 -91 
Q 1284 -91 818 406 
Q 353 903 353 1747 
Q 353 2603 823 3093 
Q 1294 3584 2113 3584 
Q 2378 3584 2631 3529 
Q 2884 3475 3122 3366 
z
" transform="scale(0.015625)"/>
       <path id="DejaVuSans-79" d="M 2059 -325 
Q 1816 -950 1584 -1140 
Q 1353 -1331 966 -1331 
L 506 -1331 
L 506 -850 
L 844 -850 
Q 1081 -850 1212 -737 
Q 1344 -625 1503 -206 
L 1606 56 
L 191 3500 
L 800 3500 
L 1894 763 
L 2988 3500 
L 3597 3500 
L 2059 -325 
z
" transform="scale(0.015625)"/>
      </defs>
      <use xlink:href="#DejaVuSans-46"/>
      <use xlink:href="#DejaVuSans-72" x="50.269531"/>
      <use xlink:href="#DejaVuSans-65" x="89.132812"/>
      <use xlink:href="#DejaVuSans-71" x="150.65625"/>
      <use xlink:href="#DejaVuSans-75" x="214.132812"/>
      <use xlink:href="#DejaVuSans-65" x="277.511719"/>
      <use xlink:href="#DejaVuSans-6e" x="339.035156"/>
      <use xlink:href="#DejaVuSans-63" x="402.414062"/>
      <use xlink:href="#DejaVuSans-79" x="457.394531"/>
     </g>
    </g>
   </g>
   <g id="patch_8">
    <path d="M 46.965625 268.078875 
L 46.965625 37.078875 
" style="fill: none; stroke: #000000; stroke-width: 0.8; stroke-linejoin: miter; stroke-linecap: square"/>
   </g>
   <g id="patch_9">
    <path d="M 427.42017 268.078875 
L 427.42017 37.078875 
" style="fill: none; stroke: #000000; stroke-width: 0.8; stroke-linejoin: miter; stroke-linecap: square"/>
   </g>
   <g id="patch_10">
    <path d="M 46.965625 268.078875 
L 427.42017 268.078875 
" style="fill: none; stroke: #000000; stroke-width: 0.8; stroke-linejoin: miter; stroke-linecap: square"/>
   </g>
   <g id="patch_11">
    <path d="M 46.965625 37.078875 
L 427.42017 37.078875 
" style="fill: none; stroke: #000000; stroke-width: 0.8; stroke-linejoin: miter; stroke-linecap: square"/>
   </g>
   <g id="text_17">
    <!-- 你/妳會每天都用AI嗎？ -->
    <g transform="translate(175.83071 16.72875) scale(0.12 -0.12)">
     <defs>
      <path id="NotoSansTC-Thin-4f60" d="M 3072 5280 
L 3264 5242 
Q 3149 4730 2992 4243 
Q 2835 3757 2640 3331 
Q 2445 2906 2208 2573 
Q 2195 2586 2166 2608 
Q 2138 2630 2106 2652 
Q 2074 2675 2048 2688 
Q 2285 3008 2477 3424 
Q 2669 3840 2819 4313 
Q 2970 4787 3072 5280 
z
M 3034 2701 
L 3226 2662 
Q 3117 2227 2960 1820 
Q 2803 1414 2617 1062 
Q 2432 710 2221 435 
Q 2202 448 2170 470 
Q 2138 493 2106 512 
Q 2074 531 2048 544 
Q 2374 947 2624 1513 
Q 2874 2080 3034 2701 
z
M 2810 3994 
L 5946 3994 
L 5946 3808 
L 2733 3808 
L 2810 3994 
z
M 4064 3942 
L 4256 3942 
L 4256 -141 
Q 4256 -269 4214 -329 
Q 4173 -390 4083 -416 
Q 3994 -442 3808 -448 
Q 3622 -454 3334 -454 
Q 3322 -416 3299 -358 
Q 3277 -301 3251 -256 
Q 3507 -262 3702 -262 
Q 3898 -262 3962 -256 
Q 4019 -256 4041 -233 
Q 4064 -211 4064 -147 
L 4064 3942 
z
M 4954 2675 
L 5126 2726 
Q 5331 2381 5510 1984 
Q 5690 1587 5827 1203 
Q 5965 819 6029 518 
L 5850 461 
Q 5786 762 5648 1146 
Q 5510 1530 5331 1930 
Q 5152 2330 4954 2675 
z
M 5869 3994 
L 5901 3994 
L 5946 4006 
L 6067 3962 
Q 5997 3648 5920 3299 
Q 5843 2950 5779 2720 
L 5613 2758 
Q 5651 2912 5696 3113 
Q 5741 3315 5785 3536 
Q 5830 3757 5869 3955 
L 5869 3994 
z
M 1862 5293 
L 2048 5242 
Q 1837 4704 1555 4192 
Q 1274 3680 950 3235 
Q 627 2790 282 2438 
Q 269 2458 246 2486 
Q 224 2515 198 2547 
Q 173 2579 147 2592 
Q 493 2925 809 3357 
Q 1126 3789 1398 4285 
Q 1670 4781 1862 5293 
z
M 1152 3763 
L 1325 3942 
L 1338 3936 
L 1338 -435 
L 1152 -435 
L 1152 3763 
z
" transform="scale(0.015625)"/>
      <path id="NotoSansTC-Thin-2f" d="M 58 -1126 
L 2298 5005 
L 2515 5005 
L 282 -1126 
L 58 -1126 
z
" transform="scale(0.015625)"/>
      <path id="NotoSansTC-Thin-59b3" d="M 5120 2861 
L 5293 2912 
Q 5459 2579 5616 2198 
Q 5773 1818 5901 1456 
Q 6029 1094 6093 806 
L 5907 749 
Q 5843 1037 5718 1401 
Q 5594 1766 5437 2147 
Q 5280 2528 5120 2861 
z
M 3610 5312 
L 3795 5280 
Q 3693 4813 3552 4381 
Q 3411 3949 3232 3574 
Q 3053 3200 2835 2912 
Q 2816 2925 2784 2944 
Q 2752 2963 2720 2979 
Q 2688 2995 2662 3008 
Q 2995 3437 3232 4041 
Q 3469 4646 3610 5312 
z
M 3411 4250 
L 5901 4250 
L 5901 4058 
L 3322 4058 
L 3411 4250 
z
M 3590 2886 
L 3782 2848 
Q 3661 2259 3469 1715 
Q 3277 1171 3034 787 
Q 3014 800 2982 819 
Q 2950 838 2918 854 
Q 2886 870 2854 883 
Q 3117 1267 3299 1792 
Q 3482 2317 3590 2886 
z
M 4365 4166 
L 4557 4166 
L 4557 -102 
Q 4557 -230 4515 -291 
Q 4474 -352 4371 -384 
Q 4282 -410 4083 -413 
Q 3885 -416 3571 -416 
Q 3565 -384 3539 -323 
Q 3514 -262 3488 -218 
Q 3770 -224 3978 -227 
Q 4186 -230 4250 -224 
Q 4320 -218 4342 -192 
Q 4365 -166 4365 -102 
L 4365 4166 
z
M 5843 4250 
L 5875 4250 
L 5920 4262 
L 6042 4211 
Q 5958 3898 5856 3555 
Q 5754 3213 5645 2989 
L 5478 3034 
Q 5587 3258 5683 3581 
Q 5779 3904 5843 4192 
L 5843 4250 
z
M 525 1792 
L 646 1920 
Q 896 1747 1155 1539 
Q 1414 1331 1654 1116 
Q 1894 902 2092 700 
Q 2291 499 2419 326 
L 2298 179 
Q 2163 352 1961 557 
Q 1760 762 1520 979 
Q 1280 1197 1024 1408 
Q 768 1619 525 1792 
z
M 525 1792 
Q 621 2112 726 2547 
Q 832 2982 928 3462 
Q 1024 3942 1104 4419 
Q 1184 4896 1229 5299 
L 1414 5286 
Q 1363 4870 1283 4390 
Q 1203 3910 1104 3430 
Q 1005 2950 902 2518 
Q 800 2086 704 1766 
L 525 1792 
z
M 2093 4403 
L 2278 4403 
L 2278 3616 
Q 2278 3149 2227 2633 
Q 2176 2118 1993 1584 
Q 1811 1050 1436 534 
Q 1062 19 410 -448 
Q 397 -429 371 -406 
Q 346 -384 320 -361 
Q 294 -339 269 -326 
Q 909 128 1277 633 
Q 1645 1139 1821 1654 
Q 1997 2170 2045 2669 
Q 2093 3168 2093 3616 
L 2093 4403 
z
M 282 3750 
Q 582 3763 972 3782 
Q 1363 3802 1808 3824 
Q 2253 3846 2707 3872 
L 2701 3686 
Q 2042 3654 1414 3619 
Q 787 3584 314 3552 
L 282 3750 
z
" transform="scale(0.015625)"/>
      <path id="NotoSansTC-Thin-6703" d="M 1306 3302 
L 1306 2182 
L 5094 2182 
L 5094 3302 
L 1306 3302 
z
M 1120 3488 
L 5280 3488 
L 5280 1997 
L 1120 1997 
L 1120 3488 
z
M 2118 4109 
L 4326 4109 
L 4326 3923 
L 2118 3923 
L 2118 4109 
z
M 3098 3411 
L 3290 3411 
L 3290 2086 
L 3098 2086 
L 3098 3411 
z
M 1856 3059 
L 2022 3149 
Q 2182 2976 2323 2761 
Q 2464 2547 2528 2381 
L 2355 2278 
Q 2298 2445 2157 2662 
Q 2016 2880 1856 3059 
z
M 4352 3174 
L 4538 3066 
Q 4422 2861 4288 2643 
Q 4154 2426 4038 2272 
L 3891 2362 
Q 4000 2528 4137 2765 
Q 4275 3002 4352 3174 
z
M 1523 1594 
L 4973 1594 
L 4973 -422 
L 4787 -422 
L 4787 1408 
L 1715 1408 
L 1715 -442 
L 1523 -442 
L 1523 1594 
z
M 1651 806 
L 4877 806 
L 4877 614 
L 1651 614 
L 1651 806 
z
M 1658 0 
L 4883 0 
L 4883 -186 
L 1658 -186 
L 1658 0 
z
M 3238 5312 
L 3411 5242 
Q 3091 4813 2614 4467 
Q 2138 4122 1584 3856 
Q 1030 3590 467 3398 
Q 454 3418 428 3450 
Q 403 3482 374 3510 
Q 346 3539 320 3558 
Q 896 3731 1449 3987 
Q 2003 4243 2467 4576 
Q 2931 4909 3238 5312 
z
M 3290 5165 
Q 3520 4909 3846 4672 
Q 4173 4435 4553 4230 
Q 4934 4026 5337 3866 
Q 5741 3706 6118 3603 
Q 6080 3578 6045 3530 
Q 6010 3482 5984 3437 
Q 5613 3546 5209 3715 
Q 4806 3885 4416 4102 
Q 4026 4320 3693 4566 
Q 3360 4813 3117 5075 
L 3290 5165 
z
" transform="scale(0.015625)"/>
      <path id="NotoSansTC-Thin-6bcf" d="M 1594 3622 
L 5158 3622 
L 5158 3430 
L 1594 3430 
L 1594 3622 
z
M 1120 563 
L 5920 563 
L 5920 378 
L 1120 378 
L 1120 563 
z
M 1485 4602 
L 5894 4602 
L 5894 4416 
L 1485 4416 
L 1485 4602 
z
M 5075 3622 
L 5261 3622 
Q 5261 3622 5261 3593 
Q 5261 3565 5257 3533 
Q 5254 3501 5254 3482 
Q 5222 2483 5187 1798 
Q 5152 1114 5107 688 
Q 5062 262 5001 32 
Q 4941 -198 4864 -294 
Q 4794 -378 4704 -410 
Q 4614 -442 4486 -448 
Q 4365 -448 4144 -441 
Q 3923 -435 3693 -416 
Q 3686 -378 3676 -326 
Q 3667 -275 3642 -237 
Q 3910 -256 4140 -262 
Q 4371 -269 4461 -269 
Q 4550 -269 4601 -253 
Q 4653 -237 4698 -186 
Q 4768 -109 4822 121 
Q 4877 352 4921 784 
Q 4966 1216 5004 1901 
Q 5043 2586 5075 3571 
L 5075 3622 
z
M 1491 3622 
L 1683 3622 
Q 1632 3245 1571 2803 
Q 1510 2362 1443 1914 
Q 1376 1466 1309 1069 
Q 1242 672 1184 384 
L 992 384 
Q 1056 685 1123 1085 
Q 1190 1485 1260 1933 
Q 1331 2381 1388 2819 
Q 1446 3258 1491 3622 
z
M 1811 5350 
L 2003 5299 
Q 1811 4864 1568 4448 
Q 1325 4032 1053 3670 
Q 781 3309 493 3027 
Q 474 3040 442 3062 
Q 410 3085 378 3110 
Q 346 3136 320 3149 
Q 621 3418 896 3773 
Q 1171 4128 1404 4531 
Q 1638 4934 1811 5350 
z
M 2502 3110 
L 2630 3245 
Q 2867 3142 3113 3008 
Q 3360 2874 3574 2733 
Q 3789 2592 3923 2458 
L 3795 2310 
Q 3661 2438 3446 2585 
Q 3232 2733 2985 2870 
Q 2739 3008 2502 3110 
z
M 2259 1626 
L 2381 1760 
Q 2637 1638 2902 1475 
Q 3168 1312 3398 1145 
Q 3629 979 3770 832 
L 3654 672 
Q 3507 819 3276 992 
Q 3046 1165 2780 1331 
Q 2515 1498 2259 1626 
z
M 326 2106 
L 1370 2106 
L 1370 2106 
L 5120 2106 
L 5120 2106 
L 6093 2106 
L 6093 1920 
L 5120 1920 
L 5120 1920 
L 1370 1920 
L 1370 1920 
L 326 1920 
L 326 2106 
z
" transform="scale(0.015625)"/>
      <path id="NotoSansTC-Thin-5929" d="M 3341 2682 
Q 3661 1581 4361 797 
Q 5062 13 6099 -314 
Q 6080 -333 6054 -358 
Q 6029 -384 6006 -413 
Q 5984 -442 5971 -467 
Q 5280 -230 4733 208 
Q 4186 646 3795 1260 
Q 3405 1875 3174 2630 
L 3341 2682 
z
M 653 4755 
L 5709 4755 
L 5709 4570 
L 653 4570 
L 653 4755 
z
M 442 2746 
L 6003 2746 
L 6003 2560 
L 442 2560 
L 442 2746 
z
M 3072 4691 
L 3264 4691 
L 3264 3706 
Q 3264 3309 3219 2877 
Q 3174 2445 3027 2006 
Q 2880 1568 2576 1136 
Q 2272 704 1760 301 
Q 1248 -102 474 -461 
Q 461 -435 438 -409 
Q 416 -384 393 -358 
Q 371 -333 346 -314 
Q 1107 32 1609 425 
Q 2112 819 2406 1235 
Q 2701 1651 2845 2073 
Q 2989 2496 3030 2909 
Q 3072 3322 3072 3706 
L 3072 4691 
z
" transform="scale(0.015625)"/>
      <path id="NotoSansTC-Thin-90fd" d="M 621 4506 
L 2886 4506 
L 2886 4314 
L 621 4314 
L 621 4506 
z
M 1203 211 
L 3187 211 
L 3187 19 
L 1203 19 
L 1203 211 
z
M 1197 1312 
L 3181 1312 
L 3181 1126 
L 1197 1126 
L 1197 1312 
z
M 314 3302 
L 3654 3302 
L 3654 3110 
L 314 3110 
L 314 3302 
z
M 1754 5261 
L 1939 5261 
L 1939 3200 
L 1754 3200 
L 1754 5261 
z
M 3462 5158 
L 3642 5094 
Q 3078 3955 2233 3088 
Q 1389 2221 358 1645 
Q 346 1664 314 1689 
Q 282 1715 253 1744 
Q 224 1773 198 1786 
Q 1254 2336 2096 3197 
Q 2938 4058 3462 5158 
z
M 1254 2342 
L 3168 2342 
L 3168 2157 
L 1254 2157 
L 1254 -403 
L 1069 -403 
L 1069 2221 
L 1184 2342 
L 1254 2342 
z
M 3098 2342 
L 3296 2342 
L 3296 -314 
L 3098 -314 
L 3098 2342 
z
M 3994 4941 
L 5933 4941 
L 5933 4755 
L 4192 4755 
L 4192 -454 
L 3994 -454 
L 3994 4941 
z
M 5875 4941 
L 5914 4941 
L 5952 4954 
L 6086 4858 
Q 5856 4410 5568 3885 
Q 5280 3360 4998 2899 
Q 5408 2592 5632 2313 
Q 5856 2035 5949 1782 
Q 6042 1530 6042 1280 
Q 6048 1043 5981 848 
Q 5914 653 5747 550 
Q 5594 461 5338 429 
Q 5197 416 5021 419 
Q 4845 422 4691 429 
Q 4685 474 4665 528 
Q 4646 582 4614 627 
Q 4800 608 4982 605 
Q 5165 602 5286 614 
Q 5389 621 5475 643 
Q 5562 666 5626 704 
Q 5760 781 5808 937 
Q 5856 1094 5850 1280 
Q 5850 1626 5616 2010 
Q 5382 2394 4762 2861 
Q 4922 3123 5078 3395 
Q 5235 3667 5379 3929 
Q 5523 4192 5648 4441 
Q 5773 4691 5875 4902 
L 5875 4941 
z
" transform="scale(0.015625)"/>
      <path id="NotoSansTC-Thin-7528" d="M 1158 4845 
L 5510 4845 
L 5510 4653 
L 1158 4653 
L 1158 4845 
z
M 1158 3334 
L 5478 3334 
L 5478 3142 
L 1158 3142 
L 1158 3334 
z
M 1101 1786 
L 5478 1786 
L 5478 1600 
L 1101 1600 
L 1101 1786 
z
M 1056 4845 
L 1242 4845 
L 1242 2502 
Q 1242 2157 1213 1766 
Q 1184 1376 1101 979 
Q 1018 582 851 211 
Q 685 -160 403 -480 
Q 390 -454 364 -428 
Q 339 -403 313 -380 
Q 288 -358 262 -346 
Q 531 -38 691 317 
Q 851 672 928 1046 
Q 1005 1421 1030 1792 
Q 1056 2163 1056 2502 
L 1056 4845 
z
M 5395 4845 
L 5581 4845 
L 5581 -45 
Q 5581 -205 5526 -281 
Q 5472 -358 5344 -390 
Q 5222 -416 4944 -419 
Q 4666 -422 4192 -416 
Q 4186 -384 4160 -326 
Q 4134 -269 4109 -224 
Q 4378 -230 4608 -230 
Q 4838 -230 4998 -227 
Q 5158 -224 5222 -224 
Q 5318 -218 5356 -182 
Q 5395 -147 5395 -51 
L 5395 4845 
z
M 3104 4787 
L 3296 4787 
L 3296 -410 
L 3104 -410 
L 3104 4787 
z
" transform="scale(0.015625)"/>
      <path id="NotoSansTC-Thin-41" d="M 70 0 
L 1728 4646 
L 1939 4646 
L 3603 0 
L 3347 0 
L 2381 2784 
Q 2234 3206 2106 3587 
Q 1978 3968 1850 4403 
L 1824 4403 
Q 1696 3968 1565 3587 
Q 1434 3206 1286 2784 
L 307 0 
L 70 0 
z
M 787 1651 
L 787 1856 
L 2861 1856 
L 2861 1651 
L 787 1651 
z
" transform="scale(0.015625)"/>
      <path id="NotoSansTC-Thin-49" d="M 704 0 
L 704 4646 
L 941 4646 
L 941 0 
L 704 0 
z
" transform="scale(0.015625)"/>
      <path id="NotoSansTC-Thin-55ce" d="M 640 4653 
L 2099 4653 
L 2099 1434 
L 640 1434 
L 640 1619 
L 1907 1619 
L 1907 4467 
L 640 4467 
L 640 4653 
z
M 531 4653 
L 717 4653 
L 717 762 
L 531 762 
L 531 4653 
z
M 2765 3974 
L 5651 3974 
L 5651 3789 
L 2765 3789 
L 2765 3974 
z
M 2765 2970 
L 5651 2970 
L 5651 2778 
L 2765 2778 
L 2765 2970 
z
M 2669 1939 
L 5805 1939 
L 5805 1754 
L 2669 1754 
L 2669 1939 
z
M 2669 4979 
L 5722 4979 
L 5722 4794 
L 2854 4794 
L 2854 1837 
L 2669 1837 
L 2669 4979 
z
M 4128 4947 
L 4314 4947 
L 4314 1843 
L 4128 1843 
L 4128 4947 
z
M 5734 1939 
L 5920 1939 
Q 5920 1939 5920 1891 
Q 5920 1843 5914 1811 
Q 5869 1082 5821 643 
Q 5773 205 5712 -22 
Q 5651 -250 5562 -339 
Q 5504 -403 5430 -425 
Q 5357 -448 5229 -454 
Q 5120 -454 4915 -448 
Q 4710 -442 4480 -429 
Q 4474 -390 4461 -339 
Q 4448 -288 4416 -243 
Q 4678 -269 4892 -275 
Q 5107 -282 5190 -282 
Q 5267 -282 5321 -272 
Q 5376 -262 5414 -218 
Q 5485 -147 5539 73 
Q 5594 294 5642 736 
Q 5690 1178 5734 1894 
L 5734 1939 
z
M 2669 1350 
L 2829 1299 
Q 2784 1056 2710 781 
Q 2637 506 2528 256 
Q 2419 6 2266 -173 
L 2112 -77 
Q 2266 90 2374 333 
Q 2483 576 2556 841 
Q 2630 1107 2669 1350 
z
M 3283 1267 
L 3456 1293 
Q 3552 1005 3600 665 
Q 3648 326 3642 83 
L 3450 58 
Q 3462 301 3417 637 
Q 3373 973 3283 1267 
z
M 3987 1318 
L 4147 1382 
Q 4288 1139 4409 844 
Q 4531 550 4582 339 
L 4403 262 
Q 4358 480 4240 777 
Q 4122 1075 3987 1318 
z
M 4691 1446 
L 4845 1523 
Q 4998 1331 5142 1094 
Q 5286 858 5350 685 
L 5190 589 
Q 5126 774 4985 1011 
Q 4845 1248 4691 1446 
z
" transform="scale(0.015625)"/>
      <path id="NotoSansTC-Thin-ff1f" d="M 2982 1446 
Q 2918 1728 2992 1952 
Q 3066 2176 3226 2361 
Q 3386 2547 3584 2710 
Q 3782 2874 3961 3034 
Q 4141 3194 4259 3370 
Q 4378 3546 4378 3750 
Q 4378 4000 4262 4211 
Q 4147 4422 3900 4547 
Q 3654 4672 3251 4672 
Q 2886 4672 2528 4515 
Q 2170 4358 1850 4019 
L 1690 4173 
Q 2016 4493 2377 4685 
Q 2739 4877 3264 4877 
Q 3706 4877 4006 4726 
Q 4307 4576 4464 4326 
Q 4621 4077 4621 3763 
Q 4621 3514 4502 3315 
Q 4384 3117 4201 2947 
Q 4019 2778 3820 2618 
Q 3622 2458 3459 2285 
Q 3296 2112 3219 1910 
Q 3142 1709 3200 1446 
L 2982 1446 
z
M 3110 0 
Q 3014 0 2934 67 
Q 2854 134 2854 269 
Q 2854 403 2934 483 
Q 3014 563 3110 563 
Q 3206 563 3286 483 
Q 3366 403 3366 269 
Q 3366 134 3286 67 
Q 3206 0 3110 0 
z
" transform="scale(0.015625)"/>
     </defs>
     <use xlink:href="#NotoSansTC-Thin-4f60"/>
     <use xlink:href="#NotoSansTC-Thin-2f" x="99.999985"/>
     <use xlink:href="#NotoSansTC-Thin-59b3" x="139.599976"/>
     <use xlink:href="#NotoSansTC-Thin-6703" x="239.59996"/>
     <use xlink:href="#NotoSansTC-Thin-6bcf" x="339.599945"/>
     <use xlink:href="#NotoSansTC-Thin-5929" x="439.59993"/>
     <use xlink:href="#NotoSansTC-Thin-90fd" x="539.599915"/>
     <use xlink:href="#NotoSansTC-Thin-7528" x="639.599899"/>
     <use xlink:href="#NotoSansTC-Thin-41" x="739.599884"/>
     <use xlink:href="#NotoSansTC-Thin-49" x="796.999878"/>
     <use xlink:href="#NotoSansTC-Thin-55ce" x="822.699875"/>
     <use xlink:href="#NotoSansTC-Thin-ff1f" x="922.69986"/>
    </g>
    <!-- Do you use AI every day? -->
    <g transform="translate(172.903835 31.078875) scale(0.12 -0.12)">
     <defs>
      <path id="NotoSansTC-Thin-44" d="M 704 0 
L 704 4646 
L 1747 4646 
Q 2470 4646 2931 4358 
Q 3392 4070 3613 3552 
Q 3834 3034 3834 2336 
Q 3834 1645 3613 1117 
Q 3392 589 2931 294 
Q 2470 0 1754 0 
L 704 0 
z
M 941 211 
L 1715 211 
Q 2374 211 2787 486 
Q 3200 762 3392 1245 
Q 3584 1728 3584 2336 
Q 3584 2950 3392 3424 
Q 3200 3898 2787 4166 
Q 2374 4435 1715 4435 
L 941 4435 
L 941 211 
z
" transform="scale(0.015625)"/>
      <path id="NotoSansTC-Thin-6f" d="M 1875 -83 
Q 1472 -83 1129 125 
Q 787 333 582 726 
Q 378 1120 378 1677 
Q 378 2246 582 2643 
Q 787 3040 1129 3248 
Q 1472 3456 1875 3456 
Q 2176 3456 2448 3337 
Q 2720 3219 2928 2992 
Q 3136 2765 3254 2432 
Q 3373 2099 3373 1677 
Q 3373 1120 3165 726 
Q 2957 333 2617 125 
Q 2278 -83 1875 -83 
z
M 1875 128 
Q 2234 128 2518 323 
Q 2803 518 2969 867 
Q 3136 1216 3136 1677 
Q 3136 2144 2969 2496 
Q 2803 2848 2518 3046 
Q 2234 3245 1875 3245 
Q 1517 3245 1232 3046 
Q 947 2848 784 2496 
Q 621 2144 621 1677 
Q 621 1216 784 867 
Q 947 518 1232 323 
Q 1517 128 1875 128 
z
" transform="scale(0.015625)"/>
      <path id="NotoSansTC-Thin-20" transform="scale(0.015625)"/>
      <path id="NotoSansTC-Thin-79" d="M 474 -1562 
Q 390 -1562 300 -1542 
Q 211 -1523 147 -1491 
L 205 -1280 
Q 256 -1306 333 -1322 
Q 410 -1338 486 -1338 
Q 806 -1338 1024 -1066 
Q 1242 -794 1382 -390 
L 1478 -77 
L 83 3373 
L 339 3373 
L 1190 1171 
Q 1274 954 1373 701 
Q 1472 448 1568 224 
L 1600 224 
Q 1683 448 1766 701 
Q 1850 954 1920 1171 
L 2675 3373 
L 2912 3373 
L 1568 -474 
Q 1485 -736 1337 -985 
Q 1190 -1235 979 -1398 
Q 768 -1562 474 -1562 
z
" transform="scale(0.015625)"/>
      <path id="NotoSansTC-Thin-75" d="M 1632 -83 
Q 1114 -83 864 230 
Q 614 544 614 1203 
L 614 3373 
L 845 3373 
L 845 1229 
Q 845 672 1033 400 
Q 1222 128 1651 128 
Q 1965 128 2224 304 
Q 2483 480 2797 851 
L 2797 3373 
L 3027 3373 
L 3027 0 
L 2829 0 
L 2803 576 
L 2790 576 
Q 2534 282 2259 99 
Q 1984 -83 1632 -83 
z
" transform="scale(0.015625)"/>
      <path id="NotoSansTC-Thin-73" d="M 1466 -83 
Q 1088 -83 774 54 
Q 461 192 237 378 
L 384 563 
Q 595 384 851 256 
Q 1107 128 1478 128 
Q 1901 128 2115 339 
Q 2330 550 2330 838 
Q 2330 1062 2202 1209 
Q 2074 1357 1878 1453 
Q 1683 1549 1485 1619 
Q 1229 1715 985 1824 
Q 742 1933 582 2112 
Q 422 2291 422 2579 
Q 422 2816 544 3014 
Q 666 3213 902 3334 
Q 1139 3456 1485 3456 
Q 1741 3456 1990 3360 
Q 2240 3264 2419 3110 
L 2285 2938 
Q 2118 3066 1926 3155 
Q 1734 3245 1472 3245 
Q 1056 3245 857 3043 
Q 659 2842 659 2592 
Q 659 2394 771 2262 
Q 883 2131 1065 2044 
Q 1248 1958 1446 1882 
Q 1651 1805 1849 1725 
Q 2048 1645 2208 1536 
Q 2368 1427 2467 1264 
Q 2566 1101 2566 851 
Q 2566 602 2438 387 
Q 2310 173 2067 45 
Q 1824 -83 1466 -83 
z
" transform="scale(0.015625)"/>
      <path id="NotoSansTC-Thin-65" d="M 1920 -83 
Q 1498 -83 1146 128 
Q 794 339 586 732 
Q 378 1126 378 1677 
Q 378 2093 496 2419 
Q 614 2746 822 2979 
Q 1030 3213 1289 3334 
Q 1549 3456 1830 3456 
Q 2221 3456 2505 3277 
Q 2790 3098 2947 2749 
Q 3104 2400 3104 1901 
Q 3104 1850 3104 1795 
Q 3104 1741 3091 1670 
L 621 1670 
Q 621 1229 784 880 
Q 947 531 1241 329 
Q 1536 128 1933 128 
Q 2221 128 2445 211 
Q 2669 294 2861 435 
L 2963 237 
Q 2771 122 2534 19 
Q 2298 -83 1920 -83 
z
M 621 1882 
L 2880 1882 
Q 2880 2566 2592 2905 
Q 2304 3245 1830 3245 
Q 1530 3245 1267 3081 
Q 1005 2918 832 2614 
Q 659 2310 621 1882 
z
" transform="scale(0.015625)"/>
      <path id="NotoSansTC-Thin-76" d="M 1363 0 
L 83 3373 
L 339 3373 
L 1133 1197 
Q 1222 954 1312 707 
Q 1402 461 1485 237 
L 1510 237 
Q 1600 461 1689 707 
Q 1779 954 1862 1197 
L 2662 3373 
L 2899 3373 
L 1638 0 
L 1363 0 
z
" transform="scale(0.015625)"/>
      <path id="NotoSansTC-Thin-72" d="M 672 0 
L 672 3373 
L 864 3373 
L 902 2739 
L 915 2739 
Q 1082 3046 1325 3251 
Q 1568 3456 1869 3456 
Q 1958 3456 2035 3443 
Q 2112 3430 2195 3386 
L 2138 3174 
Q 2054 3206 1996 3219 
Q 1939 3232 1837 3232 
Q 1613 3232 1357 3030 
Q 1101 2829 902 2330 
L 902 0 
L 672 0 
z
" transform="scale(0.015625)"/>
      <path id="NotoSansTC-Thin-64" d="M 1773 -83 
Q 1350 -83 1036 118 
Q 723 320 550 713 
Q 378 1107 378 1677 
Q 378 2221 586 2621 
Q 794 3021 1136 3238 
Q 1478 3456 1888 3456 
Q 2195 3456 2432 3347 
Q 2669 3238 2925 3034 
L 2906 3667 
L 2906 5082 
L 3136 5082 
L 3136 0 
L 2944 0 
L 2912 448 
L 2899 448 
Q 2688 237 2406 77 
Q 2125 -83 1773 -83 
z
M 1792 128 
Q 2086 128 2358 281 
Q 2630 435 2906 710 
L 2906 2784 
Q 2630 3034 2384 3139 
Q 2138 3245 1875 3245 
Q 1523 3245 1238 3033 
Q 954 2822 787 2467 
Q 621 2112 621 1677 
Q 621 1216 758 867 
Q 896 518 1158 323 
Q 1421 128 1792 128 
z
" transform="scale(0.015625)"/>
      <path id="NotoSansTC-Thin-61" d="M 1395 -83 
Q 1133 -83 912 13 
Q 691 109 556 310 
Q 422 512 422 832 
Q 422 1395 953 1686 
Q 1485 1978 2624 2106 
Q 2637 2381 2576 2640 
Q 2515 2899 2336 3072 
Q 2157 3245 1805 3245 
Q 1446 3245 1158 3104 
Q 870 2963 704 2835 
L 589 3021 
Q 698 3098 880 3200 
Q 1062 3302 1302 3379 
Q 1542 3456 1818 3456 
Q 2214 3456 2441 3280 
Q 2669 3104 2761 2816 
Q 2854 2528 2854 2182 
L 2854 0 
L 2662 0 
L 2630 448 
L 2611 448 
Q 2355 237 2044 77 
Q 1734 -83 1395 -83 
z
M 1414 128 
Q 1715 128 2003 272 
Q 2291 416 2624 698 
L 2624 1907 
Q 1894 1830 1462 1686 
Q 1030 1542 844 1334 
Q 659 1126 659 838 
Q 659 448 883 288 
Q 1107 128 1414 128 
z
" transform="scale(0.015625)"/>
      <path id="NotoSansTC-Thin-3f" d="M 1152 1216 
Q 1107 1574 1196 1852 
Q 1286 2131 1446 2358 
Q 1606 2586 1776 2797 
Q 1946 3008 2064 3232 
Q 2182 3456 2182 3731 
Q 2182 3955 2092 4150 
Q 2003 4346 1820 4470 
Q 1638 4595 1344 4595 
Q 1082 4595 832 4476 
Q 582 4358 403 4134 
L 256 4269 
Q 454 4493 726 4649 
Q 998 4806 1357 4806 
Q 1696 4806 1933 4662 
Q 2170 4518 2294 4278 
Q 2419 4038 2419 3744 
Q 2419 3450 2300 3210 
Q 2182 2970 2009 2752 
Q 1837 2534 1673 2304 
Q 1510 2074 1414 1811 
Q 1318 1549 1363 1216 
L 1152 1216 
z
M 1286 -83 
Q 1184 -83 1107 -9 
Q 1030 64 1030 192 
Q 1030 333 1107 406 
Q 1184 480 1286 480 
Q 1389 480 1469 406 
Q 1549 333 1549 192 
Q 1549 64 1469 -9 
Q 1389 -83 1286 -83 
z
" transform="scale(0.015625)"/>
     </defs>
     <use xlink:href="#NotoSansTC-Thin-44"/>
     <use xlink:href="#NotoSansTC-Thin-6f" x="66.099991"/>
     <use xlink:href="#NotoSansTC-Thin-20" x="124.699982"/>
     <use xlink:href="#NotoSansTC-Thin-79" x="146.699966"/>
     <use xlink:href="#NotoSansTC-Thin-6f" x="193.499954"/>
     <use xlink:href="#NotoSansTC-Thin-75" x="252.099945"/>
     <use xlink:href="#NotoSansTC-Thin-20" x="309.799942"/>
     <use xlink:href="#NotoSansTC-Thin-75" x="331.799927"/>
     <use xlink:href="#NotoSansTC-Thin-73" x="389.499924"/>
     <use xlink:href="#NotoSansTC-Thin-65" x="433.599915"/>
     <use xlink:href="#NotoSansTC-Thin-20" x="486.299911"/>
     <use xlink:href="#NotoSansTC-Thin-41" x="508.299896"/>
     <use xlink:href="#NotoSansTC-Thin-49" x="565.69989"/>
     <use xlink:href="#NotoSansTC-Thin-20" x="591.399887"/>
     <use xlink:href="#NotoSansTC-Thin-65" x="613.399872"/>
     <use xlink:href="#NotoSansTC-Thin-76" x="666.099869"/>
     <use xlink:href="#NotoSansTC-Thin-65" x="712.69986"/>
     <use xlink:href="#NotoSansTC-Thin-72" x="765.399857"/>
     <use xlink:href="#NotoSansTC-Thin-79" x="799.29985"/>
     <use xlink:href="#NotoSansTC-Thin-20" x="846.099838"/>
     <use xlink:href="#NotoSansTC-Thin-64" x="868.099823"/>
     <use xlink:href="#NotoSansTC-Thin-61" x="927.599808"/>
     <use xlink:href="#NotoSansTC-Thin-79" x="981.199799"/>
     <use xlink:href="#NotoSansTC-Thin-3f" x="1027.999786"/>
    </g>
   </g>
  </g>
  <g id="axes_2">
   <g id="patch_12">
    <path d="M 503.51108 268.078875 
L 883.965625 268.078875 
L 883.965625 37.078875 
L 503.51108 37.078875 
z
" style="fill: #ffffff"/>
   </g>
   <g id="patch_13">
    <path d="M 511.12017 268.078875 
L 571.992898 268.078875 
L 571.992898 235.165489 
L 511.12017 235.165489 
z
" clip-path="url(#pf5bf912236)" style="fill: #a1c9f4"/>
   </g>
   <g id="patch_14">
    <path d="M 587.21108 268.078875 
L 648.083807 268.078875 
L 648.083807 106.976513 
L 587.21108 106.976513 
z
" clip-path="url(#pf5bf912236)" style="fill: #ffb482"/>
   </g>
   <g id="patch_15">
    <path d="M 663.301989 268.078875 
L 724.174716 268.078875 
L 724.174716 48.078875 
L 663.301989 48.078875 
z
" clip-path="url(#pf5bf912236)" style="fill: #8de5a1"/>
   </g>
   <g id="patch_16">
    <path d="M 739.392898 268.078875 
L 800.265625 268.078875 
L 800.265625 124.299347 
L 739.392898 124.299347 
z
" clip-path="url(#pf5bf912236)" style="fill: #ff9f9b"/>
   </g>
   <g id="patch_17">
    <path d="M 815.483807 268.078875 
L 876.356534 268.078875 
L 876.356534 236.031631 
L 815.483807 236.031631 
z
" clip-path="url(#pf5bf912236)" style="fill: #d0bbff"/>
   </g>
   <g id="matplotlib.axis_3">
    <g id="xtick_6">
     <g id="line2d_15">
      <g>
       <use xlink:href="#m4c66f01875" x="541.556534" y="268.078875" style="stroke: #000000; stroke-width: 0.8"/>
      </g>
     </g>
     <g id="text_18">
      <!-- 1 -->
      <g transform="translate(538.375284 282.677313) scale(0.1 -0.1)">
       <use xlink:href="#DejaVuSans-31"/>
      </g>
     </g>
    </g>
    <g id="xtick_7">
     <g id="line2d_16">
      <g>
       <use xlink:href="#m4c66f01875" x="617.647443" y="268.078875" style="stroke: #000000; stroke-width: 0.8"/>
      </g>
     </g>
     <g id="text_19">
      <!-- 2 -->
      <g transform="translate(614.466193 282.677313) scale(0.1 -0.1)">
       <use xlink:href="#DejaVuSans-32"/>
      </g>
     </g>
    </g>
    <g id="xtick_8">
     <g id="line2d_17">
      <g>
       <use xlink:href="#m4c66f01875" x="693.738352" y="268.078875" style="stroke: #000000; stroke-width: 0.8"/>
      </g>
     </g>
     <g id="text_20">
      <!-- 3 -->
      <g transform="translate(690.557102 282.677313) scale(0.1 -0.1)">
       <use xlink:href="#DejaVuSans-33"/>
      </g>
     </g>
    </g>
    <g id="xtick_9">
     <g id="line2d_18">
      <g>
       <use xlink:href="#m4c66f01875" x="769.829261" y="268.078875" style="stroke: #000000; stroke-width: 0.8"/>
      </g>
     </g>
     <g id="text_21">
      <!-- 4 -->
      <g transform="translate(766.648011 282.677313) scale(0.1 -0.1)">
       <use xlink:href="#DejaVuSans-34"/>
      </g>
     </g>
    </g>
    <g id="xtick_10">
     <g id="line2d_19">
      <g>
       <use xlink:href="#m4c66f01875" x="845.92017" y="268.078875" style="stroke: #000000; stroke-width: 0.8"/>
      </g>
     </g>
     <g id="text_22">
      <!-- 5 -->
      <g transform="translate(842.73892 282.677313) scale(0.1 -0.1)">
       <use xlink:href="#DejaVuSans-35"/>
      </g>
     </g>
    </g>
    <g id="text_23">
     <!-- ← Disagreement — Neutral — Agreement → -->
     <g transform="translate(584.34929 296.355438) scale(0.1 -0.1)">
      <use xlink:href="#DejaVuSans-2190"/>
      <use xlink:href="#DejaVuSans-20" x="83.789062"/>
      <use xlink:href="#DejaVuSans-44" x="115.576172"/>
      <use xlink:href="#DejaVuSans-69" x="192.578125"/>
      <use xlink:href="#DejaVuSans-73" x="220.361328"/>
      <use xlink:href="#DejaVuSans-61" x="272.460938"/>
      <use xlink:href="#DejaVuSans-67" x="333.740234"/>
      <use xlink:href="#DejaVuSans-72" x="397.216797"/>
      <use xlink:href="#DejaVuSans-65" x="436.080078"/>
      <use xlink:href="#DejaVuSans-65" x="497.603516"/>
      <use xlink:href="#DejaVuSans-6d" x="559.126953"/>
      <use xlink:href="#DejaVuSans-65" x="656.539062"/>
      <use xlink:href="#DejaVuSans-6e" x="718.0625"/>
      <use xlink:href="#DejaVuSans-74" x="781.441406"/>
      <use xlink:href="#DejaVuSans-20" x="820.650391"/>
      <use xlink:href="#DejaVuSans-2014" x="852.4375"/>
      <use xlink:href="#DejaVuSans-20" x="952.4375"/>
      <use xlink:href="#DejaVuSans-4e" x="984.224609"/>
      <use xlink:href="#DejaVuSans-65" x="1059.029297"/>
      <use xlink:href="#DejaVuSans-75" x="1120.552734"/>
      <use xlink:href="#DejaVuSans-74" x="1183.931641"/>
      <use xlink:href="#DejaVuSans-72" x="1223.140625"/>
      <use xlink:href="#DejaVuSans-61" x="1264.253906"/>
      <use xlink:href="#DejaVuSans-6c" x="1325.533203"/>
      <use xlink:href="#DejaVuSans-20" x="1353.316406"/>
      <use xlink:href="#DejaVuSans-2014" x="1385.103516"/>
      <use xlink:href="#DejaVuSans-20" x="1485.103516"/>
      <use xlink:href="#DejaVuSans-41" x="1516.890625"/>
      <use xlink:href="#DejaVuSans-67" x="1585.298828"/>
      <use xlink:href="#DejaVuSans-72" x="1648.775391"/>
      <use xlink:href="#DejaVuSans-65" x="1687.638672"/>
      <use xlink:href="#DejaVuSans-65" x="1749.162109"/>
      <use xlink:href="#DejaVuSans-6d" x="1810.685547"/>
      <use xlink:href="#DejaVuSans-65" x="1908.097656"/>
      <use xlink:href="#DejaVuSans-6e" x="1969.621094"/>
      <use xlink:href="#DejaVuSans-74" x="2033"/>
      <use xlink:href="#DejaVuSans-20" x="2072.208984"/>
      <use xlink:href="#DejaVuSans-2192" x="2103.996094"/>
     </g>
    </g>
   </g>
   <g id="matplotlib.axis_4">
    <g id="ytick_10">
     <g id="line2d_20">
      <g>
       <use xlink:href="#m01b15a3b13" x="503.51108" y="268.078875" style="stroke: #000000; stroke-width: 0.8"/>
      </g>
     </g>
     <g id="text_24">
      <!-- 0 -->
      <g transform="translate(490.14858 271.878094) scale(0.1 -0.1)">
       <use xlink:href="#DejaVuSans-30"/>
      </g>
     </g>
    </g>
    <g id="ytick_11">
     <g id="line2d_21">
      <g>
       <use xlink:href="#m01b15a3b13" x="503.51108" y="224.771788" style="stroke: #000000; stroke-width: 0.8"/>
      </g>
     </g>
     <g id="text_25">
      <!-- 50 -->
      <g transform="translate(483.78608 228.571007) scale(0.1 -0.1)">
       <use xlink:href="#DejaVuSans-35"/>
       <use xlink:href="#DejaVuSans-30" x="63.623047"/>
      </g>
     </g>
    </g>
    <g id="ytick_12">
     <g id="line2d_22">
      <g>
       <use xlink:href="#m01b15a3b13" x="503.51108" y="181.464702" style="stroke: #000000; stroke-width: 0.8"/>
      </g>
     </g>
     <g id="text_26">
      <!-- 100 -->
      <g transform="translate(477.42358 185.263921) scale(0.1 -0.1)">
       <use xlink:href="#DejaVuSans-31"/>
       <use xlink:href="#DejaVuSans-30" x="63.623047"/>
       <use xlink:href="#DejaVuSans-30" x="127.246094"/>
      </g>
     </g>
    </g>
    <g id="ytick_13">
     <g id="line2d_23">
      <g>
       <use xlink:href="#m01b15a3b13" x="503.51108" y="138.157615" style="stroke: #000000; stroke-width: 0.8"/>
      </g>
     </g>
     <g id="text_27">
      <!-- 150 -->
      <g transform="translate(477.42358 141.956834) scale(0.1 -0.1)">
       <use xlink:href="#DejaVuSans-31"/>
       <use xlink:href="#DejaVuSans-35" x="63.623047"/>
       <use xlink:href="#DejaVuSans-30" x="127.246094"/>
      </g>
     </g>
    </g>
    <g id="ytick_14">
     <g id="line2d_24">
      <g>
       <use xlink:href="#m01b15a3b13" x="503.51108" y="94.850529" style="stroke: #000000; stroke-width: 0.8"/>
      </g>
     </g>
     <g id="text_28">
      <!-- 200 -->
      <g transform="translate(477.42358 98.649747) scale(0.1 -0.1)">
       <use xlink:href="#DejaVuSans-32"/>
       <use xlink:href="#DejaVuSans-30" x="63.623047"/>
       <use xlink:href="#DejaVuSans-30" x="127.246094"/>
      </g>
     </g>
    </g>
    <g id="ytick_15">
     <g id="line2d_25">
      <g>
       <use xlink:href="#m01b15a3b13" x="503.51108" y="51.543442" style="stroke: #000000; stroke-width: 0.8"/>
      </g>
     </g>
     <g id="text_29">
      <!-- 250 -->
      <g transform="translate(477.42358 55.342661) scale(0.1 -0.1)">
       <use xlink:href="#DejaVuSans-32"/>
       <use xlink:href="#DejaVuSans-35" x="63.623047"/>
       <use xlink:href="#DejaVuSans-30" x="127.246094"/>
      </g>
     </g>
    </g>
    <g id="text_30">
     <!-- Frequency -->
     <g transform="translate(471.343892 178.408562) rotate(-90) scale(0.1 -0.1)">
      <use xlink:href="#DejaVuSans-46"/>
      <use xlink:href="#DejaVuSans-72" x="50.269531"/>
      <use xlink:href="#DejaVuSans-65" x="89.132812"/>
      <use xlink:href="#DejaVuSans-71" x="150.65625"/>
      <use xlink:href="#DejaVuSans-75" x="214.132812"/>
      <use xlink:href="#DejaVuSans-65" x="277.511719"/>
      <use xlink:href="#DejaVuSans-6e" x="339.035156"/>
      <use xlink:href="#DejaVuSans-63" x="402.414062"/>
      <use xlink:href="#DejaVuSans-79" x="457.394531"/>
     </g>
    </g>
   </g>
   <g id="patch_18">
    <path d="M 503.51108 268.078875 
L 503.51108 37.078875 
" style="fill: none; stroke: #000000; stroke-width: 0.8; stroke-linejoin: miter; stroke-linecap: square"/>
   </g>
   <g id="patch_19">
    <path d="M 883.965625 268.078875 
L 883.965625 37.078875 
" style="fill: none; stroke: #000000; stroke-width: 0.8; stroke-linejoin: miter; stroke-linecap: square"/>
   </g>
   <g id="patch_20">
    <path d="M 503.51108 268.078875 
L 883.965625 268.078875 
" style="fill: none; stroke: #000000; stroke-width: 0.8; stroke-linejoin: miter; stroke-linecap: square"/>
   </g>
   <g id="patch_21">
    <path d="M 503.51108 37.078875 
L 883.965625 37.078875 
" style="fill: none; stroke: #000000; stroke-width: 0.8; stroke-linejoin: miter; stroke-linecap: square"/>
   </g>
   <g id="text_31">
    <!-- 你/妳會信任AI嗎？ -->
    <g transform="translate(644.376165 16.72875) scale(0.12 -0.12)">
     <defs>
      <path id="NotoSansTC-Thin-4fe1" d="M 2438 3322 
L 5440 3322 
L 5440 3130 
L 2438 3130 
L 2438 3322 
z
M 2438 2438 
L 5440 2438 
L 5440 2253 
L 2438 2253 
L 2438 2438 
z
M 2458 32 
L 5402 32 
L 5402 -154 
L 2458 -154 
L 2458 32 
z
M 1965 4198 
L 5978 4198 
L 5978 4006 
L 1965 4006 
L 1965 4198 
z
M 2368 1523 
L 5491 1523 
L 5491 -442 
L 5299 -442 
L 5299 1338 
L 2554 1338 
L 2554 -461 
L 2368 -461 
L 2368 1523 
z
M 3475 5229 
L 3661 5299 
Q 3802 5107 3933 4880 
Q 4064 4653 4128 4486 
L 3936 4397 
Q 3872 4563 3741 4796 
Q 3610 5030 3475 5229 
z
M 1773 5293 
L 1952 5248 
Q 1766 4710 1523 4201 
Q 1280 3693 995 3245 
Q 710 2797 403 2438 
Q 390 2458 364 2486 
Q 339 2515 310 2544 
Q 282 2573 256 2592 
Q 563 2925 844 3360 
Q 1126 3795 1363 4288 
Q 1600 4781 1773 5293 
z
M 1152 3731 
L 1325 3910 
L 1338 3904 
L 1338 -467 
L 1152 -467 
L 1152 3731 
z
" transform="scale(0.015625)"/>
      <path id="NotoSansTC-Thin-4efb" d="M 1939 2509 
L 6093 2509 
L 6093 2323 
L 1939 2323 
L 1939 2509 
z
M 2157 13 
L 5946 13 
L 5946 -173 
L 2157 -173 
L 2157 13 
z
M 3968 4582 
L 4154 4582 
L 4154 -102 
L 3968 -102 
L 3968 4582 
z
M 1312 3712 
L 1498 3904 
L 1498 3898 
L 1498 -435 
L 1312 -435 
L 1312 3712 
z
M 2067 5267 
L 2240 5222 
Q 2010 4666 1706 4144 
Q 1402 3622 1053 3171 
Q 704 2720 326 2368 
Q 314 2387 288 2416 
Q 262 2445 236 2470 
Q 211 2496 186 2515 
Q 557 2848 905 3286 
Q 1254 3725 1552 4230 
Q 1850 4736 2067 5267 
z
M 2445 4685 
L 5811 4685 
L 5811 4499 
L 2445 4499 
L 2445 4685 
z
" transform="scale(0.015625)"/>
     </defs>
     <use xlink:href="#NotoSansTC-Thin-4f60"/>
     <use xlink:href="#NotoSansTC-Thin-2f" x="99.999985"/>
     <use xlink:href="#NotoSansTC-Thin-59b3" x="139.599976"/>
     <use xlink:href="#NotoSansTC-Thin-6703" x="239.59996"/>
     <use xlink:href="#NotoSansTC-Thin-4fe1" x="339.599945"/>
     <use xlink:href="#NotoSansTC-Thin-4efb" x="439.59993"/>
     <use xlink:href="#NotoSansTC-Thin-41" x="539.599915"/>
     <use xlink:href="#NotoSansTC-Thin-49" x="596.999908"/>
     <use xlink:href="#NotoSansTC-Thin-55ce" x="622.699905"/>
     <use xlink:href="#NotoSansTC-Thin-ff1f" x="722.69989"/>
    </g>
    <!-- Do you trust AI? -->
    <g transform="translate(652.763977 31.078875) scale(0.12 -0.12)">
     <defs>
      <path id="NotoSansTC-Thin-74" d="M 1542 -83 
Q 1229 -83 1056 38 
Q 883 160 816 381 
Q 749 602 749 896 
L 749 3162 
L 211 3162 
L 211 3341 
L 749 3373 
L 774 4358 
L 973 4358 
L 973 3373 
L 1971 3373 
L 1971 3162 
L 973 3162 
L 973 864 
Q 973 538 1081 333 
Q 1190 128 1562 128 
Q 1658 128 1779 160 
Q 1901 192 1990 237 
L 2067 45 
Q 1920 -6 1776 -44 
Q 1632 -83 1542 -83 
z
" transform="scale(0.015625)"/>
     </defs>
     <use xlink:href="#NotoSansTC-Thin-44"/>
     <use xlink:href="#NotoSansTC-Thin-6f" x="66.099991"/>
     <use xlink:href="#NotoSansTC-Thin-20" x="124.699982"/>
     <use xlink:href="#NotoSansTC-Thin-79" x="146.699966"/>
     <use xlink:href="#NotoSansTC-Thin-6f" x="193.499954"/>
     <use xlink:href="#NotoSansTC-Thin-75" x="252.099945"/>
     <use xlink:href="#NotoSansTC-Thin-20" x="309.799942"/>
     <use xlink:href="#NotoSansTC-Thin-74" x="331.799927"/>
     <use xlink:href="#NotoSansTC-Thin-72" x="365.199921"/>
     <use xlink:href="#NotoSansTC-Thin-75" x="399.099915"/>
     <use xlink:href="#NotoSansTC-Thin-73" x="456.799911"/>
     <use xlink:href="#NotoSansTC-Thin-74" x="500.899902"/>
     <use xlink:href="#NotoSansTC-Thin-20" x="534.299896"/>
     <use xlink:href="#NotoSansTC-Thin-41" x="556.299881"/>
     <use xlink:href="#NotoSansTC-Thin-49" x="613.699875"/>
     <use xlink:href="#NotoSansTC-Thin-3f" x="639.399872"/>
    </g>
   </g>
  </g>
  <g id="axes_3">
   <g id="patch_22">
    <path d="M 46.965625 591.478875 
L 427.42017 591.478875 
L 427.42017 360.478875 
L 46.965625 360.478875 
z
" style="fill: #ffffff"/>
   </g>
   <g id="patch_23">
    <path d="M 54.574716 591.478875 
L 115.447443 591.478875 
L 115.447443 476.64371 
L 54.574716 476.64371 
z
" clip-path="url(#pc5f70d2c45)" style="fill: #a1c9f4"/>
   </g>
   <g id="patch_24">
    <path d="M 130.665625 591.478875 
L 191.538352 591.478875 
L 191.538352 428.292062 
L 130.665625 428.292062 
z
" clip-path="url(#pc5f70d2c45)" style="fill: #ffb482"/>
   </g>
   <g id="patch_25">
    <path d="M 206.756534 591.478875 
L 267.629261 591.478875 
L 267.629261 371.478875 
L 206.756534 371.478875 
z
" clip-path="url(#pc5f70d2c45)" style="fill: #8de5a1"/>
   </g>
   <g id="patch_26">
    <path d="M 282.847443 591.478875 
L 343.72017 591.478875 
L 343.72017 400.489864 
L 282.847443 400.489864 
z
" clip-path="url(#pc5f70d2c45)" style="fill: #ff9f9b"/>
   </g>
   <g id="patch_27">
    <path d="M 358.938352 591.478875 
L 419.81108 591.478875 
L 419.81108 457.303051 
L 358.938352 457.303051 
z
" clip-path="url(#pc5f70d2c45)" style="fill: #d0bbff"/>
   </g>
   <g id="matplotlib.axis_5">
    <g id="xtick_11">
     <g id="line2d_26">
      <g>
       <use xlink:href="#m4c66f01875" x="85.01108" y="591.478875" style="stroke: #000000; stroke-width: 0.8"/>
      </g>
     </g>
     <g id="text_32">
      <!-- 1 -->
      <g transform="translate(81.82983 606.077312) scale(0.1 -0.1)">
       <use xlink:href="#DejaVuSans-31"/>
      </g>
     </g>
    </g>
    <g id="xtick_12">
     <g id="line2d_27">
      <g>
       <use xlink:href="#m4c66f01875" x="161.101989" y="591.478875" style="stroke: #000000; stroke-width: 0.8"/>
      </g>
     </g>
     <g id="text_33">
      <!-- 2 -->
      <g transform="translate(157.920739 606.077312) scale(0.1 -0.1)">
       <use xlink:href="#DejaVuSans-32"/>
      </g>
     </g>
    </g>
    <g id="xtick_13">
     <g id="line2d_28">
      <g>
       <use xlink:href="#m4c66f01875" x="237.192898" y="591.478875" style="stroke: #000000; stroke-width: 0.8"/>
      </g>
     </g>
     <g id="text_34">
      <!-- 3 -->
      <g transform="translate(234.011648 606.077312) scale(0.1 -0.1)">
       <use xlink:href="#DejaVuSans-33"/>
      </g>
     </g>
    </g>
    <g id="xtick_14">
     <g id="line2d_29">
      <g>
       <use xlink:href="#m4c66f01875" x="313.283807" y="591.478875" style="stroke: #000000; stroke-width: 0.8"/>
      </g>
     </g>
     <g id="text_35">
      <!-- 4 -->
      <g transform="translate(310.102557 606.077312) scale(0.1 -0.1)">
       <use xlink:href="#DejaVuSans-34"/>
      </g>
     </g>
    </g>
    <g id="xtick_15">
     <g id="line2d_30">
      <g>
       <use xlink:href="#m4c66f01875" x="389.374716" y="591.478875" style="stroke: #000000; stroke-width: 0.8"/>
      </g>
     </g>
     <g id="text_36">
      <!-- 5 -->
      <g transform="translate(386.193466 606.077312) scale(0.1 -0.1)">
       <use xlink:href="#DejaVuSans-35"/>
      </g>
     </g>
    </g>
    <g id="text_37">
     <!-- ← Disagreement — Neutral — Agreement → -->
     <g transform="translate(127.803835 619.755437) scale(0.1 -0.1)">
      <use xlink:href="#DejaVuSans-2190"/>
      <use xlink:href="#DejaVuSans-20" x="83.789062"/>
      <use xlink:href="#DejaVuSans-44" x="115.576172"/>
      <use xlink:href="#DejaVuSans-69" x="192.578125"/>
      <use xlink:href="#DejaVuSans-73" x="220.361328"/>
      <use xlink:href="#DejaVuSans-61" x="272.460938"/>
      <use xlink:href="#DejaVuSans-67" x="333.740234"/>
      <use xlink:href="#DejaVuSans-72" x="397.216797"/>
      <use xlink:href="#DejaVuSans-65" x="436.080078"/>
      <use xlink:href="#DejaVuSans-65" x="497.603516"/>
      <use xlink:href="#DejaVuSans-6d" x="559.126953"/>
      <use xlink:href="#DejaVuSans-65" x="656.539062"/>
      <use xlink:href="#DejaVuSans-6e" x="718.0625"/>
      <use xlink:href="#DejaVuSans-74" x="781.441406"/>
      <use xlink:href="#DejaVuSans-20" x="820.650391"/>
      <use xlink:href="#DejaVuSans-2014" x="852.4375"/>
      <use xlink:href="#DejaVuSans-20" x="952.4375"/>
      <use xlink:href="#DejaVuSans-4e" x="984.224609"/>
      <use xlink:href="#DejaVuSans-65" x="1059.029297"/>
      <use xlink:href="#DejaVuSans-75" x="1120.552734"/>
      <use xlink:href="#DejaVuSans-74" x="1183.931641"/>
      <use xlink:href="#DejaVuSans-72" x="1223.140625"/>
      <use xlink:href="#DejaVuSans-61" x="1264.253906"/>
      <use xlink:href="#DejaVuSans-6c" x="1325.533203"/>
      <use xlink:href="#DejaVuSans-20" x="1353.316406"/>
      <use xlink:href="#DejaVuSans-2014" x="1385.103516"/>
      <use xlink:href="#DejaVuSans-20" x="1485.103516"/>
      <use xlink:href="#DejaVuSans-41" x="1516.890625"/>
      <use xlink:href="#DejaVuSans-67" x="1585.298828"/>
      <use xlink:href="#DejaVuSans-72" x="1648.775391"/>
      <use xlink:href="#DejaVuSans-65" x="1687.638672"/>
      <use xlink:href="#DejaVuSans-65" x="1749.162109"/>
      <use xlink:href="#DejaVuSans-6d" x="1810.685547"/>
      <use xlink:href="#DejaVuSans-65" x="1908.097656"/>
      <use xlink:href="#DejaVuSans-6e" x="1969.621094"/>
      <use xlink:href="#DejaVuSans-74" x="2033"/>
      <use xlink:href="#DejaVuSans-20" x="2072.208984"/>
      <use xlink:href="#DejaVuSans-2192" x="2103.996094"/>
     </g>
    </g>
   </g>
   <g id="matplotlib.axis_6">
    <g id="ytick_16">
     <g id="line2d_31">
      <g>
       <use xlink:href="#m01b15a3b13" x="46.965625" y="591.478875" style="stroke: #000000; stroke-width: 0.8"/>
      </g>
     </g>
     <g id="text_38">
      <!-- 0 -->
      <g transform="translate(33.603125 595.278094) scale(0.1 -0.1)">
       <use xlink:href="#DejaVuSans-30"/>
      </g>
     </g>
    </g>
    <g id="ytick_17">
     <g id="line2d_32">
      <g>
       <use xlink:href="#m01b15a3b13" x="46.965625" y="561.259095" style="stroke: #000000; stroke-width: 0.8"/>
      </g>
     </g>
     <g id="text_39">
      <!-- 25 -->
      <g transform="translate(27.240625 565.058314) scale(0.1 -0.1)">
       <use xlink:href="#DejaVuSans-32"/>
       <use xlink:href="#DejaVuSans-35" x="63.623047"/>
      </g>
     </g>
    </g>
    <g id="ytick_18">
     <g id="line2d_33">
      <g>
       <use xlink:href="#m01b15a3b13" x="46.965625" y="531.039315" style="stroke: #000000; stroke-width: 0.8"/>
      </g>
     </g>
     <g id="text_40">
      <!-- 50 -->
      <g transform="translate(27.240625 534.838533) scale(0.1 -0.1)">
       <use xlink:href="#DejaVuSans-35"/>
       <use xlink:href="#DejaVuSans-30" x="63.623047"/>
      </g>
     </g>
    </g>
    <g id="ytick_19">
     <g id="line2d_34">
      <g>
       <use xlink:href="#m01b15a3b13" x="46.965625" y="500.819534" style="stroke: #000000; stroke-width: 0.8"/>
      </g>
     </g>
     <g id="text_41">
      <!-- 75 -->
      <g transform="translate(27.240625 504.618753) scale(0.1 -0.1)">
       <use xlink:href="#DejaVuSans-37"/>
       <use xlink:href="#DejaVuSans-35" x="63.623047"/>
      </g>
     </g>
    </g>
    <g id="ytick_20">
     <g id="line2d_35">
      <g>
       <use xlink:href="#m01b15a3b13" x="46.965625" y="470.599754" style="stroke: #000000; stroke-width: 0.8"/>
      </g>
     </g>
     <g id="text_42">
      <!-- 100 -->
      <g transform="translate(20.878125 474.398973) scale(0.1 -0.1)">
       <use xlink:href="#DejaVuSans-31"/>
       <use xlink:href="#DejaVuSans-30" x="63.623047"/>
       <use xlink:href="#DejaVuSans-30" x="127.246094"/>
      </g>
     </g>
    </g>
    <g id="ytick_21">
     <g id="line2d_36">
      <g>
       <use xlink:href="#m01b15a3b13" x="46.965625" y="440.379974" style="stroke: #000000; stroke-width: 0.8"/>
      </g>
     </g>
     <g id="text_43">
      <!-- 125 -->
      <g transform="translate(20.878125 444.179193) scale(0.1 -0.1)">
       <use xlink:href="#DejaVuSans-31"/>
       <use xlink:href="#DejaVuSans-32" x="63.623047"/>
       <use xlink:href="#DejaVuSans-35" x="127.246094"/>
      </g>
     </g>
    </g>
    <g id="ytick_22">
     <g id="line2d_37">
      <g>
       <use xlink:href="#m01b15a3b13" x="46.965625" y="410.160194" style="stroke: #000000; stroke-width: 0.8"/>
      </g>
     </g>
     <g id="text_44">
      <!-- 150 -->
      <g transform="translate(20.878125 413.959412) scale(0.1 -0.1)">
       <use xlink:href="#DejaVuSans-31"/>
       <use xlink:href="#DejaVuSans-35" x="63.623047"/>
       <use xlink:href="#DejaVuSans-30" x="127.246094"/>
      </g>
     </g>
    </g>
    <g id="ytick_23">
     <g id="line2d_38">
      <g>
       <use xlink:href="#m01b15a3b13" x="46.965625" y="379.940413" style="stroke: #000000; stroke-width: 0.8"/>
      </g>
     </g>
     <g id="text_45">
      <!-- 175 -->
      <g transform="translate(20.878125 383.739632) scale(0.1 -0.1)">
       <use xlink:href="#DejaVuSans-31"/>
       <use xlink:href="#DejaVuSans-37" x="63.623047"/>
       <use xlink:href="#DejaVuSans-35" x="127.246094"/>
      </g>
     </g>
    </g>
    <g id="text_46">
     <!-- Frequency -->
     <g transform="translate(14.798438 501.808562) rotate(-90) scale(0.1 -0.1)">
      <use xlink:href="#DejaVuSans-46"/>
      <use xlink:href="#DejaVuSans-72" x="50.269531"/>
      <use xlink:href="#DejaVuSans-65" x="89.132812"/>
      <use xlink:href="#DejaVuSans-71" x="150.65625"/>
      <use xlink:href="#DejaVuSans-75" x="214.132812"/>
      <use xlink:href="#DejaVuSans-65" x="277.511719"/>
      <use xlink:href="#DejaVuSans-6e" x="339.035156"/>
      <use xlink:href="#DejaVuSans-63" x="402.414062"/>
      <use xlink:href="#DejaVuSans-79" x="457.394531"/>
     </g>
    </g>
   </g>
   <g id="patch_28">
    <path d="M 46.965625 591.478875 
L 46.965625 360.478875 
" style="fill: none; stroke: #000000; stroke-width: 0.8; stroke-linejoin: miter; stroke-linecap: square"/>
   </g>
   <g id="patch_29">
    <path d="M 427.42017 591.478875 
L 427.42017 360.478875 
" style="fill: none; stroke: #000000; stroke-width: 0.8; stroke-linejoin: miter; stroke-linecap: square"/>
   </g>
   <g id="patch_30">
    <path d="M 46.965625 591.478875 
L 427.42017 591.478875 
" style="fill: none; stroke: #000000; stroke-width: 0.8; stroke-linejoin: miter; stroke-linecap: square"/>
   </g>
   <g id="patch_31">
    <path d="M 46.965625 360.478875 
L 427.42017 360.478875 
" style="fill: none; stroke: #000000; stroke-width: 0.8; stroke-linejoin: miter; stroke-linecap: square"/>
   </g>
   <g id="text_47">
    <!-- 你/妳想要AI有個造型嗎？ -->
    <g transform="translate(169.83071 339.942) scale(0.12 -0.12)">
     <defs>
      <path id="NotoSansTC-Thin-60f3" d="M 1946 1235 
L 2131 1235 
L 2131 70 
Q 2131 -45 2217 -80 
Q 2304 -115 2598 -115 
Q 2669 -115 2873 -115 
Q 3078 -115 3331 -115 
Q 3584 -115 3801 -115 
Q 4019 -115 4115 -115 
Q 4282 -115 4362 -67 
Q 4442 -19 4474 141 
Q 4506 301 4518 634 
Q 4544 614 4576 595 
Q 4608 576 4640 566 
Q 4672 557 4704 550 
Q 4685 205 4640 19 
Q 4595 -166 4476 -236 
Q 4358 -307 4128 -307 
Q 4090 -307 3939 -307 
Q 3789 -307 3581 -307 
Q 3373 -307 3165 -307 
Q 2957 -307 2803 -307 
Q 2650 -307 2618 -307 
Q 2355 -307 2208 -281 
Q 2061 -256 2003 -173 
Q 1946 -90 1946 70 
L 1946 1235 
z
M 2707 1594 
L 2848 1670 
Q 3008 1523 3177 1344 
Q 3347 1165 3500 995 
Q 3654 826 3750 698 
L 3610 595 
Q 3507 723 3356 896 
Q 3206 1069 3036 1254 
Q 2867 1440 2707 1594 
z
M 5056 1350 
L 5229 1408 
Q 5363 1203 5504 963 
Q 5645 723 5766 499 
Q 5888 275 5958 115 
L 5786 38 
Q 5709 205 5587 429 
Q 5466 653 5328 896 
Q 5190 1139 5056 1350 
z
M 1050 1261 
L 1203 1190 
Q 1133 992 1037 749 
Q 941 506 816 272 
Q 691 38 544 -134 
L 397 -45 
Q 544 122 665 349 
Q 787 576 886 819 
Q 986 1062 1050 1261 
z
M 397 4314 
L 3002 4314 
L 3002 4128 
L 397 4128 
L 397 4314 
z
M 1683 5293 
L 1869 5293 
L 1869 1683 
L 1683 1683 
L 1683 5293 
z
M 1670 4230 
L 1818 4166 
Q 1670 3763 1436 3369 
Q 1203 2976 937 2646 
Q 672 2317 403 2106 
Q 378 2144 336 2185 
Q 294 2227 262 2253 
Q 531 2438 800 2755 
Q 1069 3072 1296 3456 
Q 1523 3840 1670 4230 
z
M 1830 3667 
Q 1907 3616 2070 3497 
Q 2234 3379 2419 3238 
Q 2605 3098 2761 2976 
Q 2918 2854 2989 2797 
L 2867 2637 
Q 2790 2707 2636 2835 
Q 2483 2963 2304 3110 
Q 2125 3258 1968 3379 
Q 1811 3501 1722 3565 
L 1830 3667 
z
M 3494 3770 
L 3494 2944 
L 5510 2944 
L 5510 3770 
L 3494 3770 
z
M 3494 2752 
L 3494 1920 
L 5510 1920 
L 5510 2752 
L 3494 2752 
z
M 3494 4774 
L 3494 3962 
L 5510 3962 
L 5510 4774 
L 3494 4774 
z
M 3309 4960 
L 5696 4960 
L 5696 1734 
L 3309 1734 
L 3309 4960 
z
" transform="scale(0.015625)"/>
      <path id="NotoSansTC-Thin-8981" d="M 403 1638 
L 5997 1638 
L 5997 1453 
L 403 1453 
L 403 1638 
z
M 499 4986 
L 5920 4986 
L 5920 4800 
L 499 4800 
L 499 4986 
z
M 4685 2029 
L 4864 1952 
Q 4672 1408 4310 998 
Q 3949 589 3411 294 
Q 2874 0 2141 -179 
Q 1408 -358 467 -442 
Q 454 -403 428 -352 
Q 403 -301 371 -262 
Q 1312 -186 2029 -16 
Q 2746 154 3270 432 
Q 3795 710 4140 1107 
Q 4486 1504 4685 2029 
z
M 1280 563 
L 1453 710 
Q 2080 627 2701 512 
Q 3322 397 3898 265 
Q 4474 134 4973 -6 
Q 5472 -147 5862 -294 
L 5664 -448 
Q 5171 -256 4483 -73 
Q 3795 109 2979 272 
Q 2163 435 1280 563 
z
M 2310 4928 
L 2496 4928 
L 2496 2643 
L 2310 2643 
L 2310 4928 
z
M 3846 4928 
L 4032 4928 
L 4032 2643 
L 3846 2643 
L 3846 4928 
z
M 1030 3885 
L 1030 2746 
L 5402 2746 
L 5402 3885 
L 1030 3885 
z
M 845 4070 
L 5587 4070 
L 5587 2560 
L 845 2560 
L 845 4070 
z
M 1280 563 
Q 1491 800 1724 1113 
Q 1958 1427 2169 1763 
Q 2381 2099 2528 2394 
L 2720 2342 
Q 2566 2042 2352 1712 
Q 2138 1382 1914 1081 
Q 1690 781 1504 563 
L 1280 563 
z
" transform="scale(0.015625)"/>
      <path id="NotoSansTC-Thin-6709" d="M 461 4429 
L 5965 4429 
L 5965 4243 
L 461 4243 
L 461 4429 
z
M 1862 2163 
L 5088 2163 
L 5088 1978 
L 1862 1978 
L 1862 2163 
z
M 4986 3264 
L 5178 3264 
L 5178 -83 
Q 5178 -224 5133 -291 
Q 5088 -358 4960 -390 
Q 4838 -416 4572 -416 
Q 4307 -416 3872 -416 
Q 3866 -378 3840 -323 
Q 3814 -269 3789 -224 
Q 4051 -230 4262 -233 
Q 4474 -237 4624 -233 
Q 4774 -230 4838 -230 
Q 4928 -224 4957 -192 
Q 4986 -160 4986 -83 
L 4986 3264 
z
M 2669 5312 
L 2848 5261 
Q 2637 4582 2307 3920 
Q 1978 3258 1517 2682 
Q 1056 2106 461 1677 
Q 454 1702 432 1728 
Q 410 1754 390 1779 
Q 371 1805 352 1824 
Q 787 2131 1148 2528 
Q 1510 2925 1801 3379 
Q 2093 3834 2310 4323 
Q 2528 4813 2669 5312 
z
M 1798 1056 
L 5082 1056 
L 5082 864 
L 1798 864 
L 1798 1056 
z
M 1837 3264 
L 5088 3264 
L 5088 3072 
L 1837 3072 
L 1837 3264 
z
M 1747 3264 
L 1933 3264 
L 1933 1581 
Q 1933 1338 1910 1072 
Q 1888 806 1817 534 
Q 1747 262 1619 9 
Q 1491 -243 1280 -467 
Q 1274 -442 1251 -413 
Q 1229 -384 1203 -355 
Q 1178 -326 1158 -314 
Q 1421 -38 1545 285 
Q 1670 608 1708 944 
Q 1747 1280 1747 1581 
L 1747 3264 
z
" transform="scale(0.015625)"/>
      <path id="NotoSansTC-Thin-500b" d="M 2202 4870 
L 5843 4870 
L 5843 -403 
L 5651 -403 
L 5651 4678 
L 2394 4678 
L 2394 -448 
L 2202 -448 
L 2202 4870 
z
M 2758 3603 
L 5363 3603 
L 5363 3411 
L 2758 3411 
L 2758 3603 
z
M 2330 134 
L 5805 134 
L 5805 -58 
L 2330 -58 
L 2330 134 
z
M 3962 4403 
L 4147 4403 
L 4147 2400 
L 3962 2400 
L 3962 4403 
z
M 3315 2374 
L 3315 1050 
L 4826 1050 
L 4826 2374 
L 3315 2374 
z
M 3123 2560 
L 5011 2560 
L 5011 858 
L 3123 858 
L 3123 2560 
z
M 1664 5274 
L 1843 5229 
Q 1664 4691 1417 4182 
Q 1171 3674 886 3226 
Q 602 2778 294 2419 
Q 282 2438 256 2467 
Q 230 2496 204 2525 
Q 179 2554 154 2573 
Q 461 2906 742 3341 
Q 1024 3776 1257 4269 
Q 1491 4762 1664 5274 
z
M 1120 3898 
L 1299 4077 
L 1306 4070 
L 1306 -461 
L 1120 -461 
L 1120 3898 
z
" transform="scale(0.015625)"/>
      <path id="NotoSansTC-Thin-9020" d="M 2701 4429 
L 5722 4429 
L 5722 4243 
L 2701 4243 
L 2701 4429 
z
M 1952 3136 
L 5965 3136 
L 5965 2950 
L 1952 2950 
L 1952 3136 
z
M 3008 5210 
L 3194 5165 
Q 3021 4672 2761 4217 
Q 2502 3763 2214 3437 
Q 2195 3456 2166 3475 
Q 2138 3494 2106 3513 
Q 2074 3533 2042 3546 
Q 2342 3866 2595 4304 
Q 2848 4742 3008 5210 
z
M 3930 5312 
L 4115 5312 
L 4115 3027 
L 3930 3027 
L 3930 5312 
z
M 634 5222 
L 787 5299 
Q 928 5139 1078 4956 
Q 1229 4774 1363 4604 
Q 1498 4435 1574 4301 
L 1421 4205 
Q 1338 4339 1203 4515 
Q 1069 4691 921 4880 
Q 774 5069 634 5222 
z
M 333 3853 
L 1779 3853 
L 1779 3661 
L 333 3661 
L 333 3853 
z
M 1318 768 
Q 1542 358 1920 156 
Q 2298 -45 2835 -109 
Q 3373 -173 4064 -173 
Q 4397 -173 4765 -166 
Q 5133 -160 5488 -144 
Q 5843 -128 6131 -109 
Q 6112 -134 6096 -172 
Q 6080 -211 6070 -249 
Q 6061 -288 6054 -320 
Q 5792 -333 5453 -345 
Q 5114 -358 4758 -361 
Q 4403 -365 4070 -365 
Q 3507 -365 3052 -326 
Q 2598 -288 2246 -179 
Q 1894 -70 1632 134 
Q 1370 339 1184 672 
L 1318 768 
z
M 1645 2214 
L 1690 2214 
L 1734 2221 
L 1843 2176 
Q 1677 1190 1293 537 
Q 909 -115 397 -474 
Q 384 -448 355 -419 
Q 326 -390 300 -364 
Q 275 -339 250 -326 
Q 755 13 1126 633 
Q 1498 1254 1645 2163 
L 1645 2214 
z
M 390 1946 
L 390 2131 
L 576 2214 
L 1747 2214 
L 1747 2029 
L 762 2029 
Q 627 2029 524 2003 
Q 422 1978 390 1946 
z
M 390 1946 
Q 384 1978 361 2022 
Q 339 2067 320 2115 
Q 301 2163 282 2189 
Q 346 2208 419 2246 
Q 493 2285 570 2374 
Q 653 2451 803 2640 
Q 954 2829 1126 3056 
Q 1299 3283 1449 3494 
Q 1600 3706 1683 3827 
L 1683 3840 
L 1779 3885 
L 1946 3795 
Q 1824 3635 1654 3411 
Q 1485 3187 1296 2950 
Q 1107 2714 928 2496 
Q 749 2278 602 2125 
Q 602 2125 570 2109 
Q 538 2093 496 2064 
Q 454 2035 422 2006 
Q 390 1978 390 1946 
z
M 2726 2099 
L 2726 723 
L 5267 723 
L 5267 2099 
L 2726 2099 
z
M 2534 2291 
L 5459 2291 
L 5459 531 
L 2534 531 
L 2534 2291 
z
" transform="scale(0.015625)"/>
      <path id="NotoSansTC-Thin-578b" d="M 710 5024 
L 3565 5024 
L 3565 4838 
L 710 4838 
L 710 5024 
z
M 506 3750 
L 3693 3750 
L 3693 3565 
L 506 3565 
L 506 3750 
z
M 307 -26 
L 6099 -26 
L 6099 -211 
L 307 -211 
L 307 -26 
z
M 992 1274 
L 5402 1274 
L 5402 1088 
L 992 1088 
L 992 1274 
z
M 2643 4928 
L 2829 4928 
L 2829 2054 
L 2643 2054 
L 2643 4928 
z
M 3181 2195 
L 3366 2195 
L 3366 -115 
L 3181 -115 
L 3181 2195 
z
M 4218 4954 
L 4403 4954 
L 4403 2835 
L 4218 2835 
L 4218 4954 
z
M 5434 5312 
L 5619 5312 
L 5619 2323 
Q 5619 2189 5580 2131 
Q 5542 2074 5434 2042 
Q 5325 2016 5101 2009 
Q 4877 2003 4525 2003 
Q 4518 2048 4496 2102 
Q 4474 2157 4442 2202 
Q 4774 2195 5001 2195 
Q 5229 2195 5306 2202 
Q 5389 2208 5411 2233 
Q 5434 2259 5434 2323 
L 5434 5312 
z
M 1408 4928 
L 1594 4928 
L 1594 3891 
Q 1594 3578 1523 3222 
Q 1453 2867 1254 2524 
Q 1056 2182 666 1901 
Q 653 1926 627 1952 
Q 602 1978 576 2003 
Q 550 2029 531 2042 
Q 909 2310 1094 2627 
Q 1280 2944 1344 3270 
Q 1408 3597 1408 3891 
L 1408 4928 
z
" transform="scale(0.015625)"/>
     </defs>
     <use xlink:href="#NotoSansTC-Thin-4f60"/>
     <use xlink:href="#NotoSansTC-Thin-2f" x="99.999985"/>
     <use xlink:href="#NotoSansTC-Thin-59b3" x="139.599976"/>
     <use xlink:href="#NotoSansTC-Thin-60f3" x="239.59996"/>
     <use xlink:href="#NotoSansTC-Thin-8981" x="339.599945"/>
     <use xlink:href="#NotoSansTC-Thin-41" x="439.59993"/>
     <use xlink:href="#NotoSansTC-Thin-49" x="496.999924"/>
     <use xlink:href="#NotoSansTC-Thin-6709" x="522.699921"/>
     <use xlink:href="#NotoSansTC-Thin-500b" x="622.699905"/>
     <use xlink:href="#NotoSansTC-Thin-9020" x="722.69989"/>
     <use xlink:href="#NotoSansTC-Thin-578b" x="822.699875"/>
     <use xlink:href="#NotoSansTC-Thin-55ce" x="922.69986"/>
     <use xlink:href="#NotoSansTC-Thin-ff1f" x="1022.699844"/>
    </g>
    <!-- Would you like AI to have a form? -->
    <g transform="translate(150.377585 354.478875) scale(0.12 -0.12)">
     <defs>
      <path id="NotoSansTC-Thin-57" d="M 1286 0 
L 211 4646 
L 461 4646 
L 1075 1843 
Q 1165 1466 1248 1085 
Q 1331 704 1414 320 
L 1440 320 
Q 1530 704 1622 1085 
Q 1715 1466 1811 1843 
L 2560 4646 
L 2829 4646 
L 3584 1843 
Q 3680 1466 3773 1085 
Q 3866 704 3962 320 
L 3994 320 
Q 4077 704 4153 1085 
Q 4230 1466 4307 1843 
L 4928 4646 
L 5165 4646 
L 4102 0 
L 3853 0 
L 2963 3315 
Q 2899 3597 2838 3840 
Q 2778 4083 2707 4358 
L 2682 4358 
Q 2618 4083 2547 3840 
Q 2477 3597 2413 3315 
L 1536 0 
L 1286 0 
z
" transform="scale(0.015625)"/>
      <path id="NotoSansTC-Thin-6c" d="M 1018 -83 
Q 909 -83 832 -35 
Q 755 13 713 115 
Q 672 218 672 378 
L 672 5082 
L 902 5082 
L 902 339 
Q 902 237 940 182 
Q 979 128 1043 128 
Q 1062 128 1088 131 
Q 1114 134 1165 141 
L 1210 -58 
Q 1165 -64 1126 -73 
Q 1088 -83 1018 -83 
z
" transform="scale(0.015625)"/>
      <path id="NotoSansTC-Thin-69" d="M 672 0 
L 672 3373 
L 902 3373 
L 902 0 
L 672 0 
z
M 794 4224 
Q 691 4224 627 4294 
Q 563 4365 563 4486 
Q 563 4595 627 4662 
Q 691 4730 794 4730 
Q 890 4730 957 4662 
Q 1024 4595 1024 4486 
Q 1024 4365 957 4294 
Q 890 4224 794 4224 
z
" transform="scale(0.015625)"/>
      <path id="NotoSansTC-Thin-6b" d="M 672 0 
L 672 5082 
L 902 5082 
L 902 1242 
L 915 1242 
L 2650 3373 
L 2918 3373 
L 1830 2042 
L 3110 0 
L 2861 0 
L 1696 1869 
L 902 928 
L 902 0 
L 672 0 
z
" transform="scale(0.015625)"/>
      <path id="NotoSansTC-Thin-68" d="M 672 0 
L 672 5082 
L 902 5082 
L 902 3584 
L 902 2822 
Q 1171 3098 1449 3277 
Q 1728 3456 2080 3456 
Q 2598 3456 2848 3139 
Q 3098 2822 3098 2170 
L 3098 0 
L 2867 0 
L 2867 2138 
Q 2867 2694 2678 2969 
Q 2490 3245 2054 3245 
Q 1741 3245 1481 3078 
Q 1222 2912 902 2579 
L 902 0 
L 672 0 
z
" transform="scale(0.015625)"/>
      <path id="NotoSansTC-Thin-66" d="M 704 0 
L 704 4192 
Q 704 4525 797 4739 
Q 890 4954 1066 5059 
Q 1242 5165 1485 5165 
Q 1594 5165 1715 5136 
Q 1837 5107 1958 5056 
L 1888 4858 
Q 1683 4960 1478 4960 
Q 1190 4960 1059 4749 
Q 928 4538 928 4160 
L 928 0 
L 704 0 
z
M 237 3162 
L 237 3341 
L 704 3373 
L 1728 3373 
L 1728 3162 
L 237 3162 
z
" transform="scale(0.015625)"/>
      <path id="NotoSansTC-Thin-6d" d="M 672 0 
L 672 3373 
L 864 3373 
L 902 2835 
L 915 2835 
Q 1146 3098 1427 3277 
Q 1709 3456 1984 3456 
Q 2400 3456 2614 3264 
Q 2829 3072 2912 2752 
Q 3213 3078 3497 3267 
Q 3782 3456 4070 3456 
Q 4563 3456 4816 3139 
Q 5069 2822 5069 2170 
L 5069 0 
L 4845 0 
L 4845 2138 
Q 4845 2694 4649 2969 
Q 4454 3245 4045 3245 
Q 3795 3245 3539 3078 
Q 3283 2912 2982 2579 
L 2982 0 
L 2758 0 
L 2758 2138 
Q 2758 2694 2566 2969 
Q 2374 3245 1965 3245 
Q 1722 3245 1456 3078 
Q 1190 2912 902 2579 
L 902 0 
L 672 0 
z
" transform="scale(0.015625)"/>
     </defs>
     <use xlink:href="#NotoSansTC-Thin-57"/>
     <use xlink:href="#NotoSansTC-Thin-6f" x="84.199982"/>
     <use xlink:href="#NotoSansTC-Thin-75" x="142.799973"/>
     <use xlink:href="#NotoSansTC-Thin-6c" x="200.499969"/>
     <use xlink:href="#NotoSansTC-Thin-64" x="225.899963"/>
     <use xlink:href="#NotoSansTC-Thin-20" x="285.399948"/>
     <use xlink:href="#NotoSansTC-Thin-79" x="307.399933"/>
     <use xlink:href="#NotoSansTC-Thin-6f" x="354.199921"/>
     <use xlink:href="#NotoSansTC-Thin-75" x="412.799911"/>
     <use xlink:href="#NotoSansTC-Thin-20" x="470.499908"/>
     <use xlink:href="#NotoSansTC-Thin-6c" x="492.499893"/>
     <use xlink:href="#NotoSansTC-Thin-69" x="517.899887"/>
     <use xlink:href="#NotoSansTC-Thin-6b" x="542.399872"/>
     <use xlink:href="#NotoSansTC-Thin-65" x="592.299866"/>
     <use xlink:href="#NotoSansTC-Thin-20" x="644.999863"/>
     <use xlink:href="#NotoSansTC-Thin-41" x="666.999847"/>
     <use xlink:href="#NotoSansTC-Thin-49" x="724.399841"/>
     <use xlink:href="#NotoSansTC-Thin-20" x="750.099838"/>
     <use xlink:href="#NotoSansTC-Thin-74" x="772.099823"/>
     <use xlink:href="#NotoSansTC-Thin-6f" x="805.499817"/>
     <use xlink:href="#NotoSansTC-Thin-20" x="864.099808"/>
     <use xlink:href="#NotoSansTC-Thin-68" x="886.099792"/>
     <use xlink:href="#NotoSansTC-Thin-61" x="943.599777"/>
     <use xlink:href="#NotoSansTC-Thin-76" x="997.199768"/>
     <use xlink:href="#NotoSansTC-Thin-65" x="1043.799759"/>
     <use xlink:href="#NotoSansTC-Thin-20" x="1096.499756"/>
     <use xlink:href="#NotoSansTC-Thin-61" x="1118.499741"/>
     <use xlink:href="#NotoSansTC-Thin-20" x="1172.099731"/>
     <use xlink:href="#NotoSansTC-Thin-66" x="1194.099716"/>
     <use xlink:href="#NotoSansTC-Thin-6f" x="1221.99971"/>
     <use xlink:href="#NotoSansTC-Thin-72" x="1280.599701"/>
     <use xlink:href="#NotoSansTC-Thin-6d" x="1314.499695"/>
     <use xlink:href="#NotoSansTC-Thin-3f" x="1403.399689"/>
    </g>
   </g>
  </g>
 </g>
 <defs>
  <clipPath id="p19c6454fd0">
   <rect x="46.965625" y="37.078875" width="380.454545" height="231"/>
  </clipPath>
  <clipPath id="pf5bf912236">
   <rect x="503.51108" y="37.078875" width="380.454545" height="231"/>
  </clipPath>
  <clipPath id="pc5f70d2c45">
   <rect x="46.965625" y="360.478875" width="380.454545" height="231"/>
  </clipPath>
 </defs>
</svg>
