<?xml version="1.0" encoding="utf-8" standalone="no"?>
<!DOCTYPE svg PUBLIC "-//W3C//DTD SVG 1.1//EN"
  "http://www.w3.org/Graphics/SVG/1.1/DTD/svg11.dtd">
<svg xmlns:xlink="http://www.w3.org/1999/xlink" width="614.931875pt" height="398.62625pt" viewBox="0 0 614.931875 398.62625" xmlns="http://www.w3.org/2000/svg" version="1.1">
 <metadata>
  <rdf:RDF xmlns:dc="http://purl.org/dc/elements/1.1/" xmlns:cc="http://creativecommons.org/ns#" xmlns:rdf="http://www.w3.org/1999/02/22-rdf-syntax-ns#">
   <cc:Work>
    <dc:type rdf:resource="http://purl.org/dc/dcmitype/StillImage"/>
    <dc:date>2024-06-18T23:47:56.235210</dc:date>
    <dc:format>image/svg+xml</dc:format>
    <dc:creator>
     <cc:Agent>
      <dc:title>Matplotlib v3.8.4, https://matplotlib.org/</dc:title>
     </cc:Agent>
    </dc:creator>
   </cc:Work>
  </rdf:RDF>
 </metadata>
 <defs>
  <style type="text/css">*{stroke-linejoin: round; stroke-linecap: butt}</style>
 </defs>
 <g id="figure_1">
  <g id="patch_1">
   <path d="M 0 398.62625 
L 614.931875 398.62625 
L 614.931875 0 
L 0 0 
z
" style="fill: #ffffff"/>
  </g>
  <g id="axes_1">
   <g id="patch_2">
    <path d="M 49.731875 355.524375 
L 607.731875 355.524375 
L 607.731875 22.884375 
L 49.731875 22.884375 
z
" style="fill: #ffffff"/>
   </g>
   <g id="patch_3">
    <path d="M 77.631875 355.524375 
L 300.831875 355.524375 
L 300.831875 38.724375 
L 77.631875 38.724375 
z
" clip-path="url(#p3718c4a104)" style="fill: #3c6682"/>
   </g>
   <g id="patch_4">
    <path d="M 356.631875 355.524375 
L 579.831875 355.524375 
L 579.831875 136.987402 
L 356.631875 136.987402 
z
" clip-path="url(#p3718c4a104)" style="fill: #45a778"/>
   </g>
   <g id="matplotlib.axis_1">
    <g id="xtick_1">
     <g id="line2d_1">
      <defs>
       <path id="mb3c0949d59" d="M 0 0 
L 0 3.5 
" style="stroke: #000000; stroke-width: 0.8"/>
      </defs>
      <g>
       <use xlink:href="#mb3c0949d59" x="189.231875" y="355.524375" style="stroke: #000000; stroke-width: 0.8"/>
      </g>
     </g>
     <g id="text_1">
      <!-- 沒有 -->
      <g transform="translate(177.231875 372.053125) scale(0.12 -0.12)">
       <defs>
        <path id="NotoSansTC-Thin-6c92" d="M 3142 4698 
L 5491 4698 
L 5491 4512 
L 3142 4512 
L 3142 4698 
z
M 2246 2304 
L 5498 2304 
L 5498 2112 
L 2246 2112 
L 2246 2304 
z
M 5427 4698 
L 5626 4698 
Q 5626 4698 5622 4653 
Q 5619 4608 5613 4576 
Q 5568 3974 5523 3609 
Q 5478 3245 5417 3056 
Q 5357 2867 5274 2784 
Q 5210 2726 5136 2704 
Q 5062 2682 4934 2682 
Q 4826 2675 4605 2681 
Q 4384 2688 4141 2707 
Q 4134 2746 4121 2797 
Q 4109 2848 4077 2893 
Q 4346 2867 4579 2860 
Q 4813 2854 4896 2854 
Q 4986 2854 5034 2864 
Q 5082 2874 5120 2912 
Q 5184 2976 5235 3161 
Q 5286 3347 5334 3708 
Q 5382 4070 5427 4659 
L 5427 4698 
z
M 3181 5312 
L 3373 5293 
Q 3264 4365 2969 3689 
Q 2675 3014 2144 2560 
Q 2131 2579 2105 2604 
Q 2080 2630 2048 2656 
Q 2016 2682 1990 2694 
Q 2522 3110 2800 3769 
Q 3078 4429 3181 5312 
z
M 5446 2304 
L 5491 2304 
L 5530 2317 
L 5638 2246 
Q 5402 1677 5005 1232 
Q 4608 787 4105 457 
Q 3603 128 3049 -93 
Q 2496 -314 1939 -442 
Q 1933 -416 1917 -387 
Q 1901 -358 1878 -326 
Q 1856 -294 1837 -275 
Q 2381 -166 2928 45 
Q 3475 256 3968 569 
Q 4461 883 4845 1305 
Q 5229 1728 5446 2259 
L 5446 2304 
z
M 2918 2125 
Q 3194 1530 3661 1043 
Q 4128 557 4742 214 
Q 5357 -128 6074 -294 
Q 6054 -314 6028 -342 
Q 6003 -371 5984 -400 
Q 5965 -429 5946 -454 
Q 5235 -269 4614 86 
Q 3994 442 3517 944 
Q 3040 1446 2752 2067 
L 2918 2125 
z
M 614 5107 
L 730 5235 
Q 941 5139 1158 5014 
Q 1376 4890 1565 4755 
Q 1754 4621 1869 4506 
L 1760 4346 
Q 1638 4467 1446 4604 
Q 1254 4742 1040 4876 
Q 826 5011 614 5107 
z
M 307 3373 
L 416 3514 
Q 627 3430 851 3312 
Q 1075 3194 1270 3072 
Q 1466 2950 1587 2842 
L 1478 2682 
Q 1350 2790 1155 2918 
Q 960 3046 739 3164 
Q 518 3283 307 3373 
z
M 499 -224 
Q 666 32 864 387 
Q 1062 742 1267 1132 
Q 1472 1523 1638 1882 
L 1779 1766 
Q 1626 1427 1430 1043 
Q 1235 659 1033 294 
Q 832 -70 659 -352 
L 499 -224 
z
" transform="scale(0.015625)"/>
        <path id="NotoSansTC-Thin-6709" d="M 461 4429 
L 5965 4429 
L 5965 4243 
L 461 4243 
L 461 4429 
z
M 1862 2163 
L 5088 2163 
L 5088 1978 
L 1862 1978 
L 1862 2163 
z
M 4986 3264 
L 5178 3264 
L 5178 -83 
Q 5178 -224 5133 -291 
Q 5088 -358 4960 -390 
Q 4838 -416 4572 -416 
Q 4307 -416 3872 -416 
Q 3866 -378 3840 -323 
Q 3814 -269 3789 -224 
Q 4051 -230 4262 -233 
Q 4474 -237 4624 -233 
Q 4774 -230 4838 -230 
Q 4928 -224 4957 -192 
Q 4986 -160 4986 -83 
L 4986 3264 
z
M 2669 5312 
L 2848 5261 
Q 2637 4582 2307 3920 
Q 1978 3258 1517 2682 
Q 1056 2106 461 1677 
Q 454 1702 432 1728 
Q 410 1754 390 1779 
Q 371 1805 352 1824 
Q 787 2131 1148 2528 
Q 1510 2925 1801 3379 
Q 2093 3834 2310 4323 
Q 2528 4813 2669 5312 
z
M 1798 1056 
L 5082 1056 
L 5082 864 
L 1798 864 
L 1798 1056 
z
M 1837 3264 
L 5088 3264 
L 5088 3072 
L 1837 3072 
L 1837 3264 
z
M 1747 3264 
L 1933 3264 
L 1933 1581 
Q 1933 1338 1910 1072 
Q 1888 806 1817 534 
Q 1747 262 1619 9 
Q 1491 -243 1280 -467 
Q 1274 -442 1251 -413 
Q 1229 -384 1203 -355 
Q 1178 -326 1158 -314 
Q 1421 -38 1545 285 
Q 1670 608 1708 944 
Q 1747 1280 1747 1581 
L 1747 3264 
z
" transform="scale(0.015625)"/>
       </defs>
       <use xlink:href="#NotoSansTC-Thin-6c92"/>
       <use xlink:href="#NotoSansTC-Thin-6709" x="99.999985"/>
      </g>
     </g>
    </g>
    <g id="xtick_2">
     <g id="line2d_2">
      <g>
       <use xlink:href="#mb3c0949d59" x="468.231875" y="355.524375" style="stroke: #000000; stroke-width: 0.8"/>
      </g>
     </g>
     <g id="text_2">
      <!-- 有 -->
      <g transform="translate(462.231875 372.053125) scale(0.12 -0.12)">
       <use xlink:href="#NotoSansTC-Thin-6709"/>
      </g>
     </g>
    </g>
    <g id="text_3">
     <!-- Have you ever boycotted a company? -->
     <g transform="translate(230.039375 388.4975) scale(0.12 -0.12)">
      <defs>
       <path id="NotoSansTC-Thin-48" d="M 704 0 
L 704 4646 
L 941 4646 
L 941 2586 
L 3526 2586 
L 3526 4646 
L 3770 4646 
L 3770 0 
L 3526 0 
L 3526 2374 
L 941 2374 
L 941 0 
L 704 0 
z
" transform="scale(0.015625)"/>
       <path id="NotoSansTC-Thin-61" d="M 1395 -83 
Q 1133 -83 912 13 
Q 691 109 556 310 
Q 422 512 422 832 
Q 422 1395 953 1686 
Q 1485 1978 2624 2106 
Q 2637 2381 2576 2640 
Q 2515 2899 2336 3072 
Q 2157 3245 1805 3245 
Q 1446 3245 1158 3104 
Q 870 2963 704 2835 
L 589 3021 
Q 698 3098 880 3200 
Q 1062 3302 1302 3379 
Q 1542 3456 1818 3456 
Q 2214 3456 2441 3280 
Q 2669 3104 2761 2816 
Q 2854 2528 2854 2182 
L 2854 0 
L 2662 0 
L 2630 448 
L 2611 448 
Q 2355 237 2044 77 
Q 1734 -83 1395 -83 
z
M 1414 128 
Q 1715 128 2003 272 
Q 2291 416 2624 698 
L 2624 1907 
Q 1894 1830 1462 1686 
Q 1030 1542 844 1334 
Q 659 1126 659 838 
Q 659 448 883 288 
Q 1107 128 1414 128 
z
" transform="scale(0.015625)"/>
       <path id="NotoSansTC-Thin-76" d="M 1363 0 
L 83 3373 
L 339 3373 
L 1133 1197 
Q 1222 954 1312 707 
Q 1402 461 1485 237 
L 1510 237 
Q 1600 461 1689 707 
Q 1779 954 1862 1197 
L 2662 3373 
L 2899 3373 
L 1638 0 
L 1363 0 
z
" transform="scale(0.015625)"/>
       <path id="NotoSansTC-Thin-65" d="M 1920 -83 
Q 1498 -83 1146 128 
Q 794 339 586 732 
Q 378 1126 378 1677 
Q 378 2093 496 2419 
Q 614 2746 822 2979 
Q 1030 3213 1289 3334 
Q 1549 3456 1830 3456 
Q 2221 3456 2505 3277 
Q 2790 3098 2947 2749 
Q 3104 2400 3104 1901 
Q 3104 1850 3104 1795 
Q 3104 1741 3091 1670 
L 621 1670 
Q 621 1229 784 880 
Q 947 531 1241 329 
Q 1536 128 1933 128 
Q 2221 128 2445 211 
Q 2669 294 2861 435 
L 2963 237 
Q 2771 122 2534 19 
Q 2298 -83 1920 -83 
z
M 621 1882 
L 2880 1882 
Q 2880 2566 2592 2905 
Q 2304 3245 1830 3245 
Q 1530 3245 1267 3081 
Q 1005 2918 832 2614 
Q 659 2310 621 1882 
z
" transform="scale(0.015625)"/>
       <path id="NotoSansTC-Thin-20" transform="scale(0.015625)"/>
       <path id="NotoSansTC-Thin-79" d="M 474 -1562 
Q 390 -1562 300 -1542 
Q 211 -1523 147 -1491 
L 205 -1280 
Q 256 -1306 333 -1322 
Q 410 -1338 486 -1338 
Q 806 -1338 1024 -1066 
Q 1242 -794 1382 -390 
L 1478 -77 
L 83 3373 
L 339 3373 
L 1190 1171 
Q 1274 954 1373 701 
Q 1472 448 1568 224 
L 1600 224 
Q 1683 448 1766 701 
Q 1850 954 1920 1171 
L 2675 3373 
L 2912 3373 
L 1568 -474 
Q 1485 -736 1337 -985 
Q 1190 -1235 979 -1398 
Q 768 -1562 474 -1562 
z
" transform="scale(0.015625)"/>
       <path id="NotoSansTC-Thin-6f" d="M 1875 -83 
Q 1472 -83 1129 125 
Q 787 333 582 726 
Q 378 1120 378 1677 
Q 378 2246 582 2643 
Q 787 3040 1129 3248 
Q 1472 3456 1875 3456 
Q 2176 3456 2448 3337 
Q 2720 3219 2928 2992 
Q 3136 2765 3254 2432 
Q 3373 2099 3373 1677 
Q 3373 1120 3165 726 
Q 2957 333 2617 125 
Q 2278 -83 1875 -83 
z
M 1875 128 
Q 2234 128 2518 323 
Q 2803 518 2969 867 
Q 3136 1216 3136 1677 
Q 3136 2144 2969 2496 
Q 2803 2848 2518 3046 
Q 2234 3245 1875 3245 
Q 1517 3245 1232 3046 
Q 947 2848 784 2496 
Q 621 2144 621 1677 
Q 621 1216 784 867 
Q 947 518 1232 323 
Q 1517 128 1875 128 
z
" transform="scale(0.015625)"/>
       <path id="NotoSansTC-Thin-75" d="M 1632 -83 
Q 1114 -83 864 230 
Q 614 544 614 1203 
L 614 3373 
L 845 3373 
L 845 1229 
Q 845 672 1033 400 
Q 1222 128 1651 128 
Q 1965 128 2224 304 
Q 2483 480 2797 851 
L 2797 3373 
L 3027 3373 
L 3027 0 
L 2829 0 
L 2803 576 
L 2790 576 
Q 2534 282 2259 99 
Q 1984 -83 1632 -83 
z
" transform="scale(0.015625)"/>
       <path id="NotoSansTC-Thin-72" d="M 672 0 
L 672 3373 
L 864 3373 
L 902 2739 
L 915 2739 
Q 1082 3046 1325 3251 
Q 1568 3456 1869 3456 
Q 1958 3456 2035 3443 
Q 2112 3430 2195 3386 
L 2138 3174 
Q 2054 3206 1996 3219 
Q 1939 3232 1837 3232 
Q 1613 3232 1357 3030 
Q 1101 2829 902 2330 
L 902 0 
L 672 0 
z
" transform="scale(0.015625)"/>
       <path id="NotoSansTC-Thin-62" d="M 1933 -83 
Q 1696 -83 1424 32 
Q 1152 147 915 339 
L 896 339 
L 864 0 
L 672 0 
L 672 5082 
L 902 5082 
L 902 3584 
L 883 2906 
Q 1146 3130 1453 3293 
Q 1760 3456 2074 3456 
Q 2534 3456 2835 3241 
Q 3136 3027 3283 2643 
Q 3430 2259 3430 1734 
Q 3430 1165 3222 755 
Q 3014 346 2675 131 
Q 2336 -83 1933 -83 
z
M 1952 128 
Q 2310 128 2588 333 
Q 2867 538 3027 902 
Q 3187 1267 3187 1734 
Q 3187 2163 3075 2505 
Q 2963 2848 2716 3046 
Q 2470 3245 2054 3245 
Q 1798 3245 1507 3094 
Q 1216 2944 902 2662 
L 902 582 
Q 1190 333 1472 230 
Q 1754 128 1952 128 
z
" transform="scale(0.015625)"/>
       <path id="NotoSansTC-Thin-63" d="M 1888 -83 
Q 1459 -83 1116 125 
Q 774 333 576 726 
Q 378 1120 378 1677 
Q 378 2246 589 2643 
Q 800 3040 1145 3248 
Q 1491 3456 1894 3456 
Q 2240 3456 2477 3325 
Q 2714 3194 2880 3034 
L 2733 2867 
Q 2566 3027 2361 3136 
Q 2157 3245 1894 3245 
Q 1536 3245 1248 3046 
Q 960 2848 790 2496 
Q 621 2144 621 1677 
Q 621 1216 781 867 
Q 941 518 1225 323 
Q 1510 128 1894 128 
Q 2176 128 2413 246 
Q 2650 365 2829 531 
L 2963 365 
Q 2752 179 2483 48 
Q 2214 -83 1888 -83 
z
" transform="scale(0.015625)"/>
       <path id="NotoSansTC-Thin-74" d="M 1542 -83 
Q 1229 -83 1056 38 
Q 883 160 816 381 
Q 749 602 749 896 
L 749 3162 
L 211 3162 
L 211 3341 
L 749 3373 
L 774 4358 
L 973 4358 
L 973 3373 
L 1971 3373 
L 1971 3162 
L 973 3162 
L 973 864 
Q 973 538 1081 333 
Q 1190 128 1562 128 
Q 1658 128 1779 160 
Q 1901 192 1990 237 
L 2067 45 
Q 1920 -6 1776 -44 
Q 1632 -83 1542 -83 
z
" transform="scale(0.015625)"/>
       <path id="NotoSansTC-Thin-64" d="M 1773 -83 
Q 1350 -83 1036 118 
Q 723 320 550 713 
Q 378 1107 378 1677 
Q 378 2221 586 2621 
Q 794 3021 1136 3238 
Q 1478 3456 1888 3456 
Q 2195 3456 2432 3347 
Q 2669 3238 2925 3034 
L 2906 3667 
L 2906 5082 
L 3136 5082 
L 3136 0 
L 2944 0 
L 2912 448 
L 2899 448 
Q 2688 237 2406 77 
Q 2125 -83 1773 -83 
z
M 1792 128 
Q 2086 128 2358 281 
Q 2630 435 2906 710 
L 2906 2784 
Q 2630 3034 2384 3139 
Q 2138 3245 1875 3245 
Q 1523 3245 1238 3033 
Q 954 2822 787 2467 
Q 621 2112 621 1677 
Q 621 1216 758 867 
Q 896 518 1158 323 
Q 1421 128 1792 128 
z
" transform="scale(0.015625)"/>
       <path id="NotoSansTC-Thin-6d" d="M 672 0 
L 672 3373 
L 864 3373 
L 902 2835 
L 915 2835 
Q 1146 3098 1427 3277 
Q 1709 3456 1984 3456 
Q 2400 3456 2614 3264 
Q 2829 3072 2912 2752 
Q 3213 3078 3497 3267 
Q 3782 3456 4070 3456 
Q 4563 3456 4816 3139 
Q 5069 2822 5069 2170 
L 5069 0 
L 4845 0 
L 4845 2138 
Q 4845 2694 4649 2969 
Q 4454 3245 4045 3245 
Q 3795 3245 3539 3078 
Q 3283 2912 2982 2579 
L 2982 0 
L 2758 0 
L 2758 2138 
Q 2758 2694 2566 2969 
Q 2374 3245 1965 3245 
Q 1722 3245 1456 3078 
Q 1190 2912 902 2579 
L 902 0 
L 672 0 
z
" transform="scale(0.015625)"/>
       <path id="NotoSansTC-Thin-70" d="M 672 -1555 
L 672 3373 
L 864 3373 
L 902 2938 
L 915 2938 
Q 1165 3136 1462 3296 
Q 1760 3456 2074 3456 
Q 2534 3456 2835 3241 
Q 3136 3027 3283 2643 
Q 3430 2259 3430 1734 
Q 3430 1165 3222 755 
Q 3014 346 2675 131 
Q 2336 -83 1933 -83 
Q 1696 -83 1433 29 
Q 1171 141 902 339 
L 902 -294 
L 902 -1555 
L 672 -1555 
z
M 1952 128 
Q 2310 128 2588 333 
Q 2867 538 3027 902 
Q 3187 1267 3187 1734 
Q 3187 2163 3075 2505 
Q 2963 2848 2716 3046 
Q 2470 3245 2054 3245 
Q 1798 3245 1510 3094 
Q 1222 2944 902 2662 
L 902 582 
Q 1203 333 1478 230 
Q 1754 128 1952 128 
z
" transform="scale(0.015625)"/>
       <path id="NotoSansTC-Thin-6e" d="M 672 0 
L 672 3373 
L 864 3373 
L 902 2835 
L 915 2835 
Q 1178 3098 1453 3277 
Q 1728 3456 2080 3456 
Q 2598 3456 2848 3139 
Q 3098 2822 3098 2170 
L 3098 0 
L 2867 0 
L 2867 2138 
Q 2867 2694 2678 2969 
Q 2490 3245 2054 3245 
Q 1741 3245 1481 3078 
Q 1222 2912 902 2579 
L 902 0 
L 672 0 
z
" transform="scale(0.015625)"/>
       <path id="NotoSansTC-Thin-3f" d="M 1152 1216 
Q 1107 1574 1196 1852 
Q 1286 2131 1446 2358 
Q 1606 2586 1776 2797 
Q 1946 3008 2064 3232 
Q 2182 3456 2182 3731 
Q 2182 3955 2092 4150 
Q 2003 4346 1820 4470 
Q 1638 4595 1344 4595 
Q 1082 4595 832 4476 
Q 582 4358 403 4134 
L 256 4269 
Q 454 4493 726 4649 
Q 998 4806 1357 4806 
Q 1696 4806 1933 4662 
Q 2170 4518 2294 4278 
Q 2419 4038 2419 3744 
Q 2419 3450 2300 3210 
Q 2182 2970 2009 2752 
Q 1837 2534 1673 2304 
Q 1510 2074 1414 1811 
Q 1318 1549 1363 1216 
L 1152 1216 
z
M 1286 -83 
Q 1184 -83 1107 -9 
Q 1030 64 1030 192 
Q 1030 333 1107 406 
Q 1184 480 1286 480 
Q 1389 480 1469 406 
Q 1549 333 1549 192 
Q 1549 64 1469 -9 
Q 1389 -83 1286 -83 
z
" transform="scale(0.015625)"/>
      </defs>
      <use xlink:href="#NotoSansTC-Thin-48"/>
      <use xlink:href="#NotoSansTC-Thin-61" x="69.799988"/>
      <use xlink:href="#NotoSansTC-Thin-76" x="123.399979"/>
      <use xlink:href="#NotoSansTC-Thin-65" x="169.999969"/>
      <use xlink:href="#NotoSansTC-Thin-20" x="222.699966"/>
      <use xlink:href="#NotoSansTC-Thin-79" x="244.699951"/>
      <use xlink:href="#NotoSansTC-Thin-6f" x="291.499939"/>
      <use xlink:href="#NotoSansTC-Thin-75" x="350.09993"/>
      <use xlink:href="#NotoSansTC-Thin-20" x="407.799927"/>
      <use xlink:href="#NotoSansTC-Thin-65" x="429.799911"/>
      <use xlink:href="#NotoSansTC-Thin-76" x="482.499908"/>
      <use xlink:href="#NotoSansTC-Thin-65" x="529.099899"/>
      <use xlink:href="#NotoSansTC-Thin-72" x="581.799896"/>
      <use xlink:href="#NotoSansTC-Thin-20" x="615.69989"/>
      <use xlink:href="#NotoSansTC-Thin-62" x="637.699875"/>
      <use xlink:href="#NotoSansTC-Thin-6f" x="696.999863"/>
      <use xlink:href="#NotoSansTC-Thin-79" x="755.599854"/>
      <use xlink:href="#NotoSansTC-Thin-63" x="802.399841"/>
      <use xlink:href="#NotoSansTC-Thin-6f" x="851.599838"/>
      <use xlink:href="#NotoSansTC-Thin-74" x="910.199829"/>
      <use xlink:href="#NotoSansTC-Thin-74" x="943.599823"/>
      <use xlink:href="#NotoSansTC-Thin-65" x="976.999817"/>
      <use xlink:href="#NotoSansTC-Thin-64" x="1029.699814"/>
      <use xlink:href="#NotoSansTC-Thin-20" x="1089.199799"/>
      <use xlink:href="#NotoSansTC-Thin-61" x="1111.199783"/>
      <use xlink:href="#NotoSansTC-Thin-20" x="1164.799774"/>
      <use xlink:href="#NotoSansTC-Thin-63" x="1186.799759"/>
      <use xlink:href="#NotoSansTC-Thin-6f" x="1235.999756"/>
      <use xlink:href="#NotoSansTC-Thin-6d" x="1294.599747"/>
      <use xlink:href="#NotoSansTC-Thin-70" x="1383.499741"/>
      <use xlink:href="#NotoSansTC-Thin-61" x="1442.999725"/>
      <use xlink:href="#NotoSansTC-Thin-6e" x="1496.599716"/>
      <use xlink:href="#NotoSansTC-Thin-79" x="1554.599701"/>
      <use xlink:href="#NotoSansTC-Thin-3f" x="1601.399689"/>
     </g>
    </g>
   </g>
   <g id="matplotlib.axis_2">
    <g id="ytick_1">
     <g id="line2d_3">
      <defs>
       <path id="mb954c20d12" d="M 0 0 
L -3.5 0 
" style="stroke: #000000; stroke-width: 0.8"/>
      </defs>
      <g>
       <use xlink:href="#mb954c20d12" x="49.731875" y="355.524375" style="stroke: #000000; stroke-width: 0.8"/>
      </g>
     </g>
     <g id="text_4">
      <!-- 0 -->
      <g transform="translate(36.369375 359.323594) scale(0.1 -0.1)">
       <defs>
        <path id="DejaVuSans-30" d="M 2034 4250 
Q 1547 4250 1301 3770 
Q 1056 3291 1056 2328 
Q 1056 1369 1301 889 
Q 1547 409 2034 409 
Q 2525 409 2770 889 
Q 3016 1369 3016 2328 
Q 3016 3291 2770 3770 
Q 2525 4250 2034 4250 
z
M 2034 4750 
Q 2819 4750 3233 4129 
Q 3647 3509 3647 2328 
Q 3647 1150 3233 529 
Q 2819 -91 2034 -91 
Q 1250 -91 836 529 
Q 422 1150 422 2328 
Q 422 3509 836 4129 
Q 1250 4750 2034 4750 
z
" transform="scale(0.015625)"/>
       </defs>
       <use xlink:href="#DejaVuSans-30"/>
      </g>
     </g>
    </g>
    <g id="ytick_2">
     <g id="line2d_4">
      <g>
       <use xlink:href="#mb954c20d12" x="49.731875" y="316.219164" style="stroke: #000000; stroke-width: 0.8"/>
      </g>
     </g>
     <g id="text_5">
      <!-- 50 -->
      <g transform="translate(30.006875 320.018383) scale(0.1 -0.1)">
       <defs>
        <path id="DejaVuSans-35" d="M 691 4666 
L 3169 4666 
L 3169 4134 
L 1269 4134 
L 1269 2991 
Q 1406 3038 1543 3061 
Q 1681 3084 1819 3084 
Q 2600 3084 3056 2656 
Q 3513 2228 3513 1497 
Q 3513 744 3044 326 
Q 2575 -91 1722 -91 
Q 1428 -91 1123 -41 
Q 819 9 494 109 
L 494 744 
Q 775 591 1075 516 
Q 1375 441 1709 441 
Q 2250 441 2565 725 
Q 2881 1009 2881 1497 
Q 2881 1984 2565 2268 
Q 2250 2553 1709 2553 
Q 1456 2553 1204 2497 
Q 953 2441 691 2322 
L 691 4666 
z
" transform="scale(0.015625)"/>
       </defs>
       <use xlink:href="#DejaVuSans-35"/>
       <use xlink:href="#DejaVuSans-30" x="63.623047"/>
      </g>
     </g>
    </g>
    <g id="ytick_3">
     <g id="line2d_5">
      <g>
       <use xlink:href="#mb954c20d12" x="49.731875" y="276.913953" style="stroke: #000000; stroke-width: 0.8"/>
      </g>
     </g>
     <g id="text_6">
      <!-- 100 -->
      <g transform="translate(23.644375 280.713172) scale(0.1 -0.1)">
       <defs>
        <path id="DejaVuSans-31" d="M 794 531 
L 1825 531 
L 1825 4091 
L 703 3866 
L 703 4441 
L 1819 4666 
L 2450 4666 
L 2450 531 
L 3481 531 
L 3481 0 
L 794 0 
L 794 531 
z
" transform="scale(0.015625)"/>
       </defs>
       <use xlink:href="#DejaVuSans-31"/>
       <use xlink:href="#DejaVuSans-30" x="63.623047"/>
       <use xlink:href="#DejaVuSans-30" x="127.246094"/>
      </g>
     </g>
    </g>
    <g id="ytick_4">
     <g id="line2d_6">
      <g>
       <use xlink:href="#mb954c20d12" x="49.731875" y="237.608742" style="stroke: #000000; stroke-width: 0.8"/>
      </g>
     </g>
     <g id="text_7">
      <!-- 150 -->
      <g transform="translate(23.644375 241.407961) scale(0.1 -0.1)">
       <use xlink:href="#DejaVuSans-31"/>
       <use xlink:href="#DejaVuSans-35" x="63.623047"/>
       <use xlink:href="#DejaVuSans-30" x="127.246094"/>
      </g>
     </g>
    </g>
    <g id="ytick_5">
     <g id="line2d_7">
      <g>
       <use xlink:href="#mb954c20d12" x="49.731875" y="198.303531" style="stroke: #000000; stroke-width: 0.8"/>
      </g>
     </g>
     <g id="text_8">
      <!-- 200 -->
      <g transform="translate(23.644375 202.10275) scale(0.1 -0.1)">
       <defs>
        <path id="DejaVuSans-32" d="M 1228 531 
L 3431 531 
L 3431 0 
L 469 0 
L 469 531 
Q 828 903 1448 1529 
Q 2069 2156 2228 2338 
Q 2531 2678 2651 2914 
Q 2772 3150 2772 3378 
Q 2772 3750 2511 3984 
Q 2250 4219 1831 4219 
Q 1534 4219 1204 4116 
Q 875 4013 500 3803 
L 500 4441 
Q 881 4594 1212 4672 
Q 1544 4750 1819 4750 
Q 2544 4750 2975 4387 
Q 3406 4025 3406 3419 
Q 3406 3131 3298 2873 
Q 3191 2616 2906 2266 
Q 2828 2175 2409 1742 
Q 1991 1309 1228 531 
z
" transform="scale(0.015625)"/>
       </defs>
       <use xlink:href="#DejaVuSans-32"/>
       <use xlink:href="#DejaVuSans-30" x="63.623047"/>
       <use xlink:href="#DejaVuSans-30" x="127.246094"/>
      </g>
     </g>
    </g>
    <g id="ytick_6">
     <g id="line2d_8">
      <g>
       <use xlink:href="#mb954c20d12" x="49.731875" y="158.99832" style="stroke: #000000; stroke-width: 0.8"/>
      </g>
     </g>
     <g id="text_9">
      <!-- 250 -->
      <g transform="translate(23.644375 162.797539) scale(0.1 -0.1)">
       <use xlink:href="#DejaVuSans-32"/>
       <use xlink:href="#DejaVuSans-35" x="63.623047"/>
       <use xlink:href="#DejaVuSans-30" x="127.246094"/>
      </g>
     </g>
    </g>
    <g id="ytick_7">
     <g id="line2d_9">
      <g>
       <use xlink:href="#mb954c20d12" x="49.731875" y="119.693109" style="stroke: #000000; stroke-width: 0.8"/>
      </g>
     </g>
     <g id="text_10">
      <!-- 300 -->
      <g transform="translate(23.644375 123.492328) scale(0.1 -0.1)">
       <defs>
        <path id="DejaVuSans-33" d="M 2597 2516 
Q 3050 2419 3304 2112 
Q 3559 1806 3559 1356 
Q 3559 666 3084 287 
Q 2609 -91 1734 -91 
Q 1441 -91 1130 -33 
Q 819 25 488 141 
L 488 750 
Q 750 597 1062 519 
Q 1375 441 1716 441 
Q 2309 441 2620 675 
Q 2931 909 2931 1356 
Q 2931 1769 2642 2001 
Q 2353 2234 1838 2234 
L 1294 2234 
L 1294 2753 
L 1863 2753 
Q 2328 2753 2575 2939 
Q 2822 3125 2822 3475 
Q 2822 3834 2567 4026 
Q 2313 4219 1838 4219 
Q 1578 4219 1281 4162 
Q 984 4106 628 3988 
L 628 4550 
Q 988 4650 1302 4700 
Q 1616 4750 1894 4750 
Q 2613 4750 3031 4423 
Q 3450 4097 3450 3541 
Q 3450 3153 3228 2886 
Q 3006 2619 2597 2516 
z
" transform="scale(0.015625)"/>
       </defs>
       <use xlink:href="#DejaVuSans-33"/>
       <use xlink:href="#DejaVuSans-30" x="63.623047"/>
       <use xlink:href="#DejaVuSans-30" x="127.246094"/>
      </g>
     </g>
    </g>
    <g id="ytick_8">
     <g id="line2d_10">
      <g>
       <use xlink:href="#mb954c20d12" x="49.731875" y="80.387899" style="stroke: #000000; stroke-width: 0.8"/>
      </g>
     </g>
     <g id="text_11">
      <!-- 350 -->
      <g transform="translate(23.644375 84.187117) scale(0.1 -0.1)">
       <use xlink:href="#DejaVuSans-33"/>
       <use xlink:href="#DejaVuSans-35" x="63.623047"/>
       <use xlink:href="#DejaVuSans-30" x="127.246094"/>
      </g>
     </g>
    </g>
    <g id="ytick_9">
     <g id="line2d_11">
      <g>
       <use xlink:href="#mb954c20d12" x="49.731875" y="41.082688" style="stroke: #000000; stroke-width: 0.8"/>
      </g>
     </g>
     <g id="text_12">
      <!-- 400 -->
      <g transform="translate(23.644375 44.881906) scale(0.1 -0.1)">
       <defs>
        <path id="DejaVuSans-34" d="M 2419 4116 
L 825 1625 
L 2419 1625 
L 2419 4116 
z
M 2253 4666 
L 3047 4666 
L 3047 1625 
L 3713 1625 
L 3713 1100 
L 3047 1100 
L 3047 0 
L 2419 0 
L 2419 1100 
L 313 1100 
L 313 1709 
L 2253 4666 
z
" transform="scale(0.015625)"/>
       </defs>
       <use xlink:href="#DejaVuSans-34"/>
       <use xlink:href="#DejaVuSans-30" x="63.623047"/>
       <use xlink:href="#DejaVuSans-30" x="127.246094"/>
      </g>
     </g>
    </g>
    <g id="text_13">
     <!-- Count -->
     <g transform="translate(16.72875 205.380937) rotate(-90) scale(0.12 -0.12)">
      <defs>
       <path id="NotoSansTC-Thin-43" d="M 2317 -83 
Q 1888 -83 1536 86 
Q 1184 256 928 576 
Q 672 896 534 1341 
Q 397 1786 397 2336 
Q 397 2886 537 3328 
Q 678 3770 934 4083 
Q 1190 4397 1552 4563 
Q 1914 4730 2355 4730 
Q 2758 4730 3059 4560 
Q 3360 4390 3539 4179 
L 3392 4019 
Q 3206 4237 2944 4371 
Q 2682 4506 2355 4506 
Q 1824 4506 1440 4240 
Q 1056 3974 851 3488 
Q 646 3002 646 2336 
Q 646 1670 851 1177 
Q 1056 685 1433 413 
Q 1811 141 2330 141 
Q 2694 141 2982 288 
Q 3270 435 3533 730 
L 3680 576 
Q 3418 269 3094 93 
Q 2771 -83 2317 -83 
z
" transform="scale(0.015625)"/>
      </defs>
      <use xlink:href="#NotoSansTC-Thin-43"/>
      <use xlink:href="#NotoSansTC-Thin-6f" x="61.899994"/>
      <use xlink:href="#NotoSansTC-Thin-75" x="120.499985"/>
      <use xlink:href="#NotoSansTC-Thin-6e" x="178.199982"/>
      <use xlink:href="#NotoSansTC-Thin-74" x="236.199966"/>
     </g>
    </g>
   </g>
   <g id="line2d_12">
    <path clip-path="url(#p3718c4a104)" style="fill: none; stroke: #424242; stroke-width: 2.25; stroke-linecap: square"/>
   </g>
   <g id="line2d_13">
    <path clip-path="url(#p3718c4a104)" style="fill: none; stroke: #424242; stroke-width: 2.25; stroke-linecap: square"/>
   </g>
   <g id="patch_5">
    <path d="M 49.731875 355.524375 
L 49.731875 22.884375 
" style="fill: none; stroke: #000000; stroke-width: 0.8; stroke-linejoin: miter; stroke-linecap: square"/>
   </g>
   <g id="patch_6">
    <path d="M 607.731875 355.524375 
L 607.731875 22.884375 
" style="fill: none; stroke: #000000; stroke-width: 0.8; stroke-linejoin: miter; stroke-linecap: square"/>
   </g>
   <g id="patch_7">
    <path d="M 49.731875 355.524375 
L 607.731875 355.524375 
" style="fill: none; stroke: #000000; stroke-width: 0.8; stroke-linejoin: miter; stroke-linecap: square"/>
   </g>
   <g id="patch_8">
    <path d="M 49.731875 22.884375 
L 607.731875 22.884375 
" style="fill: none; stroke: #000000; stroke-width: 0.8; stroke-linejoin: miter; stroke-linecap: square"/>
   </g>
   <g id="text_14">
    <!-- 403 -->
    <g transform="translate(179.855 35.80875) scale(0.12 -0.12)">
     <defs>
      <path id="NotoSansTC-Thin-34" d="M 2195 0 
L 2195 3482 
Q 2195 3629 2204 3843 
Q 2214 4058 2227 4205 
L 2195 4205 
Q 2112 4058 2019 3901 
Q 1926 3744 1830 3590 
L 422 1568 
L 3110 1568 
L 3110 1363 
L 115 1363 
L 115 1485 
L 2259 4646 
L 2419 4646 
L 2419 0 
L 2195 0 
z
" transform="scale(0.015625)"/>
      <path id="NotoSansTC-Thin-30" d="M 1670 -83 
Q 1261 -83 963 179 
Q 666 442 509 979 
Q 352 1517 352 2336 
Q 352 3149 509 3677 
Q 666 4205 963 4467 
Q 1261 4730 1670 4730 
Q 2080 4730 2371 4467 
Q 2662 4205 2822 3677 
Q 2982 3149 2982 2336 
Q 2982 1517 2822 979 
Q 2662 442 2371 179 
Q 2080 -83 1670 -83 
z
M 1670 128 
Q 1997 128 2240 384 
Q 2483 640 2614 1133 
Q 2746 1626 2746 2336 
Q 2746 3040 2614 3529 
Q 2483 4019 2240 4272 
Q 1997 4525 1670 4525 
Q 1344 4525 1101 4272 
Q 858 4019 723 3529 
Q 589 3040 589 2336 
Q 589 1626 723 1133 
Q 858 640 1101 384 
Q 1344 128 1670 128 
z
" transform="scale(0.015625)"/>
      <path id="NotoSansTC-Thin-33" d="M 1619 -83 
Q 1261 -83 998 13 
Q 736 109 544 256 
Q 352 403 211 550 
L 358 717 
Q 563 499 857 313 
Q 1152 128 1632 128 
Q 1952 128 2198 262 
Q 2445 397 2585 640 
Q 2726 883 2726 1210 
Q 2726 1542 2560 1795 
Q 2394 2048 2038 2189 
Q 1683 2330 1114 2330 
L 1114 2554 
Q 1651 2554 1964 2698 
Q 2278 2842 2416 3088 
Q 2554 3334 2554 3629 
Q 2554 4026 2298 4272 
Q 2042 4518 1606 4518 
Q 1293 4518 1017 4374 
Q 742 4230 557 4026 
L 410 4192 
Q 634 4410 925 4570 
Q 1216 4730 1606 4730 
Q 1939 4730 2211 4598 
Q 2483 4467 2643 4224 
Q 2803 3981 2803 3642 
Q 2803 3168 2550 2877 
Q 2298 2586 1926 2464 
L 1926 2438 
Q 2208 2381 2445 2221 
Q 2682 2061 2826 1808 
Q 2970 1555 2970 1222 
Q 2970 826 2790 531 
Q 2611 237 2307 77 
Q 2003 -83 1619 -83 
z
" transform="scale(0.015625)"/>
     </defs>
     <use xlink:href="#NotoSansTC-Thin-34"/>
     <use xlink:href="#NotoSansTC-Thin-30" x="52.099991"/>
     <use xlink:href="#NotoSansTC-Thin-33" x="104.199982"/>
    </g>
   </g>
   <g id="text_15">
    <!-- 278 -->
    <g transform="translate(458.855 134.071777) scale(0.12 -0.12)">
     <defs>
      <path id="NotoSansTC-Thin-32" d="M 294 0 
L 294 147 
Q 1120 858 1613 1434 
Q 2106 2010 2323 2499 
Q 2541 2989 2541 3424 
Q 2541 3725 2435 3974 
Q 2330 4224 2106 4371 
Q 1882 4518 1523 4518 
Q 1210 4518 931 4352 
Q 653 4186 442 3923 
L 282 4070 
Q 525 4346 829 4538 
Q 1133 4730 1542 4730 
Q 1939 4730 2214 4566 
Q 2490 4403 2637 4112 
Q 2784 3821 2784 3424 
Q 2784 2918 2537 2406 
Q 2291 1894 1820 1347 
Q 1350 800 678 179 
Q 870 192 1062 201 
Q 1254 211 1440 211 
L 3014 211 
L 3014 0 
L 294 0 
z
" transform="scale(0.015625)"/>
      <path id="NotoSansTC-Thin-37" d="M 1344 0 
Q 1376 717 1462 1318 
Q 1549 1920 1712 2445 
Q 1875 2970 2124 3459 
Q 2374 3949 2726 4435 
L 307 4435 
L 307 4646 
L 3034 4646 
L 3034 4512 
Q 2624 3955 2355 3436 
Q 2086 2918 1932 2384 
Q 1779 1850 1705 1267 
Q 1632 685 1606 0 
L 1344 0 
z
" transform="scale(0.015625)"/>
      <path id="NotoSansTC-Thin-38" d="M 1696 -83 
Q 1286 -83 966 80 
Q 646 243 464 521 
Q 282 800 282 1152 
Q 282 1478 422 1744 
Q 563 2010 774 2202 
Q 986 2394 1197 2509 
L 1197 2534 
Q 954 2694 752 2953 
Q 550 3213 550 3578 
Q 550 3910 704 4163 
Q 858 4416 1117 4560 
Q 1376 4704 1696 4704 
Q 2080 4704 2345 4544 
Q 2611 4384 2752 4112 
Q 2893 3840 2893 3494 
Q 2893 3238 2784 3008 
Q 2675 2778 2528 2602 
Q 2381 2426 2253 2317 
L 2253 2285 
Q 2445 2170 2627 2010 
Q 2810 1850 2925 1626 
Q 3040 1402 3040 1082 
Q 3040 762 2870 496 
Q 2701 230 2400 73 
Q 2099 -83 1696 -83 
z
M 2035 2387 
Q 2336 2630 2499 2905 
Q 2662 3181 2662 3494 
Q 2662 3763 2550 3990 
Q 2438 4218 2220 4358 
Q 2003 4499 1696 4499 
Q 1293 4499 1040 4236 
Q 787 3974 787 3578 
Q 787 3238 972 3017 
Q 1158 2797 1446 2653 
Q 1734 2509 2035 2387 
z
M 1696 128 
Q 2035 128 2281 256 
Q 2528 384 2662 601 
Q 2797 819 2797 1082 
Q 2797 1370 2675 1574 
Q 2554 1779 2352 1923 
Q 2150 2067 1894 2182 
Q 1638 2298 1370 2400 
Q 998 2189 758 1875 
Q 518 1562 518 1152 
Q 518 870 668 636 
Q 819 403 1088 265 
Q 1357 128 1696 128 
z
" transform="scale(0.015625)"/>
     </defs>
     <use xlink:href="#NotoSansTC-Thin-32"/>
     <use xlink:href="#NotoSansTC-Thin-37" x="52.099991"/>
     <use xlink:href="#NotoSansTC-Thin-38" x="104.199982"/>
    </g>
   </g>
   <g id="text_16">
    <!-- Number of People Who Have/Haven't Boycotted a Company -->
    <g transform="translate(169.889375 16.884375) scale(0.12 -0.12)">
     <defs>
      <path id="NotoSansTC-Thin-4e" d="M 704 0 
L 704 4646 
L 954 4646 
L 3002 1261 
L 3533 346 
L 3565 346 
Q 3546 685 3536 1008 
Q 3526 1331 3526 1658 
L 3526 4646 
L 3757 4646 
L 3757 0 
L 3501 0 
L 1459 3386 
L 928 4301 
L 902 4301 
Q 915 3974 921 3667 
Q 928 3360 928 3027 
L 928 0 
L 704 0 
z
" transform="scale(0.015625)"/>
      <path id="NotoSansTC-Thin-66" d="M 704 0 
L 704 4192 
Q 704 4525 797 4739 
Q 890 4954 1066 5059 
Q 1242 5165 1485 5165 
Q 1594 5165 1715 5136 
Q 1837 5107 1958 5056 
L 1888 4858 
Q 1683 4960 1478 4960 
Q 1190 4960 1059 4749 
Q 928 4538 928 4160 
L 928 0 
L 704 0 
z
M 237 3162 
L 237 3341 
L 704 3373 
L 1728 3373 
L 1728 3162 
L 237 3162 
z
" transform="scale(0.015625)"/>
      <path id="NotoSansTC-Thin-50" d="M 704 0 
L 704 4646 
L 1824 4646 
Q 2355 4646 2726 4521 
Q 3098 4397 3293 4121 
Q 3488 3846 3488 3379 
Q 3488 2931 3296 2636 
Q 3104 2342 2739 2195 
Q 2374 2048 1850 2048 
L 941 2048 
L 941 0 
L 704 0 
z
M 941 2259 
L 1766 2259 
Q 2509 2259 2870 2518 
Q 3232 2778 3232 3379 
Q 3232 3987 2864 4211 
Q 2496 4435 1741 4435 
L 941 4435 
L 941 2259 
z
" transform="scale(0.015625)"/>
      <path id="NotoSansTC-Thin-6c" d="M 1018 -83 
Q 909 -83 832 -35 
Q 755 13 713 115 
Q 672 218 672 378 
L 672 5082 
L 902 5082 
L 902 339 
Q 902 237 940 182 
Q 979 128 1043 128 
Q 1062 128 1088 131 
Q 1114 134 1165 141 
L 1210 -58 
Q 1165 -64 1126 -73 
Q 1088 -83 1018 -83 
z
" transform="scale(0.015625)"/>
      <path id="NotoSansTC-Thin-57" d="M 1286 0 
L 211 4646 
L 461 4646 
L 1075 1843 
Q 1165 1466 1248 1085 
Q 1331 704 1414 320 
L 1440 320 
Q 1530 704 1622 1085 
Q 1715 1466 1811 1843 
L 2560 4646 
L 2829 4646 
L 3584 1843 
Q 3680 1466 3773 1085 
Q 3866 704 3962 320 
L 3994 320 
Q 4077 704 4153 1085 
Q 4230 1466 4307 1843 
L 4928 4646 
L 5165 4646 
L 4102 0 
L 3853 0 
L 2963 3315 
Q 2899 3597 2838 3840 
Q 2778 4083 2707 4358 
L 2682 4358 
Q 2618 4083 2547 3840 
Q 2477 3597 2413 3315 
L 1536 0 
L 1286 0 
z
" transform="scale(0.015625)"/>
      <path id="NotoSansTC-Thin-68" d="M 672 0 
L 672 5082 
L 902 5082 
L 902 3584 
L 902 2822 
Q 1171 3098 1449 3277 
Q 1728 3456 2080 3456 
Q 2598 3456 2848 3139 
Q 3098 2822 3098 2170 
L 3098 0 
L 2867 0 
L 2867 2138 
Q 2867 2694 2678 2969 
Q 2490 3245 2054 3245 
Q 1741 3245 1481 3078 
Q 1222 2912 902 2579 
L 902 0 
L 672 0 
z
" transform="scale(0.015625)"/>
      <path id="NotoSansTC-Thin-2f" d="M 58 -1126 
L 2298 5005 
L 2515 5005 
L 282 -1126 
L 58 -1126 
z
" transform="scale(0.015625)"/>
      <path id="NotoSansTC-Thin-27" d="M 634 3456 
L 589 4454 
L 589 4883 
L 870 4883 
L 870 4454 
L 832 3456 
L 634 3456 
z
" transform="scale(0.015625)"/>
      <path id="NotoSansTC-Thin-42" d="M 704 0 
L 704 4646 
L 1920 4646 
Q 2387 4646 2723 4524 
Q 3059 4403 3244 4153 
Q 3430 3904 3430 3520 
Q 3430 3277 3347 3072 
Q 3264 2867 3104 2723 
Q 2944 2579 2701 2509 
L 2701 2477 
Q 3162 2406 3443 2121 
Q 3725 1837 3725 1350 
Q 3725 909 3513 608 
Q 3302 307 2918 153 
Q 2534 0 2003 0 
L 704 0 
z
M 941 2586 
L 1779 2586 
Q 2541 2586 2864 2832 
Q 3187 3078 3187 3507 
Q 3187 4019 2841 4230 
Q 2496 4442 1824 4442 
L 941 4442 
L 941 2586 
z
M 941 211 
L 1920 211 
Q 2643 211 3065 483 
Q 3488 755 3488 1338 
Q 3488 1869 3075 2121 
Q 2662 2374 1920 2374 
L 941 2374 
L 941 211 
z
" transform="scale(0.015625)"/>
     </defs>
     <use xlink:href="#NotoSansTC-Thin-4e"/>
     <use xlink:href="#NotoSansTC-Thin-75" x="69.599991"/>
     <use xlink:href="#NotoSansTC-Thin-6d" x="127.299988"/>
     <use xlink:href="#NotoSansTC-Thin-62" x="216.199982"/>
     <use xlink:href="#NotoSansTC-Thin-65" x="275.499969"/>
     <use xlink:href="#NotoSansTC-Thin-72" x="328.199966"/>
     <use xlink:href="#NotoSansTC-Thin-20" x="362.09996"/>
     <use xlink:href="#NotoSansTC-Thin-6f" x="384.099945"/>
     <use xlink:href="#NotoSansTC-Thin-66" x="442.699936"/>
     <use xlink:href="#NotoSansTC-Thin-20" x="470.59993"/>
     <use xlink:href="#NotoSansTC-Thin-50" x="492.599915"/>
     <use xlink:href="#NotoSansTC-Thin-65" x="552.399902"/>
     <use xlink:href="#NotoSansTC-Thin-6f" x="605.099899"/>
     <use xlink:href="#NotoSansTC-Thin-70" x="663.69989"/>
     <use xlink:href="#NotoSansTC-Thin-6c" x="723.199875"/>
     <use xlink:href="#NotoSansTC-Thin-65" x="748.599869"/>
     <use xlink:href="#NotoSansTC-Thin-20" x="801.299866"/>
     <use xlink:href="#NotoSansTC-Thin-57" x="823.29985"/>
     <use xlink:href="#NotoSansTC-Thin-68" x="907.499832"/>
     <use xlink:href="#NotoSansTC-Thin-6f" x="964.999817"/>
     <use xlink:href="#NotoSansTC-Thin-20" x="1023.599808"/>
     <use xlink:href="#NotoSansTC-Thin-48" x="1045.599792"/>
     <use xlink:href="#NotoSansTC-Thin-61" x="1115.39978"/>
     <use xlink:href="#NotoSansTC-Thin-76" x="1168.999771"/>
     <use xlink:href="#NotoSansTC-Thin-65" x="1215.599762"/>
     <use xlink:href="#NotoSansTC-Thin-2f" x="1268.299759"/>
     <use xlink:href="#NotoSansTC-Thin-48" x="1307.89975"/>
     <use xlink:href="#NotoSansTC-Thin-61" x="1377.699738"/>
     <use xlink:href="#NotoSansTC-Thin-76" x="1431.299728"/>
     <use xlink:href="#NotoSansTC-Thin-65" x="1477.899719"/>
     <use xlink:href="#NotoSansTC-Thin-6e" x="1530.599716"/>
     <use xlink:href="#NotoSansTC-Thin-27" x="1588.599701"/>
     <use xlink:href="#NotoSansTC-Thin-74" x="1611.699692"/>
     <use xlink:href="#NotoSansTC-Thin-20" x="1645.099686"/>
     <use xlink:href="#NotoSansTC-Thin-42" x="1667.09967"/>
     <use xlink:href="#NotoSansTC-Thin-6f" x="1730.299667"/>
     <use xlink:href="#NotoSansTC-Thin-79" x="1788.899658"/>
     <use xlink:href="#NotoSansTC-Thin-63" x="1835.699646"/>
     <use xlink:href="#NotoSansTC-Thin-6f" x="1884.899643"/>
     <use xlink:href="#NotoSansTC-Thin-74" x="1943.499634"/>
     <use xlink:href="#NotoSansTC-Thin-74" x="1976.899628"/>
     <use xlink:href="#NotoSansTC-Thin-65" x="2010.299622"/>
     <use xlink:href="#NotoSansTC-Thin-64" x="2062.999619"/>
     <use xlink:href="#NotoSansTC-Thin-20" x="2122.499603"/>
     <use xlink:href="#NotoSansTC-Thin-61" x="2144.499588"/>
     <use xlink:href="#NotoSansTC-Thin-20" x="2198.099579"/>
     <use xlink:href="#NotoSansTC-Thin-43" x="2220.099564"/>
     <use xlink:href="#NotoSansTC-Thin-6f" x="2281.999557"/>
     <use xlink:href="#NotoSansTC-Thin-6d" x="2340.599548"/>
     <use xlink:href="#NotoSansTC-Thin-70" x="2429.499542"/>
     <use xlink:href="#NotoSansTC-Thin-61" x="2488.999527"/>
     <use xlink:href="#NotoSansTC-Thin-6e" x="2542.599518"/>
     <use xlink:href="#NotoSansTC-Thin-79" x="2600.599503"/>
    </g>
   </g>
  </g>
 </g>
 <defs>
  <clipPath id="p3718c4a104">
   <rect x="49.731875" y="22.884375" width="558" height="332.64"/>
  </clipPath>
 </defs>
</svg>
