<?xml version="1.0" encoding="utf-8" standalone="no"?>
<!DOCTYPE svg PUBLIC "-//W3C//DTD SVG 1.1//EN"
  "http://www.w3.org/Graphics/SVG/1.1/DTD/svg11.dtd">
<svg xmlns:xlink="http://www.w3.org/1999/xlink" width="891.165625pt" height="351.835125pt" viewBox="0 0 891.165625 351.835125" xmlns="http://www.w3.org/2000/svg" version="1.1">
 <metadata>
  <rdf:RDF xmlns:dc="http://purl.org/dc/elements/1.1/" xmlns:cc="http://creativecommons.org/ns#" xmlns:rdf="http://www.w3.org/1999/02/22-rdf-syntax-ns#">
   <cc:Work>
    <dc:type rdf:resource="http://purl.org/dc/dcmitype/StillImage"/>
    <dc:date>2024-06-02T21:58:44.570507</dc:date>
    <dc:format>image/svg+xml</dc:format>
    <dc:creator>
     <cc:Agent>
      <dc:title>Matplotlib v3.8.4, https://matplotlib.org/</dc:title>
     </cc:Agent>
    </dc:creator>
   </cc:Work>
  </rdf:RDF>
 </metadata>
 <defs>
  <style type="text/css">*{stroke-linejoin: round; stroke-linecap: butt}</style>
 </defs>
 <g id="figure_1">
  <g id="patch_1">
   <path d="M 0 351.835125 
L 891.165625 351.835125 
L 891.165625 0 
L 0 0 
z
" style="fill: #ffffff"/>
  </g>
  <g id="axes_1">
   <g id="patch_2">
    <path d="M 46.965625 314.278875 
L 427.42017 314.278875 
L 427.42017 37.078875 
L 46.965625 37.078875 
z
" style="fill: #ffffff"/>
   </g>
   <g id="patch_3">
    <path d="M 54.574716 314.278875 
L 115.447443 314.278875 
L 115.447443 310.302971 
L 54.574716 310.302971 
z
" clip-path="url(#p8be02e4084)" style="fill: #a1c9f4"/>
   </g>
   <g id="patch_4">
    <path d="M 130.665625 314.278875 
L 191.538352 314.278875 
L 191.538352 298.375261 
L 130.665625 298.375261 
z
" clip-path="url(#p8be02e4084)" style="fill: #ffb482"/>
   </g>
   <g id="patch_5">
    <path d="M 206.756534 314.278875 
L 267.629261 314.278875 
L 267.629261 227.604176 
L 206.756534 227.604176 
z
" clip-path="url(#p8be02e4084)" style="fill: #8de5a1"/>
   </g>
   <g id="patch_6">
    <path d="M 282.847443 314.278875 
L 343.72017 314.278875 
L 343.72017 50.278875 
L 282.847443 50.278875 
z
" clip-path="url(#p8be02e4084)" style="fill: #ff9f9b"/>
   </g>
   <g id="patch_7">
    <path d="M 358.938352 314.278875 
L 419.81108 314.278875 
L 419.81108 143.31502 
L 358.938352 143.31502 
z
" clip-path="url(#p8be02e4084)" style="fill: #d0bbff"/>
   </g>
   <g id="matplotlib.axis_1">
    <g id="xtick_1">
     <g id="line2d_1">
      <defs>
       <path id="m465ad4fd40" d="M 0 0 
L 0 3.5 
" style="stroke: #000000; stroke-width: 0.8"/>
      </defs>
      <g>
       <use xlink:href="#m465ad4fd40" x="85.01108" y="314.278875" style="stroke: #000000; stroke-width: 0.8"/>
      </g>
     </g>
     <g id="text_1">
      <!-- 1 -->
      <g transform="translate(81.82983 328.877313) scale(0.1 -0.1)">
       <defs>
        <path id="DejaVuSans-31" d="M 794 531 
L 1825 531 
L 1825 4091 
L 703 3866 
L 703 4441 
L 1819 4666 
L 2450 4666 
L 2450 531 
L 3481 531 
L 3481 0 
L 794 0 
L 794 531 
z
" transform="scale(0.015625)"/>
       </defs>
       <use xlink:href="#DejaVuSans-31"/>
      </g>
     </g>
    </g>
    <g id="xtick_2">
     <g id="line2d_2">
      <g>
       <use xlink:href="#m465ad4fd40" x="161.101989" y="314.278875" style="stroke: #000000; stroke-width: 0.8"/>
      </g>
     </g>
     <g id="text_2">
      <!-- 2 -->
      <g transform="translate(157.920739 328.877313) scale(0.1 -0.1)">
       <defs>
        <path id="DejaVuSans-32" d="M 1228 531 
L 3431 531 
L 3431 0 
L 469 0 
L 469 531 
Q 828 903 1448 1529 
Q 2069 2156 2228 2338 
Q 2531 2678 2651 2914 
Q 2772 3150 2772 3378 
Q 2772 3750 2511 3984 
Q 2250 4219 1831 4219 
Q 1534 4219 1204 4116 
Q 875 4013 500 3803 
L 500 4441 
Q 881 4594 1212 4672 
Q 1544 4750 1819 4750 
Q 2544 4750 2975 4387 
Q 3406 4025 3406 3419 
Q 3406 3131 3298 2873 
Q 3191 2616 2906 2266 
Q 2828 2175 2409 1742 
Q 1991 1309 1228 531 
z
" transform="scale(0.015625)"/>
       </defs>
       <use xlink:href="#DejaVuSans-32"/>
      </g>
     </g>
    </g>
    <g id="xtick_3">
     <g id="line2d_3">
      <g>
       <use xlink:href="#m465ad4fd40" x="237.192898" y="314.278875" style="stroke: #000000; stroke-width: 0.8"/>
      </g>
     </g>
     <g id="text_3">
      <!-- 3 -->
      <g transform="translate(234.011648 328.877313) scale(0.1 -0.1)">
       <defs>
        <path id="DejaVuSans-33" d="M 2597 2516 
Q 3050 2419 3304 2112 
Q 3559 1806 3559 1356 
Q 3559 666 3084 287 
Q 2609 -91 1734 -91 
Q 1441 -91 1130 -33 
Q 819 25 488 141 
L 488 750 
Q 750 597 1062 519 
Q 1375 441 1716 441 
Q 2309 441 2620 675 
Q 2931 909 2931 1356 
Q 2931 1769 2642 2001 
Q 2353 2234 1838 2234 
L 1294 2234 
L 1294 2753 
L 1863 2753 
Q 2328 2753 2575 2939 
Q 2822 3125 2822 3475 
Q 2822 3834 2567 4026 
Q 2313 4219 1838 4219 
Q 1578 4219 1281 4162 
Q 984 4106 628 3988 
L 628 4550 
Q 988 4650 1302 4700 
Q 1616 4750 1894 4750 
Q 2613 4750 3031 4423 
Q 3450 4097 3450 3541 
Q 3450 3153 3228 2886 
Q 3006 2619 2597 2516 
z
" transform="scale(0.015625)"/>
       </defs>
       <use xlink:href="#DejaVuSans-33"/>
      </g>
     </g>
    </g>
    <g id="xtick_4">
     <g id="line2d_4">
      <g>
       <use xlink:href="#m465ad4fd40" x="313.283807" y="314.278875" style="stroke: #000000; stroke-width: 0.8"/>
      </g>
     </g>
     <g id="text_4">
      <!-- 4 -->
      <g transform="translate(310.102557 328.877313) scale(0.1 -0.1)">
       <defs>
        <path id="DejaVuSans-34" d="M 2419 4116 
L 825 1625 
L 2419 1625 
L 2419 4116 
z
M 2253 4666 
L 3047 4666 
L 3047 1625 
L 3713 1625 
L 3713 1100 
L 3047 1100 
L 3047 0 
L 2419 0 
L 2419 1100 
L 313 1100 
L 313 1709 
L 2253 4666 
z
" transform="scale(0.015625)"/>
       </defs>
       <use xlink:href="#DejaVuSans-34"/>
      </g>
     </g>
    </g>
    <g id="xtick_5">
     <g id="line2d_5">
      <g>
       <use xlink:href="#m465ad4fd40" x="389.374716" y="314.278875" style="stroke: #000000; stroke-width: 0.8"/>
      </g>
     </g>
     <g id="text_5">
      <!-- 5 -->
      <g transform="translate(386.193466 328.877313) scale(0.1 -0.1)">
       <defs>
        <path id="DejaVuSans-35" d="M 691 4666 
L 3169 4666 
L 3169 4134 
L 1269 4134 
L 1269 2991 
Q 1406 3038 1543 3061 
Q 1681 3084 1819 3084 
Q 2600 3084 3056 2656 
Q 3513 2228 3513 1497 
Q 3513 744 3044 326 
Q 2575 -91 1722 -91 
Q 1428 -91 1123 -41 
Q 819 9 494 109 
L 494 744 
Q 775 591 1075 516 
Q 1375 441 1709 441 
Q 2250 441 2565 725 
Q 2881 1009 2881 1497 
Q 2881 1984 2565 2268 
Q 2250 2553 1709 2553 
Q 1456 2553 1204 2497 
Q 953 2441 691 2322 
L 691 4666 
z
" transform="scale(0.015625)"/>
       </defs>
       <use xlink:href="#DejaVuSans-35"/>
      </g>
     </g>
    </g>
    <g id="text_6">
     <!-- ← Disagreement — Neutral — Agreement → -->
     <g transform="translate(127.803835 342.555438) scale(0.1 -0.1)">
      <defs>
       <path id="DejaVuSans-2190" d="M 313 1866 
L 313 2147 
L 1541 3375 
L 1916 3000 
L 1188 2272 
L 4997 2272 
L 4997 1741 
L 1188 1741 
L 1916 1013 
L 1541 638 
L 313 1866 
z
" transform="scale(0.015625)"/>
       <path id="DejaVuSans-20" transform="scale(0.015625)"/>
       <path id="DejaVuSans-44" d="M 1259 4147 
L 1259 519 
L 2022 519 
Q 2988 519 3436 956 
Q 3884 1394 3884 2338 
Q 3884 3275 3436 3711 
Q 2988 4147 2022 4147 
L 1259 4147 
z
M 628 4666 
L 1925 4666 
Q 3281 4666 3915 4102 
Q 4550 3538 4550 2338 
Q 4550 1131 3912 565 
Q 3275 0 1925 0 
L 628 0 
L 628 4666 
z
" transform="scale(0.015625)"/>
       <path id="DejaVuSans-69" d="M 603 3500 
L 1178 3500 
L 1178 0 
L 603 0 
L 603 3500 
z
M 603 4863 
L 1178 4863 
L 1178 4134 
L 603 4134 
L 603 4863 
z
" transform="scale(0.015625)"/>
       <path id="DejaVuSans-73" d="M 2834 3397 
L 2834 2853 
Q 2591 2978 2328 3040 
Q 2066 3103 1784 3103 
Q 1356 3103 1142 2972 
Q 928 2841 928 2578 
Q 928 2378 1081 2264 
Q 1234 2150 1697 2047 
L 1894 2003 
Q 2506 1872 2764 1633 
Q 3022 1394 3022 966 
Q 3022 478 2636 193 
Q 2250 -91 1575 -91 
Q 1294 -91 989 -36 
Q 684 19 347 128 
L 347 722 
Q 666 556 975 473 
Q 1284 391 1588 391 
Q 1994 391 2212 530 
Q 2431 669 2431 922 
Q 2431 1156 2273 1281 
Q 2116 1406 1581 1522 
L 1381 1569 
Q 847 1681 609 1914 
Q 372 2147 372 2553 
Q 372 3047 722 3315 
Q 1072 3584 1716 3584 
Q 2034 3584 2315 3537 
Q 2597 3491 2834 3397 
z
" transform="scale(0.015625)"/>
       <path id="DejaVuSans-61" d="M 2194 1759 
Q 1497 1759 1228 1600 
Q 959 1441 959 1056 
Q 959 750 1161 570 
Q 1363 391 1709 391 
Q 2188 391 2477 730 
Q 2766 1069 2766 1631 
L 2766 1759 
L 2194 1759 
z
M 3341 1997 
L 3341 0 
L 2766 0 
L 2766 531 
Q 2569 213 2275 61 
Q 1981 -91 1556 -91 
Q 1019 -91 701 211 
Q 384 513 384 1019 
Q 384 1609 779 1909 
Q 1175 2209 1959 2209 
L 2766 2209 
L 2766 2266 
Q 2766 2663 2505 2880 
Q 2244 3097 1772 3097 
Q 1472 3097 1187 3025 
Q 903 2953 641 2809 
L 641 3341 
Q 956 3463 1253 3523 
Q 1550 3584 1831 3584 
Q 2591 3584 2966 3190 
Q 3341 2797 3341 1997 
z
" transform="scale(0.015625)"/>
       <path id="DejaVuSans-67" d="M 2906 1791 
Q 2906 2416 2648 2759 
Q 2391 3103 1925 3103 
Q 1463 3103 1205 2759 
Q 947 2416 947 1791 
Q 947 1169 1205 825 
Q 1463 481 1925 481 
Q 2391 481 2648 825 
Q 2906 1169 2906 1791 
z
M 3481 434 
Q 3481 -459 3084 -895 
Q 2688 -1331 1869 -1331 
Q 1566 -1331 1297 -1286 
Q 1028 -1241 775 -1147 
L 775 -588 
Q 1028 -725 1275 -790 
Q 1522 -856 1778 -856 
Q 2344 -856 2625 -561 
Q 2906 -266 2906 331 
L 2906 616 
Q 2728 306 2450 153 
Q 2172 0 1784 0 
Q 1141 0 747 490 
Q 353 981 353 1791 
Q 353 2603 747 3093 
Q 1141 3584 1784 3584 
Q 2172 3584 2450 3431 
Q 2728 3278 2906 2969 
L 2906 3500 
L 3481 3500 
L 3481 434 
z
" transform="scale(0.015625)"/>
       <path id="DejaVuSans-72" d="M 2631 2963 
Q 2534 3019 2420 3045 
Q 2306 3072 2169 3072 
Q 1681 3072 1420 2755 
Q 1159 2438 1159 1844 
L 1159 0 
L 581 0 
L 581 3500 
L 1159 3500 
L 1159 2956 
Q 1341 3275 1631 3429 
Q 1922 3584 2338 3584 
Q 2397 3584 2469 3576 
Q 2541 3569 2628 3553 
L 2631 2963 
z
" transform="scale(0.015625)"/>
       <path id="DejaVuSans-65" d="M 3597 1894 
L 3597 1613 
L 953 1613 
Q 991 1019 1311 708 
Q 1631 397 2203 397 
Q 2534 397 2845 478 
Q 3156 559 3463 722 
L 3463 178 
Q 3153 47 2828 -22 
Q 2503 -91 2169 -91 
Q 1331 -91 842 396 
Q 353 884 353 1716 
Q 353 2575 817 3079 
Q 1281 3584 2069 3584 
Q 2775 3584 3186 3129 
Q 3597 2675 3597 1894 
z
M 3022 2063 
Q 3016 2534 2758 2815 
Q 2500 3097 2075 3097 
Q 1594 3097 1305 2825 
Q 1016 2553 972 2059 
L 3022 2063 
z
" transform="scale(0.015625)"/>
       <path id="DejaVuSans-6d" d="M 3328 2828 
Q 3544 3216 3844 3400 
Q 4144 3584 4550 3584 
Q 5097 3584 5394 3201 
Q 5691 2819 5691 2113 
L 5691 0 
L 5113 0 
L 5113 2094 
Q 5113 2597 4934 2840 
Q 4756 3084 4391 3084 
Q 3944 3084 3684 2787 
Q 3425 2491 3425 1978 
L 3425 0 
L 2847 0 
L 2847 2094 
Q 2847 2600 2669 2842 
Q 2491 3084 2119 3084 
Q 1678 3084 1418 2786 
Q 1159 2488 1159 1978 
L 1159 0 
L 581 0 
L 581 3500 
L 1159 3500 
L 1159 2956 
Q 1356 3278 1631 3431 
Q 1906 3584 2284 3584 
Q 2666 3584 2933 3390 
Q 3200 3197 3328 2828 
z
" transform="scale(0.015625)"/>
       <path id="DejaVuSans-6e" d="M 3513 2113 
L 3513 0 
L 2938 0 
L 2938 2094 
Q 2938 2591 2744 2837 
Q 2550 3084 2163 3084 
Q 1697 3084 1428 2787 
Q 1159 2491 1159 1978 
L 1159 0 
L 581 0 
L 581 3500 
L 1159 3500 
L 1159 2956 
Q 1366 3272 1645 3428 
Q 1925 3584 2291 3584 
Q 2894 3584 3203 3211 
Q 3513 2838 3513 2113 
z
" transform="scale(0.015625)"/>
       <path id="DejaVuSans-74" d="M 1172 4494 
L 1172 3500 
L 2356 3500 
L 2356 3053 
L 1172 3053 
L 1172 1153 
Q 1172 725 1289 603 
Q 1406 481 1766 481 
L 2356 481 
L 2356 0 
L 1766 0 
Q 1100 0 847 248 
Q 594 497 594 1153 
L 594 3053 
L 172 3053 
L 172 3500 
L 594 3500 
L 594 4494 
L 1172 4494 
z
" transform="scale(0.015625)"/>
       <path id="DejaVuSans-2014" d="M 313 1978 
L 6088 1978 
L 6088 1528 
L 313 1528 
L 313 1978 
z
" transform="scale(0.015625)"/>
       <path id="DejaVuSans-4e" d="M 628 4666 
L 1478 4666 
L 3547 763 
L 3547 4666 
L 4159 4666 
L 4159 0 
L 3309 0 
L 1241 3903 
L 1241 0 
L 628 0 
L 628 4666 
z
" transform="scale(0.015625)"/>
       <path id="DejaVuSans-75" d="M 544 1381 
L 544 3500 
L 1119 3500 
L 1119 1403 
Q 1119 906 1312 657 
Q 1506 409 1894 409 
Q 2359 409 2629 706 
Q 2900 1003 2900 1516 
L 2900 3500 
L 3475 3500 
L 3475 0 
L 2900 0 
L 2900 538 
Q 2691 219 2414 64 
Q 2138 -91 1772 -91 
Q 1169 -91 856 284 
Q 544 659 544 1381 
z
M 1991 3584 
L 1991 3584 
z
" transform="scale(0.015625)"/>
       <path id="DejaVuSans-6c" d="M 603 4863 
L 1178 4863 
L 1178 0 
L 603 0 
L 603 4863 
z
" transform="scale(0.015625)"/>
       <path id="DejaVuSans-41" d="M 2188 4044 
L 1331 1722 
L 3047 1722 
L 2188 4044 
z
M 1831 4666 
L 2547 4666 
L 4325 0 
L 3669 0 
L 3244 1197 
L 1141 1197 
L 716 0 
L 50 0 
L 1831 4666 
z
" transform="scale(0.015625)"/>
       <path id="DejaVuSans-2192" d="M 5050 2147 
L 5050 1866 
L 3822 638 
L 3447 1013 
L 4175 1741 
L 366 1741 
L 366 2272 
L 4175 2272 
L 3447 3000 
L 3822 3375 
L 5050 2147 
z
" transform="scale(0.015625)"/>
      </defs>
      <use xlink:href="#DejaVuSans-2190"/>
      <use xlink:href="#DejaVuSans-20" x="83.789062"/>
      <use xlink:href="#DejaVuSans-44" x="115.576172"/>
      <use xlink:href="#DejaVuSans-69" x="192.578125"/>
      <use xlink:href="#DejaVuSans-73" x="220.361328"/>
      <use xlink:href="#DejaVuSans-61" x="272.460938"/>
      <use xlink:href="#DejaVuSans-67" x="333.740234"/>
      <use xlink:href="#DejaVuSans-72" x="397.216797"/>
      <use xlink:href="#DejaVuSans-65" x="436.080078"/>
      <use xlink:href="#DejaVuSans-65" x="497.603516"/>
      <use xlink:href="#DejaVuSans-6d" x="559.126953"/>
      <use xlink:href="#DejaVuSans-65" x="656.539062"/>
      <use xlink:href="#DejaVuSans-6e" x="718.0625"/>
      <use xlink:href="#DejaVuSans-74" x="781.441406"/>
      <use xlink:href="#DejaVuSans-20" x="820.650391"/>
      <use xlink:href="#DejaVuSans-2014" x="852.4375"/>
      <use xlink:href="#DejaVuSans-20" x="952.4375"/>
      <use xlink:href="#DejaVuSans-4e" x="984.224609"/>
      <use xlink:href="#DejaVuSans-65" x="1059.029297"/>
      <use xlink:href="#DejaVuSans-75" x="1120.552734"/>
      <use xlink:href="#DejaVuSans-74" x="1183.931641"/>
      <use xlink:href="#DejaVuSans-72" x="1223.140625"/>
      <use xlink:href="#DejaVuSans-61" x="1264.253906"/>
      <use xlink:href="#DejaVuSans-6c" x="1325.533203"/>
      <use xlink:href="#DejaVuSans-20" x="1353.316406"/>
      <use xlink:href="#DejaVuSans-2014" x="1385.103516"/>
      <use xlink:href="#DejaVuSans-20" x="1485.103516"/>
      <use xlink:href="#DejaVuSans-41" x="1516.890625"/>
      <use xlink:href="#DejaVuSans-67" x="1585.298828"/>
      <use xlink:href="#DejaVuSans-72" x="1648.775391"/>
      <use xlink:href="#DejaVuSans-65" x="1687.638672"/>
      <use xlink:href="#DejaVuSans-65" x="1749.162109"/>
      <use xlink:href="#DejaVuSans-6d" x="1810.685547"/>
      <use xlink:href="#DejaVuSans-65" x="1908.097656"/>
      <use xlink:href="#DejaVuSans-6e" x="1969.621094"/>
      <use xlink:href="#DejaVuSans-74" x="2033"/>
      <use xlink:href="#DejaVuSans-20" x="2072.208984"/>
      <use xlink:href="#DejaVuSans-2192" x="2103.996094"/>
     </g>
    </g>
   </g>
   <g id="matplotlib.axis_2">
    <g id="ytick_1">
     <g id="line2d_6">
      <defs>
       <path id="m9e6f364694" d="M 0 0 
L -3.5 0 
" style="stroke: #000000; stroke-width: 0.8"/>
      </defs>
      <g>
       <use xlink:href="#m9e6f364694" x="46.965625" y="314.278875" style="stroke: #000000; stroke-width: 0.8"/>
      </g>
     </g>
     <g id="text_7">
      <!-- 0 -->
      <g transform="translate(33.603125 318.078094) scale(0.1 -0.1)">
       <defs>
        <path id="DejaVuSans-30" d="M 2034 4250 
Q 1547 4250 1301 3770 
Q 1056 3291 1056 2328 
Q 1056 1369 1301 889 
Q 1547 409 2034 409 
Q 2525 409 2770 889 
Q 3016 1369 3016 2328 
Q 3016 3291 2770 3770 
Q 2525 4250 2034 4250 
z
M 2034 4750 
Q 2819 4750 3233 4129 
Q 3647 3509 3647 2328 
Q 3647 1150 3233 529 
Q 2819 -91 2034 -91 
Q 1250 -91 836 529 
Q 422 1150 422 2328 
Q 422 3509 836 4129 
Q 1250 4750 2034 4750 
z
" transform="scale(0.015625)"/>
       </defs>
       <use xlink:href="#DejaVuSans-30"/>
      </g>
     </g>
    </g>
    <g id="ytick_2">
     <g id="line2d_7">
      <g>
       <use xlink:href="#m9e6f364694" x="46.965625" y="274.519839" style="stroke: #000000; stroke-width: 0.8"/>
      </g>
     </g>
     <g id="text_8">
      <!-- 50 -->
      <g transform="translate(27.240625 278.319058) scale(0.1 -0.1)">
       <use xlink:href="#DejaVuSans-35"/>
       <use xlink:href="#DejaVuSans-30" x="63.623047"/>
      </g>
     </g>
    </g>
    <g id="ytick_3">
     <g id="line2d_8">
      <g>
       <use xlink:href="#m9e6f364694" x="46.965625" y="234.760803" style="stroke: #000000; stroke-width: 0.8"/>
      </g>
     </g>
     <g id="text_9">
      <!-- 100 -->
      <g transform="translate(20.878125 238.560021) scale(0.1 -0.1)">
       <use xlink:href="#DejaVuSans-31"/>
       <use xlink:href="#DejaVuSans-30" x="63.623047"/>
       <use xlink:href="#DejaVuSans-30" x="127.246094"/>
      </g>
     </g>
    </g>
    <g id="ytick_4">
     <g id="line2d_9">
      <g>
       <use xlink:href="#m9e6f364694" x="46.965625" y="195.001767" style="stroke: #000000; stroke-width: 0.8"/>
      </g>
     </g>
     <g id="text_10">
      <!-- 150 -->
      <g transform="translate(20.878125 198.800985) scale(0.1 -0.1)">
       <use xlink:href="#DejaVuSans-31"/>
       <use xlink:href="#DejaVuSans-35" x="63.623047"/>
       <use xlink:href="#DejaVuSans-30" x="127.246094"/>
      </g>
     </g>
    </g>
    <g id="ytick_5">
     <g id="line2d_10">
      <g>
       <use xlink:href="#m9e6f364694" x="46.965625" y="155.24273" style="stroke: #000000; stroke-width: 0.8"/>
      </g>
     </g>
     <g id="text_11">
      <!-- 200 -->
      <g transform="translate(20.878125 159.041949) scale(0.1 -0.1)">
       <use xlink:href="#DejaVuSans-32"/>
       <use xlink:href="#DejaVuSans-30" x="63.623047"/>
       <use xlink:href="#DejaVuSans-30" x="127.246094"/>
      </g>
     </g>
    </g>
    <g id="ytick_6">
     <g id="line2d_11">
      <g>
       <use xlink:href="#m9e6f364694" x="46.965625" y="115.483694" style="stroke: #000000; stroke-width: 0.8"/>
      </g>
     </g>
     <g id="text_12">
      <!-- 250 -->
      <g transform="translate(20.878125 119.282913) scale(0.1 -0.1)">
       <use xlink:href="#DejaVuSans-32"/>
       <use xlink:href="#DejaVuSans-35" x="63.623047"/>
       <use xlink:href="#DejaVuSans-30" x="127.246094"/>
      </g>
     </g>
    </g>
    <g id="ytick_7">
     <g id="line2d_12">
      <g>
       <use xlink:href="#m9e6f364694" x="46.965625" y="75.724658" style="stroke: #000000; stroke-width: 0.8"/>
      </g>
     </g>
     <g id="text_13">
      <!-- 300 -->
      <g transform="translate(20.878125 79.523877) scale(0.1 -0.1)">
       <use xlink:href="#DejaVuSans-33"/>
       <use xlink:href="#DejaVuSans-30" x="63.623047"/>
       <use xlink:href="#DejaVuSans-30" x="127.246094"/>
      </g>
     </g>
    </g>
    <g id="text_14">
     <!-- Frequency -->
     <g transform="translate(14.798438 201.508563) rotate(-90) scale(0.1 -0.1)">
      <defs>
       <path id="DejaVuSans-46" d="M 628 4666 
L 3309 4666 
L 3309 4134 
L 1259 4134 
L 1259 2759 
L 3109 2759 
L 3109 2228 
L 1259 2228 
L 1259 0 
L 628 0 
L 628 4666 
z
" transform="scale(0.015625)"/>
       <path id="DejaVuSans-71" d="M 947 1747 
Q 947 1113 1208 752 
Q 1469 391 1925 391 
Q 2381 391 2643 752 
Q 2906 1113 2906 1747 
Q 2906 2381 2643 2742 
Q 2381 3103 1925 3103 
Q 1469 3103 1208 2742 
Q 947 2381 947 1747 
z
M 2906 525 
Q 2725 213 2448 61 
Q 2172 -91 1784 -91 
Q 1150 -91 751 415 
Q 353 922 353 1747 
Q 353 2572 751 3078 
Q 1150 3584 1784 3584 
Q 2172 3584 2448 3432 
Q 2725 3281 2906 2969 
L 2906 3500 
L 3481 3500 
L 3481 -1331 
L 2906 -1331 
L 2906 525 
z
" transform="scale(0.015625)"/>
       <path id="DejaVuSans-63" d="M 3122 3366 
L 3122 2828 
Q 2878 2963 2633 3030 
Q 2388 3097 2138 3097 
Q 1578 3097 1268 2742 
Q 959 2388 959 1747 
Q 959 1106 1268 751 
Q 1578 397 2138 397 
Q 2388 397 2633 464 
Q 2878 531 3122 666 
L 3122 134 
Q 2881 22 2623 -34 
Q 2366 -91 2075 -91 
Q 1284 -91 818 406 
Q 353 903 353 1747 
Q 353 2603 823 3093 
Q 1294 3584 2113 3584 
Q 2378 3584 2631 3529 
Q 2884 3475 3122 3366 
z
" transform="scale(0.015625)"/>
       <path id="DejaVuSans-79" d="M 2059 -325 
Q 1816 -950 1584 -1140 
Q 1353 -1331 966 -1331 
L 506 -1331 
L 506 -850 
L 844 -850 
Q 1081 -850 1212 -737 
Q 1344 -625 1503 -206 
L 1606 56 
L 191 3500 
L 800 3500 
L 1894 763 
L 2988 3500 
L 3597 3500 
L 2059 -325 
z
" transform="scale(0.015625)"/>
      </defs>
      <use xlink:href="#DejaVuSans-46"/>
      <use xlink:href="#DejaVuSans-72" x="50.269531"/>
      <use xlink:href="#DejaVuSans-65" x="89.132812"/>
      <use xlink:href="#DejaVuSans-71" x="150.65625"/>
      <use xlink:href="#DejaVuSans-75" x="214.132812"/>
      <use xlink:href="#DejaVuSans-65" x="277.511719"/>
      <use xlink:href="#DejaVuSans-6e" x="339.035156"/>
      <use xlink:href="#DejaVuSans-63" x="402.414062"/>
      <use xlink:href="#DejaVuSans-79" x="457.394531"/>
     </g>
    </g>
   </g>
   <g id="patch_8">
    <path d="M 46.965625 314.278875 
L 46.965625 37.078875 
" style="fill: none; stroke: #000000; stroke-width: 0.8; stroke-linejoin: miter; stroke-linecap: square"/>
   </g>
   <g id="patch_9">
    <path d="M 427.42017 314.278875 
L 427.42017 37.078875 
" style="fill: none; stroke: #000000; stroke-width: 0.8; stroke-linejoin: miter; stroke-linecap: square"/>
   </g>
   <g id="patch_10">
    <path d="M 46.965625 314.278875 
L 427.42017 314.278875 
" style="fill: none; stroke: #000000; stroke-width: 0.8; stroke-linejoin: miter; stroke-linecap: square"/>
   </g>
   <g id="patch_11">
    <path d="M 46.965625 37.078875 
L 427.42017 37.078875 
" style="fill: none; stroke: #000000; stroke-width: 0.8; stroke-linejoin: miter; stroke-linecap: square"/>
   </g>
   <g id="text_15">
    <!-- 你/妳得自己對新觀念開放嗎？ -->
    <g transform="translate(156.817273 16.72875) scale(0.12 -0.12)">
     <defs>
      <path id="NotoSansTC-Thin-4f60" d="M 3072 5280 
L 3264 5242 
Q 3149 4730 2992 4243 
Q 2835 3757 2640 3331 
Q 2445 2906 2208 2573 
Q 2195 2586 2166 2608 
Q 2138 2630 2106 2652 
Q 2074 2675 2048 2688 
Q 2285 3008 2477 3424 
Q 2669 3840 2819 4313 
Q 2970 4787 3072 5280 
z
M 3034 2701 
L 3226 2662 
Q 3117 2227 2960 1820 
Q 2803 1414 2617 1062 
Q 2432 710 2221 435 
Q 2202 448 2170 470 
Q 2138 493 2106 512 
Q 2074 531 2048 544 
Q 2374 947 2624 1513 
Q 2874 2080 3034 2701 
z
M 2810 3994 
L 5946 3994 
L 5946 3808 
L 2733 3808 
L 2810 3994 
z
M 4064 3942 
L 4256 3942 
L 4256 -141 
Q 4256 -269 4214 -329 
Q 4173 -390 4083 -416 
Q 3994 -442 3808 -448 
Q 3622 -454 3334 -454 
Q 3322 -416 3299 -358 
Q 3277 -301 3251 -256 
Q 3507 -262 3702 -262 
Q 3898 -262 3962 -256 
Q 4019 -256 4041 -233 
Q 4064 -211 4064 -147 
L 4064 3942 
z
M 4954 2675 
L 5126 2726 
Q 5331 2381 5510 1984 
Q 5690 1587 5827 1203 
Q 5965 819 6029 518 
L 5850 461 
Q 5786 762 5648 1146 
Q 5510 1530 5331 1930 
Q 5152 2330 4954 2675 
z
M 5869 3994 
L 5901 3994 
L 5946 4006 
L 6067 3962 
Q 5997 3648 5920 3299 
Q 5843 2950 5779 2720 
L 5613 2758 
Q 5651 2912 5696 3113 
Q 5741 3315 5785 3536 
Q 5830 3757 5869 3955 
L 5869 3994 
z
M 1862 5293 
L 2048 5242 
Q 1837 4704 1555 4192 
Q 1274 3680 950 3235 
Q 627 2790 282 2438 
Q 269 2458 246 2486 
Q 224 2515 198 2547 
Q 173 2579 147 2592 
Q 493 2925 809 3357 
Q 1126 3789 1398 4285 
Q 1670 4781 1862 5293 
z
M 1152 3763 
L 1325 3942 
L 1338 3936 
L 1338 -435 
L 1152 -435 
L 1152 3763 
z
" transform="scale(0.015625)"/>
      <path id="NotoSansTC-Thin-2f" d="M 58 -1126 
L 2298 5005 
L 2515 5005 
L 282 -1126 
L 58 -1126 
z
" transform="scale(0.015625)"/>
      <path id="NotoSansTC-Thin-59b3" d="M 5120 2861 
L 5293 2912 
Q 5459 2579 5616 2198 
Q 5773 1818 5901 1456 
Q 6029 1094 6093 806 
L 5907 749 
Q 5843 1037 5718 1401 
Q 5594 1766 5437 2147 
Q 5280 2528 5120 2861 
z
M 3610 5312 
L 3795 5280 
Q 3693 4813 3552 4381 
Q 3411 3949 3232 3574 
Q 3053 3200 2835 2912 
Q 2816 2925 2784 2944 
Q 2752 2963 2720 2979 
Q 2688 2995 2662 3008 
Q 2995 3437 3232 4041 
Q 3469 4646 3610 5312 
z
M 3411 4250 
L 5901 4250 
L 5901 4058 
L 3322 4058 
L 3411 4250 
z
M 3590 2886 
L 3782 2848 
Q 3661 2259 3469 1715 
Q 3277 1171 3034 787 
Q 3014 800 2982 819 
Q 2950 838 2918 854 
Q 2886 870 2854 883 
Q 3117 1267 3299 1792 
Q 3482 2317 3590 2886 
z
M 4365 4166 
L 4557 4166 
L 4557 -102 
Q 4557 -230 4515 -291 
Q 4474 -352 4371 -384 
Q 4282 -410 4083 -413 
Q 3885 -416 3571 -416 
Q 3565 -384 3539 -323 
Q 3514 -262 3488 -218 
Q 3770 -224 3978 -227 
Q 4186 -230 4250 -224 
Q 4320 -218 4342 -192 
Q 4365 -166 4365 -102 
L 4365 4166 
z
M 5843 4250 
L 5875 4250 
L 5920 4262 
L 6042 4211 
Q 5958 3898 5856 3555 
Q 5754 3213 5645 2989 
L 5478 3034 
Q 5587 3258 5683 3581 
Q 5779 3904 5843 4192 
L 5843 4250 
z
M 525 1792 
L 646 1920 
Q 896 1747 1155 1539 
Q 1414 1331 1654 1116 
Q 1894 902 2092 700 
Q 2291 499 2419 326 
L 2298 179 
Q 2163 352 1961 557 
Q 1760 762 1520 979 
Q 1280 1197 1024 1408 
Q 768 1619 525 1792 
z
M 525 1792 
Q 621 2112 726 2547 
Q 832 2982 928 3462 
Q 1024 3942 1104 4419 
Q 1184 4896 1229 5299 
L 1414 5286 
Q 1363 4870 1283 4390 
Q 1203 3910 1104 3430 
Q 1005 2950 902 2518 
Q 800 2086 704 1766 
L 525 1792 
z
M 2093 4403 
L 2278 4403 
L 2278 3616 
Q 2278 3149 2227 2633 
Q 2176 2118 1993 1584 
Q 1811 1050 1436 534 
Q 1062 19 410 -448 
Q 397 -429 371 -406 
Q 346 -384 320 -361 
Q 294 -339 269 -326 
Q 909 128 1277 633 
Q 1645 1139 1821 1654 
Q 1997 2170 2045 2669 
Q 2093 3168 2093 3616 
L 2093 4403 
z
M 282 3750 
Q 582 3763 972 3782 
Q 1363 3802 1808 3824 
Q 2253 3846 2707 3872 
L 2701 3686 
Q 2042 3654 1414 3619 
Q 787 3584 314 3552 
L 282 3750 
z
" transform="scale(0.015625)"/>
      <path id="NotoSansTC-Thin-5f97" d="M 2835 4013 
L 2835 3290 
L 5402 3290 
L 5402 4013 
L 2835 4013 
z
M 2835 4915 
L 2835 4205 
L 5402 4205 
L 5402 4915 
L 2835 4915 
z
M 2650 5107 
L 5587 5107 
L 5587 3098 
L 2650 3098 
L 2650 5107 
z
M 2176 2502 
L 5990 2502 
L 5990 2317 
L 2176 2317 
L 2176 2502 
z
M 2048 1581 
L 6086 1581 
L 6086 1395 
L 2048 1395 
L 2048 1581 
z
M 4858 2349 
L 5043 2349 
L 5043 -154 
Q 5043 -275 5004 -336 
Q 4966 -397 4858 -422 
Q 4749 -448 4518 -454 
Q 4288 -461 3904 -461 
Q 3898 -422 3872 -371 
Q 3846 -320 3821 -275 
Q 4166 -282 4403 -282 
Q 4640 -282 4723 -275 
Q 4806 -269 4832 -243 
Q 4858 -218 4858 -154 
L 4858 2349 
z
M 2733 1056 
L 2880 1152 
Q 3123 934 3366 668 
Q 3610 403 3731 205 
L 3578 83 
Q 3494 218 3353 387 
Q 3213 557 3053 733 
Q 2893 909 2733 1056 
z
M 1792 3878 
L 1965 3821 
Q 1766 3450 1500 3101 
Q 1235 2752 940 2448 
Q 646 2144 346 1901 
Q 333 1920 307 1945 
Q 282 1971 253 1996 
Q 224 2022 198 2042 
Q 499 2266 793 2560 
Q 1088 2854 1344 3190 
Q 1600 3526 1792 3878 
z
M 1728 5293 
L 1914 5229 
Q 1747 4973 1510 4707 
Q 1274 4442 1005 4202 
Q 736 3962 467 3776 
Q 454 3802 432 3827 
Q 410 3853 384 3878 
Q 358 3904 339 3917 
Q 602 4096 867 4323 
Q 1133 4550 1360 4803 
Q 1587 5056 1728 5293 
z
M 1274 3046 
L 1466 3238 
L 1466 3232 
L 1466 -442 
L 1274 -442 
L 1274 3046 
z
" transform="scale(0.015625)"/>
      <path id="NotoSansTC-Thin-81ea" d="M 1293 2957 
L 5248 2957 
L 5248 2765 
L 1293 2765 
L 1293 2957 
z
M 1293 1542 
L 5248 1542 
L 5248 1357 
L 1293 1357 
L 1293 1542 
z
M 1293 122 
L 5248 122 
L 5248 -70 
L 1293 -70 
L 1293 122 
z
M 1165 4397 
L 5344 4397 
L 5344 -416 
L 5158 -416 
L 5158 4211 
L 1357 4211 
L 1357 -467 
L 1165 -467 
L 1165 4397 
z
M 3091 5331 
L 3277 5280 
Q 3181 5024 3075 4745 
Q 2970 4467 2861 4262 
L 2707 4301 
Q 2771 4442 2844 4627 
Q 2918 4813 2985 4998 
Q 3053 5184 3091 5331 
z
" transform="scale(0.015625)"/>
      <path id="NotoSansTC-Thin-5df1" d="M 1126 2803 
L 5050 2803 
L 5050 2618 
L 1126 2618 
L 1126 2803 
z
M 941 4922 
L 5210 4922 
L 5210 2176 
L 5018 2176 
L 5018 4736 
L 941 4736 
L 941 4922 
z
M 1024 2803 
L 1210 2803 
L 1210 326 
Q 1210 160 1283 67 
Q 1357 -26 1552 -64 
Q 1747 -102 2106 -102 
Q 2208 -102 2483 -102 
Q 2758 -102 3116 -102 
Q 3475 -102 3843 -102 
Q 4211 -102 4512 -102 
Q 4813 -102 4960 -102 
Q 5229 -102 5398 -51 
Q 5568 0 5661 134 
Q 5754 269 5798 515 
Q 5843 762 5869 1146 
Q 5901 1126 5933 1107 
Q 5965 1088 6000 1075 
Q 6035 1062 6067 1056 
Q 6035 653 5977 390 
Q 5920 128 5805 -22 
Q 5690 -173 5482 -233 
Q 5274 -294 4928 -294 
Q 4877 -294 4669 -294 
Q 4461 -294 4163 -294 
Q 3866 -294 3539 -294 
Q 3213 -294 2915 -294 
Q 2618 -294 2413 -294 
Q 2208 -294 2157 -294 
Q 1728 -294 1481 -246 
Q 1235 -198 1129 -64 
Q 1024 70 1024 333 
L 1024 2803 
z
" transform="scale(0.015625)"/>
      <path id="NotoSansTC-Thin-5c0d" d="M 3488 3494 
L 6093 3494 
L 6093 3309 
L 3488 3309 
L 3488 3494 
z
M 320 3923 
L 3571 3923 
L 3571 3731 
L 320 3731 
L 320 3923 
z
M 550 2586 
L 3354 2586 
L 3354 2400 
L 550 2400 
L 550 2586 
z
M 774 1510 
L 3174 1510 
L 3174 1325 
L 774 1325 
L 774 1510 
z
M 5152 5280 
L 5338 5280 
L 5338 -115 
Q 5338 -269 5283 -333 
Q 5229 -397 5126 -422 
Q 5018 -448 4797 -454 
Q 4576 -461 4173 -454 
Q 4166 -435 4150 -403 
Q 4134 -371 4121 -336 
Q 4109 -301 4090 -275 
Q 4422 -282 4672 -282 
Q 4922 -282 4992 -275 
Q 5082 -269 5117 -237 
Q 5152 -205 5152 -122 
L 5152 5280 
z
M 3770 2586 
L 3949 2650 
Q 4102 2413 4240 2144 
Q 4378 1875 4480 1619 
Q 4582 1363 4621 1165 
L 4435 1094 
Q 4390 1293 4288 1549 
Q 4186 1805 4051 2077 
Q 3917 2349 3770 2586 
z
M 480 5043 
L 634 5126 
Q 832 4909 1021 4643 
Q 1210 4378 1293 4179 
L 1139 4083 
Q 1050 4282 864 4554 
Q 678 4826 480 5043 
z
M 966 3507 
L 1126 3584 
Q 1286 3405 1440 3187 
Q 1594 2970 1658 2803 
L 1491 2714 
Q 1427 2880 1276 3104 
Q 1126 3328 966 3507 
z
M 1414 5312 
L 1600 5312 
L 1600 3814 
L 1414 3814 
L 1414 5312 
z
M 1843 2509 
L 2035 2509 
L 2035 218 
L 1843 218 
L 1843 2509 
z
M 2291 5312 
L 2477 5312 
L 2477 3814 
L 2291 3814 
L 2291 5312 
z
M 346 64 
Q 730 122 1245 202 
Q 1760 282 2345 374 
Q 2931 467 3520 557 
L 3533 378 
Q 2963 288 2387 192 
Q 1811 96 1296 13 
Q 781 -70 384 -134 
L 346 64 
z
M 3290 5139 
L 3469 5043 
Q 3322 4800 3133 4534 
Q 2944 4269 2778 4083 
L 2637 4166 
Q 2746 4294 2867 4467 
Q 2989 4640 3101 4819 
Q 3213 4998 3290 5139 
z
M 2784 3578 
L 2982 3494 
Q 2848 3238 2691 2947 
Q 2534 2656 2394 2458 
L 2240 2522 
Q 2330 2662 2432 2848 
Q 2534 3034 2630 3229 
Q 2726 3424 2784 3578 
z
" transform="scale(0.015625)"/>
      <path id="NotoSansTC-Thin-65b0" d="M 3814 3110 
L 6080 3110 
L 6080 2925 
L 3814 2925 
L 3814 3110 
z
M 442 4608 
L 3213 4608 
L 3213 4422 
L 442 4422 
L 442 4608 
z
M 365 2080 
L 3277 2080 
L 3277 1888 
L 365 1888 
L 365 2080 
z
M 346 3110 
L 3315 3110 
L 3315 2925 
L 346 2925 
L 346 3110 
z
M 5075 3046 
L 5261 3046 
L 5261 -422 
L 5075 -422 
L 5075 3046 
z
M 934 4282 
L 1107 4314 
Q 1222 4064 1308 3766 
Q 1395 3469 1421 3258 
L 1235 3206 
Q 1210 3424 1130 3725 
Q 1050 4026 934 4282 
z
M 2579 4326 
L 2771 4269 
Q 2669 3955 2541 3593 
Q 2413 3232 2298 2982 
L 2131 3034 
Q 2208 3206 2291 3436 
Q 2374 3667 2451 3904 
Q 2528 4141 2579 4326 
z
M 5786 5146 
L 5971 4998 
Q 5696 4902 5331 4816 
Q 4966 4730 4572 4662 
Q 4179 4595 3802 4544 
Q 3795 4576 3772 4617 
Q 3750 4659 3725 4691 
Q 4096 4749 4483 4819 
Q 4870 4890 5216 4976 
Q 5562 5062 5786 5146 
z
M 1498 5267 
L 1677 5325 
Q 1805 5146 1936 4922 
Q 2067 4698 2125 4544 
L 1946 4467 
Q 1882 4627 1754 4854 
Q 1626 5082 1498 5267 
z
M 3725 4691 
L 3910 4691 
L 3910 2554 
Q 3910 2214 3888 1830 
Q 3866 1446 3792 1052 
Q 3718 659 3577 284 
Q 3437 -90 3200 -410 
Q 3187 -384 3158 -361 
Q 3130 -339 3104 -316 
Q 3078 -294 3053 -282 
Q 3360 128 3504 621 
Q 3648 1114 3686 1616 
Q 3725 2118 3725 2554 
L 3725 4691 
z
M 2381 1357 
L 2541 1421 
Q 2707 1165 2867 851 
Q 3027 538 3098 314 
L 2931 237 
Q 2854 461 2697 781 
Q 2541 1101 2381 1357 
z
M 1056 1421 
L 1242 1376 
Q 1133 1024 953 688 
Q 774 352 570 109 
Q 544 134 493 172 
Q 442 211 403 224 
Q 614 461 780 774 
Q 947 1088 1056 1421 
z
M 1741 3034 
L 1926 3034 
L 1926 -442 
L 1741 -442 
L 1741 3034 
z
" transform="scale(0.015625)"/>
      <path id="NotoSansTC-Thin-89c0" d="M 1011 1670 
L 3155 1670 
L 3155 1478 
L 1011 1478 
L 1011 1670 
z
M 1011 941 
L 3181 941 
L 3181 755 
L 1011 755 
L 1011 941 
z
M 1024 141 
L 3302 141 
L 3302 -51 
L 1024 -51 
L 1024 141 
z
M 2086 2285 
L 2272 2285 
L 2272 109 
L 2086 109 
L 2086 2285 
z
M 774 3866 
L 774 3200 
L 1478 3200 
L 1478 3866 
L 774 3866 
z
M 582 4051 
L 1664 4051 
L 1664 3014 
L 582 3014 
L 582 4051 
z
M 2298 3866 
L 2298 3200 
L 3040 3200 
L 3040 3866 
L 2298 3866 
z
M 2106 4051 
L 3226 4051 
L 3226 3014 
L 2106 3014 
L 2106 4051 
z
M 1056 2387 
L 3290 2387 
L 3290 2195 
L 1056 2195 
L 1056 -448 
L 864 -448 
L 864 2189 
L 1050 2387 
L 1056 2387 
z
M 1184 2874 
L 1376 2829 
Q 1267 2547 1110 2278 
Q 954 2010 774 1776 
Q 595 1542 410 1357 
Q 397 1376 365 1395 
Q 333 1414 301 1436 
Q 269 1459 243 1472 
Q 531 1741 777 2109 
Q 1024 2477 1184 2874 
z
M 1920 2778 
L 2067 2874 
Q 2170 2752 2266 2605 
Q 2362 2458 2406 2349 
L 2253 2227 
Q 2208 2349 2118 2502 
Q 2029 2656 1920 2778 
z
M 275 4838 
L 1440 4838 
L 1440 4646 
L 275 4646 
L 275 4838 
z
M 1325 5318 
L 1510 5318 
L 1510 4192 
L 1325 4192 
L 1325 5318 
z
M 2304 5318 
L 2490 5318 
L 2490 4192 
L 2304 4192 
L 2304 5318 
z
M 2432 4838 
L 3482 4838 
L 3482 4646 
L 2432 4646 
L 2432 4838 
z
M 3789 3789 
L 3789 2899 
L 5715 2899 
L 5715 3789 
L 3789 3789 
z
M 3789 2714 
L 3789 1805 
L 5715 1805 
L 5715 2714 
L 3789 2714 
z
M 3789 4864 
L 3789 3974 
L 5715 3974 
L 5715 4864 
L 3789 4864 
z
M 3603 5050 
L 5901 5050 
L 5901 1619 
L 3603 1619 
L 3603 5050 
z
M 5043 1728 
L 5261 1728 
L 5261 -51 
Q 5261 -134 5283 -156 
Q 5306 -179 5389 -179 
Q 5427 -179 5552 -179 
Q 5677 -179 5722 -179 
Q 5786 -179 5818 -121 
Q 5850 -64 5862 134 
Q 5875 333 5875 749 
Q 5920 717 5981 688 
Q 6042 659 6086 646 
Q 6080 224 6051 0 
Q 6022 -224 5952 -310 
Q 5882 -397 5747 -397 
Q 5722 -397 5642 -397 
Q 5562 -397 5482 -397 
Q 5402 -397 5370 -397 
Q 5242 -397 5171 -368 
Q 5101 -339 5072 -265 
Q 5043 -192 5043 -51 
L 5043 1728 
z
M 4294 1715 
L 4518 1715 
Q 4474 1210 4352 790 
Q 4230 371 3987 54 
Q 3744 -262 3322 -467 
Q 3296 -429 3248 -381 
Q 3200 -333 3162 -307 
Q 3571 -115 3804 179 
Q 4038 474 4147 864 
Q 4256 1254 4294 1715 
z
" transform="scale(0.015625)"/>
      <path id="NotoSansTC-Thin-5ff5" d="M 1152 3053 
L 4883 3053 
L 4883 2867 
L 1152 2867 
L 1152 3053 
z
M 4819 3053 
L 4858 3053 
L 4896 3066 
L 5018 2982 
Q 4870 2720 4665 2445 
Q 4461 2170 4237 1926 
Q 4013 1683 3802 1498 
Q 3776 1523 3731 1548 
Q 3686 1574 3654 1594 
Q 3866 1773 4083 2016 
Q 4301 2259 4496 2521 
Q 4691 2784 4819 3014 
L 4819 3053 
z
M 3238 5293 
Q 3475 5011 3811 4736 
Q 4147 4461 4534 4214 
Q 4922 3968 5322 3773 
Q 5722 3578 6093 3450 
Q 6067 3430 6038 3398 
Q 6010 3366 5987 3337 
Q 5965 3309 5946 3277 
Q 5581 3411 5181 3619 
Q 4781 3827 4390 4083 
Q 4000 4339 3657 4624 
Q 3315 4909 3066 5203 
L 3238 5293 
z
M 3174 5434 
L 3379 5370 
Q 2963 4678 2195 4131 
Q 1427 3584 442 3206 
Q 429 3226 406 3251 
Q 384 3277 355 3302 
Q 326 3328 301 3347 
Q 954 3597 1517 3913 
Q 2080 4230 2505 4614 
Q 2931 4998 3174 5434 
z
M 1805 1517 
L 1997 1517 
L 1997 109 
Q 1997 -26 2096 -67 
Q 2195 -109 2534 -109 
Q 2598 -109 2768 -109 
Q 2938 -109 3162 -109 
Q 3386 -109 3613 -109 
Q 3840 -109 4025 -109 
Q 4211 -109 4301 -109 
Q 4486 -109 4576 -57 
Q 4666 -6 4704 157 
Q 4742 320 4755 646 
Q 4781 627 4813 611 
Q 4845 595 4880 585 
Q 4915 576 4941 563 
Q 4928 218 4873 29 
Q 4819 -160 4691 -230 
Q 4563 -301 4307 -301 
Q 4269 -301 4089 -301 
Q 3910 -301 3670 -301 
Q 3430 -301 3190 -301 
Q 2950 -301 2774 -301 
Q 2598 -301 2560 -301 
Q 2266 -301 2102 -272 
Q 1939 -243 1872 -153 
Q 1805 -64 1805 115 
L 1805 1517 
z
M 2605 1862 
L 2758 1946 
Q 2950 1754 3155 1526 
Q 3360 1299 3542 1084 
Q 3725 870 3840 710 
L 3674 602 
Q 3558 762 3379 982 
Q 3200 1203 2998 1433 
Q 2797 1664 2605 1862 
z
M 4858 1587 
L 5037 1638 
Q 5178 1370 5331 1056 
Q 5485 742 5625 457 
Q 5766 173 5856 -32 
L 5664 -102 
Q 5581 102 5443 393 
Q 5306 685 5152 1001 
Q 4998 1318 4858 1587 
z
M 1139 1472 
L 1293 1421 
Q 1222 1184 1116 896 
Q 1011 608 883 333 
Q 755 58 602 -147 
L 442 -70 
Q 602 134 733 406 
Q 864 678 966 960 
Q 1069 1242 1139 1472 
z
M 2061 3885 
L 4378 3885 
L 4378 3693 
L 2061 3693 
L 2061 3885 
z
" transform="scale(0.015625)"/>
      <path id="NotoSansTC-Thin-958b" d="M 1568 2496 
L 4819 2496 
L 4819 2310 
L 1568 2310 
L 1568 2496 
z
M 1427 1402 
L 4986 1402 
L 4986 1210 
L 1427 1210 
L 1427 1402 
z
M 3770 2438 
L 3962 2438 
L 3962 -326 
L 3770 -326 
L 3770 2438 
z
M 2387 2426 
L 2573 2426 
L 2573 1318 
Q 2573 1178 2537 966 
Q 2502 755 2406 512 
Q 2310 269 2131 32 
Q 1952 -205 1664 -397 
Q 1638 -365 1596 -323 
Q 1555 -282 1517 -256 
Q 1888 -26 2073 268 
Q 2259 563 2323 844 
Q 2387 1126 2387 1318 
L 2387 2426 
z
M 742 4109 
L 2726 4109 
L 2726 3923 
L 742 3923 
L 742 4109 
z
M 3674 4109 
L 5683 4109 
L 5683 3923 
L 3674 3923 
L 3674 4109 
z
M 5606 5011 
L 5798 5011 
L 5798 -96 
Q 5798 -237 5750 -310 
Q 5702 -384 5594 -416 
Q 5485 -442 5251 -445 
Q 5018 -448 4653 -448 
Q 4646 -422 4636 -387 
Q 4627 -352 4611 -313 
Q 4595 -275 4576 -243 
Q 4896 -250 5142 -250 
Q 5389 -250 5472 -243 
Q 5549 -237 5577 -208 
Q 5606 -179 5606 -102 
L 5606 5011 
z
M 755 5011 
L 2829 5011 
L 2829 2976 
L 755 2976 
L 755 3162 
L 2643 3162 
L 2643 4826 
L 755 4826 
L 755 5011 
z
M 5677 5011 
L 5677 4826 
L 3731 4826 
L 3731 3162 
L 5677 3162 
L 5677 2976 
L 3546 2976 
L 3546 5011 
L 5677 5011 
z
M 634 5011 
L 826 5011 
L 826 -461 
L 634 -461 
L 634 5011 
z
" transform="scale(0.015625)"/>
      <path id="NotoSansTC-Thin-653e" d="M 1414 5235 
L 1568 5312 
Q 1683 5107 1795 4867 
Q 1907 4627 1965 4461 
L 1792 4365 
Q 1741 4544 1632 4790 
Q 1523 5037 1414 5235 
z
M 314 4218 
L 3168 4218 
L 3168 4026 
L 314 4026 
L 314 4218 
z
M 1306 2957 
L 2694 2957 
L 2694 2765 
L 1306 2765 
L 1306 2957 
z
M 2605 2957 
L 2797 2957 
Q 2797 2957 2797 2931 
Q 2797 2906 2797 2874 
Q 2797 2842 2790 2816 
Q 2771 2003 2752 1452 
Q 2733 902 2704 560 
Q 2675 218 2633 35 
Q 2592 -147 2528 -224 
Q 2464 -301 2390 -333 
Q 2317 -365 2195 -365 
Q 2086 -371 1891 -364 
Q 1696 -358 1491 -346 
Q 1485 -301 1475 -246 
Q 1466 -192 1440 -147 
Q 1683 -173 1884 -176 
Q 2086 -179 2157 -179 
Q 2234 -179 2282 -166 
Q 2330 -154 2362 -102 
Q 2413 -45 2448 134 
Q 2483 314 2512 662 
Q 2541 1011 2563 1561 
Q 2586 2112 2605 2906 
L 2605 2957 
z
M 3827 4090 
L 6093 4090 
L 6093 3904 
L 3827 3904 
L 3827 4090 
z
M 4051 5318 
L 4250 5280 
Q 4122 4717 3955 4179 
Q 3789 3642 3581 3178 
Q 3373 2714 3123 2355 
Q 3104 2374 3072 2390 
Q 3040 2406 3008 2428 
Q 2976 2451 2950 2464 
Q 3206 2816 3411 3273 
Q 3616 3731 3779 4252 
Q 3942 4774 4051 5318 
z
M 5459 4038 
L 5651 4006 
Q 5466 2880 5136 2035 
Q 4806 1190 4259 579 
Q 3712 -32 2880 -461 
Q 2867 -435 2844 -406 
Q 2822 -378 2796 -349 
Q 2771 -320 2746 -301 
Q 3571 96 4108 691 
Q 4646 1286 4966 2118 
Q 5286 2950 5459 4038 
z
M 3827 3840 
Q 3987 2880 4281 2054 
Q 4576 1229 5033 621 
Q 5491 13 6138 -301 
Q 6118 -320 6089 -345 
Q 6061 -371 6035 -400 
Q 6010 -429 5990 -454 
Q 5338 -115 4877 509 
Q 4416 1133 4121 1974 
Q 3827 2816 3661 3808 
L 3827 3840 
z
M 1197 4154 
L 1389 4154 
L 1389 2611 
Q 1389 2074 1321 1539 
Q 1254 1005 1036 499 
Q 819 -6 371 -467 
Q 346 -435 304 -403 
Q 262 -371 224 -346 
Q 666 90 870 586 
Q 1075 1082 1136 1600 
Q 1197 2118 1197 2611 
L 1197 4154 
z
" transform="scale(0.015625)"/>
      <path id="NotoSansTC-Thin-55ce" d="M 640 4653 
L 2099 4653 
L 2099 1434 
L 640 1434 
L 640 1619 
L 1907 1619 
L 1907 4467 
L 640 4467 
L 640 4653 
z
M 531 4653 
L 717 4653 
L 717 762 
L 531 762 
L 531 4653 
z
M 2765 3974 
L 5651 3974 
L 5651 3789 
L 2765 3789 
L 2765 3974 
z
M 2765 2970 
L 5651 2970 
L 5651 2778 
L 2765 2778 
L 2765 2970 
z
M 2669 1939 
L 5805 1939 
L 5805 1754 
L 2669 1754 
L 2669 1939 
z
M 2669 4979 
L 5722 4979 
L 5722 4794 
L 2854 4794 
L 2854 1837 
L 2669 1837 
L 2669 4979 
z
M 4128 4947 
L 4314 4947 
L 4314 1843 
L 4128 1843 
L 4128 4947 
z
M 5734 1939 
L 5920 1939 
Q 5920 1939 5920 1891 
Q 5920 1843 5914 1811 
Q 5869 1082 5821 643 
Q 5773 205 5712 -22 
Q 5651 -250 5562 -339 
Q 5504 -403 5430 -425 
Q 5357 -448 5229 -454 
Q 5120 -454 4915 -448 
Q 4710 -442 4480 -429 
Q 4474 -390 4461 -339 
Q 4448 -288 4416 -243 
Q 4678 -269 4892 -275 
Q 5107 -282 5190 -282 
Q 5267 -282 5321 -272 
Q 5376 -262 5414 -218 
Q 5485 -147 5539 73 
Q 5594 294 5642 736 
Q 5690 1178 5734 1894 
L 5734 1939 
z
M 2669 1350 
L 2829 1299 
Q 2784 1056 2710 781 
Q 2637 506 2528 256 
Q 2419 6 2266 -173 
L 2112 -77 
Q 2266 90 2374 333 
Q 2483 576 2556 841 
Q 2630 1107 2669 1350 
z
M 3283 1267 
L 3456 1293 
Q 3552 1005 3600 665 
Q 3648 326 3642 83 
L 3450 58 
Q 3462 301 3417 637 
Q 3373 973 3283 1267 
z
M 3987 1318 
L 4147 1382 
Q 4288 1139 4409 844 
Q 4531 550 4582 339 
L 4403 262 
Q 4358 480 4240 777 
Q 4122 1075 3987 1318 
z
M 4691 1446 
L 4845 1523 
Q 4998 1331 5142 1094 
Q 5286 858 5350 685 
L 5190 589 
Q 5126 774 4985 1011 
Q 4845 1248 4691 1446 
z
" transform="scale(0.015625)"/>
      <path id="NotoSansTC-Thin-ff1f" d="M 2982 1446 
Q 2918 1728 2992 1952 
Q 3066 2176 3226 2361 
Q 3386 2547 3584 2710 
Q 3782 2874 3961 3034 
Q 4141 3194 4259 3370 
Q 4378 3546 4378 3750 
Q 4378 4000 4262 4211 
Q 4147 4422 3900 4547 
Q 3654 4672 3251 4672 
Q 2886 4672 2528 4515 
Q 2170 4358 1850 4019 
L 1690 4173 
Q 2016 4493 2377 4685 
Q 2739 4877 3264 4877 
Q 3706 4877 4006 4726 
Q 4307 4576 4464 4326 
Q 4621 4077 4621 3763 
Q 4621 3514 4502 3315 
Q 4384 3117 4201 2947 
Q 4019 2778 3820 2618 
Q 3622 2458 3459 2285 
Q 3296 2112 3219 1910 
Q 3142 1709 3200 1446 
L 2982 1446 
z
M 3110 0 
Q 3014 0 2934 67 
Q 2854 134 2854 269 
Q 2854 403 2934 483 
Q 3014 563 3110 563 
Q 3206 563 3286 483 
Q 3366 403 3366 269 
Q 3366 134 3286 67 
Q 3206 0 3110 0 
z
" transform="scale(0.015625)"/>
     </defs>
     <use xlink:href="#NotoSansTC-Thin-4f60"/>
     <use xlink:href="#NotoSansTC-Thin-2f" x="99.999985"/>
     <use xlink:href="#NotoSansTC-Thin-59b3" x="139.599976"/>
     <use xlink:href="#NotoSansTC-Thin-5f97" x="239.59996"/>
     <use xlink:href="#NotoSansTC-Thin-81ea" x="339.599945"/>
     <use xlink:href="#NotoSansTC-Thin-5df1" x="439.59993"/>
     <use xlink:href="#NotoSansTC-Thin-5c0d" x="539.599915"/>
     <use xlink:href="#NotoSansTC-Thin-65b0" x="639.599899"/>
     <use xlink:href="#NotoSansTC-Thin-89c0" x="739.599884"/>
     <use xlink:href="#NotoSansTC-Thin-5ff5" x="839.599869"/>
     <use xlink:href="#NotoSansTC-Thin-958b" x="939.599854"/>
     <use xlink:href="#NotoSansTC-Thin-653e" x="1039.599838"/>
     <use xlink:href="#NotoSansTC-Thin-55ce" x="1139.599823"/>
     <use xlink:href="#NotoSansTC-Thin-ff1f" x="1239.599808"/>
    </g>
    <!-- Are you open to new ideas? -->
    <g transform="translate(165.15071 31.078875) scale(0.12 -0.12)">
     <defs>
      <path id="NotoSansTC-Thin-41" d="M 70 0 
L 1728 4646 
L 1939 4646 
L 3603 0 
L 3347 0 
L 2381 2784 
Q 2234 3206 2106 3587 
Q 1978 3968 1850 4403 
L 1824 4403 
Q 1696 3968 1565 3587 
Q 1434 3206 1286 2784 
L 307 0 
L 70 0 
z
M 787 1651 
L 787 1856 
L 2861 1856 
L 2861 1651 
L 787 1651 
z
" transform="scale(0.015625)"/>
      <path id="NotoSansTC-Thin-72" d="M 672 0 
L 672 3373 
L 864 3373 
L 902 2739 
L 915 2739 
Q 1082 3046 1325 3251 
Q 1568 3456 1869 3456 
Q 1958 3456 2035 3443 
Q 2112 3430 2195 3386 
L 2138 3174 
Q 2054 3206 1996 3219 
Q 1939 3232 1837 3232 
Q 1613 3232 1357 3030 
Q 1101 2829 902 2330 
L 902 0 
L 672 0 
z
" transform="scale(0.015625)"/>
      <path id="NotoSansTC-Thin-65" d="M 1920 -83 
Q 1498 -83 1146 128 
Q 794 339 586 732 
Q 378 1126 378 1677 
Q 378 2093 496 2419 
Q 614 2746 822 2979 
Q 1030 3213 1289 3334 
Q 1549 3456 1830 3456 
Q 2221 3456 2505 3277 
Q 2790 3098 2947 2749 
Q 3104 2400 3104 1901 
Q 3104 1850 3104 1795 
Q 3104 1741 3091 1670 
L 621 1670 
Q 621 1229 784 880 
Q 947 531 1241 329 
Q 1536 128 1933 128 
Q 2221 128 2445 211 
Q 2669 294 2861 435 
L 2963 237 
Q 2771 122 2534 19 
Q 2298 -83 1920 -83 
z
M 621 1882 
L 2880 1882 
Q 2880 2566 2592 2905 
Q 2304 3245 1830 3245 
Q 1530 3245 1267 3081 
Q 1005 2918 832 2614 
Q 659 2310 621 1882 
z
" transform="scale(0.015625)"/>
      <path id="NotoSansTC-Thin-20" transform="scale(0.015625)"/>
      <path id="NotoSansTC-Thin-79" d="M 474 -1562 
Q 390 -1562 300 -1542 
Q 211 -1523 147 -1491 
L 205 -1280 
Q 256 -1306 333 -1322 
Q 410 -1338 486 -1338 
Q 806 -1338 1024 -1066 
Q 1242 -794 1382 -390 
L 1478 -77 
L 83 3373 
L 339 3373 
L 1190 1171 
Q 1274 954 1373 701 
Q 1472 448 1568 224 
L 1600 224 
Q 1683 448 1766 701 
Q 1850 954 1920 1171 
L 2675 3373 
L 2912 3373 
L 1568 -474 
Q 1485 -736 1337 -985 
Q 1190 -1235 979 -1398 
Q 768 -1562 474 -1562 
z
" transform="scale(0.015625)"/>
      <path id="NotoSansTC-Thin-6f" d="M 1875 -83 
Q 1472 -83 1129 125 
Q 787 333 582 726 
Q 378 1120 378 1677 
Q 378 2246 582 2643 
Q 787 3040 1129 3248 
Q 1472 3456 1875 3456 
Q 2176 3456 2448 3337 
Q 2720 3219 2928 2992 
Q 3136 2765 3254 2432 
Q 3373 2099 3373 1677 
Q 3373 1120 3165 726 
Q 2957 333 2617 125 
Q 2278 -83 1875 -83 
z
M 1875 128 
Q 2234 128 2518 323 
Q 2803 518 2969 867 
Q 3136 1216 3136 1677 
Q 3136 2144 2969 2496 
Q 2803 2848 2518 3046 
Q 2234 3245 1875 3245 
Q 1517 3245 1232 3046 
Q 947 2848 784 2496 
Q 621 2144 621 1677 
Q 621 1216 784 867 
Q 947 518 1232 323 
Q 1517 128 1875 128 
z
" transform="scale(0.015625)"/>
      <path id="NotoSansTC-Thin-75" d="M 1632 -83 
Q 1114 -83 864 230 
Q 614 544 614 1203 
L 614 3373 
L 845 3373 
L 845 1229 
Q 845 672 1033 400 
Q 1222 128 1651 128 
Q 1965 128 2224 304 
Q 2483 480 2797 851 
L 2797 3373 
L 3027 3373 
L 3027 0 
L 2829 0 
L 2803 576 
L 2790 576 
Q 2534 282 2259 99 
Q 1984 -83 1632 -83 
z
" transform="scale(0.015625)"/>
      <path id="NotoSansTC-Thin-70" d="M 672 -1555 
L 672 3373 
L 864 3373 
L 902 2938 
L 915 2938 
Q 1165 3136 1462 3296 
Q 1760 3456 2074 3456 
Q 2534 3456 2835 3241 
Q 3136 3027 3283 2643 
Q 3430 2259 3430 1734 
Q 3430 1165 3222 755 
Q 3014 346 2675 131 
Q 2336 -83 1933 -83 
Q 1696 -83 1433 29 
Q 1171 141 902 339 
L 902 -294 
L 902 -1555 
L 672 -1555 
z
M 1952 128 
Q 2310 128 2588 333 
Q 2867 538 3027 902 
Q 3187 1267 3187 1734 
Q 3187 2163 3075 2505 
Q 2963 2848 2716 3046 
Q 2470 3245 2054 3245 
Q 1798 3245 1510 3094 
Q 1222 2944 902 2662 
L 902 582 
Q 1203 333 1478 230 
Q 1754 128 1952 128 
z
" transform="scale(0.015625)"/>
      <path id="NotoSansTC-Thin-6e" d="M 672 0 
L 672 3373 
L 864 3373 
L 902 2835 
L 915 2835 
Q 1178 3098 1453 3277 
Q 1728 3456 2080 3456 
Q 2598 3456 2848 3139 
Q 3098 2822 3098 2170 
L 3098 0 
L 2867 0 
L 2867 2138 
Q 2867 2694 2678 2969 
Q 2490 3245 2054 3245 
Q 1741 3245 1481 3078 
Q 1222 2912 902 2579 
L 902 0 
L 672 0 
z
" transform="scale(0.015625)"/>
      <path id="NotoSansTC-Thin-74" d="M 1542 -83 
Q 1229 -83 1056 38 
Q 883 160 816 381 
Q 749 602 749 896 
L 749 3162 
L 211 3162 
L 211 3341 
L 749 3373 
L 774 4358 
L 973 4358 
L 973 3373 
L 1971 3373 
L 1971 3162 
L 973 3162 
L 973 864 
Q 973 538 1081 333 
Q 1190 128 1562 128 
Q 1658 128 1779 160 
Q 1901 192 1990 237 
L 2067 45 
Q 1920 -6 1776 -44 
Q 1632 -83 1542 -83 
z
" transform="scale(0.015625)"/>
      <path id="NotoSansTC-Thin-77" d="M 1184 0 
L 166 3373 
L 422 3373 
L 1069 1114 
Q 1126 877 1187 662 
Q 1248 448 1299 224 
L 1331 224 
Q 1395 448 1456 662 
Q 1517 877 1581 1114 
L 2227 3373 
L 2534 3373 
L 3181 1114 
Q 3245 877 3309 662 
Q 3373 448 3437 224 
L 3462 224 
Q 3520 448 3584 662 
Q 3648 877 3712 1114 
L 4339 3373 
L 4582 3373 
L 3597 0 
L 3283 0 
L 2656 2182 
Q 2579 2426 2518 2662 
Q 2458 2899 2387 3142 
L 2355 3142 
Q 2291 2899 2227 2656 
Q 2163 2413 2080 2170 
L 1466 0 
L 1184 0 
z
" transform="scale(0.015625)"/>
      <path id="NotoSansTC-Thin-69" d="M 672 0 
L 672 3373 
L 902 3373 
L 902 0 
L 672 0 
z
M 794 4224 
Q 691 4224 627 4294 
Q 563 4365 563 4486 
Q 563 4595 627 4662 
Q 691 4730 794 4730 
Q 890 4730 957 4662 
Q 1024 4595 1024 4486 
Q 1024 4365 957 4294 
Q 890 4224 794 4224 
z
" transform="scale(0.015625)"/>
      <path id="NotoSansTC-Thin-64" d="M 1773 -83 
Q 1350 -83 1036 118 
Q 723 320 550 713 
Q 378 1107 378 1677 
Q 378 2221 586 2621 
Q 794 3021 1136 3238 
Q 1478 3456 1888 3456 
Q 2195 3456 2432 3347 
Q 2669 3238 2925 3034 
L 2906 3667 
L 2906 5082 
L 3136 5082 
L 3136 0 
L 2944 0 
L 2912 448 
L 2899 448 
Q 2688 237 2406 77 
Q 2125 -83 1773 -83 
z
M 1792 128 
Q 2086 128 2358 281 
Q 2630 435 2906 710 
L 2906 2784 
Q 2630 3034 2384 3139 
Q 2138 3245 1875 3245 
Q 1523 3245 1238 3033 
Q 954 2822 787 2467 
Q 621 2112 621 1677 
Q 621 1216 758 867 
Q 896 518 1158 323 
Q 1421 128 1792 128 
z
" transform="scale(0.015625)"/>
      <path id="NotoSansTC-Thin-61" d="M 1395 -83 
Q 1133 -83 912 13 
Q 691 109 556 310 
Q 422 512 422 832 
Q 422 1395 953 1686 
Q 1485 1978 2624 2106 
Q 2637 2381 2576 2640 
Q 2515 2899 2336 3072 
Q 2157 3245 1805 3245 
Q 1446 3245 1158 3104 
Q 870 2963 704 2835 
L 589 3021 
Q 698 3098 880 3200 
Q 1062 3302 1302 3379 
Q 1542 3456 1818 3456 
Q 2214 3456 2441 3280 
Q 2669 3104 2761 2816 
Q 2854 2528 2854 2182 
L 2854 0 
L 2662 0 
L 2630 448 
L 2611 448 
Q 2355 237 2044 77 
Q 1734 -83 1395 -83 
z
M 1414 128 
Q 1715 128 2003 272 
Q 2291 416 2624 698 
L 2624 1907 
Q 1894 1830 1462 1686 
Q 1030 1542 844 1334 
Q 659 1126 659 838 
Q 659 448 883 288 
Q 1107 128 1414 128 
z
" transform="scale(0.015625)"/>
      <path id="NotoSansTC-Thin-73" d="M 1466 -83 
Q 1088 -83 774 54 
Q 461 192 237 378 
L 384 563 
Q 595 384 851 256 
Q 1107 128 1478 128 
Q 1901 128 2115 339 
Q 2330 550 2330 838 
Q 2330 1062 2202 1209 
Q 2074 1357 1878 1453 
Q 1683 1549 1485 1619 
Q 1229 1715 985 1824 
Q 742 1933 582 2112 
Q 422 2291 422 2579 
Q 422 2816 544 3014 
Q 666 3213 902 3334 
Q 1139 3456 1485 3456 
Q 1741 3456 1990 3360 
Q 2240 3264 2419 3110 
L 2285 2938 
Q 2118 3066 1926 3155 
Q 1734 3245 1472 3245 
Q 1056 3245 857 3043 
Q 659 2842 659 2592 
Q 659 2394 771 2262 
Q 883 2131 1065 2044 
Q 1248 1958 1446 1882 
Q 1651 1805 1849 1725 
Q 2048 1645 2208 1536 
Q 2368 1427 2467 1264 
Q 2566 1101 2566 851 
Q 2566 602 2438 387 
Q 2310 173 2067 45 
Q 1824 -83 1466 -83 
z
" transform="scale(0.015625)"/>
      <path id="NotoSansTC-Thin-3f" d="M 1152 1216 
Q 1107 1574 1196 1852 
Q 1286 2131 1446 2358 
Q 1606 2586 1776 2797 
Q 1946 3008 2064 3232 
Q 2182 3456 2182 3731 
Q 2182 3955 2092 4150 
Q 2003 4346 1820 4470 
Q 1638 4595 1344 4595 
Q 1082 4595 832 4476 
Q 582 4358 403 4134 
L 256 4269 
Q 454 4493 726 4649 
Q 998 4806 1357 4806 
Q 1696 4806 1933 4662 
Q 2170 4518 2294 4278 
Q 2419 4038 2419 3744 
Q 2419 3450 2300 3210 
Q 2182 2970 2009 2752 
Q 1837 2534 1673 2304 
Q 1510 2074 1414 1811 
Q 1318 1549 1363 1216 
L 1152 1216 
z
M 1286 -83 
Q 1184 -83 1107 -9 
Q 1030 64 1030 192 
Q 1030 333 1107 406 
Q 1184 480 1286 480 
Q 1389 480 1469 406 
Q 1549 333 1549 192 
Q 1549 64 1469 -9 
Q 1389 -83 1286 -83 
z
" transform="scale(0.015625)"/>
     </defs>
     <use xlink:href="#NotoSansTC-Thin-41"/>
     <use xlink:href="#NotoSansTC-Thin-72" x="57.399994"/>
     <use xlink:href="#NotoSansTC-Thin-65" x="91.299988"/>
     <use xlink:href="#NotoSansTC-Thin-20" x="143.999985"/>
     <use xlink:href="#NotoSansTC-Thin-79" x="165.999969"/>
     <use xlink:href="#NotoSansTC-Thin-6f" x="212.799957"/>
     <use xlink:href="#NotoSansTC-Thin-75" x="271.399948"/>
     <use xlink:href="#NotoSansTC-Thin-20" x="329.099945"/>
     <use xlink:href="#NotoSansTC-Thin-6f" x="351.09993"/>
     <use xlink:href="#NotoSansTC-Thin-70" x="409.699921"/>
     <use xlink:href="#NotoSansTC-Thin-65" x="469.199905"/>
     <use xlink:href="#NotoSansTC-Thin-6e" x="521.899902"/>
     <use xlink:href="#NotoSansTC-Thin-20" x="579.899887"/>
     <use xlink:href="#NotoSansTC-Thin-74" x="601.899872"/>
     <use xlink:href="#NotoSansTC-Thin-6f" x="635.299866"/>
     <use xlink:href="#NotoSansTC-Thin-20" x="693.899857"/>
     <use xlink:href="#NotoSansTC-Thin-6e" x="715.899841"/>
     <use xlink:href="#NotoSansTC-Thin-65" x="773.899826"/>
     <use xlink:href="#NotoSansTC-Thin-77" x="826.599823"/>
     <use xlink:href="#NotoSansTC-Thin-20" x="900.799805"/>
     <use xlink:href="#NotoSansTC-Thin-69" x="922.799789"/>
     <use xlink:href="#NotoSansTC-Thin-64" x="947.299774"/>
     <use xlink:href="#NotoSansTC-Thin-65" x="1006.799759"/>
     <use xlink:href="#NotoSansTC-Thin-61" x="1059.499756"/>
     <use xlink:href="#NotoSansTC-Thin-73" x="1113.099747"/>
     <use xlink:href="#NotoSansTC-Thin-3f" x="1157.199738"/>
    </g>
   </g>
  </g>
  <g id="axes_2">
   <g id="patch_12">
    <path d="M 503.51108 314.278875 
L 883.965625 314.278875 
L 883.965625 37.078875 
L 503.51108 37.078875 
z
" style="fill: #ffffff"/>
   </g>
   <g id="patch_13">
    <path d="M 511.12017 314.278875 
L 571.992898 314.278875 
L 571.992898 308.835576 
L 511.12017 308.835576 
z
" clip-path="url(#p3a0ec520e4)" style="fill: #a1c9f4"/>
   </g>
   <g id="patch_14">
    <path d="M 587.21108 314.278875 
L 648.083807 314.278875 
L 648.083807 278.897432 
L 587.21108 278.897432 
z
" clip-path="url(#p3a0ec520e4)" style="fill: #ffb482"/>
   </g>
   <g id="patch_15">
    <path d="M 663.301989 314.278875 
L 724.174716 314.278875 
L 724.174716 136.464442 
L 663.301989 136.464442 
z
" clip-path="url(#p3a0ec520e4)" style="fill: #8de5a1"/>
   </g>
   <g id="patch_16">
    <path d="M 739.392898 314.278875 
L 800.265625 314.278875 
L 800.265625 50.278875 
L 739.392898 50.278875 
z
" clip-path="url(#p3a0ec520e4)" style="fill: #ff9f9b"/>
   </g>
   <g id="patch_17">
    <path d="M 815.483807 314.278875 
L 876.356534 314.278875 
L 876.356534 179.103617 
L 815.483807 179.103617 
z
" clip-path="url(#p3a0ec520e4)" style="fill: #d0bbff"/>
   </g>
   <g id="matplotlib.axis_3">
    <g id="xtick_6">
     <g id="line2d_13">
      <g>
       <use xlink:href="#m465ad4fd40" x="541.556534" y="314.278875" style="stroke: #000000; stroke-width: 0.8"/>
      </g>
     </g>
     <g id="text_16">
      <!-- 1 -->
      <g transform="translate(538.375284 328.877313) scale(0.1 -0.1)">
       <use xlink:href="#DejaVuSans-31"/>
      </g>
     </g>
    </g>
    <g id="xtick_7">
     <g id="line2d_14">
      <g>
       <use xlink:href="#m465ad4fd40" x="617.647443" y="314.278875" style="stroke: #000000; stroke-width: 0.8"/>
      </g>
     </g>
     <g id="text_17">
      <!-- 2 -->
      <g transform="translate(614.466193 328.877313) scale(0.1 -0.1)">
       <use xlink:href="#DejaVuSans-32"/>
      </g>
     </g>
    </g>
    <g id="xtick_8">
     <g id="line2d_15">
      <g>
       <use xlink:href="#m465ad4fd40" x="693.738352" y="314.278875" style="stroke: #000000; stroke-width: 0.8"/>
      </g>
     </g>
     <g id="text_18">
      <!-- 3 -->
      <g transform="translate(690.557102 328.877313) scale(0.1 -0.1)">
       <use xlink:href="#DejaVuSans-33"/>
      </g>
     </g>
    </g>
    <g id="xtick_9">
     <g id="line2d_16">
      <g>
       <use xlink:href="#m465ad4fd40" x="769.829261" y="314.278875" style="stroke: #000000; stroke-width: 0.8"/>
      </g>
     </g>
     <g id="text_19">
      <!-- 4 -->
      <g transform="translate(766.648011 328.877313) scale(0.1 -0.1)">
       <use xlink:href="#DejaVuSans-34"/>
      </g>
     </g>
    </g>
    <g id="xtick_10">
     <g id="line2d_17">
      <g>
       <use xlink:href="#m465ad4fd40" x="845.92017" y="314.278875" style="stroke: #000000; stroke-width: 0.8"/>
      </g>
     </g>
     <g id="text_20">
      <!-- 5 -->
      <g transform="translate(842.73892 328.877313) scale(0.1 -0.1)">
       <use xlink:href="#DejaVuSans-35"/>
      </g>
     </g>
    </g>
    <g id="text_21">
     <!-- ← Disagreement — Neutral — Agreement → -->
     <g transform="translate(584.34929 342.555438) scale(0.1 -0.1)">
      <use xlink:href="#DejaVuSans-2190"/>
      <use xlink:href="#DejaVuSans-20" x="83.789062"/>
      <use xlink:href="#DejaVuSans-44" x="115.576172"/>
      <use xlink:href="#DejaVuSans-69" x="192.578125"/>
      <use xlink:href="#DejaVuSans-73" x="220.361328"/>
      <use xlink:href="#DejaVuSans-61" x="272.460938"/>
      <use xlink:href="#DejaVuSans-67" x="333.740234"/>
      <use xlink:href="#DejaVuSans-72" x="397.216797"/>
      <use xlink:href="#DejaVuSans-65" x="436.080078"/>
      <use xlink:href="#DejaVuSans-65" x="497.603516"/>
      <use xlink:href="#DejaVuSans-6d" x="559.126953"/>
      <use xlink:href="#DejaVuSans-65" x="656.539062"/>
      <use xlink:href="#DejaVuSans-6e" x="718.0625"/>
      <use xlink:href="#DejaVuSans-74" x="781.441406"/>
      <use xlink:href="#DejaVuSans-20" x="820.650391"/>
      <use xlink:href="#DejaVuSans-2014" x="852.4375"/>
      <use xlink:href="#DejaVuSans-20" x="952.4375"/>
      <use xlink:href="#DejaVuSans-4e" x="984.224609"/>
      <use xlink:href="#DejaVuSans-65" x="1059.029297"/>
      <use xlink:href="#DejaVuSans-75" x="1120.552734"/>
      <use xlink:href="#DejaVuSans-74" x="1183.931641"/>
      <use xlink:href="#DejaVuSans-72" x="1223.140625"/>
      <use xlink:href="#DejaVuSans-61" x="1264.253906"/>
      <use xlink:href="#DejaVuSans-6c" x="1325.533203"/>
      <use xlink:href="#DejaVuSans-20" x="1353.316406"/>
      <use xlink:href="#DejaVuSans-2014" x="1385.103516"/>
      <use xlink:href="#DejaVuSans-20" x="1485.103516"/>
      <use xlink:href="#DejaVuSans-41" x="1516.890625"/>
      <use xlink:href="#DejaVuSans-67" x="1585.298828"/>
      <use xlink:href="#DejaVuSans-72" x="1648.775391"/>
      <use xlink:href="#DejaVuSans-65" x="1687.638672"/>
      <use xlink:href="#DejaVuSans-65" x="1749.162109"/>
      <use xlink:href="#DejaVuSans-6d" x="1810.685547"/>
      <use xlink:href="#DejaVuSans-65" x="1908.097656"/>
      <use xlink:href="#DejaVuSans-6e" x="1969.621094"/>
      <use xlink:href="#DejaVuSans-74" x="2033"/>
      <use xlink:href="#DejaVuSans-20" x="2072.208984"/>
      <use xlink:href="#DejaVuSans-2192" x="2103.996094"/>
     </g>
    </g>
   </g>
   <g id="matplotlib.axis_4">
    <g id="ytick_8">
     <g id="line2d_18">
      <g>
       <use xlink:href="#m9e6f364694" x="503.51108" y="314.278875" style="stroke: #000000; stroke-width: 0.8"/>
      </g>
     </g>
     <g id="text_22">
      <!-- 0 -->
      <g transform="translate(490.14858 318.078094) scale(0.1 -0.1)">
       <use xlink:href="#DejaVuSans-30"/>
      </g>
     </g>
    </g>
    <g id="ytick_9">
     <g id="line2d_19">
      <g>
       <use xlink:href="#m9e6f364694" x="503.51108" y="268.91805" style="stroke: #000000; stroke-width: 0.8"/>
      </g>
     </g>
     <g id="text_23">
      <!-- 50 -->
      <g transform="translate(483.78608 272.717269) scale(0.1 -0.1)">
       <use xlink:href="#DejaVuSans-35"/>
       <use xlink:href="#DejaVuSans-30" x="63.623047"/>
      </g>
     </g>
    </g>
    <g id="ytick_10">
     <g id="line2d_20">
      <g>
       <use xlink:href="#m9e6f364694" x="503.51108" y="223.557226" style="stroke: #000000; stroke-width: 0.8"/>
      </g>
     </g>
     <g id="text_24">
      <!-- 100 -->
      <g transform="translate(477.42358 227.356444) scale(0.1 -0.1)">
       <use xlink:href="#DejaVuSans-31"/>
       <use xlink:href="#DejaVuSans-30" x="63.623047"/>
       <use xlink:href="#DejaVuSans-30" x="127.246094"/>
      </g>
     </g>
    </g>
    <g id="ytick_11">
     <g id="line2d_21">
      <g>
       <use xlink:href="#m9e6f364694" x="503.51108" y="178.196401" style="stroke: #000000; stroke-width: 0.8"/>
      </g>
     </g>
     <g id="text_25">
      <!-- 150 -->
      <g transform="translate(477.42358 181.99562) scale(0.1 -0.1)">
       <use xlink:href="#DejaVuSans-31"/>
       <use xlink:href="#DejaVuSans-35" x="63.623047"/>
       <use xlink:href="#DejaVuSans-30" x="127.246094"/>
      </g>
     </g>
    </g>
    <g id="ytick_12">
     <g id="line2d_22">
      <g>
       <use xlink:href="#m9e6f364694" x="503.51108" y="132.835576" style="stroke: #000000; stroke-width: 0.8"/>
      </g>
     </g>
     <g id="text_26">
      <!-- 200 -->
      <g transform="translate(477.42358 136.634795) scale(0.1 -0.1)">
       <use xlink:href="#DejaVuSans-32"/>
       <use xlink:href="#DejaVuSans-30" x="63.623047"/>
       <use xlink:href="#DejaVuSans-30" x="127.246094"/>
      </g>
     </g>
    </g>
    <g id="ytick_13">
     <g id="line2d_23">
      <g>
       <use xlink:href="#m9e6f364694" x="503.51108" y="87.474751" style="stroke: #000000; stroke-width: 0.8"/>
      </g>
     </g>
     <g id="text_27">
      <!-- 250 -->
      <g transform="translate(477.42358 91.27397) scale(0.1 -0.1)">
       <use xlink:href="#DejaVuSans-32"/>
       <use xlink:href="#DejaVuSans-35" x="63.623047"/>
       <use xlink:href="#DejaVuSans-30" x="127.246094"/>
      </g>
     </g>
    </g>
    <g id="ytick_14">
     <g id="line2d_24">
      <g>
       <use xlink:href="#m9e6f364694" x="503.51108" y="42.113927" style="stroke: #000000; stroke-width: 0.8"/>
      </g>
     </g>
     <g id="text_28">
      <!-- 300 -->
      <g transform="translate(477.42358 45.913145) scale(0.1 -0.1)">
       <use xlink:href="#DejaVuSans-33"/>
       <use xlink:href="#DejaVuSans-30" x="63.623047"/>
       <use xlink:href="#DejaVuSans-30" x="127.246094"/>
      </g>
     </g>
    </g>
    <g id="text_29">
     <!-- Frequency -->
     <g transform="translate(471.343892 201.508563) rotate(-90) scale(0.1 -0.1)">
      <use xlink:href="#DejaVuSans-46"/>
      <use xlink:href="#DejaVuSans-72" x="50.269531"/>
      <use xlink:href="#DejaVuSans-65" x="89.132812"/>
      <use xlink:href="#DejaVuSans-71" x="150.65625"/>
      <use xlink:href="#DejaVuSans-75" x="214.132812"/>
      <use xlink:href="#DejaVuSans-65" x="277.511719"/>
      <use xlink:href="#DejaVuSans-6e" x="339.035156"/>
      <use xlink:href="#DejaVuSans-63" x="402.414062"/>
      <use xlink:href="#DejaVuSans-79" x="457.394531"/>
     </g>
    </g>
   </g>
   <g id="patch_18">
    <path d="M 503.51108 314.278875 
L 503.51108 37.078875 
" style="fill: none; stroke: #000000; stroke-width: 0.8; stroke-linejoin: miter; stroke-linecap: square"/>
   </g>
   <g id="patch_19">
    <path d="M 883.965625 314.278875 
L 883.965625 37.078875 
" style="fill: none; stroke: #000000; stroke-width: 0.8; stroke-linejoin: miter; stroke-linecap: square"/>
   </g>
   <g id="patch_20">
    <path d="M 503.51108 314.278875 
L 883.965625 314.278875 
" style="fill: none; stroke: #000000; stroke-width: 0.8; stroke-linejoin: miter; stroke-linecap: square"/>
   </g>
   <g id="patch_21">
    <path d="M 503.51108 37.078875 
L 883.965625 37.078875 
" style="fill: none; stroke: #000000; stroke-width: 0.8; stroke-linejoin: miter; stroke-linecap: square"/>
   </g>
   <g id="text_30">
    <!-- 你/妳的大學對可環保性支持嗎？ -->
    <g transform="translate(607.362727 16.72875) scale(0.12 -0.12)">
     <defs>
      <path id="NotoSansTC-Thin-7684" d="M 762 4294 
L 2688 4294 
L 2688 237 
L 762 237 
L 762 429 
L 2496 429 
L 2496 4109 
L 762 4109 
L 762 4294 
z
M 640 4294 
L 832 4294 
L 832 -307 
L 640 -307 
L 640 4294 
z
M 730 2445 
L 2624 2445 
L 2624 2259 
L 730 2259 
L 730 2445 
z
M 1690 5338 
L 1888 5274 
Q 1805 5005 1696 4707 
Q 1587 4410 1491 4205 
L 1331 4262 
Q 1395 4410 1462 4598 
Q 1530 4787 1590 4985 
Q 1651 5184 1690 5338 
z
M 3667 4288 
L 5728 4288 
L 5728 4096 
L 3667 4096 
L 3667 4288 
z
M 5651 4288 
L 5843 4288 
Q 5843 4288 5843 4259 
Q 5843 4230 5843 4195 
Q 5843 4160 5843 4141 
Q 5798 3021 5756 2253 
Q 5715 1485 5660 1001 
Q 5606 518 5539 259 
Q 5472 0 5376 -109 
Q 5293 -205 5203 -240 
Q 5114 -275 4966 -282 
Q 4826 -288 4576 -278 
Q 4326 -269 4064 -250 
Q 4058 -198 4045 -147 
Q 4032 -96 4000 -64 
Q 4320 -90 4579 -96 
Q 4838 -102 4941 -102 
Q 5037 -102 5101 -86 
Q 5165 -70 5210 -6 
Q 5293 83 5357 342 
Q 5421 602 5472 1088 
Q 5523 1574 5568 2345 
Q 5613 3117 5651 4230 
L 5651 4288 
z
M 3910 5370 
L 4096 5331 
Q 3987 4851 3836 4400 
Q 3686 3949 3500 3555 
Q 3315 3162 3091 2854 
Q 3078 2867 3046 2886 
Q 3014 2906 2982 2925 
Q 2950 2944 2925 2957 
Q 3149 3258 3334 3642 
Q 3520 4026 3664 4467 
Q 3808 4909 3910 5370 
z
M 3635 2810 
L 3782 2899 
Q 3987 2669 4198 2397 
Q 4410 2125 4586 1872 
Q 4762 1619 4870 1427 
L 4704 1312 
Q 4602 1510 4426 1769 
Q 4250 2029 4042 2304 
Q 3834 2579 3635 2810 
z
" transform="scale(0.015625)"/>
      <path id="NotoSansTC-Thin-5927" d="M 435 3360 
L 5997 3360 
L 5997 3174 
L 435 3174 
L 435 3360 
z
M 3386 3290 
Q 3616 2477 3993 1769 
Q 4371 1062 4896 537 
Q 5421 13 6067 -275 
Q 6042 -294 6016 -326 
Q 5990 -358 5964 -387 
Q 5939 -416 5920 -442 
Q 5267 -128 4739 416 
Q 4211 960 3827 1680 
Q 3443 2400 3206 3238 
L 3386 3290 
z
M 3142 5306 
L 3334 5306 
Q 3334 4954 3312 4480 
Q 3290 4006 3213 3465 
Q 3136 2925 2960 2365 
Q 2784 1805 2467 1280 
Q 2150 755 1660 307 
Q 1171 -141 461 -448 
Q 435 -416 390 -374 
Q 346 -333 314 -307 
Q 1018 -6 1504 429 
Q 1990 864 2300 1379 
Q 2611 1894 2784 2444 
Q 2957 2995 3030 3526 
Q 3104 4058 3123 4515 
Q 3142 4973 3142 5306 
z
" transform="scale(0.015625)"/>
      <path id="NotoSansTC-Thin-5b78" d="M 390 1088 
L 6042 1088 
L 6042 890 
L 390 890 
L 390 1088 
z
M 1523 2246 
L 4774 2246 
L 4774 2061 
L 1523 2061 
L 1523 2246 
z
M 3162 1466 
L 3347 1466 
L 3347 -141 
Q 3347 -256 3312 -310 
Q 3277 -365 3168 -397 
Q 3066 -422 2832 -422 
Q 2598 -422 2189 -422 
Q 2182 -390 2156 -345 
Q 2131 -301 2106 -256 
Q 2349 -262 2537 -265 
Q 2726 -269 2854 -265 
Q 2982 -262 3034 -262 
Q 3110 -256 3136 -230 
Q 3162 -205 3162 -141 
L 3162 1466 
z
M 4730 2246 
L 4774 2246 
L 4819 2259 
L 4954 2163 
Q 4742 1990 4460 1836 
Q 4179 1683 3875 1558 
Q 3571 1434 3290 1344 
Q 3264 1376 3229 1411 
Q 3194 1446 3162 1466 
Q 3443 1549 3737 1667 
Q 4032 1786 4294 1926 
Q 4557 2067 4730 2202 
L 4730 2246 
z
M 557 3034 
L 5869 3034 
L 5869 2010 
L 5677 2010 
L 5677 2848 
L 749 2848 
L 749 2010 
L 557 2010 
L 557 3034 
z
M 5306 5043 
L 5491 5043 
Q 5472 4704 5446 4307 
Q 5421 3910 5389 3536 
Q 5357 3162 5325 2899 
L 5139 2899 
Q 5178 3168 5210 3545 
Q 5242 3923 5267 4320 
Q 5293 4717 5306 5043 
z
M 4115 5043 
L 5389 5043 
L 5389 4858 
L 4115 4858 
L 4115 5043 
z
M 2157 5235 
L 2272 5088 
Q 2016 4986 1673 4925 
Q 1331 4864 1056 4826 
L 966 4960 
Q 1146 4992 1366 5040 
Q 1587 5088 1798 5142 
Q 2010 5197 2157 5235 
z
M 1107 4378 
L 2240 4378 
L 2240 4192 
L 1107 4192 
L 1107 4378 
z
M 1152 3712 
L 2285 3712 
L 2285 3526 
L 1152 3526 
L 1152 3712 
z
M 4141 4378 
L 5357 4378 
L 5357 4192 
L 4141 4192 
L 4141 4378 
z
M 4102 3712 
L 5293 3712 
L 5293 3526 
L 4102 3526 
L 4102 3712 
z
M 3578 5235 
L 3757 5190 
Q 3539 4896 3209 4630 
Q 2880 4365 2560 4179 
Q 2541 4205 2493 4246 
Q 2445 4288 2413 4307 
Q 2739 4486 3059 4726 
Q 3379 4966 3578 5235 
z
M 2515 4992 
L 2643 5126 
Q 2867 5030 3107 4902 
Q 3347 4774 3561 4643 
Q 3776 4512 3910 4390 
L 3782 4243 
Q 3648 4365 3440 4502 
Q 3232 4640 2989 4768 
Q 2746 4896 2515 4992 
z
M 3603 4160 
L 3782 4102 
Q 3552 3808 3209 3533 
Q 2867 3258 2528 3072 
Q 2509 3098 2461 3139 
Q 2413 3181 2381 3206 
Q 2720 3379 3056 3628 
Q 3392 3878 3603 4160 
z
M 2509 3942 
L 2637 4064 
Q 2867 3962 3110 3824 
Q 3354 3686 3565 3542 
Q 3776 3398 3910 3264 
L 3776 3117 
Q 3648 3251 3437 3398 
Q 3226 3546 2986 3690 
Q 2746 3834 2509 3942 
z
M 966 4960 
L 1165 4896 
L 1299 2899 
L 1114 2899 
L 966 4960 
z
" transform="scale(0.015625)"/>
      <path id="NotoSansTC-Thin-53ef" d="M 4998 4762 
L 5190 4762 
L 5190 -38 
Q 5190 -211 5136 -294 
Q 5082 -378 4934 -410 
Q 4794 -435 4477 -435 
Q 4160 -435 3706 -435 
Q 3699 -410 3683 -371 
Q 3667 -333 3654 -291 
Q 3642 -250 3622 -218 
Q 3910 -224 4156 -227 
Q 4403 -230 4579 -227 
Q 4755 -224 4832 -224 
Q 4928 -211 4963 -176 
Q 4998 -141 4998 -38 
L 4998 4762 
z
M 1126 3482 
L 1312 3482 
L 1312 659 
L 1126 659 
L 1126 3482 
z
M 1203 3482 
L 3642 3482 
L 3642 1190 
L 1203 1190 
L 1203 1382 
L 3450 1382 
L 3450 3296 
L 1203 3296 
L 1203 3482 
z
M 403 4838 
L 6022 4838 
L 6022 4646 
L 403 4646 
L 403 4838 
z
" transform="scale(0.015625)"/>
      <path id="NotoSansTC-Thin-74b0" d="M 314 4813 
L 2016 4813 
L 2016 4621 
L 314 4621 
L 314 4813 
z
M 390 2950 
L 1920 2950 
L 1920 2758 
L 390 2758 
L 390 2950 
z
M 243 461 
Q 582 563 1040 723 
Q 1498 883 1984 1056 
L 2010 870 
Q 1555 710 1110 550 
Q 666 390 307 262 
L 243 461 
z
M 1094 4736 
L 1280 4736 
L 1280 698 
L 1094 621 
L 1094 4736 
z
M 2202 3373 
L 6016 3373 
L 6016 3187 
L 2202 3187 
L 2202 3373 
z
M 2886 2522 
L 2886 1670 
L 5376 1670 
L 5376 2522 
L 2886 2522 
z
M 2701 2714 
L 5562 2714 
L 5562 1478 
L 2701 1478 
L 2701 2714 
z
M 4736 4890 
L 4736 3994 
L 5600 3994 
L 5600 4890 
L 4736 4890 
z
M 3699 4890 
L 3699 3994 
L 4550 3994 
L 4550 4890 
L 3699 4890 
z
M 2701 4890 
L 2701 3994 
L 3514 3994 
L 3514 4890 
L 2701 4890 
z
M 2509 5075 
L 5792 5075 
L 5792 3808 
L 2509 3808 
L 2509 5075 
z
M 4250 1613 
Q 4397 1184 4669 809 
Q 4941 435 5318 163 
Q 5696 -109 6150 -237 
Q 6118 -262 6076 -310 
Q 6035 -358 6016 -403 
Q 5325 -179 4822 349 
Q 4320 877 4090 1562 
L 4250 1613 
z
M 5741 1312 
L 5894 1184 
Q 5651 1005 5337 819 
Q 5024 634 4762 506 
L 4634 602 
Q 4806 698 5011 822 
Q 5216 947 5411 1078 
Q 5606 1210 5741 1312 
z
M 3987 1651 
L 4141 1568 
Q 3917 1325 3571 1088 
Q 3226 851 2848 662 
Q 2470 474 2125 358 
Q 2106 397 2070 441 
Q 2035 486 2003 512 
Q 2355 614 2732 790 
Q 3110 966 3443 1190 
Q 3776 1414 3987 1651 
z
M 2912 -416 
Q 2899 -371 2867 -313 
Q 2835 -256 2803 -218 
Q 2854 -192 2918 -115 
Q 2982 -38 2982 141 
L 2982 851 
L 3168 902 
L 3168 -154 
Q 3168 -154 3129 -179 
Q 3091 -205 3040 -246 
Q 2989 -288 2950 -333 
Q 2912 -378 2912 -416 
z
M 2912 -416 
L 2912 -250 
L 3046 -141 
L 4410 224 
Q 4410 192 4413 144 
Q 4416 96 4422 64 
Q 3942 -77 3657 -160 
Q 3373 -243 3222 -291 
Q 3072 -339 3008 -368 
Q 2944 -397 2912 -416 
z
" transform="scale(0.015625)"/>
      <path id="NotoSansTC-Thin-4fdd" d="M 3923 3187 
L 4115 3187 
L 4115 -454 
L 3923 -454 
L 3923 3187 
z
M 1875 2157 
L 6086 2157 
L 6086 1971 
L 1875 1971 
L 1875 2157 
z
M 2586 4806 
L 2586 3315 
L 5472 3315 
L 5472 4806 
L 2586 4806 
z
M 2400 4992 
L 5658 4992 
L 5658 3123 
L 2400 3123 
L 2400 4992 
z
M 1914 5293 
L 2099 5242 
Q 1882 4704 1597 4198 
Q 1312 3693 985 3254 
Q 659 2816 314 2464 
Q 301 2483 275 2515 
Q 250 2547 224 2576 
Q 198 2605 173 2624 
Q 518 2950 838 3376 
Q 1158 3802 1436 4291 
Q 1715 4781 1914 5293 
z
M 1197 3763 
L 1376 3942 
L 1389 3936 
L 1389 -435 
L 1197 -435 
L 1197 3763 
z
M 3123 1549 
L 3302 1485 
Q 3130 1216 2922 928 
Q 2714 640 2502 374 
Q 2291 109 2093 -102 
Q 2080 -90 2051 -64 
Q 2022 -38 1990 -16 
Q 1958 6 1933 19 
Q 2240 333 2560 745 
Q 2880 1158 3123 1549 
z
M 4621 1459 
L 4774 1549 
Q 5011 1312 5257 1033 
Q 5504 755 5715 489 
Q 5926 224 6054 19 
L 5888 -96 
Q 5760 115 5549 387 
Q 5338 659 5098 940 
Q 4858 1222 4621 1459 
z
" transform="scale(0.015625)"/>
      <path id="NotoSansTC-Thin-6027" d="M 1248 5318 
L 1440 5318 
L 1440 -435 
L 1248 -435 
L 1248 5318 
z
M 608 4115 
L 787 4083 
Q 768 3840 723 3542 
Q 678 3245 608 2953 
Q 538 2662 442 2438 
L 256 2496 
Q 352 2707 422 2988 
Q 493 3270 541 3568 
Q 589 3866 608 4115 
z
M 1683 4243 
L 1837 4314 
Q 1997 4045 2137 3728 
Q 2278 3411 2336 3206 
L 2170 3104 
Q 2131 3251 2054 3446 
Q 1978 3642 1882 3853 
Q 1786 4064 1683 4243 
z
M 3085 5018 
L 3277 4979 
Q 3174 4525 3033 4089 
Q 2893 3654 2726 3273 
Q 2560 2893 2368 2592 
Q 2349 2605 2317 2624 
Q 2285 2643 2249 2659 
Q 2214 2675 2189 2688 
Q 2394 2982 2563 3356 
Q 2733 3731 2864 4156 
Q 2995 4582 3085 5018 
z
M 2867 3898 
L 5869 3898 
L 5869 3706 
L 2790 3706 
L 2867 3898 
z
M 4064 5306 
L 4262 5306 
L 4262 -109 
L 4064 -109 
L 4064 5306 
z
M 2586 2093 
L 5722 2093 
L 5722 1907 
L 2586 1907 
L 2586 2093 
z
M 2106 -13 
L 5978 -13 
L 5978 -198 
L 2106 -198 
L 2106 -13 
z
" transform="scale(0.015625)"/>
      <path id="NotoSansTC-Thin-652f" d="M 1562 2675 
Q 2131 1459 3315 716 
Q 4499 -26 6144 -269 
Q 6125 -288 6102 -317 
Q 6080 -346 6061 -378 
Q 6042 -410 6029 -429 
Q 4934 -256 4032 137 
Q 3130 531 2461 1148 
Q 1792 1766 1402 2605 
L 1562 2675 
z
M 813 2778 
L 5050 2778 
L 5050 2592 
L 813 2592 
L 813 2778 
z
M 538 4205 
L 5856 4205 
L 5856 4013 
L 538 4013 
L 538 4205 
z
M 3098 5312 
L 3290 5312 
L 3290 2688 
L 3098 2688 
L 3098 5312 
z
M 4998 2778 
L 5050 2778 
L 5101 2790 
L 5222 2707 
Q 4909 2016 4406 1494 
Q 3904 973 3267 595 
Q 2630 218 1907 -35 
Q 1184 -288 435 -448 
Q 429 -422 406 -390 
Q 384 -358 361 -326 
Q 339 -294 320 -275 
Q 1069 -128 1782 115 
Q 2496 358 3120 723 
Q 3744 1088 4227 1587 
Q 4710 2086 4998 2733 
L 4998 2778 
z
" transform="scale(0.015625)"/>
      <path id="NotoSansTC-Thin-6301" d="M 2656 3142 
L 5773 3142 
L 5773 2957 
L 2656 2957 
L 2656 3142 
z
M 2413 2029 
L 6048 2029 
L 6048 1837 
L 2413 1837 
L 2413 2029 
z
M 2336 4384 
L 6099 4384 
L 6099 4198 
L 2336 4198 
L 2336 4384 
z
M 4122 5280 
L 4307 5280 
L 4307 3027 
L 4122 3027 
L 4122 5280 
z
M 4979 2739 
L 5171 2739 
L 5171 -122 
Q 5171 -262 5129 -329 
Q 5088 -397 4979 -429 
Q 4877 -454 4659 -460 
Q 4442 -467 4070 -467 
Q 4064 -422 4041 -364 
Q 4019 -307 3994 -262 
Q 4320 -269 4550 -269 
Q 4781 -269 4864 -262 
Q 4934 -256 4956 -227 
Q 4979 -198 4979 -128 
L 4979 2739 
z
M 3014 1421 
L 3149 1504 
Q 3283 1325 3424 1120 
Q 3565 915 3689 720 
Q 3814 525 3898 384 
L 3757 269 
Q 3680 416 3555 614 
Q 3430 813 3289 1027 
Q 3149 1242 3014 1421 
z
M 224 1760 
Q 582 1882 1107 2064 
Q 1632 2246 2176 2445 
L 2208 2253 
Q 1702 2074 1200 1891 
Q 698 1709 301 1562 
L 224 1760 
z
M 301 3949 
L 2227 3949 
L 2227 3757 
L 301 3757 
L 301 3949 
z
M 1229 5312 
L 1421 5312 
L 1421 -147 
Q 1421 -275 1376 -332 
Q 1331 -390 1242 -416 
Q 1158 -442 988 -448 
Q 819 -454 518 -448 
Q 512 -416 489 -365 
Q 467 -314 442 -269 
Q 685 -275 870 -275 
Q 1056 -275 1114 -269 
Q 1171 -269 1200 -243 
Q 1229 -218 1229 -147 
L 1229 5312 
z
" transform="scale(0.015625)"/>
     </defs>
     <use xlink:href="#NotoSansTC-Thin-4f60"/>
     <use xlink:href="#NotoSansTC-Thin-2f" x="99.999985"/>
     <use xlink:href="#NotoSansTC-Thin-59b3" x="139.599976"/>
     <use xlink:href="#NotoSansTC-Thin-7684" x="239.59996"/>
     <use xlink:href="#NotoSansTC-Thin-5927" x="339.599945"/>
     <use xlink:href="#NotoSansTC-Thin-5b78" x="439.59993"/>
     <use xlink:href="#NotoSansTC-Thin-5c0d" x="539.599915"/>
     <use xlink:href="#NotoSansTC-Thin-53ef" x="639.599899"/>
     <use xlink:href="#NotoSansTC-Thin-74b0" x="739.599884"/>
     <use xlink:href="#NotoSansTC-Thin-4fdd" x="839.599869"/>
     <use xlink:href="#NotoSansTC-Thin-6027" x="939.599854"/>
     <use xlink:href="#NotoSansTC-Thin-652f" x="1039.599838"/>
     <use xlink:href="#NotoSansTC-Thin-6301" x="1139.599823"/>
     <use xlink:href="#NotoSansTC-Thin-55ce" x="1239.599808"/>
     <use xlink:href="#NotoSansTC-Thin-ff1f" x="1339.599792"/>
    </g>
    <!-- Does your university support sustainability? -->
    <g transform="translate(579.631477 31.078875) scale(0.12 -0.12)">
     <defs>
      <path id="NotoSansTC-Thin-44" d="M 704 0 
L 704 4646 
L 1747 4646 
Q 2470 4646 2931 4358 
Q 3392 4070 3613 3552 
Q 3834 3034 3834 2336 
Q 3834 1645 3613 1117 
Q 3392 589 2931 294 
Q 2470 0 1754 0 
L 704 0 
z
M 941 211 
L 1715 211 
Q 2374 211 2787 486 
Q 3200 762 3392 1245 
Q 3584 1728 3584 2336 
Q 3584 2950 3392 3424 
Q 3200 3898 2787 4166 
Q 2374 4435 1715 4435 
L 941 4435 
L 941 211 
z
" transform="scale(0.015625)"/>
      <path id="NotoSansTC-Thin-76" d="M 1363 0 
L 83 3373 
L 339 3373 
L 1133 1197 
Q 1222 954 1312 707 
Q 1402 461 1485 237 
L 1510 237 
Q 1600 461 1689 707 
Q 1779 954 1862 1197 
L 2662 3373 
L 2899 3373 
L 1638 0 
L 1363 0 
z
" transform="scale(0.015625)"/>
      <path id="NotoSansTC-Thin-62" d="M 1933 -83 
Q 1696 -83 1424 32 
Q 1152 147 915 339 
L 896 339 
L 864 0 
L 672 0 
L 672 5082 
L 902 5082 
L 902 3584 
L 883 2906 
Q 1146 3130 1453 3293 
Q 1760 3456 2074 3456 
Q 2534 3456 2835 3241 
Q 3136 3027 3283 2643 
Q 3430 2259 3430 1734 
Q 3430 1165 3222 755 
Q 3014 346 2675 131 
Q 2336 -83 1933 -83 
z
M 1952 128 
Q 2310 128 2588 333 
Q 2867 538 3027 902 
Q 3187 1267 3187 1734 
Q 3187 2163 3075 2505 
Q 2963 2848 2716 3046 
Q 2470 3245 2054 3245 
Q 1798 3245 1507 3094 
Q 1216 2944 902 2662 
L 902 582 
Q 1190 333 1472 230 
Q 1754 128 1952 128 
z
" transform="scale(0.015625)"/>
      <path id="NotoSansTC-Thin-6c" d="M 1018 -83 
Q 909 -83 832 -35 
Q 755 13 713 115 
Q 672 218 672 378 
L 672 5082 
L 902 5082 
L 902 339 
Q 902 237 940 182 
Q 979 128 1043 128 
Q 1062 128 1088 131 
Q 1114 134 1165 141 
L 1210 -58 
Q 1165 -64 1126 -73 
Q 1088 -83 1018 -83 
z
" transform="scale(0.015625)"/>
     </defs>
     <use xlink:href="#NotoSansTC-Thin-44"/>
     <use xlink:href="#NotoSansTC-Thin-6f" x="66.099991"/>
     <use xlink:href="#NotoSansTC-Thin-65" x="124.699982"/>
     <use xlink:href="#NotoSansTC-Thin-73" x="177.399979"/>
     <use xlink:href="#NotoSansTC-Thin-20" x="221.499969"/>
     <use xlink:href="#NotoSansTC-Thin-79" x="243.499954"/>
     <use xlink:href="#NotoSansTC-Thin-6f" x="290.299942"/>
     <use xlink:href="#NotoSansTC-Thin-75" x="348.899933"/>
     <use xlink:href="#NotoSansTC-Thin-72" x="406.59993"/>
     <use xlink:href="#NotoSansTC-Thin-20" x="440.499924"/>
     <use xlink:href="#NotoSansTC-Thin-75" x="462.499908"/>
     <use xlink:href="#NotoSansTC-Thin-6e" x="520.199905"/>
     <use xlink:href="#NotoSansTC-Thin-69" x="578.19989"/>
     <use xlink:href="#NotoSansTC-Thin-76" x="602.699875"/>
     <use xlink:href="#NotoSansTC-Thin-65" x="649.299866"/>
     <use xlink:href="#NotoSansTC-Thin-72" x="701.999863"/>
     <use xlink:href="#NotoSansTC-Thin-73" x="735.899857"/>
     <use xlink:href="#NotoSansTC-Thin-69" x="779.999847"/>
     <use xlink:href="#NotoSansTC-Thin-74" x="804.499832"/>
     <use xlink:href="#NotoSansTC-Thin-79" x="837.899826"/>
     <use xlink:href="#NotoSansTC-Thin-20" x="884.699814"/>
     <use xlink:href="#NotoSansTC-Thin-73" x="906.699799"/>
     <use xlink:href="#NotoSansTC-Thin-75" x="950.799789"/>
     <use xlink:href="#NotoSansTC-Thin-70" x="1008.499786"/>
     <use xlink:href="#NotoSansTC-Thin-70" x="1067.999771"/>
     <use xlink:href="#NotoSansTC-Thin-6f" x="1127.499756"/>
     <use xlink:href="#NotoSansTC-Thin-72" x="1186.099747"/>
     <use xlink:href="#NotoSansTC-Thin-74" x="1219.999741"/>
     <use xlink:href="#NotoSansTC-Thin-20" x="1253.399734"/>
     <use xlink:href="#NotoSansTC-Thin-73" x="1275.399719"/>
     <use xlink:href="#NotoSansTC-Thin-75" x="1319.49971"/>
     <use xlink:href="#NotoSansTC-Thin-73" x="1377.199707"/>
     <use xlink:href="#NotoSansTC-Thin-74" x="1421.299698"/>
     <use xlink:href="#NotoSansTC-Thin-61" x="1454.699692"/>
     <use xlink:href="#NotoSansTC-Thin-69" x="1508.299683"/>
     <use xlink:href="#NotoSansTC-Thin-6e" x="1532.799667"/>
     <use xlink:href="#NotoSansTC-Thin-61" x="1590.799652"/>
     <use xlink:href="#NotoSansTC-Thin-62" x="1644.399643"/>
     <use xlink:href="#NotoSansTC-Thin-69" x="1703.699631"/>
     <use xlink:href="#NotoSansTC-Thin-6c" x="1728.199615"/>
     <use xlink:href="#NotoSansTC-Thin-69" x="1753.599609"/>
     <use xlink:href="#NotoSansTC-Thin-74" x="1778.099594"/>
     <use xlink:href="#NotoSansTC-Thin-79" x="1811.499588"/>
     <use xlink:href="#NotoSansTC-Thin-3f" x="1858.299576"/>
    </g>
   </g>
  </g>
 </g>
 <defs>
  <clipPath id="p8be02e4084">
   <rect x="46.965625" y="37.078875" width="380.454545" height="277.2"/>
  </clipPath>
  <clipPath id="p3a0ec520e4">
   <rect x="503.51108" y="37.078875" width="380.454545" height="277.2"/>
  </clipPath>
 </defs>
</svg>
